<?xml version="1.0" encoding="UTF-8"?>
<svg viewBox="0 0 589.42859 109.571" xmlns="http://www.w3.org/2000/svg">
 <defs>
  <filter id="a">
   <feGaussianBlur stdDeviation=".58672"/>
  </filter>
 </defs>
 <g transform="translate(-4.3571 -19.577)" fill-rule="evenodd" stroke="#000">
  <g transform="translate(-105,-200)">
   <path transform="matrix(.99975 0 0 1.0553 247.9 -7.028)" d="m211.43 266.65a54.286 51.429 0 1 1 -108.57 0 54.286 51.429 0 1 1 108.57 0z" fill="#fff" filter="url(#a)"/>
   <path transform="matrix(.70219 -.033524 .034618 .68 263.88 -25.238)" d="m233 452.36-44.049 22.432-44.049 22.432 2.5981-49.363 2.5981-49.363 41.451 26.932 41.451 26.932z" fill="#2c2c2c" stroke-opacity=".18257"/>
   <path d="m404.51 221.23c-29.13 1e-5 -52.781 24.323-52.781 54.281 46.899-10.605 58.321-10.745 105.53 0 1e-5 -29.958-23.62-54.281-52.75-54.281z" fill="#fff" opacity=".5" stroke-opacity=".18257"/>
  </g>
 </g>
</svg>
