<svg id="图层_1" data-name="图层 1" xmlns="http://www.w3.org/2000/svg" viewBox="0 0 20 20"><defs><style>.cls-1{fill:#333;}</style></defs><title>btn_search</title><path class="cls-1" d="M14,10.1A4.89,4.89,0,1,0,18.9,15,4.9,4.9,0,0,0,14,10.1Zm0,8.79A3.89,3.89,0,1,1,17.9,15,3.9,3.9,0,0,1,14,18.88Z"/><polygon class="cls-1" points="14.5 13.07 13.5 13.07 13.5 14.49 12.09 14.49 12.09 15.49 13.5 15.49 13.5 16.91 14.5 16.91 14.5 15.49 15.92 15.49 15.92 14.49 14.5 14.49 14.5 13.07"/><path class="cls-1" d="M15,4.48c-.05-3.31-12.37-3.31-12.42,0h0v9.17h0c.19,1.67,3.2,2.54,6.2,2.54.5,0,1,0,1.5-.08a3.56,3.56,0,0,1-.7-1c-.26,0-.52,0-.81,0-3.12,0-5.2-1-5.2-1.62h0V12.06a10.83,10.83,0,0,0,5.2,1.09h.56a3.51,3.51,0,0,1,.32-1c-.29,0-.57,0-.88,0-3.12,0-5.2-.92-5.2-1.52h0V9a10.83,10.83,0,0,0,5.2,1.09A10.83,10.83,0,0,0,14,9v1.3a3.52,3.52,0,0,1,1,.54V4.48ZM8.79,3C11.91,3,14,3.9,14,4.5S11.91,6,8.79,6s-5.2-.92-5.2-1.52S5.66,3,8.79,3ZM14,7.55h0c0,.61-2.07,1.52-5.2,1.52s-5.2-.92-5.2-1.52h0V6A10.83,10.83,0,0,0,8.79,7,10.83,10.83,0,0,0,14,6Z"/></svg>