<svg id="图层_1" data-name="图层 1" xmlns="http://www.w3.org/2000/svg" viewBox="0 0 20 20"><defs><style>.cls-1,.cls-2{fill:#333;}.cls-2{fill-rule:evenodd;}</style></defs><title>btn_search</title><rect class="cls-1" x="11.6" y="14.23" width="5.09" height="1"/><rect class="cls-1" x="13.65" y="12.18" width="1" height="5.09"/><path class="cls-2" d="M15.11,10.41h0V3.5A1.5,1.5,0,0,0,13.61,2H2.5A1.5,1.5,0,0,0,1,3.5v9.8a1.5,1.5,0,0,0,1.5,1.5H9.72a4.43,4.43,0,1,0,5.39-4.39Zm-.21,0a4.4,4.4,0,0,0-.73-.07A4.26,4.26,0,0,1,14.9,10.38Zm-5-.36H6.28l0-2.75H9.87Zm1.87,1a4.51,4.51,0,0,1,.59-.32,4.43,4.43,0,0,0-1.53,1.16l.07-.09V11Zm-.87-1V7.27h3.24V10Zm3.24.29a4.41,4.41,0,0,0-.76.08A4.35,4.35,0,0,1,14.12,10.3Zm-1,.14a4.38,4.38,0,0,0-.48.15A4.37,4.37,0,0,1,13.1,10.44ZM2,3.5A.5.5,0,0,1,2.5,3H13.61a.5.5,0,0,1,.5.5V6.27H2Zm8.32,9-.09.17ZM5.24,13.8H2.5a.5.5,0,0,1-.5-.5V11H5.27Zm0-3.78H2V7.27H5.31Zm1,1h3.6v2.6c0,.06,0,.12-.06.18H6.24Zm7.87,7.14a3.43,3.43,0,1,1,3.43-3.43A3.43,3.43,0,0,1,14.15,18.16Z"/></svg>