<svg id="图层_1" data-name="图层 1" xmlns="http://www.w3.org/2000/svg" viewBox="0 0 20 20"><defs><style>.cls-1{fill:#333;fill-rule:evenodd;}</style></defs><title>btn_search</title><path class="cls-1" d="M18.64,12.08,17.42,10h0l-.3-.52h0l-.52.3h0L14.5,11l.3.52,1.34-.77v.07a5.54,5.54,0,0,1-5.41,5.32,5.4,5.4,0,0,1-4.87-3.19l-.93.24a6.36,6.36,0,0,0,5.8,3.93,6.51,6.51,0,0,0,6.35-6.3v-.2l1,1.8Z"/><path class="cls-1" d="M6.73,8.4l-1.59.9V9.21A5.6,5.6,0,0,1,10.78,4a5.45,5.45,0,0,1,4.79,3.4l.95-.21A6.41,6.41,0,0,0,10.82,3,6.58,6.58,0,0,0,4.21,9.1L3.31,7.3l-.56.32,1.48,3h0L7,9Z"/></svg>