<?xml version="1.0" encoding="UTF-8"?>
<svg width="20px" height="20px" viewBox="0 0 20 20" version="1.1" xmlns="http://www.w3.org/2000/svg" xmlns:xlink="http://www.w3.org/1999/xlink">
    <!-- Generator: Sketch 52.2 (67145) - http://www.bohemiancoding.com/sketch -->
    <title>Artboard@3x</title>
    <desc>Created with Sketch.</desc>
    <g id="Artboard" stroke="none" stroke-width="1" fill="none" fill-rule="evenodd">
        <g id="Group-9" transform="translate(4.000000, 1.000000)">
            <polyline id="Path" stroke="#333333" points="7 14 0 14 -1.66533454e-16 1 8 1 12 5 12 10.96"></polyline>
            <g id="Group-5" transform="translate(10.500000, 15.000000) rotate(-45.000000) translate(-10.500000, -15.000000) translate(6.500000, 9.500000)">
                <circle id="Oval" stroke="#333333" cx="4.43952092" cy="4.43993343" r="3.5"></circle>
                <rect id="Rectangle" fill="#333333" x="3.93952092" y="7.93993343" width="1" height="3" rx="0.5"></rect>
            </g>
            <path d="M4.04092528,8.56540739 C4.04092528,8.77605042 3.98983247,8.96530954 3.8876453,9.13319045 C3.78545814,9.30107135 3.6359091,9.4325233 3.4389937,9.52755023 C3.24207829,9.62257715 3.0086177,9.67008991 2.73860491,9.67008991 C2.41488791,9.67008991 2.1478627,9.60515581 1.93752124,9.47528568 C1.7883429,9.38184253 1.66713732,9.25712156 1.57390086,9.10111902 C1.4806644,8.94511648 1.43404687,8.79347162 1.43404687,8.64617988 C1.43404687,8.56065564 1.46201739,8.48740682 1.51795926,8.42643121 C1.57390114,8.36545559 1.64513273,8.33496825 1.73165616,8.33496825 C1.80176998,8.33496825 1.86106748,8.35872462 1.90955044,8.40623809 C1.9580334,8.45375155 1.99942977,8.5242288 2.03374079,8.61767194 C2.07551072,8.72853669 2.12063649,8.82118656 2.16911945,8.89562432 C2.21760241,8.97006208 2.28585048,9.03143271 2.37386569,9.07973807 C2.46188091,9.12804342 2.57749239,9.15219574 2.72070359,9.15219574 C2.917619,9.15219574 3.07761037,9.10349517 3.2006825,9.00609257 C3.32375462,8.90868997 3.38528977,8.78713651 3.38528977,8.64142856 C3.38528977,8.52581246 3.35209808,8.43197478 3.28571372,8.35991269 C3.21932936,8.2878506 3.13355311,8.232815 3.02838238,8.19480423 C2.92321165,8.15679346 2.78261318,8.11640762 2.60658274,8.0736455 C2.37088096,8.01504556 2.17359557,7.94654801 2.01472064,7.8681508 C1.85584571,7.78975358 1.72979191,7.68284989 1.63655545,7.54743652 C1.54331899,7.41202315 1.49670146,7.24374882 1.49670146,7.04260849 C1.49670146,6.85097085 1.54592957,6.68071683 1.64438727,6.53184131 C1.74284497,6.38296579 1.88530815,6.26853924 2.07178107,6.18855825 C2.25825399,6.10857725 2.47754286,6.06858735 2.72965425,6.06858735 C2.93104501,6.06858735 3.1052081,6.0951153 3.25214876,6.148172 C3.39908943,6.20122871 3.52104089,6.27170595 3.61800681,6.35960586 C3.71497273,6.44750577 3.78583137,6.53975969 3.83058488,6.6363704 C3.87533838,6.73298111 3.89771479,6.82721474 3.89771479,6.9190741 C3.89771479,7.00301455 3.86974427,7.07863902 3.8138024,7.14594976 C3.75786052,7.2132605 3.68812069,7.24691536 3.60458082,7.24691536 C3.52849987,7.24691536 3.47069413,7.22672244 3.43116187,7.186336 C3.39162962,7.14594955 3.34874149,7.07982764 3.3024962,6.98796828 C3.24282487,6.85651436 3.17122034,6.75396601 3.08768047,6.68032014 C3.0041406,6.60667427 2.86988211,6.56985189 2.68490097,6.56985189 C2.51334588,6.56985189 2.37498505,6.60984179 2.26981432,6.68982278 C2.1646436,6.76980378 2.11205902,6.8660171 2.11205902,6.97846563 C2.11205902,7.04815205 2.12996015,7.10833487 2.16576295,7.15901589 C2.20156576,7.20969692 2.25079387,7.25325028 2.31344877,7.28967727 C2.37610367,7.32610426 2.43950351,7.35461191 2.5036502,7.37520107 C2.56779688,7.39579024 2.67371192,7.42588165 2.82139847,7.4654762 C3.00637961,7.51140589 3.17382978,7.56208615 3.32375401,7.61751853 C3.47367824,7.6729509 3.6012238,7.74026063 3.70639453,7.81944974 C3.81156526,7.89863885 3.89361211,7.99881156 3.95253756,8.1199709 C4.011463,8.24113023 4.04092528,8.38960758 4.04092528,8.56540739 Z M7.24302228,9.17832801 C7.3399882,9.24801443 7.44590323,9.3157201 7.56077055,9.38144706 C7.67563787,9.44717401 7.75171768,9.49943804 7.78901227,9.5382407 C7.82630685,9.57704336 7.84495386,9.63207897 7.84495386,9.70334916 C7.84495386,9.75403019 7.82295039,9.80471046 7.77894278,9.85539149 C7.73493517,9.90607252 7.68160471,9.93141265 7.61894981,9.93141265 C7.56822918,9.93141265 7.50669404,9.91399131 7.43434254,9.8791481 C7.36199105,9.84430489 7.27696067,9.79362463 7.17924886,9.72710578 C7.08153705,9.66058693 6.9745032,9.58298277 6.8581441,9.49429097 C6.64183551,9.61149085 6.37630205,9.67008991 6.06153576,9.67008991 C5.8064408,9.67008991 5.57782843,9.62693249 5.37569178,9.54061636 C5.17355513,9.45430024 5.00386732,9.32997521 4.86662325,9.16763754 C4.72937918,9.00529987 4.62607473,8.81247729 4.5567068,8.58916401 C4.48733888,8.36585073 4.45265543,8.12274382 4.45265543,7.85983598 C4.45265543,7.5921768 4.48883064,7.34669425 4.56118213,7.12338097 C4.63353362,6.90006769 4.73832983,6.71001669 4.8755739,6.55322226 C5.01281797,6.39642783 5.17989521,6.27645813 5.37681061,6.19330957 C5.57372602,6.11016101 5.79749017,6.06858735 6.04810977,6.06858735 C6.38823638,6.06858735 6.6802486,6.14183617 6.92415518,6.28833602 C7.16806176,6.43483587 7.35266718,6.64310009 7.47797699,6.91313495 C7.60328679,7.1831698 7.66594075,7.50031742 7.66594075,7.8645873 C7.66594075,8.41732727 7.52496934,8.85523646 7.24302228,9.17832801 Z M6.7216466,8.79347088 C6.81413717,8.68102235 6.88238523,8.54798665 6.92639284,8.39435978 C6.97040045,8.24073291 6.99240393,8.06256009 6.99240393,7.85983598 C6.99240393,7.60484706 6.95361814,7.38391277 6.87604541,7.19702648 C6.79847267,7.01014018 6.68770942,6.86878975 6.54375232,6.77297093 C6.39979523,6.67715211 6.23458269,6.62924342 6.04810977,6.62924342 C5.91534105,6.62924342 5.79264371,6.65577137 5.68001407,6.70882807 C5.56738442,6.76188478 5.47041996,6.839093 5.38911776,6.94045505 C5.30781557,7.04181711 5.24366985,7.17128936 5.19667867,7.32887568 C5.14968749,7.486462 5.12619226,7.663447 5.12619226,7.85983598 C5.12619226,8.26053286 5.21420616,8.5689698 5.39023659,8.78515607 C5.56626703,9.00134233 5.78853942,9.10943383 6.05706043,9.10943383 C6.1674524,9.10943383 6.28082623,9.08488558 6.39718534,9.03578833 C6.32707152,8.98035596 6.23943056,8.92492442 6.13425983,8.86949204 C6.0290891,8.81405967 5.95711164,8.77129819 5.91832527,8.74120633 C5.8795389,8.71111447 5.86014601,8.66835299 5.86014601,8.61292062 C5.86014601,8.56540716 5.87879302,8.52343756 5.9160876,8.48701057 C5.95338219,8.45058358 5.99440562,8.43237036 6.03915912,8.43237036 C6.1749114,8.43237036 6.40240496,8.552736 6.7216466,8.79347088 Z M8.88546756,6.49620639 L8.88546756,9.03103701 L10.2325412,9.03103701 C10.3399496,9.03103701 10.4223694,9.05875278 10.4798031,9.11418516 C10.5372367,9.16961753 10.5659531,9.2393029 10.5659531,9.32324335 C10.5659531,9.40876759 10.5376097,9.47805702 10.4809219,9.53111372 C10.4242341,9.58417042 10.3414414,9.61069837 10.2325412,9.61069837 L8.62813622,9.61069837 C8.48343323,9.61069837 8.3793829,9.57664757 8.31598211,9.50854494 C8.25258131,9.4404423 8.22088139,9.3303711 8.22088139,9.17832801 L8.22088139,6.49620639 C8.22088139,6.353666 8.25108955,6.2467623 8.31150678,6.17549211 C8.37192401,6.10422191 8.45136028,6.06858735 8.54981798,6.06858735 C8.64976747,6.06858735 8.7306955,6.10382597 8.79260451,6.17430428 C8.85451352,6.24478258 8.88546756,6.35208221 8.88546756,6.49620639 Z" id="SQL" fill="#333333"></path>
            <polyline id="Path-2" stroke="#333333" points="8 0.874628198 8 5.08020889 11.9108567 5.08020889"></polyline>
        </g>
    </g>
</svg>