<?xml version="1.0" standalone="no"?><!DOCTYPE svg PUBLIC "-//W3C//DTD SVG 1.1//EN" "http://www.w3.org/Graphics/SVG/1.1/DTD/svg11.dtd"><svg t="1556504426169" class="icon" style="" viewBox="0 0 1024 1024" version="1.1" xmlns="http://www.w3.org/2000/svg" p-id="2010" xmlns:xlink="http://www.w3.org/1999/xlink" width="8" height="8"><defs><style type="text/css"></style></defs><path d="M858.112 890.368H322.048c-14.848 0-26.624-11.776-26.624-26.624v-160.256c-6.144 4.096-13.824 7.168-20.992 9.728h-1.024c-9.728 3.072-19.968 4.096-29.696 4.096-57.856 0-104.448-47.616-104.448-104.448 0-57.856 47.616-104.448 104.448-104.448 10.752 0 20.992 2.048 31.744 5.12 1.024 0 2.048 1.024 3.072 1.024 5.12 2.048 10.752 4.096 14.848 6.144l2.048 1.024V327.68c0-14.848 11.776-26.624 26.624-26.624h172.032l-3.072-6.144c-5.12-8.192-9.728-16.896-11.776-26.624v-1.024c-3.072-9.728-4.096-19.968-4.096-29.696 0-57.856 47.616-104.448 104.448-104.448 57.856 0 104.448 47.616 104.448 104.448 0 10.752-2.048 20.992-5.12 31.744 0 1.024-1.024 2.048-1.024 3.072-2.048 5.12-4.096 10.752-6.144 14.848l-5.12 12.8h192c14.848 0 26.624 11.776 26.624 26.624V563.2c0 8.192-4.096 16.896-11.776 22.016-7.168 5.12-16.896 5.12-25.088 2.048l-45.568-19.968c-1.024 0-1.024-1.024-2.048-1.024-2.048-1.024-5.12-3.072-8.192-4.096h-1.024c-5.12-2.048-10.752-2.048-15.872-2.048-28.672 0-51.712 23.04-51.712 51.712s23.04 51.712 51.712 51.712c5.12 0 10.752-1.024 14.848-2.048 5.12-1.024 9.728-4.096 13.824-6.144 1.024-1.024 2.048-1.024 3.072-2.048l39.936-18.944c8.192-4.096 17.92-3.072 25.088 1.024 7.168 4.096 12.8 13.824 12.8 22.016v206.848c-1.024 14.336-12.288 26.112-27.136 26.112z m-509.44-52.736h483.328v-137.216h-1.024c-8.192 5.12-16.896 9.728-26.624 12.8h-1.024c-9.728 3.072-19.968 4.096-29.696 4.096-57.856 0-104.448-47.616-104.448-104.448 0-57.856 47.616-104.448 104.448-104.448 10.752 0 20.992 2.048 31.744 5.12 1.024 0 2.048 1.024 3.072 1.024 5.12 2.048 10.752 4.096 14.848 6.144l7.168 3.072v-168.96H624.64c-8.192 0-16.896-4.096-22.016-11.776-5.12-7.168-5.12-16.896-2.048-25.088l22.016-50.688c0-1.024 1.024-1.024 1.024-2.048 1.024-2.048 3.072-5.12 4.096-8.192V256c2.048-5.12 2.048-10.752 2.048-15.872 0-28.672-23.04-51.712-51.712-51.712s-51.712 23.04-51.712 51.712c0 5.12 1.024 10.752 2.048 14.848 1.024 5.12 4.096 9.728 6.144 13.824 1.024 1.024 1.024 2.048 2.048 3.072l20.992 45.568c4.096 8.192 3.072 17.92-1.024 25.088-4.096 7.168-13.824 12.8-22.016 12.8H348.672v206.848c0 8.192-4.096 16.896-11.776 22.016-7.168 5.12-16.896 5.12-25.088 2.048L271.36 568.32c-1.024 0-1.024-1.024-2.048-1.024-2.048-1.024-5.12-3.072-8.192-4.096h-1.024c-5.12-2.048-10.752-2.048-15.872-2.048-28.672 0-51.712 23.04-51.712 51.712s23.04 51.712 51.712 51.712c5.12 0 10.752-1.024 14.848-2.048 5.12-1.024 9.728-4.096 13.824-6.144 1.024-1.024 2.048-1.024 3.072-2.048l34.816-16.896c8.192-4.096 17.92-3.072 25.088 1.024 7.168 5.12 12.8 13.824 12.8 22.016v177.152z" fill="#ffffff" p-id="2011"></path></svg>