<?xml version="1.0" encoding="utf-8"?>
<!-- Generator: Adobe Illustrator 21.0.0, SVG Export Plug-In . SVG Version: 6.00 Build 0)  -->
<svg version="1.1" id="图层_1" xmlns="http://www.w3.org/2000/svg" xmlns:xlink="http://www.w3.org/1999/xlink" x="0px" y="0px"
	 viewBox="0 0 18 18" style="enable-background:new 0 0 18 18;" xml:space="preserve">
<style type="text/css">
	.st0{fill:#333333;}
	.st1{display:none;}
	.st2{display:inline;}
</style>
<title>混淆矩阵</title>
<desc>Created with Sketch.</desc>
<g id="_x31_.0">
	<g id="图标介绍" transform="translate(-24.000000, -547.000000)">
		<g id="混淆矩阵" transform="translate(24.000000, 547.000000)">
			<path class="st0" d="M11.8,4.8v0.1c0,1.1-1.3,1.9-2.8,1.9S6.2,6,6.2,4.9V4.8L4,6.1L9,9l5-2.9L11.8,4.8z M11.2,4.3
				C10.6,4.7,9.9,5,9,5C7.5,5,6.2,4.2,6.2,3.1S7.5,1.2,9,1.2s2.8,0.8,2.8,1.9c0,0.2,0,0.4-0.1,0.5l-0.1-0.1L11.2,4.3z M11.8,3.7
				l3,1.7c0.4,0.3,0.7,0.7,0.7,1.2v5.9c0,0.5-0.3,1-0.7,1.2l-5.1,2.9c-0.4,0.3-1,0.3-1.4,0l-5.1-2.9c-0.4-0.3-0.7-0.7-0.7-1.2V6.6
				c0-0.5,0.3-1,0.7-1.2l3-1.7V3.1h1v1.8C7.2,5.3,8,5.8,9,5.8s1.8-0.5,1.8-0.9V3.1h1V3.7z M8.5,15.6V9.8l-5-2.9v5.5
				c0,0.2,0.1,0.3,0.2,0.4L8.5,15.6z M9.5,15.6l4.8-2.8c0.1-0.1,0.2-0.2,0.2-0.4V6.9l-5,2.9V15.6z M9,4c1,0,1.8-0.5,1.8-0.9
				S10,2.2,9,2.2S7.2,2.7,7.2,3.1S8,4,9,4z"/>
		</g>
	</g>
</g>
<g id="_x31_.0_1_" class="st1">
	<g id="图标介绍_1_" transform="translate(-24.000000, -464.000000)" class="st2">
		
			<g id="缺失值填充" transform="translate(31.500000, 471.500000) rotate(45.000000) translate(-31.500000, -471.500000) translate(24.000000, 464.000000)">
			<path class="st0" d="M9.6,1.5c-3.3,0-6,2.7-6,6s2.7,6,6,6V1.5z M9.6,14.5c-3.9,0-7-3.1-7-7s3.1-7,7-7s7,3.1,7,7
				S13.5,14.5,9.6,14.5z"/>
		</g>
	</g>
</g>
</svg>
