<?xml version="1.0" encoding="UTF-8"?>
<svg width="12px" height="15px" viewBox="0 0 12 15" version="1.1" xmlns="http://www.w3.org/2000/svg" xmlns:xlink="http://www.w3.org/1999/xlink">
    <!-- Generator: Sketch 53.2 (72643) - https://sketchapp.com -->
    <title>预测</title>
    <desc>Created with Sketch.</desc>
    <g id="1.0" stroke="none" stroke-width="1" fill="none" fill-rule="evenodd">
        <g id="算法实验-实验开发" transform="translate(-1181.000000, -506.000000)" fill="#333333" fill-rule="nonzero">
            <g id="图标介绍" transform="translate(1156.000000, 278.000000)">
                <g id="icon" transform="translate(24.000000, 71.000000)">
                    <path d="M11.9628906,161.878906 C12.1451832,162.061199 12.2363281,162.289061 12.2363281,162.5625 L12.2363281,170.765625 C12.2363281,171.039064 12.1429046,171.271483 11.9560547,171.462891 C11.7692048,171.654298 11.5390639,171.75 11.265625,171.75 L2.74804688,171.75 C2.47460801,171.75 2.23990983,171.654298 2.04394531,171.462891 C1.84798079,171.271483 1.75,171.039064 1.75,170.765625 L1.75,158.734375 C1.75,158.460936 1.84798079,158.228517 2.04394531,158.037109 C2.23990983,157.845702 2.47460801,157.75 2.74804688,157.75 L7.46484375,157.75 C7.60156318,157.75 7.73372332,157.777343 7.86132812,157.832031 C7.87955738,157.841146 7.89322912,157.85026 7.90234375,157.859375 C7.91145838,157.859375 7.92968736,157.868489 7.95703125,157.886719 C8.02994828,157.932292 8.09830697,157.982422 8.16210938,158.037109 L11.9628906,161.878906 Z M7.97070312,159.253906 L7.97070312,162.015625 L10.71875,162.015625 L7.97070312,159.253906 Z M11.2519531,170.765625 L11.2519531,163 L7.984375,163 C7.71093613,163 7.47623796,162.904298 7.28027344,162.712891 C7.08430892,162.521483 6.98632812,162.289064 6.98632812,162.015625 L6.98632812,158.734375 L2.734375,158.734375 L2.734375,170.765625 L11.2519531,170.765625 Z M6.97265625,165.501953 C6.97265625,165.33789 6.92252654,165.210287 6.82226562,165.119141 C6.72200471,165.027994 6.58984457,164.982422 6.42578125,164.982422 C6.17057164,164.982422 5.90625137,165.114582 5.6328125,165.378906 L4.88085938,164.681641 C5.35482008,164.143878 5.92447584,163.875 6.58984375,163.875 C7.10026297,163.875 7.51269374,164.002603 7.82714844,164.257812 C8.14160313,164.513022 8.29882812,164.895831 8.29882812,165.40625 C8.29882812,165.597657 8.25325566,165.782226 8.16210938,165.959961 C8.07096309,166.137696 7.96158918,166.292643 7.83398438,166.424805 C7.70637957,166.556967 7.5810553,166.689127 7.45800781,166.821289 C7.33496032,166.953451 7.23470091,167.10384 7.15722656,167.272461 C7.07975222,167.441082 7.05468736,167.621093 7.08203125,167.8125 L5.87890625,167.8125 C5.83333311,167.539061 5.86295521,167.279298 5.96777344,167.033203 C6.07259167,166.787108 6.20247318,166.588868 6.35742188,166.438477 C6.51237057,166.288085 6.6536452,166.126303 6.78125,165.953125 C6.9088548,165.779947 6.97265625,165.629558 6.97265625,165.501953 Z M5.90625,169.152344 C5.90625,168.979166 5.96093695,168.837891 6.0703125,168.728516 C6.17968805,168.61914 6.31412681,168.564453 6.47363281,168.564453 C6.63313882,168.564453 6.76757758,168.621419 6.87695312,168.735352 C6.98632867,168.849284 7.04101562,168.98828 7.04101562,169.152344 C7.04101562,169.316407 6.98632867,169.455403 6.87695312,169.569336 C6.76757758,169.683269 6.63313882,169.740234 6.47363281,169.740234 C6.31412681,169.740234 6.17968805,169.683269 6.0703125,169.569336 C5.96093695,169.455403 5.90625,169.316407 5.90625,169.152344 Z" id="预测"></path>
                </g>
            </g>
        </g>
    </g>
</svg>