<?xml version="1.0" encoding="UTF-8"?>
<svg width="14px" height="13px" viewBox="0 0 14 13" version="1.1" xmlns="http://www.w3.org/2000/svg" xmlns:xlink="http://www.w3.org/1999/xlink">
    <!-- Generator: Sketch 53.2 (72643) - https://sketchapp.com -->
    <title>评估</title>
    <desc>Created with Sketch.</desc>
    <g id="1.0" stroke="none" stroke-width="1" fill="none" fill-rule="evenodd">
        <g id="算法实验-实验开发" transform="translate(-1180.000000, -538.000000)" fill="#333333" fill-rule="nonzero">
            <g id="图标介绍" transform="translate(1156.000000, 278.000000)">
                <g id="icon" transform="translate(24.000000, 71.000000)">
                    <path d="M12.6191406,201.875 L1.35351562,201.875 C1.21679619,201.875 1.10058642,201.827149 1.00488281,201.731445 C0.909179209,201.635742 0.861328125,201.519532 0.861328125,201.382812 L0.861328125,190.103516 C0.861328125,189.966796 0.909179209,189.850586 1.00488281,189.754883 C1.10058642,189.659179 1.21679619,189.611328 1.35351562,189.611328 C1.49023506,189.611328 1.60644483,189.659179 1.70214844,189.754883 C1.79785204,189.850586 1.84570312,189.966796 1.84570312,190.103516 L1.84570312,200.890625 L12.6191406,200.890625 C12.7558601,200.890625 12.8720698,200.938476 12.9677734,201.03418 C13.063477,201.129883 13.1113281,201.246093 13.1113281,201.382812 C13.1113281,201.519532 13.063477,201.635742 12.9677734,201.731445 C12.8720698,201.827149 12.7558601,201.875 12.6191406,201.875 Z M5.26367187,198.908203 C5.09049393,198.908203 4.95377654,198.835287 4.85351562,198.689453 L2.70703125,195.271484 C2.63411422,195.152994 2.61132799,195.02767 2.63867187,194.895508 C2.66601576,194.763346 2.73665308,194.660808 2.85058594,194.587891 C2.9645188,194.514974 3.08756444,194.492187 3.21972656,194.519531 C3.35188868,194.546875 3.45442672,194.615234 3.52734375,194.724609 L5.05859375,197.212891 L5.6875,194.792969 C5.72395852,194.647135 5.81054619,194.542318 5.94726562,194.478516 L8.43554687,193.275391 C8.55403705,193.220703 8.67252545,193.20931 8.79101562,193.241211 C8.9095058,193.273112 9.00520797,193.343749 9.078125,193.453125 L10.3222656,195.476562 L12.1542969,189.966797 C12.19987,189.839192 12.2819004,189.74349 12.4003906,189.679688 C12.5188808,189.615885 12.6419264,189.606771 12.7695312,189.652344 C12.8971361,189.697917 12.9928382,189.779947 13.0566406,189.898438 C13.120443,190.016928 13.1295575,190.139973 13.0839844,190.267578 L10.9238281,196.789062 C10.8600257,196.989584 10.7233083,197.101237 10.5136719,197.124023 C10.3040354,197.14681 10.1445318,197.071615 10.0351562,196.898438 L8.46289062,194.355469 L6.58984375,195.257812 L5.7421875,198.539062 C5.68749973,198.748699 5.55533959,198.867187 5.34570312,198.894531 C5.31835924,198.903646 5.29101576,198.908203 5.26367187,198.908203 Z" id="评估"></path>
                </g>
            </g>
        </g>
    </g>
</svg>