<?xml version="1.0" encoding="UTF-8"?>
<svg width="13px" height="13px" viewBox="0 0 13 13" version="1.1" xmlns="http://www.w3.org/2000/svg" xmlns:xlink="http://www.w3.org/1999/xlink">
    <!-- Generator: Sketch 53.2 (72643) - https://sketchapp.com -->
    <title>数据合并</title>
    <desc>Created with Sketch.</desc>
    <g id="1.0" stroke="none" stroke-width="1" fill="none" fill-rule="evenodd">
        <g id="算法实验-实验开发" transform="translate(-1180.000000, -415.000000)" fill="#333333" fill-rule="nonzero">
            <g id="图标介绍" transform="translate(1156.000000, 278.000000)">
                <g id="icon" transform="translate(24.000000, 71.000000)">
                    <path d="M9.515625,68.734375 L0.984375,68.734375 L0.984375,77.265625 L9.515625,77.265625 L9.515625,68.734375 Z M9.515625,67.75 C9.78906387,67.75 10.0214834,67.8457022 10.2128906,68.0371094 C10.4042978,68.2285166 10.5,68.4609361 10.5,68.734375 L10.5,77.265625 C10.5,77.5390639 10.4042978,77.7714834 10.2128906,77.9628906 C10.0214834,78.1542978 9.78906387,78.25 9.515625,78.25 L0.984375,78.25 C0.710936133,78.25 0.478516582,78.1542978 0.287109375,77.9628906 C0.095702168,77.7714834 0,77.5390639 0,77.265625 L0,68.734375 C0,68.4609361 0.095702168,68.2285166 0.287109375,68.0371094 C0.478516582,67.8457022 0.710936133,67.75 0.984375,67.75 L9.515625,67.75 Z M11.265625,66 C11.5390639,66 11.7714834,66.0957022 11.9628906,66.2871094 C12.1542978,66.4785166 12.25,66.7109361 12.25,66.984375 L12.25,76.0078125 C12.25,76.1445319 12.2021489,76.2607417 12.1064453,76.3564453 C12.0107417,76.4521489 11.8945319,76.5 11.7578125,76.5 C11.6210931,76.5 11.5048833,76.4521489 11.4091797,76.3564453 C11.3134761,76.2607417 11.265625,76.1445319 11.265625,76.0078125 L11.265625,66.984375 L2.2421875,66.984375 C2.10546807,66.984375 1.98925829,66.9365239 1.89355469,66.8408203 C1.79785108,66.7451167 1.75,66.6289069 1.75,66.4921875 C1.75,66.3554681 1.79785108,66.2392583 1.89355469,66.1435547 C1.98925829,66.0478511 2.10546807,66 2.2421875,66 L11.265625,66 Z" id="数据合并"></path>
                </g>
            </g>
        </g>
    </g>
</svg>