<?xml version="1.0" encoding="UTF-8"?>
<svg width="14px" height="14px" viewBox="0 0 14 14" version="1.1" xmlns="http://www.w3.org/2000/svg" xmlns:xlink="http://www.w3.org/1999/xlink">
    <!-- Generator: Sketch 53.2 (72643) - https://sketchapp.com -->
    <title>数据预处理</title>
    <desc>Created with Sketch.</desc>
    <g id="1.0" stroke="none" stroke-width="1" fill="none" fill-rule="evenodd">
        <g id="算法实验-实验开发" transform="translate(-1180.000000, -445.000000)" fill="#333333" fill-rule="nonzero">
            <g id="图标介绍" transform="translate(1156.000000, 278.000000)">
                <g id="icon" transform="translate(24.000000, 71.000000)">
                    <path d="M11,97.5 C10.7238576,97.5 10.5,97.2761424 10.5,97 C10.5,96.7238576 10.7238576,96.5 11,96.5 C12.3807119,96.5 13.5,97.6192881 13.5,99 C13.5,99.2761424 13.2761424,99.5 13,99.5 C12.7238576,99.5 12.5,99.2761424 12.5,99 C12.5,98.1715729 11.8284271,97.5 11,97.5 Z M12.5,107 C12.5,106.723858 12.7238576,106.5 13,106.5 C13.2761424,106.5 13.5,106.723858 13.5,107 C13.5,108.380712 12.3807119,109.5 11,109.5 C10.7238576,109.5 10.5,109.276142 10.5,109 C10.5,108.723858 10.7238576,108.5 11,108.5 C11.8284271,108.5 12.5,107.828427 12.5,107 Z M3,108.5 C3.27614237,108.5 3.5,108.723858 3.5,109 C3.5,109.276142 3.27614237,109.5 3,109.5 C1.61928813,109.5 0.5,108.380712 0.5,107 C0.5,106.723858 0.723857625,106.5 1,106.5 C1.27614237,106.5 1.5,106.723858 1.5,107 C1.5,107.828427 2.17157288,108.5 3,108.5 Z M1.5,99 C1.5,99.2761424 1.27614237,99.5 1,99.5 C0.723857625,99.5 0.5,99.2761424 0.5,99 C0.5,97.6192881 1.61928813,96.5 3,96.5 C3.27614237,96.5 3.5,96.7238576 3.5,97 C3.5,97.2761424 3.27614237,97.5 3,97.5 C2.17157288,97.5 1.5,98.1715729 1.5,99 Z M5,100 L9,100 C9.55228475,100 10,100.447715 10,101 L10,105 C10,105.552285 9.55228475,106 9,106 L5,106 C4.44771525,106 4,105.552285 4,105 L4,101 C4,100.447715 4.44771525,100 5,100 Z M2.47460938,105.566406 C2.38346309,105.657553 2.26953193,105.703125 2.1328125,105.703125 L0.4921875,105.703125 C0.355468066,105.703125 0.239258291,105.655274 0.143554688,105.55957 C0.047851084,105.463867 0,105.347657 0,105.210938 C0,105.074218 0.047851084,104.958008 0.143554688,104.862305 C0.239258291,104.766601 0.355468066,104.71875 0.4921875,104.71875 L2.1328125,104.71875 C2.26953193,104.71875 2.38574171,104.766601 2.48144531,104.862305 C2.57714892,104.958008 2.625,105.074218 2.625,105.210938 C2.625,105.347657 2.57487029,105.466145 2.47460938,105.566406 Z M13.4746094,105.566406 C13.3834631,105.657553 13.2695319,105.703125 13.1328125,105.703125 L11.4921875,105.703125 C11.3554681,105.703125 11.2392583,105.655274 11.1435547,105.55957 C11.0478511,105.463867 11,105.347657 11,105.210938 C11,105.074218 11.0478511,104.958008 11.1435547,104.862305 C11.2392583,104.766601 11.3554681,104.71875 11.4921875,104.71875 L13.1328125,104.71875 C13.2695319,104.71875 13.3857417,104.766601 13.4814453,104.862305 C13.5771489,104.958008 13.625,105.074218 13.625,105.210938 C13.625,105.347657 13.5748703,105.466145 13.4746094,105.566406 Z M9.75,107.150391 C9.84114629,107.241537 9.88671875,107.355468 9.88671875,107.492188 L9.88671875,109.132812 C9.88671875,109.269532 9.83886767,109.385742 9.74316406,109.481445 C9.64746046,109.577149 9.53125068,109.625 9.39453125,109.625 C9.25781182,109.625 9.14160204,109.577149 9.04589844,109.481445 C8.95019483,109.385742 8.90234375,109.269532 8.90234375,109.132812 L8.90234375,107.492188 C8.90234375,107.355468 8.95019483,107.239258 9.04589844,107.143555 C9.14160204,107.047851 9.25781182,107 9.39453125,107 C9.53125068,107 9.64973908,107.05013 9.75,107.150391 Z M9.75,96.1503906 C9.84114629,96.2415369 9.88671875,96.3554681 9.88671875,96.4921875 L9.88671875,98.1328125 C9.88671875,98.2695319 9.83886767,98.3857417 9.74316406,98.4814453 C9.64746046,98.5771489 9.53125068,98.625 9.39453125,98.625 C9.25781182,98.625 9.14160204,98.5771489 9.04589844,98.4814453 C8.95019483,98.3857417 8.90234375,98.2695319 8.90234375,98.1328125 L8.90234375,96.4921875 C8.90234375,96.3554681 8.95019483,96.2392583 9.04589844,96.1435547 C9.14160204,96.0478511 9.25781182,96 9.39453125,96 C9.53125068,96 9.64973908,96.0501297 9.75,96.1503906 Z M0.4921875,100.808594 C0.355468066,100.808594 0.239258291,100.760743 0.143554688,100.665039 C0.047851084,100.569335 0,100.453126 0,100.316406 C0,100.179687 0.047851084,100.063477 0.143554688,99.9677734 C0.239258291,99.8720698 0.355468066,99.8242188 0.4921875,99.8242188 L2.1328125,99.8242188 C2.26953193,99.8242188 2.38574171,99.8720698 2.48144531,99.9677734 C2.57714892,100.063477 2.625,100.179687 2.625,100.316406 C2.625,100.453126 2.57714892,100.569335 2.48144531,100.665039 C2.38574171,100.760743 2.26953193,100.808594 2.1328125,100.808594 L0.4921875,100.808594 Z M11.4921875,100.808594 C11.3554681,100.808594 11.2392583,100.760743 11.1435547,100.665039 C11.0478511,100.569335 11,100.453126 11,100.316406 C11,100.179687 11.0478511,100.063477 11.1435547,99.9677734 C11.2392583,99.8720698 11.3554681,99.8242188 11.4921875,99.8242188 L13.1328125,99.8242188 C13.2695319,99.8242188 13.3857417,99.8720698 13.4814453,99.9677734 C13.5771489,100.063477 13.625,100.179687 13.625,100.316406 C13.625,100.453126 13.5771489,100.569335 13.4814453,100.665039 C13.3857417,100.760743 13.2695319,100.808594 13.1328125,100.808594 L11.4921875,100.808594 Z M4.9921875,109.132812 C4.9921875,109.269532 4.94433642,109.385742 4.84863281,109.481445 C4.75292921,109.577149 4.63671943,109.625 4.5,109.625 C4.36328057,109.625 4.24707079,109.577149 4.15136719,109.481445 C4.05566358,109.385742 4.0078125,109.269532 4.0078125,109.132812 L4.0078125,107.492188 C4.0078125,107.355468 4.05566358,107.239258 4.15136719,107.143555 C4.24707079,107.047851 4.36328057,107 4.5,107 C4.63671943,107 4.75292921,107.047851 4.84863281,107.143555 C4.94433642,107.239258 4.9921875,107.355468 4.9921875,107.492188 L4.9921875,109.132812 Z M4.9921875,98.1328125 C4.9921875,98.2695319 4.94433642,98.3857417 4.84863281,98.4814453 C4.75292921,98.5771489 4.63671943,98.625 4.5,98.625 C4.36328057,98.625 4.24707079,98.5771489 4.15136719,98.4814453 C4.05566358,98.3857417 4.0078125,98.2695319 4.0078125,98.1328125 L4.0078125,96.4921875 C4.0078125,96.3554681 4.05566358,96.2392583 4.15136719,96.1435547 C4.24707079,96.0478511 4.36328057,96 4.5,96 C4.63671943,96 4.75292921,96.0478511 4.84863281,96.1435547 C4.94433642,96.2392583 4.9921875,96.3554681 4.9921875,96.4921875 L4.9921875,98.1328125 Z M0.4921875,103.255859 C0.355468066,103.255859 0.239258291,103.208008 0.143554688,103.112305 C0.047851084,103.016601 0,102.900391 0,102.763672 C0,102.626952 0.047851084,102.510743 0.143554688,102.415039 C0.239258291,102.319335 0.355468066,102.271484 0.4921875,102.271484 L2.1328125,102.271484 C2.26953193,102.271484 2.38574171,102.319335 2.48144531,102.415039 C2.57714892,102.510743 2.625,102.626952 2.625,102.763672 C2.625,102.900391 2.57714892,103.016601 2.48144531,103.112305 C2.38574171,103.208008 2.26953193,103.255859 2.1328125,103.255859 L0.4921875,103.255859 Z M11.4921875,103.255859 C11.3554681,103.255859 11.2392583,103.208008 11.1435547,103.112305 C11.0478511,103.016601 11,102.900391 11,102.763672 C11,102.626952 11.0478511,102.510743 11.1435547,102.415039 C11.2392583,102.319335 11.3554681,102.271484 11.4921875,102.271484 L13.1328125,102.271484 C13.2695319,102.271484 13.3857417,102.319335 13.4814453,102.415039 C13.5771489,102.510743 13.625,102.626952 13.625,102.763672 C13.625,102.900391 13.5771489,103.016601 13.4814453,103.112305 C13.3857417,103.208008 13.2695319,103.255859 13.1328125,103.255859 L11.4921875,103.255859 Z M7.43945312,109.132813 C7.43945312,109.269532 7.39160204,109.385742 7.29589844,109.481445 C7.20019483,109.577149 7.08398506,109.625 6.94726562,109.625 C6.81054619,109.625 6.69433642,109.577149 6.59863281,109.481445 C6.50292921,109.385742 6.45507812,109.269532 6.45507812,109.132813 L6.45507812,107.492188 C6.45507812,107.355468 6.50292921,107.239258 6.59863281,107.143555 C6.69433642,107.047851 6.81054619,107 6.94726562,107 C7.08398506,107 7.20019483,107.047851 7.29589844,107.143555 C7.39160204,107.239258 7.43945312,107.355468 7.43945312,107.492188 L7.43945312,109.132813 Z M7.43945312,98.1328125 C7.43945312,98.2695319 7.39160204,98.3857417 7.29589844,98.4814453 C7.20019483,98.5771489 7.08398506,98.625 6.94726562,98.625 C6.81054619,98.625 6.69433642,98.5771489 6.59863281,98.4814453 C6.50292921,98.3857417 6.45507812,98.2695319 6.45507812,98.1328125 L6.45507812,96.4921875 C6.45507812,96.3554681 6.50292921,96.2392583 6.59863281,96.1435547 C6.69433642,96.0478511 6.81054619,96 6.94726562,96 C7.08398506,96 7.20019483,96.0478511 7.29589844,96.1435547 C7.39160204,96.2392583 7.43945312,96.3554681 7.43945312,96.4921875 L7.43945312,98.1328125 Z" id="数据预处理"></path>
                </g>
            </g>
        </g>
    </g>
</svg>