<?xml version="1.0" encoding="UTF-8"?>
<svg width="15px" height="14px" viewBox="0 0 15 14" version="1.1" xmlns="http://www.w3.org/2000/svg" xmlns:xlink="http://www.w3.org/1999/xlink">
    <!-- Generator: Sketch 53.2 (72643) - https://sketchapp.com -->
    <title>数据工具</title>
    <desc>Created with Sketch.</desc>
    <g id="1.0" stroke="none" stroke-width="1" fill="none" fill-rule="evenodd">
        <g id="算法实验-实验开发" transform="translate(-1180.000000, -382.000000)" fill="#333333" fill-rule="nonzero">
            <g id="图标介绍" transform="translate(1156.000000, 278.000000)">
                <g id="icon" transform="translate(24.000000, 71.000000)">
                    <path d="M13.5498047,35.2919922 C13.9501973,35.9072296 14.1137699,36.5932579 14.0405273,37.3500977 C13.9672848,38.1069374 13.6572293,38.7587863 13.1103516,39.3056641 C12.7001933,39.7158224 12.2143583,39.9941399 11.652832,40.140625 C11.0913058,40.2871101 10.5468776,40.2822273 10.0195313,40.1259766 L7.25097656,42.8945313 C7.39746167,43.4218776 7.39990305,43.9663058 7.25830078,44.527832 C7.11669851,45.0893583 6.8359396,45.5751933 6.41601563,45.9853516 C5.87890356,46.5224636 5.23193738,46.8300777 4.47509766,46.9082031 C3.71825793,46.9863285 3.03222964,46.8203146 2.41699219,46.4101563 L4.84863281,43.9785156 L3.8671875,42.9824219 L1.43554688,45.4140625 C1.04491992,44.798825 0.888671484,44.1176795 0.966796875,43.3706055 C1.04492227,42.6235314 1.35253638,41.9863308 1.88964844,41.4589844 C2.29980674,41.0390604 2.78564172,40.7583015 3.34716797,40.6166992 C3.90869421,40.4750969 4.45312236,40.4775383 4.98046875,40.6240234 L7.74902344,37.8554688 C7.60253833,37.3281224 7.60009695,36.7836942 7.74169922,36.222168 C7.88330149,35.6606417 8.1640604,35.1748067 8.58398438,34.7646484 C9.11133076,34.2275364 9.74853142,33.9199223 10.4956055,33.8417969 C11.2426795,33.7636715 11.923825,33.9199199 12.5390625,34.3105469 L10.1074219,36.7421875 L11.1035156,37.7236328 L13.5498047,35.2919922 Z M5.78613281,45.3554688 C6.14746274,44.9941388 6.36474573,44.5620142 6.43798828,44.059082 C6.51123083,43.5561498 6.43066523,43.0898459 6.19628906,42.6601563 C6.08886665,42.4453114 5.95214927,42.2548836 5.78613281,42.0888672 C5.61035068,41.9228507 5.4199229,41.7812506 5.21484375,41.6640625 C4.77538843,41.439452 4.30664312,41.3637692 3.80859375,41.4370117 C3.31054438,41.5102543 2.88086118,41.7275373 2.51953125,42.0888672 C2.06054458,42.5478539 1.83593745,43.1044889 1.84570313,43.7587891 L3.23730469,42.3671875 C3.41308682,42.1914054 3.62548704,42.1035156 3.87451172,42.1035156 C4.1235364,42.1035156 4.33593662,42.1914054 4.51171875,42.3671875 L5.5078125,43.3632813 C5.68359463,43.5390634 5.77148438,43.7490222 5.77148438,43.9931641 C5.77148438,44.2373059 5.68359463,44.4472647 5.5078125,44.6230469 L4.11621094,46.0146484 C4.77051108,46.0341798 5.32714614,45.8144554 5.78613281,45.3554688 Z M6.85546875,42.0009766 L9.12597656,39.7304688 C8.93066309,39.6132807 8.75000083,39.4667978 8.58398438,39.2910156 C8.41796792,39.1347648 8.27148501,38.9541026 8.14453125,38.7490234 L5.87402344,41.0195313 C6.06933691,41.1367193 6.24999917,41.2832022 6.41601563,41.4589844 C6.58203208,41.6152352 6.72851499,41.7958974 6.85546875,42.0009766 Z M12.4804688,38.6611328 C12.9394554,38.2021461 13.1640625,37.6455111 13.1542969,36.9912109 L11.7626953,38.3828125 C11.5869132,38.5585946 11.374513,38.6464844 11.1254883,38.6464844 C10.8764636,38.6464844 10.6640634,38.5585946 10.4882813,38.3828125 L9.4921875,37.4013672 C9.31640537,37.2255851 9.22851563,37.0131848 9.22851563,36.7641602 C9.22851563,36.5151355 9.31640537,36.3027353 9.4921875,36.1269531 L10.8837891,34.7353516 C10.2294889,34.7255859 9.67285386,34.950193 9.21386719,35.4091797 C8.85253726,35.7607439 8.63525427,36.1879858 8.56201172,36.690918 C8.48876917,37.1938502 8.56933477,37.6601541 8.80371094,38.0898438 C8.91113335,38.3046886 9.04785073,38.4951164 9.21386719,38.6611328 C9.38964932,38.8271493 9.5800771,38.9687494 9.78515625,39.0859375 C10.2246116,39.310548 10.6933569,39.3862308 11.1914063,39.3129883 C11.6894556,39.2397457 12.1191388,39.0224627 12.4804688,38.6611328 Z" id="数据工具"></path>
                </g>
            </g>
        </g>
    </g>
</svg>