<?xml version="1.0" encoding="utf-8"?>
<!-- Generator: Adobe Illustrator 21.0.0, SVG Export Plug-In . SVG Version: 6.00 Build 0)  -->
<svg version="1.1" id="图层_1" xmlns="http://www.w3.org/2000/svg" xmlns:xlink="http://www.w3.org/1999/xlink" x="0px" y="0px"
	 viewBox="0 0 200 200" style="enable-background:new 0 0 200 200;" xml:space="preserve">
<style type="text/css">
	.st0{fill:#333333;}
</style>
<path class="st0" d="M167.3,0h-89L18.8,63.9v122.8c0,7.3,6.2,13.2,13.9,13.2h134.7c7.7,0,13.9-5.9,13.9-13.2v-0.2l0,0V13.2
	C181.2,5.9,175,0,167.3,0z M84.7,16.1v44c0,2.8-2.3,5.1-5.1,5.1H38.9L84.7,16.1z M165.6,184.4L165.6,184.4H34.4V80.9h45.2
	c11.4,0,20.7-9.3,20.7-20.7V15.6h65.3L165.6,184.4L165.6,184.4z"/>
</svg>
