<?xml version="1.0" standalone="no"?><!DOCTYPE svg PUBLIC "-//W3C//DTD SVG 1.1//EN" "http://www.w3.org/Graphics/SVG/1.1/DTD/svg11.dtd"><svg t="1533700106158" class="icon" style="" viewBox="0 0 1024 1024" version="1.1" xmlns="http://www.w3.org/2000/svg" p-id="2456" xmlns:xlink="http://www.w3.org/1999/xlink" width="200" height="200"><defs><style type="text/css"></style></defs><path d="M960 640v-128a64 64 0 0 0-64-64H576v-128h192a64 64 0 0 0 64-64V192a64 64 0 0 0-64-64H320a64 64 0 0 0-64 64v64a64 64 0 0 0 64 64h192v128H192a64 64 0 0 0-64 64v128a64 64 0 0 0-64 64v128a64 64 0 0 0 64 64h64a64 64 0 0 0 64-64v-128a64 64 0 0 0-64-64v-128h320v128a64 64 0 0 0-64 64v128a64 64 0 0 0 64 64h64a64 64 0 0 0 64-64v-128a64 64 0 0 0-64-64v-128h320v128a64 64 0 0 0-64 64v128a64 64 0 0 0 64 64h64a64 64 0 0 0 64-64v-128a64 64 0 0 0-64-64zM320 192h448v64H320V192zM192 768v64H128v-128h64v64z m384 64h-64v-128h64v128z m320-64v-64h64v128h-64v-64z" p-id="2457" fill="#333333"></path></svg>