<?xml version="1.0" encoding="UTF-8"?>
<svg width="18px" height="18px" viewBox="0 0 18 18" version="1.1" xmlns="http://www.w3.org/2000/svg" xmlns:xlink="http://www.w3.org/1999/xlink">
    <!-- Generator: Sketch 55.2 (78181) - https://sketchapp.com -->
    <title>GBDT回归</title>
    <desc>Created with Sketch.</desc>
    <g id="1.0" stroke="none" stroke-width="1" fill="none" fill-rule="evenodd">
        <g id="算法实验-实验开发" transform="translate(-1164.000000, -580.000000)" fill="#333333" fill-rule="nonzero">
            <g id="图标介绍" transform="translate(1158.000000, 278.000000)">
                <g id="icon" transform="translate(6.000000, 71.000000)">
                    <g id="GBDT回归" transform="translate(0.000000, 231.000000)">
                        <g transform="translate(2.000000, 1.000000)" id="形状结合">
                            <path d="M11.4350244,11.0701965 C11.6395564,10.9953757 11.8604645,10.9545455 12.0909091,10.9545455 C13.1452709,10.9545455 14,11.8092746 14,12.8636364 C14,13.9179982 13.1452709,14.7727273 12.0909091,14.7727273 C11.0365473,14.7727273 10.1818182,13.9179982 10.1818182,12.8636364 C10.1818182,12.4063065 10.3426264,11.9865354 10.6107834,11.6577826 L9.622047,9.68030981 C9.59664064,9.68131225 9.57110668,9.68181818 9.54545455,9.68181818 C9.51980241,9.68181818 9.49426845,9.68131225 9.46886209,9.68030981 L8.79551203,11.0270099 C9.59572474,11.2543465 10.1818182,11.9905467 10.1818182,12.8636364 C10.1818182,13.9179982 9.32708907,14.7727273 8.27272727,14.7727273 C7.78377445,14.7727273 7.33775413,14.5889114 7,14.2866132 C6.66224587,14.5889114 6.21622555,14.7727273 5.72727273,14.7727273 C4.67291093,14.7727273 3.81818182,13.9179982 3.81818182,12.8636364 C3.81818182,11.9905467 4.40427526,11.2543465 5.20448797,11.0270099 L4.53113791,9.68030981 C4.50573155,9.68131225 4.48019759,9.68181818 4.45454545,9.68181818 C4.42889332,9.68181818 4.40335936,9.68131225 4.377953,9.68030981 L3.3892166,11.6577826 C3.65737358,11.9865354 3.81818182,12.4063065 3.81818182,12.8636364 C3.81818182,13.9179982 2.9634527,14.7727273 1.90909091,14.7727273 C0.854729114,14.7727273 0,13.9179982 0,12.8636364 C0,11.8092746 0.854729114,10.9545455 1.90909091,10.9545455 C2.13953546,10.9545455 2.3604436,10.9953757 2.56497565,11.0701965 L3.41345822,9.37323139 C2.89089372,9.0326209 2.54545455,8.44301491 2.54545455,7.77272727 C2.54545455,6.71836548 3.40018366,5.86363636 4.45454545,5.86363636 C4.83709788,5.86363636 5.19336976,5.97615672 5.49207085,6.16990717 L6.24466592,4.69739457 C5.2841503,4.38051971 4.59090909,3.47576289 4.59090909,2.40909091 C4.59090909,1.07858674 5.66949583,0 7,0 C8.33050417,0 9.40909091,1.07858674 9.40909091,2.40909091 C9.40909091,3.47576289 8.7158497,4.38051971 7.75533408,4.69739457 L8.50792915,6.16990717 C8.80663024,5.97615672 9.16290212,5.86363636 9.54545455,5.86363636 C10.5998163,5.86363636 11.4545455,6.71836548 11.4545455,7.77272727 C11.4545455,8.44301491 11.1091063,9.0326209 10.5865418,9.37323139 L11.4350244,11.0701965 Z M6.33580859,11.0535832 C6.58389883,11.1369572 6.80922068,11.2699074 7,11.4406595 C7.19077932,11.2699074 7.41610117,11.1369572 7.66419141,11.0535832 L8.50436731,9.37323139 C7.98180281,9.0326209 7.63636364,8.44301491 7.63636364,7.77272727 C7.63636364,7.4936623 7.69624061,7.22858233 7.80384803,6.98963392 L7,5.41684078 L6.19615197,6.98963392 C6.30375939,7.22858233 6.36363636,7.4936623 6.36363636,7.77272727 C6.36363636,8.44301491 6.01819719,9.0326209 5.49563269,9.37323139 L6.33580859,11.0535832 Z M7,3.81818182 C7.77821942,3.81818182 8.40909091,3.18731033 8.40909091,2.40909091 C8.40909091,1.63087149 7.77821942,1 7,1 C6.22178058,1 5.59090909,1.63087149 5.59090909,2.40909091 C5.59090909,3.18731033 6.22178058,3.81818182 7,3.81818182 Z"></path>
                        </g>
                    </g>
                </g>
            </g>
        </g>
    </g>
</svg>