<?xml version="1.0" encoding="UTF-8"?>
<svg width="18px" height="18px" viewBox="0 0 18 18" version="1.1" xmlns="http://www.w3.org/2000/svg" xmlns:xlink="http://www.w3.org/1999/xlink">
    <!-- Generator: Sketch 55.2 (78181) - https://sketchapp.com -->
    <title>kmeans聚类</title>
    <desc>Created with Sketch.</desc>
    <g id="1.0" stroke="none" stroke-width="1" fill="none" fill-rule="evenodd">
        <g id="算法实验-实验开发" transform="translate(-1180.000000, -593.000000)" fill="#333333">
            <g id="图标介绍" transform="translate(1155.000000, 278.000000)">
                <g id="icon" transform="translate(25.000000, 71.000000)">
                    <g id="kmeans聚类" transform="translate(0.000000, 244.000000)">
                        <g transform="translate(1.000000, 2.000000)" id="椭圆形">
                            <path d="M7.10909091,8.67272727 C8.53498972,8.67272727 9.69090909,7.5168079 9.69090909,6.09090909 C9.69090909,4.66501028 8.53498972,3.50909091 7.10909091,3.50909091 C5.6831921,3.50909091 4.52727273,4.66501028 4.52727273,6.09090909 C4.52727273,7.5168079 5.6831921,8.67272727 7.10909091,8.67272727 Z M7.10909091,7.58181818 C6.28568455,7.58181818 5.61818182,6.91431545 5.61818182,6.09090909 C5.61818182,5.26750274 6.28568455,4.6 7.10909091,4.6 C7.93249726,4.6 8.6,5.26750274 8.6,6.09090909 C8.6,6.91431545 7.93249726,7.58181818 7.10909091,7.58181818 Z" fill-rule="nonzero"></path>
                            <path d="M3.54545455,4.6 C4.69019021,4.6 5.61818182,3.67200839 5.61818182,2.52727273 C5.61818182,1.38253706 4.69019021,0.454545455 3.54545455,0.454545455 C2.40071888,0.454545455 1.47272727,1.38253706 1.47272727,2.52727273 C1.47272727,3.67200839 2.40071888,4.6 3.54545455,4.6 Z M3.54545455,3.50909091 C3.00321134,3.50909091 2.56363636,3.06951594 2.56363636,2.52727273 C2.56363636,1.98502952 3.00321134,1.54545455 3.54545455,1.54545455 C4.08769775,1.54545455 4.52727273,1.98502952 4.52727273,2.52727273 C4.52727273,3.06951594 4.08769775,3.50909091 3.54545455,3.50909091 Z" fill-rule="nonzero"></path>
                            <circle cx="14.7454545" cy="4.56363636" r="1.52727273"></circle>
                            <path d="M2.52727273,12.7454545 C3.67200839,12.7454545 4.6,11.8174629 4.6,10.6727273 C4.6,9.52799161 3.67200839,8.6 2.52727273,8.6 C1.38253706,8.6 0.454545455,9.52799161 0.454545455,10.6727273 C0.454545455,11.8174629 1.38253706,12.7454545 2.52727273,12.7454545 Z M2.52727273,11.6545455 C1.98502952,11.6545455 1.54545455,11.2149705 1.54545455,10.6727273 C1.54545455,10.1304841 1.98502952,9.69090909 2.52727273,9.69090909 C3.06951594,9.69090909 3.50909091,10.1304841 3.50909091,10.6727273 C3.50909091,11.2149705 3.06951594,11.6545455 2.52727273,11.6545455 Z" fill-rule="nonzero"></path>
                            <circle cx="12.7090909" cy="7.61818182" r="1.52727273"></circle>
                            <path d="M7.10909091,12.7454545 C7.97266343,12.7454545 8.67272727,12.0453907 8.67272727,11.1818182 C8.67272727,10.3182457 7.97266343,9.61818182 7.10909091,9.61818182 C6.24551839,9.61818182 5.54545455,10.3182457 5.54545455,11.1818182 C5.54545455,12.0453907 6.24551839,12.7454545 7.10909091,12.7454545 Z M7.10909091,11.6545455 C6.84801085,11.6545455 6.63636364,11.4428982 6.63636364,11.1818182 C6.63636364,10.9207381 6.84801085,10.7090909 7.10909091,10.7090909 C7.37017097,10.7090909 7.58181818,10.9207381 7.58181818,11.1818182 C7.58181818,11.4428982 7.37017097,11.6545455 7.10909091,11.6545455 Z" fill-rule="nonzero"></path>
                            <path d="M2.01818182,7.65454545 C2.88175434,7.65454545 3.58181818,6.95448161 3.58181818,6.09090909 C3.58181818,5.22733657 2.88175434,4.52727273 2.01818182,4.52727273 C1.1546093,4.52727273 0.454545455,5.22733657 0.454545455,6.09090909 C0.454545455,6.95448161 1.1546093,7.65454545 2.01818182,7.65454545 Z M2.01818182,6.56363636 C1.75710175,6.56363636 1.54545455,6.35198915 1.54545455,6.09090909 C1.54545455,5.82982903 1.75710175,5.61818182 2.01818182,5.61818182 C2.27926188,5.61818182 2.49090909,5.82982903 2.49090909,6.09090909 C2.49090909,6.35198915 2.27926188,6.56363636 2.01818182,6.56363636 Z" fill-rule="nonzero"></path>
                            <circle cx="11.1818182" cy="4.05454545" r="1.01818182"></circle>
                            <circle cx="13.2181818" cy="2.01818182" r="1.01818182"></circle>
                        </g>
                    </g>
                </g>
            </g>
        </g>
    </g>
</svg>