<?xml version="1.0" encoding="UTF-8"?>
<svg width="18px" height="18px" viewBox="0 0 18 18" version="1.1" xmlns="http://www.w3.org/2000/svg" xmlns:xlink="http://www.w3.org/1999/xlink">
    <!-- Generator: Sketch 60.1 (88133) - https://sketch.com -->
    <title>label</title>
    <desc>Created with Sketch.</desc>
    <g id="1.0" stroke="none" stroke-width="1" fill="none" fill-rule="evenodd">
        <g id="算法实验-实验开发" transform="translate(-1138.000000, -757.000000)" fill="#333333" fill-rule="nonzero">
            <g id="图标介绍" transform="translate(1114.000000, 151.000000)">
                <g id="label" transform="translate(24.000000, 606.000000)">
                    <path d="M14.4247791,2.00107667 C15.2526228,1.96999002 15.9489234,2.61588919 15.98001,3.44373285 L15.98001,3.44373285 L15.9809491,3.48542719 L15.8144771,7.96448116 C15.8002796,8.3425658 15.6437284,8.70131933 15.3761938,8.96885397 L15.3761938,8.96885397 L8.80330086,15.5417469 C8.21751442,16.1275333 7.26776695,16.1275333 6.68198052,15.5417469 L6.68198052,15.5417469 L2.43933983,11.2991062 C1.85355339,10.7133198 1.85355339,9.76357229 2.43933983,9.17778585 L2.43933983,9.17778585 L9.01223275,2.60489294 C9.27976739,2.33735829 9.63852091,2.18080716 10.0166056,2.16660957 L10.0166056,2.16660957 Z M14.462304,3.00037237 L10.0541305,3.16590526 C9.92810225,3.17063779 9.80851774,3.2228215 9.71933953,3.31199972 L9.71933953,3.31199972 L3.14644661,9.88489264 C2.95118446,10.0801548 2.95118446,10.3967373 3.14644661,10.5919994 L3.14644661,10.5919994 L7.3890873,14.8346401 C7.58434944,15.0299022 7.90093193,15.0299022 8.09619408,14.8346401 L8.09619408,14.8346401 L14.669087,8.26174719 C14.7582652,8.17256897 14.8104489,8.05298446 14.8151815,7.92695625 L14.8151815,7.92695625 L14.9807143,3.48125776 C14.9703521,3.20530987 14.7382519,2.99001015 14.462304,3.00037237 L14.462304,3.00037237 Z M9.93285248,5.45501722 C10.7139011,4.67396864 11.980231,4.67396864 12.7612796,5.45501722 C13.5423282,6.23606581 13.5423282,7.50239576 12.7612796,8.28344435 C11.980231,9.06449293 10.7139011,9.06449293 9.93285248,8.28344435 C9.15180389,7.50239576 9.15180389,6.23606581 9.93285248,5.45501722 Z"></path>
                </g>
            </g>
        </g>
    </g>
</svg>