<?xml version="1.0" standalone="no"?><!DOCTYPE svg PUBLIC "-//W3C//DTD SVG 1.1//EN" "http://www.w3.org/Graphics/SVG/1.1/DTD/svg11.dtd"><svg t="1556504444277" class="icon" style="" viewBox="0 0 1024 1024" version="1.1" xmlns="http://www.w3.org/2000/svg" p-id="2154" xmlns:xlink="http://www.w3.org/1999/xlink" width="8" height="8"><defs><style type="text/css"></style></defs><path d="M435.05 859.4c-6.75 0-13.5-1.35-20.25-4.05l-238.05-102.15c-18.9-8.1-31.05-26.55-31.05-46.8V477.35c0-6.75 1.35-13.5 4.05-20.25 11.25-25.65 40.95-37.8 67.05-27l238.5 102.15c18.9 8.1 31.05 26.55 31.05 46.8v229.05c0 6.75-1.35 13.5-4.05 20.25-5.4 12.6-15.3 22.05-27.9 27.45-6.75 2.25-13.05 3.6-19.35 3.6z m-238.5-383.85c-0.45 0-1.35 0.45-1.35 0.9v229.5c0 0.45 0.45 1.35 0.9 1.35l238.05 102.15c0.9 0.45 1.8 0 1.8-0.9v-229.5c0-0.45-0.45-1.35-0.9-1.35L197 475.55h-0.45z m392.4 383.85c-19.8 0-38.7-11.7-46.8-31.05-2.7-6.3-4.05-13.05-4.05-20.25v-229.05c0-20.25 12.15-38.7 31.05-46.8l238.5-102.15c25.65-11.25 55.8 0.9 67.05 27 2.7 6.3 4.05 13.05 4.05 20.25v229.05c0 20.25-12.15 38.7-31.05 46.8l-238.5 102.15c-6.75 2.7-13.5 4.05-20.25 4.05z m-0.45-281.7c-0.45 0.45-0.9 0.9-0.9 1.35v229.5c0.45 0.9 1.35 1.35 1.8 0.9l238.5-102.15c0.45-0.45 0.9-0.9 0.9-1.35V476.9v-0.45c-0.45-0.9-1.35-1.35-1.8-0.9l-238.5 102.15zM511.1 481.4c-6.3 0-12.6-1.35-18.9-3.6L219.5 370.7c-26.1-10.35-39.15-40.05-28.8-66.15 4.95-13.05 15.75-23.85 28.8-28.8l272.7-107.1c12.15-4.95 25.2-4.95 37.35 0l272.7 107.1c26.1 10.35 39.15 40.05 28.8 66.15-4.95 13.05-15.75 23.85-28.8 28.8L530 477.8c-5.85 2.25-12.6 3.6-18.9 3.6z m0-267.3h-0.45L237.95 321.2c-0.45 0-0.9 0.45-0.9 0.9-0.45 0.9 0 1.8 0.9 1.8L510.65 431h0.9l272.7-107.1c0.45 0 0.9-0.45 0.9-0.9 0.45-0.9 0-1.8-0.9-1.8L512 214.55c-0.45-0.45-0.45-0.45-0.9-0.45z" fill="#ffffff" p-id="2155"></path></svg>