<?xml version="1.0" encoding="utf-8"?>
<!-- Generator: Adobe Illustrator 21.0.0, SVG Export Plug-In . SVG Version: 6.00 Build 0)  -->
<svg version="1.1" id="图层_1" xmlns="http://www.w3.org/2000/svg" xmlns:xlink="http://www.w3.org/1999/xlink" x="0px" y="0px"
	 viewBox="0 0 19 19" style="enable-background:new 0 0 19 19;" xml:space="preserve">
<style type="text/css">
	.st0{fill:#333333;}
</style>
<title>one-hot</title>
<desc>Created with Sketch.</desc>
<g id="_x31_.0">
	<g id="图标介绍" transform="translate(-25.000000, -432.000000)">
		<g id="one-hot" transform="translate(25.500000, 432.786621)">
			<path class="st0" d="M3.5,6.2c0-0.6,0.4-1,1-1s1,0.4,1,1v6c0,0.6-0.4,1-1,1s-1-0.4-1-1V6.2z M10.5,13.2c-2.2,0-4-1.8-4-4
				s1.8-4,4-4s4,1.8,4,4S12.7,13.2,10.5,13.2z M10.5,11.2c1.1,0,2-0.9,2-2s-0.9-2-2-2s-2,0.9-2,2S9.4,11.2,10.5,11.2z M1,6v6.8h1.5
				C2.8,12.8,3,13,3,13.3s-0.2,0.5-0.5,0.5h-2c-0.3,0-0.5-0.2-0.5-0.5V5.5C0,5.2,0.2,5,0.5,5h2C2.8,5,3,5.2,3,5.5S2.8,6,2.5,6H1z
				 M17,12.8V6h-1.5C15.2,6,15,5.8,15,5.5S15.2,5,15.5,5h2C17.8,5,18,5.2,18,5.5v7.8c0,0.3-0.2,0.5-0.5,0.5h-2
				c-0.3,0-0.5-0.2-0.5-0.5s0.2-0.5,0.5-0.5H17z"/>
		</g>
	</g>
</g>
</svg>
