<?xml version="1.0" encoding="UTF-8"?>
<svg width="18px" height="18px" viewBox="0 0 18 18" version="1.1" xmlns="http://www.w3.org/2000/svg" xmlns:xlink="http://www.w3.org/1999/xlink">
    <!-- Generator: Sketch 60.1 (88133) - https://sketch.com -->
    <title>python</title>
    <desc>Created with Sketch.</desc>
    <g id="1.0" stroke="none" stroke-width="1" fill="none" fill-rule="evenodd">
        <g id="算法实验-实验开发" transform="translate(-1138.000000, -785.000000)" fill="#333333">
            <g id="图标介绍" transform="translate(1114.000000, 151.000000)">
                <g id="python" transform="translate(24.000000, 634.000000)">
                    <path d="M9,1 C10.009904,1 11.0175565,1.21351044 12.019922,1.63829082 C12.4628521,1.82604185 12.7635051,2.23992006 12.8105381,2.71183375 L12.8169935,2.84185009 L12.816,5.183 L15.1581902,5.18300654 C15.6830203,5.18300654 16.1569644,5.49692883 16.3617455,5.98016385 C16.7864962,6.98247494 17,7.99011174 17,9 C17,10.009904 16.7864896,11.0175565 16.3617092,12.019922 C16.1739582,12.4628521 15.7600799,12.7635051 15.2881663,12.8105381 L15.1581499,12.8169935 L12.816,12.816 L12.8169935,15.1581517 C12.8169935,15.6829983 12.5030963,16.1569527 12.0198523,16.3617387 C11.0175359,16.7864939 10.0098937,17 9,17 C7.99009598,17 6.98244353,16.7864896 5.98007803,16.3617092 C5.53714788,16.1739582 5.23649487,15.7600799 5.18946194,15.2881663 L5.18300654,15.1581499 L5.183,12.816 L2.84185082,12.8169935 C2.31700315,12.8169935 1.84304811,12.5030979 1.63826175,12.0198534 C1.21350623,11.0175366 1,10.0098941 1,9 C1,7.99009598 1.21351044,6.98244353 1.63829082,5.98007803 C1.82604185,5.53714788 2.23992006,5.23649487 2.71183375,5.18946194 L2.84185009,5.18300654 L5.183,5.183 L5.18300654,2.84183917 C5.18300654,2.31699647 5.49690967,1.84304455 5.98015153,1.63825967 C6.98246668,1.21350553 7.99010759,1 9,1 Z M15.1581902,6.12418301 L12.816,6.124 L12.8169935,9 C12.8169935,9.25989871 12.6063039,9.47058824 12.3464052,9.47058824 L12.3025766,9.46857421 L12.2577283,9.46300643 L12.1731394,9.47058824 L6.12495997,9.47033415 L6.12418301,15.1581499 C6.12418301,15.3050972 6.21207621,15.4378098 6.34735218,15.4951511 C7.23586926,15.8716851 8.11906042,16.0588235 9,16.0588235 C9.88093051,16.0588235 10.7641125,15.8716889 11.6526203,15.4951628 C11.7653753,15.4473802 11.845203,15.3472592 11.8686802,15.2301633 L11.875817,15.1581517 L11.875,12.816 L9,12.8169935 C8.74010129,12.8169935 8.52941176,12.6063039 8.52941176,12.3464052 C8.52941176,12.1153842 8.6958825,11.9232444 8.91541117,11.8833988 L9,11.875817 L15.1581499,11.875817 C15.3050972,11.875817 15.4378098,11.7879238 15.4951511,11.6526478 C15.8716851,10.7641307 16.0588235,9.88093958 16.0588235,9 C16.0588235,8.11907427 15.871691,7.23589707 15.4951689,6.34739416 C15.4473846,6.23463438 15.3472635,6.15479982 15.2301874,6.13132052 L15.1581902,6.12418301 Z M10.3071895,13.130719 C10.7692317,13.130719 11.1437908,13.5052781 11.1437908,13.9673203 C11.1437908,14.4293624 10.7692317,14.8039216 10.3071895,14.8039216 C9.8451474,14.8039216 9.47058824,14.4293624 9.47058824,13.9673203 C9.47058824,13.5052781 9.8451474,13.130719 10.3071895,13.130719 Z M9,1.94117647 C8.11907062,1.94117647 7.23588975,2.12831059 6.34738312,2.50483576 C6.23462702,2.55261875 6.15479768,2.65273982 6.13132001,2.76983099 L6.12418301,2.84183917 L6.124,5.183 L9,5.18300654 C9.25989871,5.18300654 9.47058824,5.39369607 9.47058824,5.65359477 C9.47058824,5.88461584 9.3041175,6.07675559 9.08458883,6.1166012 L9,6.12418301 L2.84185009,6.12418301 C2.69490282,6.12418301 2.5621902,6.21207621 2.50484887,6.34735218 C2.12831493,7.23586926 1.94117647,8.11906042 1.94117647,9 C1.94117647,9.88093082 2.12831121,10.7641132 2.50483762,11.6526213 C2.55262007,11.7653759 2.65274113,11.8452032 2.76983829,11.8686802 L2.84185082,11.875817 L5.183,11.875 L5.18300654,9 C5.18300654,8.74010129 5.39369607,8.52941176 5.65359477,8.52941176 L5.67601879,8.53104003 L5.69812092,8.52941176 L11.8764894,8.52915768 L11.8750316,5.7952107 C11.8609454,5.7505164 11.8533497,5.70294263 11.8533497,5.65359477 C11.8533497,5.60450279 11.8608669,5.55716655 11.874813,5.51267432 L11.875817,2.84185009 C11.875817,2.69490282 11.7879238,2.5621902 11.6526478,2.50484887 C10.7641307,2.12831493 9.88093958,1.94117647 9,1.94117647 Z M7.48366013,3.09150327 C7.94570227,3.09150327 8.32026144,3.46606243 8.32026144,3.92810458 C8.32026144,4.39014672 7.94570227,4.76470588 7.48366013,4.76470588 C7.02161799,4.76470588 6.64705882,4.39014672 6.64705882,3.92810458 C6.64705882,3.46606243 7.02161799,3.09150327 7.48366013,3.09150327 Z"></path>
                </g>
            </g>
        </g>
    </g>
</svg>