<?xml version="1.0" encoding="UTF-8"?>
<svg width="18px" height="18px" viewBox="0 0 18 18" version="1.1" xmlns="http://www.w3.org/2000/svg" xmlns:xlink="http://www.w3.org/1999/xlink">
    <!-- Generator: Sketch 55.2 (78181) - https://sketchapp.com -->
    <title>回归模型评估</title>
    <desc>Created with Sketch.</desc>
    <g id="1.0" stroke="none" stroke-width="1" fill="none" fill-rule="evenodd">
        <g id="算法实验-实验开发" transform="translate(-1180.000000, -620.000000)">
            <g id="图标介绍" transform="translate(1156.000000, 278.000000)">
                <g id="icon" transform="translate(22.000000, 71.000000)">
                    <g id="回归模型评估" transform="translate(2.000000, 271.000000)">
                        <g transform="translate(1.000000, 2.000000)">
                            <polygon id="多边形" stroke="#333333" stroke-linejoin="round" points="3.29411765 -2.66453526e-13 6.14690721 1.64705882 6.14690721 4.94117647 3.29411765 6.58823529 0.441328082 4.94117647 0.441328082 1.64705882"></polygon>
                            <polyline id="路径-10" stroke="#333333" stroke-linecap="round" stroke-linejoin="round" points="0.470588235 1.81520916 3.29411765 3.29411765 5.64705882 1.81520916"></polyline>
                            <path d="M3.29411765,3.29411765 L3.29411765,6.58823529" id="路径-11" stroke="#333333" stroke-linecap="round" stroke-linejoin="round"></path>
                            <polyline id="路径-12" stroke="#333333" stroke-linecap="round" stroke-linejoin="round" points="9.41176471 9.88235294 9.41176471 14.5882353 14.1803922 14.5882353"></polyline>
                            <rect id="矩形" fill="#333333" x="10.8235294" y="11.2941176" width="1" height="1.88235294" rx="0.5"></rect>
                            <rect id="矩形" fill="#333333" x="12.7058824" y="10.3529412" width="1" height="2.82352941" rx="0.5"></rect>
                            <path d="M1.88235294,8.47058824 C1.88235294,11.5893727 4.4106273,14.1176471 7.52941176,14.1176471 L7.52941176,14.1176471 M13.1764706,8.47058824 C13.1764706,5.35180377 10.6481962,2.82352941 7.52941176,2.82352941" id="形状" stroke="#333333" stroke-linecap="round"></path>
                            <polyline id="路径-13" stroke="#333333" stroke-linecap="round" stroke-linejoin="round" points="11.2941176 7.52941176 13.1764706 8.78814338 15.0613511 7.52941176"></polyline>
                            <polyline id="路径-13" stroke="#333333" stroke-linecap="round" stroke-linejoin="round" transform="translate(1.883617, 8.158778) scale(1, -1) translate(-1.883617, -8.158778) " points="-1.33226763e-14 7.52941176 1.88235294 8.78814338 3.76723346 7.52941176"></polyline>
                        </g>
                    </g>
                </g>
            </g>
        </g>
    </g>
</svg>