<?xml version="1.0" encoding="utf-8"?>
<!-- Generator: Adobe Illustrator 21.0.0, SVG Export Plug-In . SVG Version: 6.00 Build 0)  -->
<svg version="1.1" id="图层_1" xmlns="http://www.w3.org/2000/svg" xmlns:xlink="http://www.w3.org/1999/xlink" x="0px" y="0px"
	 viewBox="0 0 200 200" style="enable-background:new 0 0 200 200;" xml:space="preserve">
<style type="text/css">
	.st0{fill:#333333;}
</style>
<path class="st0" d="M184.4,15.6v168.8H15.6V15.6H184.4 M187.9,0H12.1C5.4,0,0,5.4,0,12.1v175.8c0,6.7,5.4,12.1,12.1,12.1h175.8
	c6.7,0,12.1-5.4,12.1-12.1V12.1C200,5.4,194.6,0,187.9,0L187.9,0z"/>
<path class="st0" d="M51.3,139.1c-7.1,0-13.3-0.9-18.5-2.6c-5.2-1.7-9.9-4.8-14-9.3L32.3,113c2.1,2.2,4.8,3.8,8.3,4.8
	c3.4,1,7,1.5,10.9,1.5c8.2,0,12.3-2.7,12.3-8.1c0-2.3-0.4-3.9-1.3-4.8c-0.8-0.9-1.7-1.6-2.6-2c-0.9-0.4-2-0.7-3.5-0.9L46,102
	c-7.6-1.2-13.4-3.9-17.3-8c-3.9-4.2-5.8-10.2-5.8-18c0-8.4,2.8-15.2,8.4-20.5c5.6-5.3,13.3-8,22.9-8c6.3,0,11.8,0.8,16.4,2.5
	c4.6,1.6,8.8,4.4,12.5,8.3L69.9,72.1c-1.6-1.7-3.6-3-5.9-3.9c-2.3-0.9-5.3-1.4-8.8-1.4h-1.6c-3.5,0-6,0.8-7.8,2.5
	c-1.7,1.6-2.6,3.6-2.6,5.9c0,0.9,0.1,1.7,0.4,2.3c0.3,0.6,0.7,1.3,1.3,1.9c0.6,0.6,1.3,1.2,2.2,1.6c0.9,0.5,2.1,0.8,3.6,0.9
	l10.4,1.5c7.5,1.1,12.8,3.2,15.8,6.3c3,3.1,5,6.2,6,9.5c1,3.2,1.5,7.1,1.5,11.5c0,8.8-3.2,15.7-9.5,20.8
	C68.7,136.6,60.8,139.1,51.3,139.1z"/>
<path class="st0" d="M123.7,160.4v-27c-3.6,3.4-8.4,5.1-14.5,5.1c-6.5,0-11.3-1.7-14.5-5c-3.2-3.3-5.2-7-6-11.1
	c-0.8-4.1-1.2-8.9-1.2-14.6V104c0-7.4,0.3-13.2,0.9-17.5c0.6-4.3,2.6-8.2,6-11.7c3.4-3.5,8.4-5.3,14.9-5.3c3.3,0,6.1,0.5,8.4,1.5
	c2.3,1,4.5,2.6,6.6,4.8v-5.9h19.2v90.5L123.7,160.4L123.7,160.4z M115.5,88.2c-3.5,0-5.7,1.3-6.7,3.8c-1,2.5-1.5,6.6-1.5,12.3
	c0,5.7,0.5,9.7,1.5,12.3c1,2.5,3.2,3.8,6.7,3.8c3.5,0,5.7-1.3,6.7-3.8c1-2.5,1.5-6.6,1.5-12.3c0-5.7-0.5-9.7-1.5-12.3
	C121.2,89.5,119,88.2,115.5,88.2z"/>
<path class="st0" d="M170.7,138.5c-6.7,0-11.7-2-15.1-6c-3.4-4-5.1-8.7-5.1-14.1l0-70.1h19.8v68.6c0,2.8,1.3,4.2,4,4.2h6.9v17.5
	L170.7,138.5L170.7,138.5z"/>
</svg>
