<?xml version="1.0" encoding="utf-8"?>
<!-- Generator: Adobe Illustrator 21.0.0, SVG Export Plug-In . SVG Version: 6.00 Build 0)  -->
<svg version="1.1" id="图层_1" xmlns="http://www.w3.org/2000/svg" xmlns:xlink="http://www.w3.org/1999/xlink" x="0px" y="0px"
	 viewBox="0 0 18 18" style="enable-background:new 0 0 18 18;" xml:space="preserve">
<style type="text/css">
	.st0{fill:#333333;}
</style>
<title>标准化</title>
<desc>Created with Sketch.</desc>
<g id="_x31_.0">
	<g id="图标介绍" transform="translate(-25.000000, -401.000000)">
		<g id="标准化" transform="translate(25.000000, 401.000000)">
			<path class="st0" d="M13.9,10.7h0.5V4.1h-11v6.6h0.5V8.2c0-0.3,0.2-0.5,0.5-0.5c0.3,0,0.5,0.2,0.5,0.5v2.5h1.1V6.8
				c0-0.3,0.2-0.5,0.5-0.5s0.5,0.2,0.5,0.5v3.8h1.1V8.2c0-0.3,0.2-0.5,0.5-0.5c0.3,0,0.5,0.2,0.5,0.5v2.5h1.1V8.2
				c0-0.3,0.2-0.5,0.5-0.5c0.3,0,0.5,0.2,0.5,0.5v2.5h1.1V8.2c0-0.3,0.2-0.5,0.5-0.5c0.3,0,0.5,0.2,0.5,0.5V10.7z M3.5,3h11
				c0.6,0,1.1,0.5,1.1,1.1v6.6c0,0.6-0.5,1.1-1.1,1.1h-11c-0.6,0-1.1-0.5-1.1-1.1V4.1C2.4,3.5,2.9,3,3.5,3z M3,14.5
				c-0.3,0-0.5-0.2-0.5-0.5s0.2-0.5,0.5-0.5h12c0.3,0,0.5,0.2,0.5,0.5s-0.2,0.5-0.5,0.5H3z"/>
		</g>
	</g>
</g>
</svg>
