<?xml version="1.0" encoding="utf-8"?>
<!-- Generator: Adobe Illustrator 21.0.0, SVG Export Plug-In . SVG Version: 6.00 Build 0)  -->
<svg version="1.1" id="图层_1" xmlns="http://www.w3.org/2000/svg" xmlns:xlink="http://www.w3.org/1999/xlink" x="0px" y="0px"
	 viewBox="0 0 18 18" style="enable-background:new 0 0 18 18;" xml:space="preserve">
<style type="text/css">
	.st0{fill:#333333;}
</style>
<title>SVM</title>
<desc>Created with Sketch.</desc>
<g id="_x31_.0">
	<g id="图标介绍" transform="translate(-24.000000, -520.000000)">
		<g id="SVM" transform="translate(24.000000, 520.000000)">
			<g transform="translate(3.000000, 2.000000)">
				<circle id="椭圆形" class="st0" cx="1.5" cy="2" r="2"/>
				<circle id="椭圆形_1_" class="st0" cx="6.5" cy="2" r="2"/>
				<circle id="椭圆形_2_" class="st0" cx="1.5" cy="7" r="2"/>
				<path id="椭圆形_3_" class="st0" d="M10.5,9c1.1,0,2-0.9,2-2s-0.9-2-2-2s-2,0.9-2,2S9.4,9,10.5,9z M10.5,8c-0.6,0-1-0.4-1-1
					s0.4-1,1-1s1,0.4,1,1S11.1,8,10.5,8z"/>
				<path id="椭圆形_4_" class="st0" d="M6,13.5c1.1,0,2-0.9,2-2s-0.9-2-2-2s-2,0.9-2,2S4.9,13.5,6,13.5z M6,12.5
					c-0.6,0-1-0.4-1-1s0.4-1,1-1s1,0.4,1,1S6.6,12.5,6,12.5z"/>
				<path id="椭圆形_5_" class="st0" d="M10.5,14c1.1,0,2-0.9,2-2s-0.9-2-2-2s-2,0.9-2,2S9.4,14,10.5,14z M10.5,13
					c-0.6,0-1-0.4-1-1s0.4-1,1-1s1,0.4,1,1S11.1,13,10.5,13z"/>
				<path id="路径-18" class="st0" d="M1,12.9L11.8,2.1c0.2-0.2,0.2-0.5,0-0.7c-0.2-0.2-0.5-0.2-0.7,0L0.3,12.2
					c-0.2,0.2-0.2,0.5,0,0.7C0.5,13.1,0.8,13.1,1,12.9z"/>
			</g>
		</g>
	</g>
</g>
</svg>
