<?xml version="1.0" encoding="UTF-8"?>
<svg width="18px" height="18px" viewBox="0 0 18 18" version="1.1" xmlns="http://www.w3.org/2000/svg" xmlns:xlink="http://www.w3.org/1999/xlink">
    <!-- Generator: Sketch 55.2 (78181) - https://sketchapp.com -->
    <title>聚类模型评估</title>
    <desc>Created with Sketch.</desc>
    <g id="1.0" stroke="none" stroke-width="1" fill="none" fill-rule="evenodd">
        <g id="算法实验-实验开发" transform="translate(-1181.000000, -650.000000)" fill="#333333" fill-rule="nonzero">
            <g id="图标介绍" transform="translate(1156.000000, 278.000000)">
                <g id="icon" transform="translate(22.000000, 71.000000)">
                    <g id="聚类模型评估" transform="translate(3.000000, 301.000000)">
                        <g transform="translate(1.500000, 1.500000)">
                            <path d="M3.99473054,1.62190966 C4.24370629,1.5024706 4.5423655,1.60748083 4.66180456,1.85645658 C4.78124361,2.10543233 4.67623338,2.40409154 4.42725763,2.5235306 C2.34980442,3.52012989 1,5.62159501 1,7.96666667 C1,8.5108136 1.07191371,9.0449412 1.21233016,9.5594128 C1.28503912,9.82581104 1.12802295,10.1007117 0.861624714,10.1734207 C0.595226481,10.2461297 0.320325786,10.0891135 0.247616825,9.82271524 C0.0838344669,9.22263335 -3.10862447e-14,8.59996621 -3.10862447e-14,7.96666667 C-3.10862447e-14,5.23329347 1.57362797,2.78336499 3.99473054,1.62190966 Z M2.95131479,13.694851 C2.72655769,13.5344177 2.67441299,13.2221591 2.83484633,12.997402 C2.99527968,12.7726449 3.30753823,12.7205002 3.53229533,12.8809336 C4.54658376,13.6049405 5.75960374,14 7.03333333,14 C8.75044329,14 10.3506023,13.2795399 11.4869433,12.0369201 C11.6732963,11.833138 11.9895633,11.8190089 12.1933455,12.005362 C12.3971276,12.191715 12.4112567,12.5079821 12.2249036,12.7117642 C10.9010498,14.1594343 9.03413347,15 7.03333333,15 C5.54955613,15 4.13378649,14.5389084 2.95131479,13.694851 Z M14.0666667,7.96666667 C14.0666667,8.24280904 13.842809,8.46666667 13.5666667,8.46666667 C13.2905243,8.46666667 13.0666667,8.24280904 13.0666667,7.96666667 C13.0666667,5.30238484 11.3240777,2.97627782 8.8178742,2.20146737 C8.55405196,2.11990488 8.40630126,1.83991523 8.48786376,1.576093 C8.56942626,1.31227077 8.8494159,1.16452006 9.11323813,1.24608256 C12.0355243,2.14952788 14.0666667,4.86081244 14.0666667,7.96666667 Z" id="形状"></path>
                            <path d="M5.16666667,2.86666667 C5.95827481,2.86666667 6.6,2.22494147 6.6,1.43333333 C6.6,0.641725192 5.95827481,6.06181771e-14 5.16666667,6.06181771e-14 C4.37505853,6.06181771e-14 3.73333333,0.641725192 3.73333333,1.43333333 C3.73333333,2.22494147 4.37505853,2.86666667 5.16666667,2.86666667 Z M5.16666667,1.86666667 C4.92734328,1.86666667 4.73333333,1.67265672 4.73333333,1.43333333 C4.73333333,1.19400994 4.92734328,1 5.16666667,1 C5.40599006,1 5.6,1.19400994 5.6,1.43333333 C5.6,1.67265672 5.40599006,1.86666667 5.16666667,1.86666667 Z" id="椭圆形"></path>
                            <path d="M13.5666667,10.3333333 C14.3582748,10.3333333 15,9.69160814 15,8.9 C15,8.10839186 14.3582748,7.46666667 13.5666667,7.46666667 C12.7750585,7.46666667 12.1333333,8.10839186 12.1333333,8.9 C12.1333333,9.69160814 12.7750585,10.3333333 13.5666667,10.3333333 Z M13.5666667,9.33333333 C13.3273433,9.33333333 13.1333333,9.13932339 13.1333333,8.9 C13.1333333,8.66067661 13.3273433,8.46666667 13.5666667,8.46666667 C13.8059901,8.46666667 14,8.66067661 14,8.9 C14,9.13932339 13.8059901,9.33333333 13.5666667,9.33333333 Z" id="椭圆形"></path>
                            <path d="M2.36666667,14.0666667 C3.15827481,14.0666667 3.8,13.4249415 3.8,12.6333333 C3.8,11.8417252 3.15827481,11.2 2.36666667,11.2 C1.57505853,11.2 0.933333333,11.8417252 0.933333333,12.6333333 C0.933333333,13.4249415 1.57505853,14.0666667 2.36666667,14.0666667 Z M2.36666667,13.0666667 C2.12734328,13.0666667 1.93333333,12.8726567 1.93333333,12.6333333 C1.93333333,12.3940099 2.12734328,12.2 2.36666667,12.2 C2.60599006,12.2 2.8,12.3940099 2.8,12.6333333 C2.8,12.8726567 2.60599006,13.0666667 2.36666667,13.0666667 Z" id="椭圆形"></path>
                            <path d="M6.78333333,2.8669873 C6.93803387,2.7776709 7.12863279,2.7776709 7.28333333,2.8669873 L11.3247852,5.20032063 C11.4794858,5.28963703 11.5747852,5.45470054 11.5747852,5.63333333 L11.5747852,10.3 C11.5747852,10.4786328 11.4794858,10.6436963 11.3247852,10.7330127 L7.28333333,13.066346 C7.12863279,13.1556624 6.93803387,13.1556624 6.78333333,13.066346 L2.74188145,10.7330127 C2.58718091,10.6436963 2.49188145,10.4786328 2.49188145,10.3 L2.49188145,5.63333333 C2.49188145,5.45470054 2.58718091,5.28963703 2.74188145,5.20032063 L6.78333333,2.8669873 Z M7.03333333,3.87735027 L3.49188145,5.92200847 L3.49188145,10.0113249 L7.03333333,12.0559831 L10.5747852,10.0113249 L10.5747852,5.92200847 L7.03333333,3.87735027 Z" id="多边形"></path>
                            <path d="M3.24188145,5.20032063 C3.00273514,5.06224944 2.69693993,5.14418702 2.55886875,5.38333333 C2.42079756,5.62247965 2.50273514,5.92827485 2.74188145,6.06634604 L6.78333333,8.39967937 C6.93803387,8.48899577 7.12863279,8.48899577 7.28333333,8.39967937 L11.3247852,6.06634604 C11.5639315,5.92827485 11.6458691,5.62247965 11.5077979,5.38333333 C11.3697267,5.14418702 11.0639315,5.06224944 10.8247852,5.20032063 L7.03333333,7.3893164 L3.24188145,5.20032063 Z" id="路径-8"></path>
                            <path d="M6.53333333,7.96666667 L6.53333333,12.6333333 C6.53333333,12.9094757 6.75719096,13.1333333 7.03333333,13.1333333 C7.30947571,13.1333333 7.53333333,12.9094757 7.53333333,12.6333333 L7.53333333,7.96666667 C7.53333333,7.69052429 7.30947571,7.46666667 7.03333333,7.46666667 C6.75719096,7.46666667 6.53333333,7.69052429 6.53333333,7.96666667 Z" id="路径-9"></path>
                        </g>
                    </g>
                </g>
            </g>
        </g>
    </g>
</svg>