<?xml version="1.0" standalone="no"?><!DOCTYPE svg PUBLIC "-//W3C//DTD SVG 1.1//EN" "http://www.w3.org/Graphics/SVG/1.1/DTD/svg11.dtd"><svg class="icon" width="48px" height="48.00px" viewBox="0 0 1024 1024" version="1.1" xmlns="http://www.w3.org/2000/svg"><path fill="#333333" d="M1000.146824 957.500235l-311.597176-311.597176c58.729412-68.487529 94.509176-157.214118 94.509176-254.373647 0-215.883294-175.646118-391.529412-391.529412-391.529412-104.628706 0-202.932706 40.719059-276.901647 114.688-73.968941 73.908706-114.627765 172.272941-114.627765 276.841412 0 215.883294 175.646118 391.529412 391.529412 391.529412 97.099294 0 185.886118-35.779765 254.433882-94.509176l311.597176 311.597176 42.586353-42.646588zM391.529412 722.823529c-182.693647 0-331.294118-148.600471-331.294118-331.294118 0-88.545882 34.394353-171.730824 96.978824-234.315294 62.584471-62.524235 145.769412-96.978824 234.315294-96.978824 182.693647 0 331.294118 148.600471 331.294118 331.294118 0 182.693647-148.600471 331.294118-331.294118 331.294118zM421.647059 361.411765l120.470588 0 0 60.235294-120.470588 0 0 120.470588-60.235294 0 0-120.470588-120.470588 0 0-60.235294 120.470588 0 0-120.470588 60.235294 0 0 120.470588z" /></svg>