<svg id="图层_1" xmlns="http://www.w3.org/2000/svg" viewBox="0 0 200 200"><style>.st0{fill:#2491f7}</style><path class="st0" d="M88.5 94l-2.2 6.2h4.6L88.5 94z"/><path class="st0" d="M127.5 68.3h-55c-2.2 0-3.9 1.8-3.9 3.9V127c0 2.2 1.8 3.9 3.9 3.9h54.8c2.2 0 3.9-1.8 3.9-3.9V72.3c.3-2.2-1.6-4-3.7-4zm-13.2 21.8h3.4v16.7h-3.4V90.1zm-15.5 0h5.4c2.1 0 3.4.1 4 .3 1 .3 1.8.8 2.4 1.7s1 1.9 1 3.2c0 1.1-.2 1.9-.5 2.6-.4.7-.9 1.2-1.4 1.7s-1.2.6-1.8.8c-.8.2-2 .3-3.5.3h-2.2v6.3h-3.3l-.1-16.9zm-12 0h3.6l6.7 16.7h-3.7L92 103h-6.7l-1.3 3.8h-3.6c-.2 0 6.4-16.7 6.4-16.7zm30.4 36.3H78c-2.6 0-4.6-2.1-4.6-4.6V82.6c0-.7.6-1.3 1.3-1.3s1.3.6 1.3 1.3v39.2c0 1.1.9 2 2 2h39.3c.7 0 1.3.6 1.3 1.3 0 .7-.6 1.3-1.4 1.3z"/><path class="st0" d="M106.7 97.4c.4-.2.8-.4 1.1-.8.3-.4.4-.8.4-1.2 0-.6-.2-1.1-.5-1.5-.4-.4-.8-.6-1.3-.7-.4-.2-1.2-.2-2.4-.2h-1.7v4.7h1.8c1.3 0 2.2-.1 2.6-.3z"/><path class="st0" d="M153.6 82.7c1.7 0 3.1-1.4 3.1-3.1s-1.4-3.1-3.1-3.1h-10.8v-8.8c0-6-4.8-10.9-10.9-10.9h-4.3V46.4c0-1.7-1.4-3.1-3.1-3.1-1.7 0-3.1 1.4-3.1 3.1v10.4h-7.2V46.4c0-1.7-1.4-3.1-3.1-3.1s-3.1 1.4-3.1 3.1v10.4h-7.3V46.4c0-1.7-1.4-3.1-3.1-3.1s-3.1 1.4-3.1 3.1v10.4h-7.2V46.4c0-1.7-1.4-3.1-3.1-3.1s-3.1 1.4-3.1 3.1v10.4h-13c-6 0-10.9 4.8-10.9 10.9v8.8H46.4c-1.7 0-3.1 1.4-3.1 3.1s1.4 3.1 3.1 3.1h10.8v7.2H46.4c-1.7 0-3.1 1.4-3.1 3.1s1.3 3.2 3.1 3.2h10.8v7.2H46.4c-1.7 0-3.1 1.4-3.1 3.1s1.4 3.1 3.1 3.1h10.8v7.2H46.4c-1.7 0-3.1 1.4-3.1 3.1s1.4 3.1 3.1 3.1h10.8v8.8c0 6 4.8 10.9 10.9 10.9h4.7V154c0 1.7 1.4 3.1 3.1 3.1s3.1-1.4 3.1-3.1v-11.3h7.2V154c0 1.7 1.4 3.1 3.1 3.1s3.1-1.4 3.1-3.1v-11.3h7.2V154c0 1.7 1.4 3.1 3.1 3.1s3.1-1.4 3.1-3.1v-11.3h7.2V154c0 1.7 1.4 3.1 3.1 3.1s3.1-1.4 3.1-3.1v-11.3h12.9c6 0 10.9-4.8 10.9-10.9V123h10.8c1.7 0 3.1-1.4 3.1-3.1s-1.4-3.1-3.1-3.1H143v-7.2h10.8c1.7 0 3.1-1.4 3.1-3.1 0-1.7-1.4-3.1-3.1-3.1H143V96h10.8c1.7 0 3.1-1.4 3.1-3.1s-1.4-3.1-3.1-3.1H143v-7.2c-.4.1 10.6.1 10.6.1zm-16.9 49c0 2.5-2.1 4.6-4.6 4.6h-64c-2.5 0-4.6-2.1-4.6-4.6v-64c0-2.5 2.1-4.6 4.6-4.6H132c2.5 0 4.6 2.1 4.6 4.6v64h.1z"/></svg>