<?xml version="1.0" encoding="UTF-8"?>
<svg width="16px" height="16px" viewBox="0 0 16 16" version="1.1" xmlns="http://www.w3.org/2000/svg" xmlns:xlink="http://www.w3.org/1999/xlink">
    <!-- Generator: Sketch 49.3 (51167) - http://www.bohemiancoding.com/sketch -->
    <title>icon_debug</title>
    <desc>Created with Sketch.</desc>
    <defs></defs>
    <g id="Page-1" stroke="none" stroke-width="1" fill="none" fill-rule="evenodd">
        <g id="数据开发初始面板-copy" transform="translate(-159.000000, -17.000000)" fill="#FFFFFF">
            <g id="menu">
                <g id="icon_debug" transform="translate(159.000000, 17.000000)">
                    <path fill="#999999" d="M7.99104859,13.9231781 C6.09101859,13.9231781 4.49134858,12.3234897 4.49134858,10.4245627 L4.49134858,5.92361081 L7.49157357,5.92361081 L7.49157357,11.92413 L8.49052362,11.92413 L8.49052362,5.92361081 L11.4907486,5.92361081 L11.4907486,10.4245627 C11.4907486,12.3234897 9.88995365,13.9231781 7.99104859,13.9231781 Z M12.4908236,8.92387042 L15.4910486,8.92387042 L15.4910486,7.92378388 L12.4908236,7.92378388 L12.4908236,5.82348966 C13.6900136,5.52425117 14.9904486,4.62428579 14.9904486,2.42387042 L13.9903736,2.42387042 C13.9903736,4.82452808 11.7911086,4.92352428 11.4907486,4.92352428 L4.49134858,4.92352428 C4.39122858,4.92352428 1.99172356,4.92352428 1.99172356,2.42387042 L0.991648563,2.42387042 C0.991648563,4.52416464 2.2909586,5.42413002 3.49127358,5.82348966 L3.49127358,7.92378388 L0.491048593,7.92378388 L0.491048593,8.92387042 L3.49127358,8.92387042 L3.49127358,10.4245627 C3.49127358,11.0241646 3.59139358,11.5236454 3.79163356,12.0242512 C2.59131858,12.2233685 0.991648563,13.1233339 0.991648563,15.4238704 L1.99172356,15.4238704 C1.99172356,13.3235762 3.59139358,13.0232128 4.29110859,12.9230916 C5.0909436,14.1234204 6.49149857,14.9243896 7.99104859,14.9243896 C9.59071861,14.9243896 10.8911536,14.1234204 11.6909886,12.9230916 C12.2905836,13.0232128 13.9903736,13.3235762 13.9903736,15.4238704 L14.9904486,15.4238704 C14.9904486,13.1233339 13.3907786,12.2233685 12.1904636,12.0242512 C12.3907036,11.5236454 12.4908236,11.0241646 12.4908236,10.4245627 L12.4908236,8.92387042 Z" id="Fill-1"></path>
                    <path fill="#999999" d="M5.17062477,3.01176471 C5.6789073,1.80675757 6.82433271,1.00392157 8.0971867,1.00392157 C9.37004069,1.00392157 10.5154661,1.80675757 11.0237486,3.01176471 L5.17062477,3.01176471 Z M8.09652831,0 C5.87247292,0 4,1.83552102 4,4.01568627 L12.1943734,4.01568627 C12.1943734,1.83552102 10.3205837,0 8.09652831,0 Z" id="Fill-4"></path>
                </g>
            </g>
        </g>
    </g>
</svg>