<?xml version="1.0" encoding="UTF-8"?>
<svg width="16px" height="16px" viewBox="0 0 16 16" version="1.1" xmlns="http://www.w3.org/2000/svg" xmlns:xlink="http://www.w3.org/1999/xlink">
    <!-- Generator: Sketch 52.2 (67145) - http://www.bohemiancoding.com/sketch -->
    <title>icon_metadata</title>
    <desc>Created with Sketch.</desc>
    <g id="icon_metadata" stroke="none" stroke-width="1" fill="none" fill-rule="evenodd">
        <g>
            <rect id="Rectangle" fill="#1B1E21" opacity="0" x="0" y="0" width="16" height="16"></rect>
            <path d="M2,2 L2,13 L14,13 L14,2 L2,2 Z M2,1 L14,1 C14.5522847,1 15,1.44771525 15,2 L15,13 C15,13.5522847 14.5522847,14 14,14 L2,14 C1.44771525,14 1,13.5522847 1,13 L1,2 C1,1.44771525 1.44771525,1 2,1 Z" id="Rectangle" fill="#FFFFFF" fill-rule="nonzero"></path>
            <rect id="Rectangle" fill="#FFFFFF" x="1" y="4" width="13" height="1"></rect>
            <circle id="Oval" fill="#FFFFFF" cx="6" cy="9" r="1"></circle>
            <circle id="Oval-Copy-3" fill="#FFFFFF" cx="10" cy="11" r="1"></circle>
            <circle id="Oval-Copy-9" fill="#FFFFFF" cx="13" cy="8" r="1"></circle>
            <circle id="Oval-Copy-8" fill="#FFFFFF" cx="9" cy="7" r="1"></circle>
            <polygon id="Line" fill="#FFFFFF" fill-rule="nonzero" points="6.37711521 9.44634713 5.80365287 8.62711521 9.28802374 6.1880556 10.2698092 9.62430483 13.0640184 7.29579716 13.7042028 8.06401844 9.73019077 11.3756952 8.71197626 7.8119444"></polygon>
        </g>
    </g>
</svg>