<?xml version="1.0" encoding="UTF-8"?>
<svg width="16px" height="16px" viewBox="0 0 16 16" version="1.1" xmlns="http://www.w3.org/2000/svg" xmlns:xlink="http://www.w3.org/1999/xlink">
    <!-- Generator: Sketch 52.2 (67145) - http://www.bohemiancoding.com/sketch -->
    <title>icon_searchdata</title>
    <desc>Created with Sketch.</desc>
    <g id="icon_searchdata" stroke="none" stroke-width="1" fill="none" fill-rule="evenodd">
        <g>
            <rect id="Rectangle" fill="#1B1E21" opacity="0" x="0" y="0" width="16" height="16"></rect>
            <path d="M12.5174892,12.3810716 C12.5867529,12.4050474 12.651797,12.4446902 12.7071068,12.5 L14.8284271,14.6213203 C15.0236893,14.8165825 15.0236893,15.133165 14.8284271,15.3284271 C14.633165,15.5236893 14.3165825,15.5236893 14.1213203,15.3284271 L12,13.2071068 C11.9324051,13.1395119 11.8882099,13.0573783 11.8674143,12.9707719 C10.6701856,13.9277924 9.1519159,14.5 7.5,14.5 C3.63400675,14.5 0.5,11.3659932 0.5,7.5 C0.5,3.63400675 3.63400675,0.5 7.5,0.5 C11.3659932,0.5 14.5,3.63400675 14.5,7.5 C14.5,9.39830136 13.744372,11.1201163 12.5174892,12.3810716 Z M7.5,13.5 C10.8137085,13.5 13.5,10.8137085 13.5,7.5 C13.5,4.1862915 10.8137085,1.5 7.5,1.5 C4.1862915,1.5 1.5,4.1862915 1.5,7.5 C1.5,10.8137085 4.1862915,13.5 7.5,13.5 Z" id="Combined-Shape" fill="#FFFFFF" fill-rule="nonzero"></path>
            <rect id="Rectangle" stroke="#FFFFFF" x="5.5" y="5.5" width="3" height="3"></rect>
            <polygon id="Path" fill="#FFFFFF" fill-rule="nonzero" points="10 10 10 8 11 8 11 11 8 11 8 10"></polygon>
        </g>
    </g>
</svg>