<?xml version="1.0" standalone="no"?><!DOCTYPE svg PUBLIC "-//W3C//DTD SVG 1.1//EN" "http://www.w3.org/Graphics/SVG/1.1/DTD/svg11.dtd"><svg t="1493273874692" class="icon" style="" viewBox="0 0 1024 1024" version="1.1" xmlns="http://www.w3.org/2000/svg" p-id="2964" xmlns:xlink="http://www.w3.org/1999/xlink" width="200" height="200"><defs><style type="text/css"></style></defs><path d="M955.387831 512.14224c0 275.566126-208.679763 444.821995-444.75548 444.821995-234.739279 0-444.75548-184.958502-444.75548-444.821995 0-245.597581 199.12413-444.75548 444.75548-444.75548S955.387831 266.544659 955.387831 512.14224L955.387831 512.14224zM510.632351 130.933051c-210.550367 0-381.209188 170.658821-381.209188 381.209188s170.658821 381.208165 381.209188 381.208165c210.550367 0 381.209188-170.657798 381.209188-381.208165S721.182718 130.933051 510.632351 130.933051L510.632351 130.933051z" p-id="2965"></path><path d="M733.010091 543.915897 510.632351 543.915897c-17.574261 0-31.740912-14.199397-31.740912-31.772634l0-254.117628c0-17.573237 14.166651-31.806403 31.740912-31.806403s31.738865 14.233166 31.738865 31.806403l0 222.344994 190.639898 0c17.573237 0 31.738865 14.265912 31.738865 31.772634C764.748956 529.7165 750.583329 543.915897 733.010091 543.915897L733.010091 543.915897z" p-id="2966"></path></svg>