<?xml version="1.0" standalone="no"?><!DOCTYPE svg PUBLIC "-//W3C//DTD SVG 1.1//EN" "http://www.w3.org/Graphics/SVG/1.1/DTD/svg11.dtd"><svg class="icon" width="48px" height="48.00px" viewBox="0 0 1024 1024" version="1.1" xmlns="http://www.w3.org/2000/svg"><path fill="#333333" d="M999.344139 955.925769l-311.084802-311.084802c58.63284-68.374912 94.35377-157.015739 94.35377-253.955368 0-215.528306-175.357294-390.8856-390.8856-390.8856-104.396523 0-202.599013 40.652102-276.50646 114.439276-73.787174 73.84731-114.439276 172.0498-114.37914 276.446324 0 215.528306 175.357294 390.8856 390.8856 390.8856 96.939629 0 185.640592-35.72093 254.015504-94.35377l311.084802 311.084802 42.516326-42.576462zM391.727508 721.634954c-182.333098 0-330.749354-148.356119-330.749354-330.749354-0.060136-88.400282 34.337797-171.448438 96.819356-233.869861 62.421424-62.48156 145.529716-96.879493 233.929998-96.879493 182.333098 0 330.749354 148.356119 330.749354 330.749354 0 182.333098-148.416256 330.749354-330.749354 330.749354zM241.386892 360.817477l300.681231 0 0 60.136246-300.681231 0 0-60.136246z" /></svg>