<?xml version="1.0" encoding="UTF-8"?>
<svg width="32px" height="32px" viewBox="0 0 32 32" version="1.1" xmlns="http://www.w3.org/2000/svg" xmlns:xlink="http://www.w3.org/1999/xlink">
    <!-- Generator: Sketch 55.2 (78181) - https://sketchapp.com -->
    <title>jq_icon</title>
    <desc>Created with Sketch.</desc>
    <g id="icon" stroke="none" stroke-width="1" fill="none" fill-rule="evenodd">
        <g id="精确匹配" transform="translate(-13.000000, -84.000000)" fill="#979797" fill-rule="nonzero">
            <g id="jq_icon" transform="translate(13.000000, 84.000000)">
                <path d="M24,17 L22.4379883,17 C22.1618459,17 21.9379883,16.7761424 21.9379883,16.5 C21.9379883,16.2238576 22.1618459,16 22.4379883,16 L24,16 L24,11.5 C24,11.2238576 23.7761424,11 23.5,11 L16.74,11 L16.74,12.5 C16.74,12.7761424 16.5161424,13 16.24,13 C15.9638576,13 15.74,12.7761424 15.74,12.5 L15.74,11 L8.5,11 C8.22385763,11 8,11.2238576 8,11.5 L8,16 L9.5,16 C9.77614237,16 10,16.2238576 10,16.5 C10,16.7761424 9.77614237,17 9.5,17 L8,17 L8,21.5 C8,21.7761424 8.22385763,22 8.5,22 L15.74,22 L15.74,20.5205078 C15.74,20.2443654 15.9638576,20.0205078 16.24,20.0205078 C16.5161424,20.0205078 16.74,20.2443654 16.74,20.5205078 L16.74,22 L23.5,22 C23.7761424,22 24,21.7761424 24,21.5 L24,17 Z M12.5277878,13 L13.6675903,13 L16.195378,19.5630563 L15.1199192,19.5630563 L14.5040582,17.8717364 L11.6821279,17.8717364 L11.0662668,19.5630563 L10,19.5630563 L12.5277878,13 Z M11.9854624,17.0444604 L14.2007237,17.0444604 L13.1160729,14.0754588 L13.0793051,14.0754588 L11.9854624,17.0444604 Z M19.3992856,14.6821279 C20.0978742,14.6821279 20.6126237,14.856775 20.9435341,15.2060693 C21.2284847,15.5094039 21.375556,15.9506177 21.375556,16.5297109 L21.375556,19.5630563 L20.4747444,19.5630563 L20.4747444,18.8920435 C20.2909052,19.1310343 20.0611064,19.3240654 19.7853477,19.4619447 C19.4728212,19.609016 19.105143,19.6917436 18.682313,19.6917436 C18.1859474,19.6917436 17.7998853,19.5630563 17.5241266,19.3148735 C17.2207921,19.0666907 17.0737208,18.7449722 17.0737208,18.3497181 C17.0737208,17.8165847 17.2851358,17.4029467 17.7079657,17.1179961 C18.0940279,16.8422374 18.6455452,16.7043581 19.3441338,16.6859742 L20.4104007,16.6583983 L20.4104007,16.4653672 C20.4104007,15.8035464 20.0519144,15.472636 19.3349419,15.472636 C19.0316073,15.472636 18.7834245,15.5277878 18.5995854,15.6380912 C18.3789785,15.7667786 18.2410992,15.9598097 18.1859474,16.2263764 L17.2207921,16.1436488 C17.3219036,15.6288993 17.5792784,15.2428372 17.9837244,15.0038463 C18.3330187,14.7832394 18.8110004,14.6821279 19.3992856,14.6821279 Z M20.4104007,17.3661789 L19.4084775,17.3937547 C18.5168578,17.4121387 18.075644,17.7246651 18.075644,18.3129503 C18.075644,18.4967894 18.1491796,18.6438607 18.3054428,18.7633561 C18.4525141,18.8828515 18.6547372,18.9471952 18.90292,18.9471952 C19.316558,18.9471952 19.6658523,18.8185079 19.9599948,18.5703251 C20.2541374,18.3221423 20.4104007,18.0096158 20.4104007,17.6419375 L20.4104007,17.3661789 Z M8.5,10 L23.5,10 C24.3284271,10 25,10.6715729 25,11.5 L25,21.5 C25,22.3284271 24.3284271,23 23.5,23 L8.5,23 C7.67157288,23 7,22.3284271 7,21.5 L7,11.5 C7,10.6715729 7.67157288,10 8.5,10 Z"></path>
            </g>
        </g>
    </g>
</svg>