<?xml version="1.0" encoding="UTF-8"?>
<svg width="32px" height="32px" viewBox="0 0 32 32" version="1.1" xmlns="http://www.w3.org/2000/svg" xmlns:xlink="http://www.w3.org/1999/xlink">
    <!-- Generator: Sketch 55.2 (78181) - https://sketchapp.com -->
    <title>mohu_icon</title>
    <desc>Created with Sketch.</desc>
    <g id="icon" stroke="none" stroke-width="1" fill="none" fill-rule="evenodd">
        <g id="精确匹配" transform="translate(-53.000000, -84.000000)" fill="#979797" fill-rule="nonzero">
            <g id="mohu_icon" transform="translate(53.000000, 84.000000)">
                <path d="M12.25,13 L13.49,13 L16.24,20.14 L15.07,20.14 L14.4,18.3 L11.33,18.3 L10.66,20.14 L9.5,20.14 L12.25,13 Z M11.66,17.4 L14.07,17.4 L12.89,14.17 L12.85,14.17 L11.66,17.4 Z M19.7255559,14.83 C20.4855559,14.83 21.0455559,15.02 21.4055559,15.4 C21.7155559,15.73 21.8755559,16.21 21.8755559,16.84 L21.8755559,20.14 L20.8955559,20.14 L20.8955559,19.41 C20.6955559,19.67 20.4455559,19.88 20.1455559,20.03 C19.8055559,20.19 19.4055559,20.28 18.9455559,20.28 C18.4055559,20.28 17.9855559,20.14 17.6855559,19.87 C17.3555559,19.6 17.1955559,19.25 17.1955559,18.82 C17.1955559,18.24 17.4255559,17.79 17.8855559,17.48 C18.3055559,17.18 18.9055559,17.03 19.6655559,17.01 L20.8255559,16.98 L20.8255559,16.77 C20.8255559,16.05 20.4355559,15.69 19.6555559,15.69 C19.3255559,15.69 19.0555559,15.75 18.8555559,15.87 C18.6155559,16.01 18.4655559,16.22 18.4055559,16.51 L17.3555559,16.42 C17.4655559,15.86 17.7455559,15.44 18.1855559,15.18 C18.5655559,14.94 19.0855559,14.83 19.7255559,14.83 Z M20.8255559,17.75 L19.7355559,17.78 C18.7655559,17.8 18.2855559,18.14 18.2855559,18.78 C18.2855559,18.98 18.3655559,19.14 18.5355559,19.27 C18.6955559,19.4 18.9155559,19.47 19.1855559,19.47 C19.6355559,19.47 20.0155559,19.33 20.3355559,19.06 C20.6555559,18.79 20.8255559,18.45 20.8255559,18.05 L20.8255559,17.75 Z M8,22.1137695 L10.6164551,22.1137695 C10.8925975,22.1137695 11.1164551,22.3376272 11.1164551,22.6137695 C11.1164551,22.8899119 10.8925975,23.1137695 10.6164551,23.1137695 L7.5,23.1137695 C7.22385763,23.1137695 7,22.8899119 7,22.6137695 L7,19.5 C7,19.2238576 7.22385763,19 7.5,19 C7.77614237,19 8,19.2238576 8,19.5 L8,22.1137695 Z M8,11 L8,13.6137695 C8,13.8899119 7.77614237,14.1137695 7.5,14.1137695 C7.22385763,14.1137695 7,13.8899119 7,13.6137695 L7,10.5 C7,10.2238576 7.22385763,10 7.5,10 L10.6164551,10 C10.8925975,10 11.1164551,10.2238576 11.1164551,10.5 C11.1164551,10.7761424 10.8925975,11 10.6164551,11 L8,11 Z M24.1164551,11 L21.5,11 C21.2238576,11 21,10.7761424 21,10.5 C21,10.2238576 21.2238576,10 21.5,10 L24.6164551,10 C24.8925975,10 25.1164551,10.2238576 25.1164551,10.5 L25.1164551,13.6137695 C25.1164551,13.8899119 24.8925975,14.1137695 24.6164551,14.1137695 C24.3403127,14.1137695 24.1164551,13.8899119 24.1164551,13.6137695 L24.1164551,11 Z M24.1164551,22.1137695 L24.1164551,19.5 C24.1164551,19.2238576 24.3403127,19 24.6164551,19 C24.8925975,19 25.1164551,19.2238576 25.1164551,19.5 L25.1164551,22.6137695 C25.1164551,22.8899119 24.8925975,23.1137695 24.6164551,23.1137695 L21.5,23.1137695 C21.2238576,23.1137695 21,22.8899119 21,22.6137695 C21,22.3376272 21.2238576,22.1137695 21.5,22.1137695 L24.1164551,22.1137695 Z"></path>
            </g>
        </g>
    </g>
</svg>