<?xml version="1.0" standalone="no"?><!DOCTYPE svg PUBLIC "-//W3C//DTD SVG 1.1//EN" "http://www.w3.org/Graphics/SVG/1.1/DTD/svg11.dtd"><svg t="1575250755073" class="icon" viewBox="0 0 1024 1024" version="1.1" xmlns="http://www.w3.org/2000/svg" p-id="2298" xmlns:xlink="http://www.w3.org/1999/xlink" width="200" height="200"><defs><style type="text/css"></style></defs><path d="M970.478933 619.895467l25.838934-23.893334c29.525333-27.306667 29.525333-71.714133 0-99.054933L479.709867 18.773333 73.796267 8.533333 77.482667 93.866667l339.490133 10.24 553.506133 515.754666z" fill="#1D89FF" p-id="2299"></path><path d="M195.584 370.5856c-44.305067 0-81.2032-34.133333-81.2032-75.1616 0-40.96 36.898133-75.127467 81.2032-75.127467 44.270933 0 81.169067 34.133333 81.169067 75.127467C273.066667 336.418133 239.854933 370.5856 195.584 370.5856m726.9376 239.069867L405.9136 131.4816 0 121.2416l11.0592 375.7056L527.701333 975.121067c29.525333 27.306667 77.482667 27.306667 107.042134 0l284.125866-262.997334c36.898133-30.72 36.898133-75.127467 3.6864-102.468266" fill="#1D89FF" p-id="2300"></path></svg>