<?xml version="1.0" standalone="no"?>
<!DOCTYPE svg PUBLIC "-//W3C//DTD SVG 1.1//EN" "http://www.w3.org/Graphics/SVG/1.1/DTD/svg11.dtd" >
<!--
2013-9-30: Created.
-->
<svg>
<metadata>
Created by iconfont
</metadata>
<defs>

<font id="iconfont" horiz-adv-x="1024" >
  <font-face
    font-family="iconfont"
    font-weight="500"
    font-stretch="normal"
    units-per-em="1024"
    ascent="896"
    descent="-128"
  />
    <missing-glyph />
    
    <glyph glyph-name="Outlinedxianxing_shouqi" unicode="&#59024;" d="M246.272 668.16l4.928-3.328 316.8-253.824a32 32 0 0 0 0.192-49.92l-318.464-257.6a33.536 33.536 0 0 0-47.04 4.8 33.088 33.088 0 0 0 4.8 46.72l286.144 231.104-283.264 227.84a32.64 32.64 0 0 0 35.904 54.144z m248.32 0l4.928-3.328 316.864-253.824a32 32 0 0 0 0.128-49.92l-318.4-257.6a33.536 33.536 0 0 0-47.04 4.8 33.088 33.088 0 0 0 4.736 46.72l286.144 231.104-283.2 227.84a32.64 32.64 0 0 0 35.84 54.144z"  horiz-adv-x="1024" />

    
    <glyph glyph-name="Outlinedxianxing_xinzeng" unicode="&#59025;" d="M512 576a28.16 28.16 0 0 0 28.16-28.16v-135.616l135.68-0.064a28.16 28.16 0 1 0 0-56.32l-135.68 0.064v-135.744a28.16 28.16 0 1 0-56.32 0V355.904l-135.68-0.064a28.16 28.16 0 1 0 0 56.32l135.68 0.064V547.84A28.16 28.16 0 0 0 512 576z"  horiz-adv-x="1024" />

    
    <glyph glyph-name="Outlinedxianxing_buzhou_wancheng" unicode="&#59026;" d="M697.673143 548.242286a20.114286 20.114286 0 0 0 0-28.452572l-256-256-2.523429-2.157714a20.114286 20.114286 0 0 0-35.949714-2.230857l-80.457143 139.337143a20.114286 20.114286 0 1 0 34.852572 20.114285l66.669714-115.529142L669.257143 548.242286a20.114286 20.114286 0 0 0 28.452571 0z"  horiz-adv-x="1024" />

    
    <glyph glyph-name="Filltianchong_Check-Circle" unicode="&#59027;" d="M512 832a448 448 0 1 1 0-896A448 448 0 0 1 512 832z m173.312-329.6l-190.4-264.128a31.808 31.808 0 0 0-51.712 0l-108.864 151.04a31.36 31.36 0 0 0 7.36 43.968 32.128 32.128 0 0 0 44.544-7.36L468.992 311.68l164.416 228.032a32 32 0 0 0 51.904-37.376z"  horiz-adv-x="1024" />

    
    <glyph glyph-name="Filltianchong_Close-Circle-Fill" unicode="&#59006;" d="M512 832a448 448 0 1 0 0-896A448 448 0 0 0 512 832zM385.472 564.864a38.4 38.4 0 1 1-54.336-54.336l126.72-126.72-126.72-126.72a38.4 38.4 0 1 1 54.336-54.272l126.72 126.72 126.72-126.72a38.4 38.4 0 1 1 54.272 54.272l-126.72 126.72 126.72 126.72a38.4 38.4 0 1 1-54.272 54.336l-126.72-126.72z"  horiz-adv-x="1024" />

    
    <glyph glyph-name="Filltianchong_Sort" unicode="&#59007;" d="M288 320L512 96 736 320zM288 448L512 672 736 448z"  horiz-adv-x="1024" />

    
    <glyph glyph-name="Filltianchong_Question-Circle-Fill" unicode="&#59008;" d="M512 832a448 448 0 1 1 0-896A448 448 0 0 1 512 832z m0-708.032a40 40 0 1 0 0 80 40 40 0 0 0 0-80z m62.912 219.52a48.32 48.32 0 0 1-30.912-44.8 30.72 30.72 0 0 0-30.72-30.72h-3.84a29.44 29.44 0 0 0-29.44 29.504 111.744 111.744 0 0 0 72 105.792c33.984 13.12 56 41.6 56 72.704 0 44.16-43.072 80-96 80-47.232 0-86.656-28.608-94.592-66.112v-0.384A33.728 33.728 0 0 0 384 460.416a30.848 30.848 0 0 0-30.72 34.112c4.544 32.192 20.864 61.824 47.104 84.8A168.576 168.576 0 0 0 512 620.032c41.984 0 81.6-14.528 111.616-40.704 31.168-27.328 48.384-64 48.384-103.296 0-57.856-38.08-109.824-97.088-132.48z"  horiz-adv-x="1024" />

    
    <glyph glyph-name="Filltianchong_Warning-Circle-Fill" unicode="&#59009;" d="M512 832a448 448 0 1 1 0-896A448 448 0 0 1 512 832z m0-224a38.4 38.4 0 0 0 38.4-38.4v-211.2a38.4 38.4 0 1 0-76.8 0V569.6a38.4 38.4 0 0 0 38.4 38.4z m0-448A48 48 0 1 0 512 256a48 48 0 0 0 0-96z"  horiz-adv-x="1024" />

    
    <glyph glyph-name="Outlinedxianxing_ceshiliantongxing" unicode="&#59010;" d="M171.264 391.68a339.968 339.968 0 0 0 99.648 233.152 338.944 338.944 0 0 0 240.96 99.84 338.112 338.112 0 0 0 240.832-99.84c9.792-9.728 19.008-20.16 27.52-31.04l-59.648-46.592a7.936 7.936 0 0 1 3.008-13.952l174.016-42.56a7.936 7.936 0 0 1 9.792 7.616l0.768 179.2a7.872 7.872 0 0 1-12.8 6.208l-55.808-43.648A415.936 415.936 0 0 1 96 392.128 7.936 7.936 0 0 1 103.936 384h59.392a7.936 7.936 0 0 1 7.936 7.68z m748.8-7.68h-59.392a7.936 7.936 0 0 1-7.936-7.68 338.88 338.88 0 0 0-99.648-233.152 339.2 339.2 0 0 0-240.96-99.84 338.944 338.944 0 0 0-268.416 130.88l59.584 46.592a7.936 7.936 0 0 1-2.944 13.952l-174.08 42.56a7.936 7.936 0 0 1-9.792-7.616l-0.64-179.264c0-6.656 7.616-10.432 12.8-6.272l55.808 43.712A415.936 415.936 0 0 1 928 375.872 7.936 7.936 0 0 1 920.064 384z"  horiz-adv-x="1024" />

    
    <glyph glyph-name="Outlinedxianxing_Close-1" unicode="&#59011;" d="M861.44 733.12a44.8 44.8 0 0 0 0-63.36L575.104 383.552l286.336-286.272a44.8 44.8 0 0 0-63.36-63.36L511.808 320.256 225.6 33.92a44.8 44.8 0 0 0-63.36 63.36l286.208 286.272-286.208 286.208a44.8 44.8 0 1 0 63.36 63.36l286.208-286.208 286.272 286.208a44.8 44.8 0 0 0 63.36 0z"  horiz-adv-x="1024" />

    
    <glyph glyph-name="Outlinedxianxing_Close-2" unicode="&#59012;" d="M317.568 632.704l194.56-194.56 194.624 194.56a38.4 38.4 0 1 0 54.336-54.336L566.4 383.808l194.56-194.56a38.4 38.4 0 0 0-54.272-54.4L512.128 329.536l-194.56-194.56a38.4 38.4 0 0 0-54.272 54.272l194.56 194.624-194.56 194.56a38.4 38.4 0 1 0 54.272 54.336z"  horiz-adv-x="1024" />

    
    <glyph glyph-name="Outlinedxianxing_Copy" unicode="&#59013;" d="M702.144 664.064H111.36c-36.096 0-65.28-29.184-65.28-65.28v-639.104c0-36.096 29.184-65.28 65.28-65.28h590.976c36.16 0 65.28 29.184 65.28 65.28V598.784a65.472 65.472 0 0 1-65.472 65.28zM133.12-18.56V577.024h547.456v-595.584H133.12zM861.44 873.6H284.16a43.648 43.648 0 0 1-43.52-43.52c0-23.936 19.584-43.52 43.52-43.52h577.28c15.872 0 28.736-12.8 28.736-28.736v-649.28c0-23.936 19.584-43.52 43.52-43.52 23.936 0 43.52 19.584 43.52 43.52V757.76A115.968 115.968 0 0 1 861.376 873.6z"  horiz-adv-x="1024" />

    
    <glyph glyph-name="Outlinedxianxing_Attachment" unicode="&#59014;" d="M797.312 697.344a241.92 241.92 0 0 1-341.76 0L213.248 455.168a35.264 35.264 0 0 1-0.128-49.792 35.072 35.072 0 0 1 49.728-0.128L505.216 647.68a170.432 170.432 0 0 0 121.28 50.176c45.824 0 88.96-17.792 121.216-50.176 32.384-32.448 50.176-75.52 50.176-121.216a170.24 170.24 0 0 0-50.176-121.216l-265.984-265.92-43.136-43.072a103.36 103.36 0 0 0-176.32 72.96c0 27.648 10.752 53.504 30.208 73.024l263.936 263.808a35.264 35.264 0 0 0 49.664 0 34.88 34.88 0 0 0 0-49.6L408.512 259.456a34.944 34.944 0 0 1 0-49.472 35.2 35.2 0 0 1 49.728 0l197.376 196.864c19.84 19.904 30.784 46.272 30.784 74.432 0 28.096-11.008 54.592-30.784 74.368a105.536 105.536 0 0 1-148.992 0l-25.6-25.728-238.208-238.08A172.16 172.16 0 0 1 192 169.152a173.248 173.248 0 0 1 173.44-173.184 172.8 172.8 0 0 1 122.688 50.688l309.12 308.992a240.448 240.448 0 0 1 70.784 170.816 239.68 239.68 0 0 1-70.72 170.88z"  horiz-adv-x="1024" />

    
    <glyph glyph-name="Outlinedxianxing_filter" unicode="&#59015;" d="M739.84 712.32a60.8 60.8 0 0 0 43.968-102.784L594.816 411.52l1.216-296.96a25.6 25.6 0 0 0-43.968-17.92l-95.36 97.984a32 32 0 0 0-9.088 22.336V411.52l-204.8 196.096A60.8 60.8 0 0 0 284.8 712.32h455.04z m-1.024-52.48H286.208a7.68 7.68 0 0 1-5.376-13.184L491.52 444.032a32 32 0 0 0 9.856-23.04v-194.944l40.96-44.224V421.76a32 32 0 0 0 8.832 22.016l193.28 203.008a7.68 7.68 0 0 1-5.632 12.992z"  horiz-adv-x="1024" />

    
    <glyph glyph-name="Outlinedxianxing_Download" unicode="&#59016;" d="M899.328 298.24a32 32 0 0 0 31.488-26.24l0.512-5.76v-256a32 32 0 0 0-26.24-31.488l-5.76-0.512h-768a32 32 0 0 0-31.424 26.24l-0.576 5.76v256a32 32 0 0 0 63.488 5.76l0.512-5.76v-224h704v224a32 32 0 0 0 26.24 31.488l5.76 0.512z m-384 469.76a32 32 0 0 0 31.488-26.24l0.512-5.76v-525.056L628.48 292.096a32 32 0 0 0 40.832 3.712l4.48-3.712a32 32 0 0 0 3.648-40.832l-3.712-4.48-135.744-135.68a32 32 0 0 0-40.832-3.776l-4.48 3.712-135.68 135.808a32 32 0 0 0 40.768 48.96l4.48-3.712 81.088-81.152V736a32 32 0 0 0 32 32z"  horiz-adv-x="1024" />

    
    <glyph glyph-name="Outlinedxianxing_Down" unicode="&#59017;" d="M734.08 489.664l-204.608-261.76a22.528 22.528 0 0 0-34.816 0L290.176 489.344a27.264 27.264 0 0 0 3.968 37.76 25.472 25.472 0 0 0 36.416-3.84L512 290.752l181.888 232.512a25.344 25.344 0 0 0 36.288 3.84 27.136 27.136 0 0 0 3.904-37.504z"  horiz-adv-x="1024" />

    
    <glyph glyph-name="Outlinedxianxing_Search" unicode="&#59018;" d="M448 832a384 384 0 0 0 295.68-629.056l206.016-205.952a35.84 35.84 0 0 0-50.688-50.688l-205.952 206.08A384 384 0 1 0 448 832z m0-71.68a312.32 312.32 0 1 1 0-624.64 312.32 312.32 0 0 1 0 624.64z"  horiz-adv-x="1024" />

    
    <glyph glyph-name="Outlinedxianxing_Question" unicode="&#59019;" d="M512 896a512 512 0 1 0-0.064-1024.064A512 512 0 0 0 512 896z m0-86.848a425.216 425.216 0 0 1 0-850.304A425.216 425.216 0 0 1 512 809.152z m5.504-630.848a51.2 51.2 0 1 0 0-102.4 51.2 51.2 0 0 0 0 102.4zM512 653.696c48 0 93.248-16.448 127.552-46.528 35.648-31.168 55.296-73.088 55.168-118.016 0-66.048-43.52-125.44-110.976-151.424a55.168 55.168 0 0 1-35.264-51.2v-25.984a9.152 9.152 0 0 0-9.152-9.088H484.48a9.152 9.152 0 0 0-9.152 9.088v24.576a127.744 127.744 0 0 0 82.304 120.96c38.912 14.976 64.064 47.488 64.064 83.072 0 50.368-49.28 91.392-109.696 91.392-60.48 0-109.696-40.96-109.696-91.392v-8.704a9.152 9.152 0 0 0-9.152-9.152h-54.848a9.152 9.152 0 0 0-9.152 9.152v8.704c0 44.928 19.648 86.848 55.296 118.08A193.28 193.28 0 0 0 512 653.632z"  horiz-adv-x="1024" />

    
    <glyph glyph-name="Outlinedxianxing_Upload" unicode="&#59020;" d="M899.328 298.24a32 32 0 0 0 31.488-26.24l0.512-5.76v-256a32 32 0 0 0-26.24-31.488l-5.76-0.512h-768a32 32 0 0 0-31.424 26.24l-0.576 5.76v256a32 32 0 0 0 63.488 5.76l0.512-5.76v-224h704v224a32 32 0 0 0 26.24 31.488l5.76 0.512zM497.152 762.24a32 32 0 0 0 40.832-3.648l135.744-135.808 3.712-4.416a32 32 0 0 0-3.712-40.832l-4.416-3.712a32 32 0 0 0-40.832 3.712L547.328 658.752v-525.056l-0.512-5.76a32 32 0 0 0-63.488 5.76V658.752L402.24 577.6l-4.48-3.712a32 32 0 0 0-40.768 48.96l135.68 135.808z"  horiz-adv-x="1024" />

    
    <glyph glyph-name="Outlinedxianxing_Setting" unicode="&#59021;" d="M908.608 317.888a411.008 411.008 0 0 1 0 132.096l74.88 64a36.608 36.608 0 0 1 10.624 40.256l-1.088 2.944a507.136 507.136 0 0 1-91.072 157.632l-2.048 2.368a36.736 36.736 0 0 1-40.128 10.88l-92.864-33.024a402.688 402.688 0 0 1-113.92 65.792L634.944 857.984a36.608 36.608 0 0 1-29.44 29.44l-3.2 0.512a516.288 516.288 0 0 1-181.632 0l-3.136-0.576a36.608 36.608 0 0 1-29.44-29.376l-18.048-97.6a402.112 402.112 0 0 1-113.152-65.6l-93.632 33.28a36.544 36.544 0 0 1-40.128-10.88l-2.048-2.368A509.76 509.76 0 0 1 30.08 557.184l-1.024-2.944a36.736 36.736 0 0 1 10.624-40.256l75.776-64.64a402.112 402.112 0 0 1 0-130.56L39.68 254.144a36.608 36.608 0 0 1-10.624-40.256l1.024-2.944c20.672-57.6 51.328-110.72 91.072-157.632l2.048-2.368c9.856-11.584 25.792-15.936 40.128-10.88l93.632 33.28a399.36 399.36 0 0 1 113.152-65.6l18.048-97.6a36.608 36.608 0 0 1 29.44-29.44l3.136-0.512c60.096-10.88 121.6-10.88 181.696 0l3.072 0.576a36.608 36.608 0 0 1 29.44 29.376l17.984 97.088a400 400 0 0 1 113.92 65.856l92.928-33.024c14.336-5.12 30.336-0.768 40.128 10.88l2.048 2.368a509.76 509.76 0 0 1 91.072 157.632l1.088 2.944a36.48 36.48 0 0 1-10.688 40l-74.88 64z m-81.152 118.656a323.456 323.456 0 0 0 0-105.408l-7.552-45.824 85.376-73.024a422.912 422.912 0 0 0-48.64-84.096l-106.112 37.568-35.84-29.44a319.36 319.36 0 0 0-90.688-52.352l-43.52-16.384-20.48-110.848a431.424 431.424 0 0 0-97.088 0l-20.48 111.104-43.2 16.576a319.744 319.744 0 0 0-89.92 52.224l-35.904 29.568-106.752-37.952a431.872 431.872 0 0 0-48.64 84.16L204.16 286.08l-7.424 45.696a329.024 329.024 0 0 0-4.224 51.968c0 17.536 1.408 35.008 4.224 52.032l7.424 45.696-86.272 73.728c12.928 29.824 29.248 57.92 48.704 84.096l106.752-37.952 35.84 29.632a319.744 319.744 0 0 0 89.984 52.224l43.328 16.32 20.48 111.104a431.424 431.424 0 0 0 97.088 0l20.48-110.848 43.52-16.384c32.832-12.288 63.36-29.888 90.624-52.288l35.904-29.504 106.048 37.568c19.456-26.176 35.648-54.4 48.64-84.096l-85.312-73.024 7.424-45.568zM511.68 596.416a201.152 201.152 0 1 1 0-402.304 201.152 201.152 0 0 1 0 402.304z m0-329.152a127.552 127.552 0 0 0-90.496 37.504 127.552 127.552 0 0 0-37.504 90.496c0 34.176 13.376 66.304 37.504 90.496 24.192 24.256 56.32 37.504 90.496 37.504 34.176 0 66.304-13.248 90.496-37.504 24.064-23.936 37.568-56.576 37.504-90.496 0-34.176-13.376-66.304-37.504-90.496a127.552 127.552 0 0 0-90.496-37.504z"  horiz-adv-x="1024" />

    


  </font>
</defs>
</svg>
