<?xml version="1.0" encoding="UTF-8"?>
<svg width="500px" height="500px" viewBox="0 0 500 500" version="1.1" xmlns="http://www.w3.org/2000/svg" xmlns:xlink="http://www.w3.org/1999/xlink">
    <title>白色底500*500</title>
    <g id="白色底500*500" stroke="none" stroke-width="1" fill="none" fill-rule="evenodd">
        <g id="编组-13" transform="translate(33.000000, 0.000000)">
            <polygon id="Fill-1" fill="#006FFF" points="0 124.995362 0 375 217.495357 500 435 375 435 124.995362 217.495357 0"></polygon>
            <g id="编组-12" transform="translate(45.467311, 51.724954)">
                <polygon id="Fill-20" fill="#FFFFFF" points="67.5581197 89.2003711 0 168.513915 132.938593 168.639147 132.938593 89.2003711"></polygon>
                <path d="M208.930608,206.926915 L208.927316,309.172542 L132.941843,398.379406 L132.941608,206.926915 L208.930608,206.926915 Z M208.931959,168.513915 L208.931608,168.637915 L165.371608,168.637915 L208.931959,168.513915 Z" id="形状结合" fill="#FFFFFF"></path>
                <polygon id="Fill-22" fill="#FFFFFF" points="232.255065 89.2003711 165.021967 168.639147 275.34368 168.639147 343.254681 89.2003711"></polygon>
                <polygon id="Fill-23" fill="#7FB7FF" points="132.94045 89.1372913 132.94045 168.51577 208.930566 78.7755102 208.930566 0"></polygon>
            </g>
        </g>
    </g>
</svg>