<svg xmlns="http://www.w3.org/2000/svg" viewBox="0 0 200 200"><path d="M53.7 134.7h61.7V127H53.7v7.7zm0-30.8h61.7v-7.7H53.7v7.7zm94.5 27c0-3.2-2.6-5.8-5.8-5.8-3.2 0-5.8 2.6-5.8 5.8 0 3.2 2.6 5.8 5.8 5.8 3.2-.1 5.8-2.6 5.8-5.8zM53.7 73h61.7v-7.7H53.7V73zm94.5 27c0-3.2-2.6-5.8-5.8-5.8-3.2 0-5.8 2.6-5.8 5.8 0 3.2 2.6 5.8 5.8 5.8 3.2 0 5.8-2.6 5.8-5.8zm0-30.9c0-3.2-2.6-5.8-5.8-5.8-3.2 0-5.8 2.6-5.8 5.8 0 3.2 2.6 5.8 5.8 5.8 3.2 0 5.8-2.6 5.8-5.8zm5.8 50.2v23.1H46v-23.1h108zm0-30.9v23.1H46V88.4h108zm0-30.8v23.1H46V57.6h108z" fill="#2491f7"/></svg>