<?xml version="1.0" encoding="UTF-8"?>
<svg width="71px" height="70px" viewBox="0 0 71 70" version="1.1" xmlns="http://www.w3.org/2000/svg" xmlns:xlink="http://www.w3.org/1999/xlink">
    <!-- Generator: Sketch 52.2 (67145) - http://www.bohemiancoding.com/sketch -->
    <title>谷歌</title>
    <desc>Created with Sketch.</desc>
    <g id="设计稿3.5" stroke="none" stroke-width="1" fill="none" fill-rule="evenodd">
        <g id="升级浏览器提醒" transform="translate(-685.000000, -519.000000)">
            <g id="谷歌" transform="translate(685.500000, 518.984375)">
                <path d="M5.50357093,16.1647271 C11.7017418,6.44574941 22.5777837,0 34.959504,0 C48.4662527,0 60.1814659,7.67041716 65.9868297,18.8928554 L34.959504,18.8928554 C27.7752903,18.8928554 21.695898,23.6223943 19.6648339,30.1377187 L5.50357093,16.1647271 Z" id="Path" fill="#DD5044"></path>
                <path d="M33.5003184,69.7914401 L33.5394184,69.7102008 L33.4926791,69.7911936 L33.448322,69.7893044 L38.4674965,50.5432347 C45.6266566,48.943667 50.9773596,42.5520497 50.9773596,34.9107111 C50.9773596,26.0754262 43.8239496,18.9109268 34.992854,18.8928554 L65.9868297,18.8928554 C68.4685295,23.6902443 69.8702151,29.1368081 69.8702151,34.9107111 C69.8702151,54.1913629 54.2400736,69.8214222 34.959504,69.8214222 C34.470754,69.8214222 33.9842219,69.8114008 33.5003184,69.7914401 Z" id="Path" fill="#FFCD41"></path>
                <path d="M33.2659648,69.7810901 C14.7717487,68.8977259 0.0487928527,53.6235915 0.0487928527,34.9107111 C0.0487928527,29.1520866 1.44308558,23.7190764 3.91254607,18.9308876 L5.31226023,16.4681628 C5.37551022,16.3666342 5.43925308,16.2655164 5.50357093,16.1647271 L19.6648339,30.1377187 C19.1948125,31.6452864 18.9416483,33.2484684 18.9416483,34.9107111 C18.9416483,43.7571674 26.1130476,50.9285668 34.959504,50.9285668 C36.1645396,50.9285668 37.3385252,50.7954954 38.4675786,50.5433168 L33.6378255,69.0627508 L33.4321398,69.6571365 L33.2659648,69.7810901 Z" id="Path" fill="#17A05D"></path>
                <path d="M33.4935005,69.7897972 L33.4487327,69.7879079 L38.4655251,50.5511204 C42.8823461,49.5748526 46.6140958,46.7753422 48.8312955,42.9824782 L48.9358634,43.0428532 L33.4935005,69.7897972 Z M5.53421021,16.1689985 L5.53692092,16.1647271 L19.6981839,30.1377187 C19.2282447,31.6452864 18.9749983,33.2484684 18.9749983,34.9107111 C18.9749983,37.854218 19.7689911,40.6122463 21.1544124,42.9824782 L21.0498445,43.0428532 L5.53421021,16.1689985 Z M66.0200976,18.8928554 L66.0229726,18.898359 L46.8734207,24.1670014 C43.9423996,20.9278624 39.7053892,18.8928554 34.992854,18.8928554 L66.0201797,18.8928554 L66.0200976,18.8928554 Z" id="Shape" fill="#000000" fill-rule="nonzero" opacity="0.047"></path>
                <path d="M18.9416483,34.9107111 C18.9416482,40.6333398 21.9946342,45.9212669 26.950576,48.7825812 C31.9065179,51.6438956 38.01249,51.6438956 42.9684319,48.7825812 C47.9243737,45.9212669 50.9773597,40.6333398 50.9773596,34.9107111 C50.9773597,29.1880824 47.9243737,23.9001554 42.9684319,21.038841 C38.01249,18.1775266 31.9065179,18.1775266 26.950576,21.038841 C21.9946342,23.9001554 18.9416482,29.1880824 18.9416483,34.9107111 Z" id="Path" fill="#FFFFFF"></path>
                <path d="M22.2273623,34.9107111 C22.2273622,39.4594673 24.6540946,43.6626914 28.593433,45.9370695 C32.5327714,48.2114476 37.3862365,48.2114476 41.3255749,45.9370695 C45.2649133,43.6626914 47.6916457,39.4594673 47.6916457,34.9107111 C47.6916457,27.8789434 41.9912716,22.1785694 34.959504,22.1785694 C27.9277363,22.1785694 22.2273623,27.8789434 22.2273623,34.9107111 Z" id="Path" fill="#4A8AF4"></path>
            </g>
        </g>
    </g>
</svg>