<?xml version="1.0" encoding="UTF-8"?>
<svg width="16px" height="16px" viewBox="0 0 16 16" version="1.1" xmlns="http://www.w3.org/2000/svg" xmlns:xlink="http://www.w3.org/1999/xlink">
    <!-- Generator: Sketch 55.2 (78181) - https://sketchapp.com -->
    <title>icon_set</title>
    <desc>Created with Sketch.</desc>
    <g id="修改页" stroke="none" stroke-width="1" fill="none" fill-rule="evenodd">
        <g id="首页-02" transform="translate(-1444.000000, -22.000000)" fill="#FFFFFF" fill-rule="nonzero">
            <g id="Banner" transform="translate(0.000000, -1.000000)">
                <g id="NAV" transform="translate(240.774536, 0.981023)">
                    <g id="icon_set" transform="translate(1203.000000, 22.000000)">
                        <path d="M15.2254642,9.30543573 L13.7358809,9.30543573 C13.6004636,9.73425732 13.4086252,10.1743571 13.1603601,10.6257482 L14.2436934,11.7090816 L12.4155684,13.5372066 L11.2983809,12.4538732 C10.9824071,12.6344297 10.5535919,12.8036988 10.0119226,12.9616857 L10.0119226,14.5189774 L7.43900591,14.5189774 L7.43900591,12.9616857 C6.85219742,12.7811293 6.42338226,12.6118601 6.15254757,12.4538732 L5.03536007,13.5372066 L3.20723507,11.7090816 L4.29056841,10.6257482 C4.04230328,10.1743571 3.85046492,9.73425732 3.71504757,9.30543573 L2.22546424,9.30543573 L2.22546424,6.73251907 L3.68119341,6.73251907 C3.86174986,6.12314102 4.04230361,5.66047203 4.22286007,5.34449823 L3.20723507,4.32887323 L5.03536007,2.50074823 L6.01713091,3.48251907 C6.40081338,3.25682349 6.87476697,3.06498513 7.43900591,2.90699823 L7.43900591,1.5189774 L10.0119226,1.5189774 L10.0119226,2.90699823 C10.5761615,3.06498513 11.0501151,3.25682349 11.4337976,3.48251907 L12.4155684,2.50074823 L14.2436934,4.32887323 L13.2280684,5.34449823 C13.4763335,5.79588938 13.6568873,6.25855836 13.7697351,6.73251907 L15.2254642,6.73251907 L15.2254642,9.30543573 Z M7.43900591,9.30543573 C7.80011882,9.66654865 8.22893398,9.8471024 8.72546424,9.8471024 C9.2219945,9.8471024 9.65080966,9.66654865 10.0119226,9.30543573 C10.3730355,8.94432282 10.5535892,8.51550766 10.5535892,8.0189774 C10.5535892,7.52244714 10.3730355,7.09363198 10.0119226,6.73251907 C9.65080966,6.37140615 9.2219945,6.1908524 8.72546424,6.1908524 C8.22893398,6.1908524 7.80011882,6.37140615 7.43900591,6.73251907 C7.07789299,7.09363198 6.89733924,7.52244714 6.89733924,8.0189774 C6.89733924,8.51550766 7.07789299,8.94432282 7.43900591,9.30543573 Z"></path>
                    </g>
                </g>
            </g>
        </g>
    </g>
</svg>