<?xml version="1.0" standalone="no"?>
<!DOCTYPE svg PUBLIC "-//W3C//DTD SVG 1.1//EN" "http://www.w3.org/Graphics/SVG/1.1/DTD/svg11.dtd" >
<!--
2013-9-30: Created.
-->
<svg>
<metadata>
Created by iconfont
</metadata>
<defs>

<font id="iconfont" horiz-adv-x="1024" >
  <font-face
    font-family="iconfont"
    font-weight="500"
    font-stretch="normal"
    units-per-em="1024"
    ascent="896"
    descent="-128"
  />
    <missing-glyph />
    
    <glyph glyph-name="pingtai_shujuyuan" unicode="&#59106;" d="M928 652.8c0 44.8-38.4 83.2-83.2 83.2H179.2c-51.2 0-83.2-38.4-83.2-83.2v-166.4c0-44.8 38.4-83.2 83.2-83.2h665.6c44.8 0 83.2 38.4 83.2 83.2V652.8z m-89.6-160H185.6V646.4h652.8v-153.6zM928 96V262.4c0 44.8-38.4 83.2-83.2 83.2H179.2c-51.2 0-83.2-38.4-83.2-83.2v-166.4c0-44.8 38.4-83.2 83.2-83.2h665.6c44.8 0 83.2 38.4 83.2 83.2z m-89.6 6.4H185.6V256h652.8v-153.6zM659.2 524.8h83.2c25.6 0 44.8 19.2 44.8 44.8s-19.2 44.8-44.8 44.8h-83.2c-25.6 0-44.8-19.2-44.8-44.8s19.2-44.8 44.8-44.8zM659.2 134.4h83.2c25.6 0 44.8 19.2 44.8 44.8s-19.2 44.8-44.8 44.8h-83.2c-25.6 0-44.8-19.2-44.8-44.8s19.2-44.8 44.8-44.8z"  horiz-adv-x="1024" />

    
    <glyph glyph-name="menu-pl" unicode="&#58963;" d="M512 192c34.133333 0 64-29.866667 64-64s-29.866667-64-64-64-64 29.866667-64 64 29.866667 64 64 64z m0 256c34.133333 0 64-29.866667 64-64s-29.866667-64-64-64-64 29.866667-64 64 29.866667 64 64 64z m0 256c34.133333 0 64-29.866667 64-64s-29.866667-64-64-64-64 29.866667-64 64 29.866667 64 64 64z"  horiz-adv-x="1024" />

    
    <glyph glyph-name="btn_delete" unicode="&#59025;" d="M320 576h320V704H320v-128zM256 512v-448h448V512H256z m512 0v-448c0-38.208-28.672-64-64-64H256c-35.328 0-64 25.792-64 64V512H96a32 32 0 0 0 0 64H256V704c0 42.496 28.672 64 64 64h320c35.328 0 64-21.504 64-64v-128h160a32 32 0 1 0 0-64H768zM416 384a32 32 0 0 0 32-32v-192a32 32 0 1 0-64 0v192a32 32 0 0 0 32 32z m128 0a32 32 0 0 0 32-32v-192a32 32 0 1 0-64 0v192a32 32 0 0 0 32 32z"  horiz-adv-x="1024" />

    
    <glyph glyph-name="btn_edit" unicode="&#59026;" d="M736 384a32 32 0 1 0 64 0v-256a96 96 0 0 0-96-96H256A96 96 0 0 0 160 128V576A96 96 0 0 0 256 672h256a32 32 0 0 0 0-64H256a32 32 0 0 1-32-32v-448a32 32 0 0 1 32-32h448a32 32 0 0 1 32 32V384z m75.648 299.648a32 32 0 0 0 0-45.248L449.6 276.352a32 32 0 0 0-45.248 45.248l362.048 362.048a32 32 0 0 0 45.248 0z"  horiz-adv-x="1024" />

    
    <glyph glyph-name="btn_rank" unicode="&#59027;" d="M637.312 556.8c6.4-0.96 12.608-3.968 17.536-8.96l90.496-90.496a32 32 0 1 0-45.248-45.248L640 472.32V160a32 32 0 1 0-64 0v384a32 32 0 0 0 61.312 12.8z m-256.768-408a31.872 31.872 0 0 0-11.392 7.296l-90.496 90.56a32 32 0 1 0 45.248 45.248l54.592-54.656V544a32 32 0 0 0 64 0v-384a32 32 0 0 0-61.952-11.2zM192 768h640a64 64 0 0 0 64-64v-640a64 64 0 0 0-64-64H192a64 64 0 0 0-64 64V704a64 64 0 0 0 64 64z m0-64v-640h640V704H192z"  horiz-adv-x="1024" />

    
    <glyph glyph-name="icon_factory_menu" unicode="&#59028;" d="M320 192H256V736A96 96 0 0 0 352 832H768a96 96 0 0 0 96-96V128h-3.2A160 160 0 0 0 704-64H224c-53.76 0-96 46.848-96 103.104V608h64v-568.896c0-22.272 15.104-39.104 32-39.104H704a96 96 0 0 1 0 192H320z m480 32v512A32 32 0 0 1 768 768H352a32 32 0 0 1-32-32V256h384c36.032 0 69.248-11.904 96-32z m-512-96h384a32 32 0 1 0 0-64h-384a32 32 0 1 0 0 64z"  horiz-adv-x="1024" />

    
    <glyph glyph-name="icon_factory_menu1" unicode="&#59029;" d="M270.848 108.608l-0.832 1.408-155.904 299.776a162.112 162.112 0 0 0-19.84 71.808 182.016 182.016 0 0 0 6.208 76.992l81.408 249.984c6.656 21.76 22.144 40.128 40.96 50.112A88.32 88.32 0 0 0 287.872 870.016l260.224-55.168c24.64-6.08 47.488-16.832 65.728-30.72 21.44-14.4 39.616-32.768 54.4-55.552l240.128-461.44c20.608-40 4.544-89.344-36.096-114.944l-400.448-230.656-1.088-0.64c-41.472-23.552-94.144-11.904-116.8 28.096l-83.072 159.616z m84.672-24.192l53.888-103.68c4.608-8.064 17.728-10.944 30.016-4.032l0.128 0.064 399.616 230.208c12.608 7.936 17.024 21.632 13.056 29.44l-50.496 97.088-446.208-249.088z m-29.568 56.832l446.272 249.088L613.696 695.04a130.688 130.688 0 0 1-37.056 36.992 118.656 118.656 0 0 1-42.816 20.352l-259.392 54.976-0.384 0.064c-5.568 1.28-12.096 0.128-19.392-4.288a23.872 23.872 0 0 1-11.712-13.888l-81.28-249.728a124.16 124.16 0 0 1-3.776-52.608c0.512-16.64 4.8-32.512 12.032-45.888l156.032-299.84z m-20.992 321.984l-0.704 1.152a127.36 127.36 0 0 0-12.672 96.448A131.392 131.392 0 0 0 448.768 651.52a127.36 127.36 0 0 0 78.144-60.992c18.304-29.44 23.296-65.152 13.696-98.176-8.96-33.024-30.976-60.672-60.992-76.544-60.544-35.392-138.752-14.144-174.72 47.36z m147.84-1.408l1.92 1.152c16.96 8.96 29.44 24.576 34.752 44.288a70.4 70.4 0 0 1-8.96 57.344 73.6 73.6 0 0 1-44.16 35.2 77.888 77.888 0 0 1-93.44-52.8c-4.992-18.752-2.304-38.976 7.424-56l0.576-0.896c21.184-36.352 66.88-48.704 101.888-28.288z"  horiz-adv-x="1024" />

    
    <glyph glyph-name="icon_factory_menu2" unicode="&#59030;" d="M704 576h64v-64h-64V576zM192 768h640a64 64 0 0 0 64-64v-704a64 64 0 0 0-64-64H192a64 64 0 0 0-64 64V704a64 64 0 0 0 64 64z m0-64v-704h640V704H192z m96-128h320a32 32 0 0 0 0-64h-320a32 32 0 0 0 0 64zM704 384h64v-64h-64V384zM288 384h320a32 32 0 0 0 0-64h-320a32 32 0 0 0 0 64z m416-192h64v-64h-64v64z m-416 0h320a32 32 0 1 0 0-64h-320a32 32 0 1 0 0 64z"  horiz-adv-x="1024" />

    
    <glyph glyph-name="icon_factory_menu3" unicode="&#59031;" d="M128 832h256a64 64 0 0 0 64-64v-256a64 64 0 0 0-64-64H128a64 64 0 0 0-64 64V768a64 64 0 0 0 64 64z m0-64v-256h256V768H128z m448 64h256a64 64 0 0 0 64-64v-256a64 64 0 0 0-64-64H576a64 64 0 0 0-64 64V768a64 64 0 0 0 64 64z m0-64v-256h256V768H576zM128 384h256a64 64 0 0 0 64-64v-256a64 64 0 0 0-64-64H128a64 64 0 0 0-64 64V320a64 64 0 0 0 64 64z m0-64v-256h256V320H128z m448 64h256a64 64 0 0 0 64-64v-256a64 64 0 0 0-64-64H576a64 64 0 0 0-64 64V320a64 64 0 0 0 64 64z m0-64v-256h256V320H576z"  horiz-adv-x="1024" />

    
    <glyph glyph-name="btn_rank1" unicode="&#59032;" d="M179.2 691.2h665.6a25.6 25.6 0 1 0 0-51.2h-665.6a25.6 25.6 0 0 0 0 51.2z m0-256h665.6a25.6 25.6 0 1 0 0-51.2h-665.6a25.6 25.6 0 0 0 0 51.2z m0-256h665.6a25.6 25.6 0 1 0 0-51.2h-665.6a25.6 25.6 0 1 0 0 51.2z"  horiz-adv-x="1024" />

    
    <glyph glyph-name="icon_customer_menu" unicode="&#59035;" d="M320 576V779.648C320 808.576 343.424 832 372.352 832h471.296c28.928 0 52.352-23.424 52.352-52.352v-471.296a52.352 52.352 0 0 0-52.352-52.352H640v-203.648a52.352 52.352 0 0 0-52.352-52.352H116.352A52.352 52.352 0 0 0 64 52.352V523.648C64 552.576 87.424 576 116.352 576H320z m64 0h203.648c28.928 0 52.352-23.424 52.352-52.352V320h192V768H384v-192zM320 512H128v-448h448v192H372.352A52.352 52.352 0 0 0 320 308.352V512z m64 0v-192h192V512H384z"  horiz-adv-x="1024" />

    
    <glyph glyph-name="icon_customer_menu1" unicode="&#59036;" d="M803.2 320.448A288 288 0 0 0 960 64a32 32 0 1 0-64 0 224 224 0 0 1-224 224 32 32 0 1 0 0 64c3.776 0 7.488-0.064 11.2-0.192a32.32 32.32 0 0 0 3.712 0.192c80.832 0 145.088 58.048 145.088 128s-64.256 128-145.088 128c-4.224 0-8.32-0.128-12.48-0.448a32 32 0 1 0-4.864 63.808c5.76 0.448 11.52 0.64 17.28 0.64C801.792 672 896 586.816 896 480c0-66.88-36.928-125.248-92.8-159.552zM416 320a192 192 0 1 0 0 384 192 192 0 0 0 0-384z m0 64a128 128 0 1 1 0 256 128 128 0 0 1 0-256z m288-384a32 32 0 0 0-32-32h-512A32 32 0 0 0 128 0a288 288 0 1 0 576 0z m-509.76 32h443.52a224 224 0 0 1-443.52 0z"  horiz-adv-x="1024" />

    
    <glyph glyph-name="icon_customer_menu2" unicode="&#59037;" d="M544 144.512a288 288 0 1 0 0 478.976 288 288 0 1 0 0-478.976z m51.2 43.648a224 224 0 1 1 0 391.68A286.976 286.976 0 0 0 672 384a286.976 286.976 0 0 0-76.8-195.84zM492.8 579.84a224 224 0 1 1 0-391.68A286.976 286.976 0 0 0 416 384c0 75.648 29.12 144.448 76.8 195.84z m51.2-39.04c-39.616-40.448-64-95.744-64-156.8 0-61.056 24.384-116.352 64-156.8 39.616 40.448 64 95.744 64 156.8 0 61.056-24.384 116.352-64 156.8z"  horiz-adv-x="1024" />

    
    <glyph glyph-name="icon_settings_menu" unicode="&#59038;" d="M378.496 396.16A224 224 0 1 0 512 352c-195.136 0-352-141.184-352-313.6 0-2.752 4.096-6.4 10.688-6.4H704a32 32 0 1 0 0-64H170.688c-40.576 0-74.688 30.72-74.688 70.4 0 166.72 118.528 307.328 282.496 357.76zM512 416a160 160 0 1 1 0 320 160 160 0 0 1 0-320z m143.552-118.016l80.896-95.168 160 161.024a32 32 0 0 0 45.44-45.12l-184.576-185.728a32 32 0 0 0-47.04 1.856L606.72 256.512a32 32 0 1 0 48.768 41.472z"  horiz-adv-x="1024" />

    
    <glyph glyph-name="icon_settings_menu1" unicode="&#59039;" d="M378.496 396.16A224 224 0 1 0 512 352c-195.136 0-352-141.184-352-313.6 0-2.752 4.096-6.4 10.688-6.4H640a32 32 0 1 0 0-64H170.688c-40.576 0-74.688 30.72-74.688 70.4 0 166.72 118.528 307.328 282.496 357.76zM512 416a160 160 0 1 1 0 320 160 160 0 0 1 0-320z m214.656-86.656l-41.408-41.344H960a32 32 0 1 0 0-64H608a32 32 0 0 0-22.656 54.656l96 96a32 32 0 0 0 45.312-45.312z m114.624-274.688l41.408 41.344H607.936a32 32 0 1 0 0 64h352a32 32 0 0 0 22.656-54.656l-96-96a32 32 0 0 0-45.312 45.312z"  horiz-adv-x="1024" />

    
    <glyph glyph-name="icon_customer_menu3" unicode="&#59040;" d="M417.28 489.344a32 32 0 0 0 0-50.688l-288-221.696a32 32 0 0 0-51.52 25.344V685.696a32 32 0 0 0 51.52 25.344l288-221.696zM141.76 620.672v-313.344l203.52 156.672-203.52 156.672z m524.48-131.328l288 221.696a32 32 0 0 0 51.52-25.344v-443.392a32 32 0 0 0-51.52-25.344l-288 221.696a32 32 0 0 0 0 50.688z m72-25.344l203.52-156.672V620.672l-203.52-156.672zM544 832a32 32 0 0 0 32-32v-704a32 32 0 1 0-64 0v704a32 32 0 0 0 32 32z"  horiz-adv-x="1024" />

    
    <glyph glyph-name="logo" unicode="&#59041;" d="M131.503158 372.250947a99.435789 99.435789 0 0 0-29.318737 67.476211l-7.922526 315.014737A71.464421 71.464421 0 0 0 168.151579 828.739368l315.014737-7.976421c25.061053-0.592842 49.313684-11.156211 67.47621-29.318736l404.965053-404.965053c30.396632-30.396632 31.582316-78.470737 2.694737-107.358316l-314.529684-314.529684c-28.941474-28.887579-76.961684-27.701895-107.358316 2.694737L131.503158 372.250947z m38.103579 38.103579l404.965052-404.965052c9.754947-9.754947 23.713684-10.132211 31.151158-2.694737l314.529685 314.529684c7.437474 7.437474 7.060211 21.396211-2.694737 31.151158L512.538947 753.340632a45.594947 45.594947 0 0 1-30.72 13.581473l-314.960842 7.922527a17.623579 17.623579 0 0 1-18.809263-18.755369l7.922526-315.014737a45.594947 45.594947 0 0 1 13.581474-30.72z m384.107789-231.693473l190.57179 190.571789a26.947368 26.947368 0 1 0 38.103579-38.103579l-190.57179-190.571789a26.947368 26.947368 0 1 0-38.103579 38.103579zM458.105263 464.842105a107.789474 107.789474 0 1 0-152.414316 152.414316A107.789474 107.789474 0 0 0 458.105263 464.842105z m-38.103579 38.103579a53.894737 53.894737 0 1 1-76.207158 76.207158 53.894737 53.894737 0 0 1 76.207158-76.207158z"  horiz-adv-x="1024" />

    
    <glyph glyph-name="btn_right" unicode="&#59051;" d="M798.72 384.512a25.6 25.6 0 0 1-5.12 50.688h-11.52l-177.152 186.368a24.2176 24.2176 0 0 1-35.072 0l-0.768-0.8192a25.6 25.6 0 0 1 0-35.328L711.936 435.2H179.2a25.6 25.6 0 1 1 0-51.2h549.4784l-159.5904-167.936a25.6 25.6 0 0 1 0-35.2256l0.768-0.8192a24.2176 24.2176 0 0 1 35.072 0l190.7712 200.6528a25.7024 25.7024 0 0 1 3.0208 3.84z"  horiz-adv-x="1024" />

    
    <glyph glyph-name="btn_left" unicode="&#59052;" d="M174.08 384.512A25.6 25.6 0 0 0 179.2 435.2h11.52l177.152 186.368a24.2176 24.2176 0 0 0 35.072 0l0.768-0.8192a25.6 25.6 0 0 0 0-35.328L260.864 435.2H793.6a25.6 25.6 0 1 0 0-51.2H244.1216l159.5904-167.936a25.6 25.6 0 0 0 0-35.2256l-0.768-0.8192a24.2176 24.2176 0 0 0-35.072 0l-190.7712 200.6528A25.7024 25.7024 0 0 0 174.08 384.512z"  horiz-adv-x="1024" />

    
    <glyph glyph-name="warning" unicode="&#59061;" d="M512 896c281.6 0 512-230.4 512-512s-230.4-512-512-512S0 102.4 0 384 230.4 896 512 896z m61.44-706.56H445.44v-128h128v128z m0 512H445.44v-384h128V701.44z"  horiz-adv-x="1024" />

    
    <glyph glyph-name="icon_import" unicode="&#59062;" d="M204.8 800c-71.872 0-128.832-62.4-133.632-139.52l-0.32-10.624v-531.712c0-78.4 53.76-144.192 124.16-149.76l9.728-0.384H612.48c71.872 0 128.768 62.4 133.632 139.52l0.32 10.624v59.072a32 32 0 0 1-63.488 5.76l-0.512-5.76v-59.072c0-45.504-28.544-81.408-62.976-85.76l-6.976-0.384H204.8c-35.2 0-65.92 33.024-69.632 77.184l-0.32 8.96V649.856c0 45.504 28.48 81.408 62.976 85.76l6.912 0.384H612.48c35.2 0 65.92-33.024 69.568-77.184l0.384-8.96v-59.072a32 32 0 0 1 63.488-5.76l0.512 5.76v59.072c0 78.4-53.824 144.192-124.224 149.76L612.48 800H204.8z m304.192-290.752L379.776 400.064l-3.392-0.32a32 32 0 0 1-15.04-55.872c1.472-2.048 3.2-3.968 5.184-5.696l142.464-120.32a32 32 0 0 1 43.264 1.792l1.856 1.792a29.44 29.44 0 0 1-1.792 43.264L467.776 336.192h362.368a32 32 0 1 1 0 64l-351.36 0.064 73.536 62.08a29.44 29.44 0 0 1 3.456 41.472l-0.832 0.896-2.688 2.752a32 32 0 0 1-43.264 1.792z"  horiz-adv-x="1024" />

    
    <glyph glyph-name="icon_dropdown_tag" unicode="&#59068;" d="M258.368 867.456L131.52 555.52a89.6 89.6 0 0 1 5.44-78.592l277.12-480a89.6 89.6 0 0 1 122.368-32.768l399.104 230.4a89.6 89.6 0 0 1 32.768 122.432l-277.12 480A89.6 89.6 0 0 1 625.92 840.96L292.416 887.04a32 32 0 0 1-34.048-19.584z m-67.52-336l117.376 288.896 308.928-42.816a25.6 25.6 0 0 0 18.624-12.544l277.12-480a25.6 25.6 0 0 0-9.344-34.944l-399.104-230.4a25.6 25.6 0 0 0-34.944 9.408l-277.12 480a25.6 25.6 0 0 0-1.536 22.4zM432 605.952a128 128 0 1 0 128-221.696 128 128 0 0 0-128 221.696z m32-55.424a64 64 0 1 1 64-110.848 64 64 0 0 1-64 110.848z"  horiz-adv-x="1024" />

    
    <glyph glyph-name="icon_key" unicode="&#58905;" d="M840.894341 824.157922A338.195022 338.195022 0 0 0 459.241485 267.23393l-1.436797-2.1137-68.400296-87.507586 151.088566-118.115243a42.274003 42.274003 0 1 0-51.997624-66.624549l-151.088565 118.115244-52.082612-66.624548 91.736986-71.781817a42.274003 42.274003 0 0 0-51.998623-66.624548l-91.819974 71.866804-68.400296-87.677561a42.274003 42.274003 0 1 0-66.623549 52.082611l292.961439 374.972804 1.774748 1.859737A338.195022 338.195022 0 0 0 840.894341 824.158922z m-52.082611-66.624548a253.646016 253.646016 0 1 1-312.322692-399.74629 253.646016 253.646016 0 0 1 312.323692 399.74629z"  horiz-adv-x="1024" />

    


  </font>
</defs>
</svg>
