<?xml version="1.0" encoding="utf-8"?>
<!-- Generator: Adobe Illustrator 21.0.0, SVG Export Plug-In . SVG Version: 6.00 Build 0)  -->
<svg version="1.1" id="图层_1" xmlns="http://www.w3.org/2000/svg" xmlns:xlink="http://www.w3.org/1999/xlink" x="0px" y="0px"
	 viewBox="0 0 200 200" style="enable-background:new 0 0 200 200;" xml:space="preserve">
<style type="text/css">
	.st0{clip-path:url(#SVGID_2_);}
	.st1{clip-path:url(#SVGID_4_);fill:none;stroke:#3EA4FD;stroke-width:12;stroke-miterlimit:10;}
	.st2{clip-path:url(#SVGID_6_);}
	.st3{clip-path:url(#SVGID_8_);fill:#3EA4FD;}
	.st4{clip-path:url(#SVGID_10_);}
	.st5{clip-path:url(#SVGID_12_);fill:#3EA4FD;}
	.st6{clip-path:url(#SVGID_14_);}
	.st7{clip-path:url(#SVGID_16_);fill:#3EA4FD;}
	.st8{clip-path:url(#SVGID_18_);}
	.st9{clip-path:url(#SVGID_20_);fill:#3EA4FD;}
	.st10{clip-path:url(#SVGID_22_);}
	.st11{clip-path:url(#SVGID_24_);fill:#3EA4FD;}
	.st12{clip-path:url(#SVGID_26_);}
	.st13{clip-path:url(#SVGID_28_);fill:#3EA4FD;}
	.st14{clip-path:url(#SVGID_30_);}
	.st15{clip-path:url(#SVGID_32_);fill:#3EA4FD;}
	.st16{clip-path:url(#SVGID_34_);}
	.st17{clip-path:url(#SVGID_36_);fill:#3EA4FD;}
</style>
<g>
	<defs>
		<path id="SVGID_1_" d="M33,32h137c6.6,0,12,5.4,12,12v88c0,6.6-5.4,12-12,12H33c-6.6,0-12-5.4-12-12V44C21,37.4,26.4,32,33,32z"/>
	</defs>
	<clipPath id="SVGID_2_">
		<use xlink:href="#SVGID_1_"  style="overflow:visible;"/>
	</clipPath>
	<g class="st0">
		<defs>
			<rect id="SVGID_3_" x="2" y="3" width="200" height="200"/>
		</defs>
		<clipPath id="SVGID_4_">
			<use xlink:href="#SVGID_3_"  style="overflow:visible;"/>
		</clipPath>
		<path class="st1" d="M33,32h137c6.6,0,12,5.4,12,12v88c0,6.6-5.4,12-12,12H33c-6.6,0-12-5.4-12-12V44C21,37.4,26.4,32,33,32z"/>
	</g>
</g>
<g>
	<defs>
		<path id="SVGID_5_" d="M99.4,140.9h4.2c0.6,0,1,0.4,1,1v22.9c0,0.6-0.4,1-1,1h-4.2c-0.6,0-1-0.4-1-1v-22.9
			C98.4,141.3,98.9,140.9,99.4,140.9z"/>
	</defs>
	<clipPath id="SVGID_6_">
		<use xlink:href="#SVGID_5_"  style="overflow:visible;"/>
	</clipPath>
	<g class="st2">
		<defs>
			<rect id="SVGID_7_" x="2" y="3" width="200" height="200"/>
		</defs>
		<clipPath id="SVGID_8_">
			<use xlink:href="#SVGID_7_"  style="overflow:visible;"/>
		</clipPath>
		<rect x="93.4" y="135.9" class="st3" width="16.2" height="34.9"/>
	</g>
</g>
<g>
	<defs>
		<path id="SVGID_9_" d="M143.5,167.3L143.5,167.3c0,1.7-1.4,3.1-3.1,3.1H62.6c-1.7,0-3.1-1.4-3.1-3.1c0-1.7,1.4-3.1,3.1-3.1h77.8
			C142.1,164.2,143.5,165.6,143.5,167.3z"/>
	</defs>
	<clipPath id="SVGID_10_">
		<use xlink:href="#SVGID_9_"  style="overflow:visible;"/>
	</clipPath>
	<g class="st4">
		<defs>
			<rect id="SVGID_11_" x="2" y="3" width="200" height="200"/>
		</defs>
		<clipPath id="SVGID_12_">
			<use xlink:href="#SVGID_11_"  style="overflow:visible;"/>
		</clipPath>
		<rect x="54.5" y="159.2" class="st5" width="94" height="16.2"/>
	</g>
</g>
<g>
	<defs>
		<path id="SVGID_13_" d="M58.2,60h86.7c1.7,0,3.1,1.4,3.1,3.1s-1.4,3.1-3.1,3.1H58.2c-1.7,0-3.1-1.4-3.1-3.1S56.5,60,58.2,60z"/>
	</defs>
	<clipPath id="SVGID_14_">
		<use xlink:href="#SVGID_13_"  style="overflow:visible;"/>
	</clipPath>
	<g class="st6">
		<defs>
			<rect id="SVGID_15_" x="2" y="3" width="200" height="200"/>
		</defs>
		<clipPath id="SVGID_16_">
			<use xlink:href="#SVGID_15_"  style="overflow:visible;"/>
		</clipPath>
		<rect x="50.1" y="55" class="st7" width="102.9" height="16.2"/>
	</g>
</g>
<g>
	<defs>
		<ellipse id="SVGID_17_" cx="120.1" cy="63.1" rx="6.2" ry="6.2"/>
	</defs>
	<clipPath id="SVGID_18_">
		<use xlink:href="#SVGID_17_"  style="overflow:visible;"/>
	</clipPath>
	<g class="st8">
		<defs>
			<rect id="SVGID_19_" x="2" y="3" width="200" height="200"/>
		</defs>
		<clipPath id="SVGID_20_">
			<use xlink:href="#SVGID_19_"  style="overflow:visible;"/>
		</clipPath>
		<rect x="108.9" y="51.9" class="st9" width="22.4" height="22.4"/>
	</g>
</g>
<g>
	<defs>
		<path id="SVGID_21_" d="M58.2,84.9h86.7c1.7,0,3.1,1.4,3.1,3.1s-1.4,3.1-3.1,3.1H58.2c-1.7,0-3.1-1.4-3.1-3.1S56.5,84.9,58.2,84.9
			z"/>
	</defs>
	<clipPath id="SVGID_22_">
		<use xlink:href="#SVGID_21_"  style="overflow:visible;"/>
	</clipPath>
	<g class="st10">
		<defs>
			<rect id="SVGID_23_" x="2" y="3" width="200" height="200"/>
		</defs>
		<clipPath id="SVGID_24_">
			<use xlink:href="#SVGID_23_"  style="overflow:visible;"/>
		</clipPath>
		<rect x="50.1" y="79.9" class="st11" width="102.9" height="16.2"/>
	</g>
</g>
<g>
	<defs>
		<ellipse id="SVGID_25_" cx="82.9" cy="88" rx="6.2" ry="6.2"/>
	</defs>
	<clipPath id="SVGID_26_">
		<use xlink:href="#SVGID_25_"  style="overflow:visible;"/>
	</clipPath>
	<g class="st12">
		<defs>
			<rect id="SVGID_27_" x="2" y="3" width="200" height="200"/>
		</defs>
		<clipPath id="SVGID_28_">
			<use xlink:href="#SVGID_27_"  style="overflow:visible;"/>
		</clipPath>
		<rect x="71.7" y="76.8" class="st13" width="22.4" height="22.4"/>
	</g>
</g>
<g>
	<defs>
		<path id="SVGID_29_" d="M58.2,109.8h86.7c1.7,0,3.1,1.4,3.1,3.1c0,1.7-1.4,3.1-3.1,3.1H58.2c-1.7,0-3.1-1.4-3.1-3.1
			C55.1,111.2,56.5,109.8,58.2,109.8z"/>
	</defs>
	<clipPath id="SVGID_30_">
		<use xlink:href="#SVGID_29_"  style="overflow:visible;"/>
	</clipPath>
	<g class="st14">
		<defs>
			<rect id="SVGID_31_" x="2" y="3" width="200" height="200"/>
		</defs>
		<clipPath id="SVGID_32_">
			<use xlink:href="#SVGID_31_"  style="overflow:visible;"/>
		</clipPath>
		<rect x="50.1" y="104.8" class="st15" width="102.9" height="16.2"/>
	</g>
</g>
<g>
	<defs>
		<ellipse id="SVGID_33_" cx="120.1" cy="112.9" rx="6.2" ry="6.2"/>
	</defs>
	<clipPath id="SVGID_34_">
		<use xlink:href="#SVGID_33_"  style="overflow:visible;"/>
	</clipPath>
	<g class="st16">
		<defs>
			<rect id="SVGID_35_" x="2" y="3" width="200" height="200"/>
		</defs>
		<clipPath id="SVGID_36_">
			<use xlink:href="#SVGID_35_"  style="overflow:visible;"/>
		</clipPath>
		<rect x="108.9" y="101.7" class="st17" width="22.4" height="22.4"/>
	</g>
</g>
</svg>
