<svg data-name="图层 1" xmlns="http://www.w3.org/2000/svg" viewBox="0 0 144.39 165.3"><path fill="#2491F7" d="M141.62 39.39L74.93.92a5.46 5.46 0 0 0-5.47 0L2.77 39.39a5.48 5.48 0 0 0-2.74 4.74v77a5.49 5.49 0 0 0 2.74 4.74l66.69 38.52a5.49 5.49 0 0 0 5.47 0l66.69-38.51a5.49 5.49 0 0 0 2.74-4.74v-77a5.49 5.49 0 0 0-2.74-4.75zm-9.93 77l-59.42 34.3-59.41-34.3V47.82l59.42-34.3 59.42 34.3z"/><path fill="none" d="M0 0h144.39v165.3H0z"/><path d="M26.54 58.26a5.48 5.48 0 0 0 2 7.48l38.07 22v43.45a5.47 5.47 0 0 0 10.94 0V87.78l38.21-22.07a5.472 5.472 0 1 0-5.47-9.48l-38.14 22-38.14-22a5.49 5.49 0 0 0-7.48 2z" fill="#2491F7"/></svg>