<svg xmlns="http://www.w3.org/2000/svg" viewBox="0 0 10 10"><g fill="#f99c1c"><path d="M5 2.215a.18.18 0 0 1 .136.077l3.038 5.26a.176.176 0 0 1 0 .154.184.184 0 0 1-.135.08H1.96a.184.184 0 0 1-.136-.08.178.178 0 0 1 0-.154l3.04-5.26A.18.18 0 0 1 5 2.215m0-.492a.64.64 0 0 0-.56.323L1.4 7.306a.638.638 0 0 0 0 .646.645.645 0 0 0 .561.325H8.04a.646.646 0 0 0 .56-.97L5.561 2.046A.64.64 0 0 0 5 1.723"/><path d="M4.994 6.492a.42.42 0 0 1 .415.408.408.408 0 1 1-.415-.408m-.373-2.647a.413.413 0 0 1 .479-.232c.19.05.316.232.302.436l-.02.394c-.029.493-.057.986-.078 1.472A.302.302 0 0 1 5 6.203c-.168 0-.295-.126-.302-.303-.008-.098-.008-.197-.015-.295-.02-.317-.035-.634-.056-.958-.014-.204-.02-.408-.035-.612a.37.37 0 0 1 .028-.19"/></g></svg>