<svg xmlns="http://www.w3.org/2000/svg" viewBox="0 0 110.5 110.5" width="110.5" height="110.5"><g stroke="#666"><path d="M24.571 108.43h55.2c12.2 0 22-9.8 22-22v-15.6c0-1.2-.8-2-2-2s-2 .8-2 2v15.6c0 10-8 18-18 18h-55.2c-10 0-18-8-18-18v-55.2c0-10 8-18 18-18h15.6c1.2 0 2-.8 2-2s-.8-2-2-2h-15.6c-12.2 0-22 9.8-22 22v55.2c0 12.2 9.8 22 22 22z" fill="#666" stroke-width="4"/><path fill="none" stroke-linejoin="round" stroke-width="6" d="M29.38 80.649l4.443-17.607 13.188 13.313zM93.597 3.065l13.334 13.17-59.634 59.69-13.33-13.312 38.56-38.506z"/></g></svg>