<svg xmlns="http://www.w3.org/2000/svg" viewBox="0 0 10 10"><g fill="#3771b8"><path d="M6.463 5.774c.674 2.816 1.003 2.571-1.459 1.063-2.487 1.526-2.15 1.77-1.467-1.063-2.217-1.888-2.344-1.492.557-1.72 1.113-2.672.708-2.672 1.812 0 2.892.228 2.766-.168.557 1.72M8.46 4.172c-.118-.362-.59-.379-.91-.395-.464-.035-.92-.052-1.383-.085-.169-.43-.33-.86-.506-1.281-.118-.295-.278-.743-.658-.743-.388 0-.548.448-.666.743-.168.42-.329.851-.506 1.281-.463.033-.919.05-1.382.085-.32.016-.793.033-.91.395-.119.363.26.658.497.86.362.295.725.582 1.079.877-.118.456-.236.894-.354 1.349-.076.304-.211.759.1.986.304.228.7-.041.97-.21.388-.245.776-.506 1.172-.75.388.244.767.497 1.164.741.27.169.657.43.97.211.303-.228.176-.683.1-.986a75.382 75.382 0 0 1-.345-1.34c.354-.296.708-.583 1.07-.878.237-.202.616-.497.498-.86"/><path d="M6.463 5.774l-.057.014c.137.567.258 1.01.346 1.344.088.332.14.558.14.672a.153.153 0 0 1-.013.073l-.021.007a.5.5 0 0 1-.19-.07c-.282-.147-.799-.515-1.634-1.027l-.03-.019-.03.02c-.563.345-.982.625-1.283.817a5.079 5.079 0 0 1-.366.22.507.507 0 0 1-.191.072l-.022-.008a.155.155 0 0 1-.012-.07c0-.115.053-.342.143-.676.089-.335.213-.783.35-1.355l.01-.035-.028-.023c-.532-.453-.944-.774-1.221-1.004a3.846 3.846 0 0 1-.312-.277c-.069-.07-.094-.124-.09-.136l.01-.015a.472.472 0 0 1 .19-.055c.312-.048.953-.053 1.946-.13l.035-.004.014-.033c.279-.668.463-1.17.598-1.503.067-.166.123-.29.17-.368a.377.377 0 0 1 .06-.081l.028-.016.028.016c.06.053.155.255.281.582.13.327.299.785.54 1.37l.014.033.036.003c.754.06 1.304.077 1.663.102.178.013.31.029.39.051.04.01.066.023.077.033l.01.015c.004.012-.021.066-.09.136-.205.216-.733.603-1.527 1.281l-.027.023.008.035.057-.014.037.044c.528-.45.937-.772 1.215-1.003a3.95 3.95 0 0 0 .32-.286c.073-.079.12-.139.124-.216a.132.132 0 0 0-.055-.106.561.561 0 0 0-.244-.08c-.329-.048-.961-.052-1.949-.13l-.005.057.054-.022c-.276-.666-.457-1.167-.593-1.502a2.938 2.938 0 0 0-.176-.384.481.481 0 0 0-.082-.108.16.16 0 0 0-.106-.046.16.16 0 0 0-.106.046c-.098.095-.18.294-.313.625-.13.33-.3.785-.544 1.37l.054.021-.005-.057c-.754.059-1.303.076-1.667.102a2.39 2.39 0 0 0-.413.054.335.335 0 0 0-.12.054.135.135 0 0 0-.054.106c.003.077.05.137.124.216.222.232.745.611 1.54 1.29l.038-.045-.056-.013c-.137.57-.26 1.016-.35 1.352-.09.338-.146.561-.147.706 0 .051.007.095.032.134.025.04.074.061.118.06a.58.58 0 0 0 .245-.085c.298-.157.813-.525 1.655-1.042l-.03-.05-.03.05c.555.34.968.616 1.268.807.15.097.272.172.372.223.1.052.174.083.244.084a.138.138 0 0 0 .118-.06.249.249 0 0 0 .031-.136c0-.143-.055-.367-.143-.701-.088-.335-.21-.777-.345-1.342l-.056.013.037.044zM8.46 4.172l.055-.018c-.066-.205-.236-.312-.418-.365-.183-.054-.385-.062-.545-.07l-.003.058.005-.058c-.466-.035-.92-.051-1.383-.085l-.004.058.053-.021c-.168-.43-.328-.86-.506-1.283l-.053.023.054-.022c-.06-.147-.13-.336-.237-.493-.107-.156-.26-.286-.475-.285-.218 0-.374.128-.481.285-.11.157-.18.346-.239.493-.169.423-.329.852-.505 1.28l.053.023-.004-.058c-.462.034-.917.05-1.383.085l.005.058-.003-.058c-.16.008-.362.016-.545.07-.182.053-.352.16-.418.365a.508.508 0 0 0-.025.156c.005.343.338.59.54.766L2 5.078c.363.296.725.582 1.079.877l.037-.045-.056-.014c-.118.455-.236.893-.354 1.348v.001c-.04.157-.097.36-.097.558-.001.182.051.367.22.49l.034-.048-.035.047a.49.49 0 0 0 .3.098c.273-.001.54-.185.735-.306.389-.245.777-.507 1.172-.75l-.03-.05-.032.05c.387.243.767.496 1.164.741.196.121.46.302.732.304a.512.512 0 0 0 .301-.095h.001c.167-.124.218-.312.217-.494 0-.196-.055-.397-.094-.553a78.75 78.75 0 0 1-.345-1.34l-.056.013.037.045c.353-.295.708-.582 1.07-.877.203-.177.536-.424.541-.767a.508.508 0 0 0-.025-.156l-.055.018-.055.019c.013.041.019.08.019.119.005.257-.29.502-.5.678l.038.044-.036-.044c-.362.294-.717.581-1.072.877l-.027.023.008.035c.11.447.228.895.346 1.341l.056-.014-.056.014c.04.157.09.35.09.525 0 .165-.042.304-.17.4l.035.047-.033-.047a.399.399 0 0 1-.235.073c-.22.002-.474-.161-.67-.286-.396-.244-.775-.496-1.164-.742l-.03-.019-.031.02c-.398.245-.786.506-1.173.75-.195.123-.454.291-.672.29a.377.377 0 0 1-.231-.077h-.001c-.13-.096-.172-.233-.173-.396 0-.175.054-.371.094-.53.118-.454.236-.893.354-1.348l.009-.036-.028-.023c-.355-.296-.718-.583-1.08-.877l-.036.044.038-.044c-.21-.176-.505-.421-.5-.678 0-.039.006-.078.02-.12.051-.157.176-.24.34-.29.163-.048.357-.058.518-.066.463-.034.918-.05 1.384-.084l.035-.003.014-.033c.178-.431.338-.861.506-1.282.06-.148.128-.33.226-.47.099-.14.217-.235.386-.235.165 0 .281.094.38.235.096.14.165.322.224.47.177.421.337.85.506 1.281l.013.034.036.003c.466.033.92.05 1.383.084h.001c.16.008.355.018.518.066.164.05.289.133.34.29z"/><path d="M6.463 5.774c.674 2.816 1.003 2.571-1.459 1.063-2.487 1.526-2.15 1.77-1.467-1.063-2.217-1.888-2.344-1.492.557-1.72 1.113-2.672.708-2.672 1.812 0 2.892.228 2.766-.168.557 1.72M8.46 4.172c-.118-.362-.59-.379-.91-.395-.464-.035-.92-.052-1.383-.085-.169-.43-.33-.86-.506-1.281-.118-.295-.278-.743-.658-.743-.388 0-.548.448-.666.743-.168.42-.329.851-.506 1.281-.463.033-.919.05-1.382.085-.32.016-.793.033-.91.395-.119.363.26.658.497.86.362.295.725.582 1.079.877-.118.456-.236.894-.354 1.349-.076.304-.211.759.1.986.304.228.7-.041.97-.21.388-.245.776-.506 1.172-.75.388.244.767.497 1.164.741.27.169.657.43.97.211.303-.228.176-.683.1-.986a75.382 75.382 0 0 1-.345-1.34c.354-.296.708-.583 1.07-.878.237-.202.616-.497.498-.86"/><path d="M6.463 5.774l-.057.014c.137.567.258 1.01.346 1.344.088.332.14.558.14.672a.153.153 0 0 1-.013.073l-.021.007a.5.5 0 0 1-.19-.07c-.282-.147-.799-.515-1.634-1.027l-.03-.019-.03.02c-.563.345-.982.625-1.283.817a5.079 5.079 0 0 1-.366.22.507.507 0 0 1-.191.072l-.022-.008a.155.155 0 0 1-.012-.07c0-.115.053-.342.143-.676.089-.335.213-.783.35-1.355l.01-.035-.028-.023c-.532-.453-.944-.774-1.221-1.004a3.846 3.846 0 0 1-.312-.277c-.069-.07-.094-.124-.09-.136l.01-.015a.472.472 0 0 1 .19-.055c.312-.048.953-.053 1.946-.13l.035-.004.014-.033c.279-.668.463-1.17.598-1.503.067-.166.123-.29.17-.368a.377.377 0 0 1 .06-.081l.028-.016.028.016c.06.053.155.255.281.582.13.327.299.785.54 1.37l.014.033.036.003c.754.06 1.304.077 1.663.102.178.013.31.029.39.051.04.01.066.023.077.033l.01.015c.004.012-.021.066-.09.136-.205.216-.733.603-1.527 1.281l-.027.023.008.035.057-.014.037.044c.528-.45.937-.772 1.215-1.003a3.95 3.95 0 0 0 .32-.286c.073-.079.12-.139.124-.216a.132.132 0 0 0-.055-.106.561.561 0 0 0-.244-.08c-.329-.048-.961-.052-1.949-.13l-.005.057.054-.022c-.276-.666-.457-1.167-.593-1.502a2.938 2.938 0 0 0-.176-.384.481.481 0 0 0-.082-.108.16.16 0 0 0-.106-.046.16.16 0 0 0-.106.046c-.098.095-.18.294-.313.625-.13.33-.3.785-.544 1.37l.054.021-.005-.057c-.754.059-1.303.076-1.667.102a2.39 2.39 0 0 0-.413.054.335.335 0 0 0-.12.054.135.135 0 0 0-.054.106c.003.077.05.137.124.216.222.232.745.611 1.54 1.29l.038-.045-.056-.013c-.137.57-.26 1.016-.35 1.352-.09.338-.146.561-.147.706 0 .051.007.095.032.134.025.04.074.061.118.06a.58.58 0 0 0 .245-.085c.298-.157.813-.525 1.655-1.042l-.03-.05-.03.05c.555.34.968.616 1.268.807.15.097.272.172.372.223.1.052.174.083.244.084a.138.138 0 0 0 .118-.06.249.249 0 0 0 .031-.136c0-.143-.055-.367-.143-.701-.088-.335-.21-.777-.345-1.342l-.056.013.037.044zM8.46 4.172l.055-.018c-.066-.205-.236-.312-.418-.365-.183-.054-.385-.062-.545-.07l-.003.058.005-.058c-.466-.035-.92-.051-1.383-.085l-.004.058.053-.021c-.168-.43-.328-.86-.506-1.283l-.053.023.054-.022c-.06-.147-.13-.336-.237-.493-.107-.156-.26-.286-.475-.285-.218 0-.374.128-.481.285-.11.157-.18.346-.239.493-.169.423-.329.852-.505 1.28l.053.023-.004-.058c-.462.034-.917.05-1.383.085l.005.058-.003-.058c-.16.008-.362.016-.545.07-.182.053-.352.16-.418.365a.508.508 0 0 0-.025.156c.005.343.338.59.54.766L2 5.078c.363.296.725.582 1.079.877l.037-.045-.056-.014c-.118.455-.236.893-.354 1.348v.001c-.04.157-.097.36-.097.558-.001.182.051.367.22.49l.034-.048-.035.047a.49.49 0 0 0 .3.098c.273-.001.54-.185.735-.306.389-.245.777-.507 1.172-.75l-.03-.05-.032.05c.387.243.767.496 1.164.741.196.121.46.302.732.304a.512.512 0 0 0 .301-.095h.001c.167-.124.218-.312.217-.494 0-.196-.055-.397-.094-.553a78.75 78.75 0 0 1-.345-1.34l-.056.013.037.045c.353-.295.708-.582 1.07-.877.203-.177.536-.424.541-.767a.508.508 0 0 0-.025-.156l-.055.018-.055.019c.013.041.019.08.019.119.005.257-.29.502-.5.678l.038.044-.036-.044c-.362.294-.717.581-1.072.877l-.027.023.008.035c.11.447.228.895.346 1.341l.056-.014-.056.014c.04.157.09.35.09.525 0 .165-.042.304-.17.4l.035.047-.033-.047a.399.399 0 0 1-.235.073c-.22.002-.474-.161-.67-.286-.396-.244-.775-.496-1.164-.742l-.03-.019-.031.02c-.398.245-.786.506-1.173.75-.195.123-.454.291-.672.29a.377.377 0 0 1-.231-.077h-.001c-.13-.096-.172-.233-.173-.396 0-.175.054-.371.094-.53.118-.454.236-.893.354-1.348l.009-.036-.028-.023c-.355-.296-.718-.583-1.08-.877l-.036.044.038-.044c-.21-.176-.505-.421-.5-.678 0-.039.006-.078.02-.12.051-.157.176-.24.34-.29.163-.048.357-.058.518-.066.463-.034.918-.05 1.384-.084l.035-.003.014-.033c.178-.431.338-.861.506-1.282.06-.148.128-.33.226-.47.099-.14.217-.235.386-.235.165 0 .281.094.38.235.096.14.165.322.224.47.177.421.337.85.506 1.281l.013.034.036.003c.466.033.92.05 1.383.084h.001c.16.008.355.018.518.066.164.05.289.133.34.29z"/></g></svg>