<svg xmlns="http://www.w3.org/2000/svg" viewBox="0 0 10 10"><g fill="#00abe0"><path d="M7.391 6.79l.492 1.096-1.09-.486-4.725-4.729c-.119-.119-.129-.301-.02-.407l.217-.218a.261.261 0 0 1 .195-.075.318.318 0 0 1 .214.096zm.781 1.53a.144.144 0 0 0 .145-.145l-.012-.06-.658-1.469-.03-.043L2.88 1.86a.61.61 0 0 0-.41-.181.555.555 0 0 0-.41.16l-.219.218c-.22.22-.21.586.021.819l4.746 4.75.044.029 1.462.65z"/><path d="M7.391 6.79l.08-.036.585 1.304-1.313-.585-4.737-4.74a.404.404 0 0 1-.12-.285c0-.09.032-.18.1-.246l.218-.218a.349.349 0 0 1 .248-.1h.012c.102.006.2.047.273.122l-.063.06.062-.06L7.464 6.74l.006.014-.079.036-.061.061-4.718-4.724a.233.233 0 0 0-.156-.07l.004-.086-.002.087h-.006a.175.175 0 0 0-.126.05l-.218.217a.165.165 0 0 0-.049.123c0 .054.023.114.07.162l4.714 4.718.868.386-.4-.889.08-.035-.061.061zm.781 1.53v-.086a.057.057 0 0 0 .059-.059h.086l-.084.018-.01-.052-.652-1.453-.021-.03-4.732-4.736a.523.523 0 0 0-.35-.155h-.02a.467.467 0 0 0-.328.135l-.217.218a.457.457 0 0 0-.134.327c0 .13.052.265.155.368l4.74 4.744.03.02 1.448.644.051.013-.021.084v-.086.086l-.02.085-.059-.015-.007-.002-1.476-.656-.05-.033-.007-.005L1.8 2.938a.698.698 0 0 1-.204-.49c0-.164.06-.328.184-.451l.218-.218a.641.641 0 0 1 .45-.186h.026a.701.701 0 0 1 .468.207l4.743 4.747.034.051.004.006.665 1.484.015.07.001.008v.009a.232.232 0 0 1-.232.232h-.01l-.01-.002z"/><path d="M2.453 3.426a.15.15 0 0 0 .107-.043l.816-.816a.151.151 0 0 0 0-.213.152.152 0 0 0-.213 0l-.815.816a.152.152 0 0 0 0 .213.15.15 0 0 0 .105.043"/><path d="M2.453 3.426v-.087l.046-.018.815-.816.019-.044-.019-.045-.045-.018-.044.018-.816.815-.018.045.018.045.044.018v.173a.235.235 0 0 1-.167-.403l.816-.816a.237.237 0 0 1 .335.335l-.815.816a.238.238 0 0 1-.17.068zm4.071 4.069a.153.153 0 0 0 .107-.043l.816-.815a.151.151 0 0 0 0-.213.152.152 0 0 0-.212 0l-.816.815a.152.152 0 0 0 0 .213.142.142 0 0 0 .105.043"/><path d="M6.524 7.495v-.087l.049-.02.058.064-.061-.061.816-.816.018-.045-.018-.045-.045-.018-.045.018-.816.816-.018.045.018.045h.001l.002.002.041.015v.174a.229.229 0 0 1-.169-.07l.064-.06-.061.062a.236.236 0 0 1-.07-.168c0-.06.023-.122.07-.168l.01-.01.805-.806a.237.237 0 0 1 .335.336l-.006.006-.81.81-.001.002a.24.24 0 0 1-.167.066zm-1.084.282H2.666a.232.232 0 0 1 0-.463h2.772a.231.231 0 1 1 0 .463"/></g></svg>