<svg xmlns="http://www.w3.org/2000/svg" viewBox="0 0 10 10"><g fill="#9e70b1"><path d="M6.73 4.057c0 .379-.12.74-.347 1.046l-.01.016c-.63.885-.71 1.049-.71 1.46l-.014.054-.042.01h-1.2c-.041 0-.068-.013-.07-.07 0-.398-.085-.574-.704-1.443l-.016-.027a1.744 1.744 0 0 1-.348-1.046 1.74 1.74 0 0 1 1.73-1.747A1.74 1.74 0 0 1 6.73 4.057m.335 0C7.065 2.907 6.14 1.97 5 1.97a2.078 2.078 0 0 0-2.065 2.086c0 .442.136.866.396 1.225l.013.022c.613.86.658.971.658 1.268 0 .164.108.409.405.409h1.2a.375.375 0 0 0 .285-.115.427.427 0 0 0 .106-.294c0-.3.045-.41.661-1.277a2.08 2.08 0 0 0 .406-1.238"/><path d="M5 2.329c-.944 0-1.711.775-1.711 1.728 0 .374.118.732.343 1.034l.018.03c.62.871.706 1.048.706 1.451.002.044.017.051.05.051h1.201l.029-.004.008-.04c0-.417.08-.582.713-1.472l.011-.016c.224-.302.343-.66.343-1.035A1.72 1.72 0 0 0 5 2.329m.607 4.332h-1.2c-.037 0-.087-.009-.089-.089 0-.393-.085-.566-.7-1.432l-.016-.025a1.762 1.762 0 0 1-.352-1.058A1.76 1.76 0 0 1 5 2.29c.964 0 1.75.793 1.75 1.767 0 .383-.122.749-.352 1.057l-.009.014c-.628.883-.707 1.045-.707 1.451l-.02.068zM5 1.991a2.059 2.059 0 0 0-2.047 2.066c0 .438.136.857.393 1.213l.013.022c.617.866.662.978.662 1.28 0 .157.103.39.386.39h1.2c.14 0 .225-.06.271-.11.11-.117.1-.277.1-.278 0-.307.046-.419.666-1.29.263-.36.402-.783.402-1.227 0-1.14-.918-2.066-2.046-2.066M5.607 7h-1.2c-.311 0-.424-.256-.424-.428 0-.292-.045-.4-.655-1.257l-.014-.025a2.095 2.095 0 0 1-.399-1.233c0-1.16.936-2.105 2.085-2.105 1.15 0 2.084.944 2.084 2.105a2.1 2.1 0 0 1-.41 1.25c-.613.861-.657.97-.657 1.265 0 0 .012.175-.11.307a.393.393 0 0 1-.3.121"/><path d="M3.666 5.11c.623.876.71 1.054.71 1.462 0 .032.006.032.03.032h1.216l.003-.023c0-.424.08-.59.717-1.485l.011-.016c.222-.299.34-.653.34-1.023 0-.942-.76-1.709-1.693-1.709s-1.692.767-1.692 1.709c0 .37.117.724.34 1.023zm1.941 1.57h-1.2c-.07 0-.106-.035-.108-.107 0-.387-.084-.56-.697-1.42L3.6 5.146l-.013-.02a1.781 1.781 0 0 1-.354-1.07A1.78 1.78 0 0 1 5.001 2.27a1.78 1.78 0 0 1 1.768 1.786c0 .387-.122.757-.354 1.07l-.008.011C5.779 6.018 5.7 6.18 5.7 6.58l-.025.08c-.014.014-.036.021-.069.021M5 2.01a2.04 2.04 0 0 0-2.027 2.047c0 .434.134.85.389 1.202l.003.005.01.017c.62.87.665.984.665 1.291 0 .149.098.37.367.37h1.2a.339.339 0 0 0 .258-.103c.104-.112.095-.262.095-.264 0-.313.045-.427.668-1.302.261-.356.4-.777.4-1.216A2.04 2.04 0 0 0 5 2.01m.607 5.01h-1.2c-.325 0-.443-.268-.443-.448 0-.286-.044-.394-.651-1.246l-.015-.024a2.119 2.119 0 0 1-.402-1.245c0-1.171.944-2.124 2.104-2.124 1.16 0 2.103.953 2.103 2.124 0 .456-.143.892-.413 1.261-.61.857-.654.965-.654 1.254a.468.468 0 0 1-.116.32.414.414 0 0 1-.313.127"/><path d="M4.395 6.584h1.211v-.002c0-.43.08-.598.72-1.497l.012-.017c.22-.295.335-.645.335-1.011 0-.932-.75-1.69-1.673-1.69s-1.673.758-1.673 1.69c0 .366.116.716.335 1.012l.02.03c.626.88.712 1.06.712 1.473zm1.212.04h-1.2c-.034 0-.05-.008-.05-.052 0-.403-.087-.58-.707-1.451l-.001-.002-.017-.027a1.724 1.724 0 0 1-.343-1.035 1.72 1.72 0 0 1 1.71-1.728c.945 0 1.712.775 1.712 1.728 0 .375-.118.733-.343 1.035l-.01.014c-.635.892-.714 1.057-.714 1.475l-.003.026-.003.014-.013.002zM5 2.29a1.76 1.76 0 0 0-1.75 1.767c0 .383.122.749.352 1.058l.014.023.002.004c.615.864.7 1.038.7 1.431.002.06.03.089.089.089h1.2l.055-.016.02-.066c0-.407.08-.57.708-1.453l.009-.013a1.76 1.76 0 0 0 .35-1.057A1.76 1.76 0 0 0 5 2.29m.607 4.41h-1.2c-.08 0-.125-.045-.127-.127 0-.382-.084-.553-.693-1.41l-.005-.007-.01-.018a1.8 1.8 0 0 1-.36-1.082c0-.995.802-1.804 1.788-1.804s1.787.81 1.787 1.804a1.8 1.8 0 0 1-.358 1.081l-.007.01C5.8 6.024 5.72 6.184 5.72 6.58c0 0 .001.062-.03.094-.018.018-.045.027-.083.027M5 2.029a2.02 2.02 0 0 0-2.008 2.028c0 .43.133.84.385 1.19l.004.007.009.015c.624.876.67.99.67 1.303 0 .14.092.35.347.35h1.2a.319.319 0 0 0 .243-.096.368.368 0 0 0 .09-.25c0-.32.046-.434.673-1.315a2.03 2.03 0 0 0 .395-1.205A2.02 2.02 0 0 0 5 2.028m.607 4.933h-1.2c-.283 0-.386-.233-.386-.39 0-.302-.045-.413-.662-1.28l-.011-.019-.003-.004a2.061 2.061 0 0 1-.392-1.212c0-1.14.918-2.066 2.047-2.066 1.128 0 2.046.927 2.046 2.066 0 .444-.139.868-.402 1.227-.62.872-.665.984-.665 1.292a.41.41 0 0 1-.1.277.356.356 0 0 1-.272.109M5 1.951c-1.15 0-2.085.945-2.085 2.105 0 .445.138.872.399 1.234l.014.024c.61.857.655.966.655 1.258 0 .171.113.427.424.427h1.2a.393.393 0 0 0 .3-.12.453.453 0 0 0 .11-.307c0-.295.044-.404.657-1.266a2.1 2.1 0 0 0 .41-1.25c0-1.16-.935-2.104-2.084-2.104m.607 5.086h-1.2c-.34 0-.462-.28-.462-.466 0-.281-.044-.388-.648-1.236l-.016-.026a2.135 2.135 0 0 1-.404-1.254c0-1.182.952-2.143 2.123-2.143 1.17 0 2.122.961 2.122 2.143 0 .46-.144.9-.417 1.273-.606.852-.65.959-.65 1.242a.487.487 0 0 1-.12.333.43.43 0 0 1-.328.134m-.419 1.925h-.392l-.279-.202.978-.169zM4.407 7.53h1.2c.054 0 .07.022.076.029l.029.106v.028l-1.424.245v-.263c.001-.066.023-.144.119-.144m-.119.697l1.424-.246v.284l-1.424.245zm1.569-.865a.306.306 0 0 0-.25-.119h-1.2c-.261 0-.356.257-.356.43v1.008l.001.014.003.012.001.007.027.057.004.005.023.022.592.429.06.02h.475l.084-.041.593-.716.004-.007.01-.013.004-.01.006-.014.004-.011.003-.015.002-.013.002-.015v-.719a.523.523 0 0 0-.092-.311"/><path d="M4.407 7.55c-.024 0-.097 0-.1.126v.24l1.386-.239v-.012l-.024-.093c-.005-.005-.018-.022-.062-.022zm-.138.412v-.286c.002-.106.051-.164.138-.164h1.2c.062 0 .084.027.091.035a.21.21 0 0 1 .033.12v.042zm.038.282v.245l1.386-.24v-.244zm-.038.29v-.322L5.73 7.96v.322zm.533.41h.377l.268-.324-.882.152zm.395.038h-.408l-.32-.232 1.073-.185zm-.79-1.718c-.247 0-.337.245-.337.41v1.013l.001.007.001.006.003.011.023.05.003.005.02.019.592.428.05.017h.474l.07-.035.596-.721.008-.011.003-.007.007-.015.002-.008.004-.015.001-.009.001-.015v-.719a.493.493 0 0 0-.087-.3.286.286 0 0 0-.235-.11zm.83 2.004h-.474l-.073-.024-.591-.428-.027-.025-.004-.005-.03-.065-.003-.012-.002-.01V7.675c-.001-.18.099-.449.374-.449h1.2c.137 0 .22.068.265.126a.54.54 0 0 1 .096.324v.719l-.002.017-.002.014-.004.016-.004.013-.007.016-.005.011-.01.015-.006.007-.592.716a.13.13 0 0 1-.099.048"/><path d="M4.407 7.57c-.023 0-.078 0-.08.107v.216l1.347-.232-.02-.077-.047-.014zm-.157.414v-.308c.003-.117.06-.183.157-.183h1.2c.048 0 .083.014.106.042a.23.23 0 0 1 .037.132v.059zm.076.276v.206l1.347-.232v-.206zm-.076.297v-.361l1.5-.26V8.3zm.558.367h.362l.23-.276-.787.136zm.398.077h-.423l-.362-.262 1.17-.202zm-1.117-.325v.005l.001.006v.005l.003.015.02.043.003.004.016.015.592.429.039.013h.474l.055-.028.596-.72.006-.01.003-.005.006-.013.002-.007.003-.013.001-.008.001-.013v-.718c.001-.03 0-.18-.083-.288a.269.269 0 0 0-.22-.104h-1.2c-.233 0-.318.234-.318.39v1.003zm1.148.612h-.474l-.084-.028-.591-.429-.03-.028-.005-.006-.034-.072-.002-.007v-.004l-.003-.012v-.014l-.001-.011V7.675c0-.188.105-.468.394-.468h1.2a.34.34 0 0 1 .28.134.555.555 0 0 1 .1.336v.72l-.002.017-.002.016-.005.018-.004.014-.008.018-.006.012-.01.017-.007.008-.593.716a.148.148 0 0 1-.113.055"/><path d="M4.407 7.589c-.022 0-.06 0-.062.088v.193l1.309-.225-.015-.05-.032-.006zm-.1.327v-.239c.003-.127.076-.127.1-.127h1.2l.061.022.025.088v.017zm1.424-.247zm-1.324-.157c-.087 0-.136.058-.138.164v.286l1.461-.253v-.043a.213.213 0 0 0-.032-.12c-.02-.023-.05-.035-.091-.035zm-.176.495v-.331c.003-.127.068-.203.176-.203h1.2c.053 0 .094.017.12.05a.246.246 0 0 1 .042.143v.077zm.114.27v.166l1.31-.226v-.166zm-.038.212v-.245l1.386-.239v.245zm-.038-.277v.322l1.461-.252V7.96zm-.038.368v-.4l1.538-.266v.4zm.583.325h.347l.19-.229-.69.119zm.365.039h-.377l-.237-.172.882-.152zm-.39.038h.408l.345-.417-1.073.185zm.426.039h-.438l-.404-.293 1.265-.219zm-1.107-.347v.012l.004.017.016.035.002.003.013.012.592.429.028.01h.474l.04-.021.596-.721.005-.007.002-.004.005-.011.001-.004.004-.013v-.005l.001-.013v-.717a.46.46 0 0 0-.08-.276.25.25 0 0 0-.204-.097h-1.2c-.22 0-.299.222-.299.371zm1.13.556h-.475l-.05-.017-.592-.429-.02-.018-.003-.004-.023-.051-.004-.015H4.07V7.673c0-.165.09-.41.337-.41h1.2c.122 0 .195.06.235.111a.52.52 0 0 1 .088.3v.72l-.002.012-.001.011-.004.014-.002.01-.006.011-.019-.005.018.008-.003.005-.007.01-.598.723zm-.831-2.004a.334.334 0 0 0-.29.155.548.548 0 0 0-.085.294v1.008l.001.016.002.01.002.011.03.066.005.006.027.024.591.429.073.024h.474a.129.129 0 0 0 .099-.049l.592-.716.005-.006.01-.016.006-.01.007-.017.004-.012.004-.017.002-.013.002-.015v-.721a.536.536 0 0 0-.096-.324.322.322 0 0 0-.265-.127zm.83 2.08h-.474a.16.16 0 0 1-.095-.03l-.591-.429-.034-.031-.005-.006L4 8.73v-.008l-.001-.004-.003-.014v-.016l-.001-.01V7.675a.59.59 0 0 1 .091-.316.371.371 0 0 1 .322-.172h1.2a.36.36 0 0 1 .295.14c.1.131.105.3.104.35v.72l-.002.018-.002.017-.005.02-.005.016-.009.02-.007.013-.012.018-.006.01-.593.715a.167.167 0 0 1-.128.062M2.513 4.057a.119.119 0 0 0-.118-.12h-.712a.119.119 0 0 0-.119.12c0 .066.053.12.119.12h.712a.12.12 0 0 0 .118-.12"/><path d="M1.683 3.995a.062.062 0 0 0-.061.062c0 .034.027.062.061.062h.712a.062.062 0 0 0 .06-.062.062.062 0 0 0-.06-.062zm.712.24h-.712a.177.177 0 0 1-.176-.178c0-.098.079-.178.176-.178h.712c.097 0 .176.08.176.178a.177.177 0 0 1-.176.178"/><path d="M1.683 3.976a.081.081 0 1 0 0 .163h.712c.044 0 .08-.037.08-.082a.081.081 0 0 0-.08-.081zm.712.24h-.712a.158.158 0 0 1-.157-.16c0-.086.07-.157.157-.157h.712c.086 0 .156.07.156.158 0 .087-.07.158-.156.158"/><path d="M1.683 4.033l-.023.024.023.023h.712l.023-.023-.023-.024zm.712.24h-.712a.215.215 0 0 1-.214-.216c0-.12.096-.216.214-.216h.712c.118 0 .214.097.214.216s-.096.216-.214.216m5.922-.336h-.712a.12.12 0 0 0-.119.12c0 .066.054.12.119.12h.712a.12.12 0 0 0 .118-.12.119.119 0 0 0-.118-.12"/><path d="M7.605 3.995a.062.062 0 0 0-.061.062c0 .034.027.062.061.062h.712a.062.062 0 0 0 .061-.062.062.062 0 0 0-.061-.062zm.712.24h-.712a.177.177 0 0 1-.176-.178c0-.098.08-.178.176-.178h.712c.097 0 .176.08.176.178a.177.177 0 0 1-.176.178"/><path d="M7.605 3.976a.081.081 0 0 0-.08.08.08.08 0 0 0 .08.082h.712a.08.08 0 0 0 .08-.081.08.08 0 0 0-.08-.081zm.712.24h-.712a.158.158 0 0 1-.157-.16c0-.086.07-.157.157-.157h.712c.086 0 .157.07.157.158 0 .087-.07.158-.157.158"/><path d="M7.605 4.033l-.023.024.023.023h.712l.023-.023-.023-.024zm.712.24h-.712a.215.215 0 0 1-.214-.216c0-.12.096-.216.214-.216h.712c.118 0 .214.097.214.216s-.096.216-.214.216M5 1.508a.12.12 0 0 0 .119-.12v-.48A.12.12 0 0 0 5 .789a.12.12 0 0 0-.118.12v.48c0 .066.052.12.118.12"/><path d="M5 .847a.062.062 0 0 0-.061.062v.479c0 .034.027.062.061.062a.062.062 0 0 0 .061-.062v-.48a.062.062 0 0 0-.06-.061m0 .718a.177.177 0 0 1-.177-.177v-.48c0-.097.08-.177.176-.177.097 0 .176.08.176.178v.479A.177.177 0 0 1 5 1.565"/><path d="M5 .827a.081.081 0 0 0-.08.082v.479c0 .044.036.08.08.08a.08.08 0 0 0 .08-.08v-.48A.081.081 0 0 0 5 .829m0 .718a.158.158 0 0 1-.157-.158v-.48c0-.087.07-.158.157-.158s.157.071.157.159v.479c0 .087-.07.158-.157.158"/><path d="M5 .885l-.023.024v.479L5 1.41l.023-.023v-.48zm0 .719a.215.215 0 0 1-.214-.216v-.48a.214.214 0 1 1 .428.001v.479A.215.215 0 0 1 5 1.604m-1.348.181c.022.038.061.06.103.06l.059-.016a.12.12 0 0 0 .043-.164l-.178-.311a.118.118 0 0 0-.162-.044.12.12 0 0 0-.043.164z"/><path d="M3.701 1.756l.084.023.023-.085-.178-.311-.084-.023-.023.085zm.053.146a.176.176 0 0 1-.152-.088l-.178-.311a.18.18 0 0 1 .064-.243.176.176 0 0 1 .24.065l.179.311a.179.179 0 0 1-.065.243z"/><path d="M3.685 1.766a.083.083 0 0 0 .11.03l.037-.05-.008-.062-.178-.31a.08.08 0 0 0-.11-.03.082.082 0 0 0-.029.11zm.07.117a.157.157 0 0 1-.136-.079l-.178-.311a.16.16 0 0 1 .057-.216.156.156 0 0 1 .214.058l.178.311a.157.157 0 0 1 .016.12.156.156 0 0 1-.073.096z"/><path d="M3.734 1.737l.032.009.011-.015-.002-.018-.178-.31-.032-.01-.009.033zm.02.204a.215.215 0 0 1-.185-.108l-.178-.311a.217.217 0 0 1 .079-.295.213.213 0 0 1 .292.079l.178.311c.028.05.036.108.021.164a.215.215 0 0 1-.206.16m2.431-.112l.06.016a.12.12 0 0 0 .102-.06l.178-.312a.12.12 0 0 0-.043-.163.118.118 0 0 0-.163.043l-.177.312a.12.12 0 0 0 .043.164"/><path d="M6.215 1.779l.084-.023.177-.311.007-.047-.029-.038-.084.023-.178.311-.006.047zm.03.123l-.087-.024a.177.177 0 0 1-.065-.242l.178-.311a.175.175 0 1 1 .322.043.18.18 0 0 1-.017.134l-.178.312a.177.177 0 0 1-.153.088"/><path d="M6.423 1.332l-.07.04-.177.312-.008.062.037.05a.082.082 0 0 0 .11-.03l.178-.312.008-.061-.037-.05zm-.178.551l-.078-.021a.16.16 0 0 1-.058-.216l.179-.312a.156.156 0 0 1 .287.038.16.16 0 0 1-.016.12l-.178.312a.157.157 0 0 1-.136.079"/><path d="M6.423 1.39l-.02.012-.178.31-.002.019.01.014.033-.01.178-.31.002-.018-.01-.014zm-.178.55a.215.215 0 0 1-.185-.323l.178-.312a.212.212 0 0 1 .392.052.215.215 0 0 1-.022.165l-.177.31a.215.215 0 0 1-.186.109m-4.051.624l.513.3.06.016a.12.12 0 0 0 .102-.06.12.12 0 0 0-.043-.164l-.514-.3a.118.118 0 0 0-.162.044.12.12 0 0 0 .044.164"/><path d="M2.222 2.515l.514.3.084-.023-.023-.085-.513-.3-.084.023-.006.047zm.544.424l-.087-.024-.514-.3a.179.179 0 0 1-.065-.242.175.175 0 0 1 .24-.065l.514.3a.179.179 0 0 1 .065.242.177.177 0 0 1-.153.089"/><path d="M2.213 2.532l.513.3a.083.083 0 0 0 .11-.03.082.082 0 0 0-.03-.111l-.513-.3a.08.08 0 0 0-.11.03.082.082 0 0 0 .03.11m.554.388l-.079-.021-.513-.3a.16.16 0 0 1-.058-.216.156.156 0 0 1 .214-.058l.514.3c.075.044.1.14.057.216a.158.158 0 0 1-.135.08"/><path d="M2.241 2.482l.514.3.032-.01.002-.017-.01-.015-.514-.3-.032.009zm.526.495a.213.213 0 0 1-.107-.029l-.514-.3a.217.217 0 0 1-.078-.295.213.213 0 0 1 .292-.079l.513.3a.216.216 0 0 1-.107.403M7.845 5.51l-.514-.3a.118.118 0 0 0-.162.045.12.12 0 0 0 .043.163l.514.3.06.016a.12.12 0 0 0 .06-.224"/><path d="M7.272 5.252l-.016.002-.038.03-.006.047.029.037.514.3.084-.023-.023-.085-.514-.3zm.513.54l-.088-.024-.514-.3a.177.177 0 0 1-.064-.242.175.175 0 0 1 .24-.065l.514.3a.18.18 0 0 1 .065.242.177.177 0 0 1-.153.088"/><path d="M7.272 5.233l-.07.041-.008.062.037.05.514.299a.082.082 0 0 0 .11-.03.082.082 0 0 0-.03-.111l-.513-.3zm.513.54l-.078-.022-.514-.3a.159.159 0 0 1-.057-.216.156.156 0 0 1 .214-.057l.514.3a.158.158 0 1 1-.078.295"/><path d="M7.272 5.29l-.02.013-.003.017.01.015.515.3h.017l.015-.01-.01-.032-.513-.3zm.513.54a.213.213 0 0 1-.107-.03l-.514-.299a.215.215 0 0 1 .214-.374l.514.3c.102.06.137.192.078.295a.214.214 0 0 1-.185.108M2.67 5.21l-.514.3a.12.12 0 0 0 .06.224l.058-.016.514-.3a.12.12 0 0 0-.119-.207"/><path d="M2.728 5.252l-.03.008-.514.3-.022.085.084.022.513-.3.029-.037-.006-.047-.038-.029zm-.513.54a.177.177 0 0 1-.152-.09.18.18 0 0 1 .064-.242l.513-.299a.175.175 0 0 1 .24.065c.024.04.03.089.018.135a.176.176 0 0 1-.082.107l-.513.3z"/><path d="M2.728 5.233l-.04.011-.513.3a.081.081 0 0 0-.03.11.083.083 0 0 0 .11.03l.514-.299.037-.05-.008-.061-.049-.038zm-.513.54a.157.157 0 0 1-.136-.08.16.16 0 0 1 .058-.216l.513-.3a.157.157 0 0 1 .214.058.158.158 0 0 1-.057.217l-.514.3z"/><path d="M2.728 5.29l-.011.004-.514.3-.009.032.033.008.513-.3.011-.014-.002-.018-.014-.01zm-.513.54a.214.214 0 0 1-.185-.108.218.218 0 0 1 .078-.295l.514-.3a.214.214 0 0 1 .292.08.217.217 0 0 1-.079.295l-.513.299a.212.212 0 0 1-.107.029m5.019-2.95l.059-.015.513-.3a.12.12 0 0 0 .044-.164.118.118 0 0 0-.162-.043l-.514.299a.12.12 0 0 0-.043.164.12.12 0 0 0 .103.06"/><path d="M7.747 2.4l-.03.007-.514.3-.023.085.084.023.514-.3.022-.085-.037-.029zm-.513.538a.177.177 0 0 1-.153-.088.179.179 0 0 1 .064-.243l.514-.3a.174.174 0 0 1 .24.065.179.179 0 0 1-.064.243l-.514.3z"/><path d="M7.747 2.38l-.04.01-.514.3-.037.05.008.061a.082.082 0 0 0 .11.03l.513-.3a.082.082 0 0 0 .03-.11l-.05-.038zm-.514.539a.158.158 0 0 1-.078-.295l.514-.3a.154.154 0 0 1 .119-.016.158.158 0 0 1 .037.29l-.513.3z"/><path d="M7.747 2.438l-.011.003-.514.3-.011.014.002.018.032.008.514-.3.01-.014-.002-.018-.014-.01zm-.513.539a.215.215 0 0 1-.207-.272.214.214 0 0 1 .1-.131l.513-.3a.21.21 0 0 1 .292.08.217.217 0 0 1-.078.294l-.514.3a.215.215 0 0 1-.106.029"/></g></svg>