<svg xmlns="http://www.w3.org/2000/svg" viewBox="0 0 10 10"><path d="M4.995 2.172c-.625 0-1.218.2-1.717.58l-.021.016 3.977 3.978.016-.022a2.834 2.834 0 0 0 .584-1.722 2.853 2.853 0 0 0-.58-1.711 2.818 2.818 0 0 0-2.26-1.119M2.716 3.323a2.82 2.82 0 0 0-.002 3.349 2.85 2.85 0 0 0 2.29 1.16c.606 0 1.185-.19 1.675-.548l.022-.017-3.969-3.965zM5 8.582a3.558 3.558 0 0 1-2.532-1.05A3.56 3.56 0 0 1 1.418 5 3.586 3.586 0 0 1 5 1.42a3.591 3.591 0 0 1 3.582 3.583A3.586 3.586 0 0 1 5 8.582z" fill="#e9262a"/><path d="M5.003 7.809a2.813 2.813 0 0 1-2.816-2.807 2.8 2.8 0 0 1 .547-1.664l3.93 3.926a2.8 2.8 0 0 1-1.66.545m2.228-1.1l-3.94-3.938a2.809 2.809 0 0 1 3.943.534 2.8 2.8 0 0 1-.004 3.404M5 1.396a3.605 3.605 0 0 0 0 7.21 3.605 3.605 0 0 0 .001-7.21zm.003 6.461a2.84 2.84 0 0 0 1.689-.553l.045-.033-.04-.039-3.93-3.927-.039-.039-.032.044a2.866 2.866 0 0 0-.556 1.694c.001.61.193 1.192.554 1.683a2.87 2.87 0 0 0 2.31 1.17m2.232-1.075l.033-.042a2.86 2.86 0 0 0 .589-1.737 2.88 2.88 0 0 0-.585-1.725A2.84 2.84 0 0 0 4.995 2.15c-.63 0-1.229.202-1.731.584l-.043.033.038.038 3.94 3.94zm-2.235-5.34a3.567 3.567 0 0 1 3.557 3.56A3.563 3.563 0 0 1 5 8.558c-.95 0-1.844-.37-2.515-1.043A3.536 3.536 0 0 1 1.442 5 3.562 3.562 0 0 1 5 1.442z" fill="#e9262a"/></svg>