<?xml version="1.0" encoding="UTF-8"?>
<svg width="30px" height="30px" viewBox="0 0 30 30" version="1.1" xmlns="http://www.w3.org/2000/svg" xmlns:xlink="http://www.w3.org/1999/xlink">
    <!-- Generator: Sketch 52.2 (67145) - http://www.bohemiancoding.com/sketch -->
    <title>menu@2x</title>
    <desc>Created with Sketch.</desc>
    <defs>
        <radialGradient cx="100%" cy="73.3632338%" fx="100%" fy="73.3632338%" r="68.5683526%" id="radialGradient-1">
            <stop stop-color="#93FFFF" offset="0%"></stop>
            <stop stop-color="#93FFFF" stop-opacity="0" offset="100%"></stop>
        </radialGradient>
        <radialGradient cx="0%" cy="20.9860625%" fx="0%" fy="20.9860625%" r="54.6053605%" id="radialGradient-2">
            <stop stop-color="#ACBCF9" offset="0%"></stop>
            <stop stop-color="#ACBCF9" stop-opacity="0" offset="100%"></stop>
        </radialGradient>
        <radialGradient cx="42.5621848%" cy="69.2210177%" fx="42.5621848%" fy="69.2210177%" r="14.339396%" id="radialGradient-3">
            <stop stop-color="#FFFFFF" offset="0%"></stop>
            <stop stop-color="#FFFFFF" offset="21.2651467%"></stop>
            <stop stop-color="#FFFFFF" stop-opacity="0" offset="100%"></stop>
        </radialGradient>
        <path d="M34.9993093,13 C34.7423559,13 34.4854025,13.0423487 34.2422638,13.1248655 C34.2413428,13.125095 34.2403067,13.1255541 34.2393857,13.1258984 C30.0242908,14.5584088 25.8094262,15.9911486 21.5943314,17.423659 L21.5907626,17.4250362 C21.5907626,17.4250362 21.5340072,17.446727 21.4208418,17.4903381 C21.3107847,17.5410647 21.1430512,17.6173841 20.9474581,17.7631371 C20.7523255,17.9075128 20.5296786,18.1222402 20.3384601,18.4326825 C20.1523071,18.7426657 20.0003454,19.1581189 20,19.6447272 L20.4885798,19.6447272 L20.9773899,19.6447272 L21.4658547,19.6447272 L21.9545496,19.6447272 L21.4658547,19.6447272 L20.9773899,19.6447272 L20.4885798,19.6447272 L20,19.6447272 L20,30.3548136 C20.0001151,30.3561907 20.0001151,30.3574532 20.0001151,30.3587156 C19.9995395,30.8430285 20.1563363,31.3283743 20.4399982,31.7212186 C20.7217029,32.1156697 21.1321146,32.4199146 21.592144,32.5755374 C21.5931801,32.5758817 21.5941011,32.576226 21.5951372,32.5765703 C22.8530807,33.0041888 24.110909,33.4315777 25.3687373,33.8591961 C28.3258887,34.8643176 31.2830402,35.8693242 34.2401916,36.8744457 C34.2413428,36.87479 34.2426091,36.8751343 34.2437604,36.8754786 C34.4870142,36.9579954 34.7440827,37.0001145 35.0008059,36.9999998 C35.2576441,36.9999998 35.5147127,36.9576511 35.7578514,36.8750195 C35.7587723,36.8746752 35.7596933,36.8744457 35.7607294,36.8739866 C39.3431111,35.6565479 42.9253776,34.4388797 46.5076441,33.221441 C47.1403573,33.0063693 47.7730705,32.7912977 48.4056686,32.5763408 L48.4093526,32.5749636 C48.869382,32.419226 49.2795635,32.114522 49.5609228,31.7199562 C49.8443544,31.3268823 50.0008059,30.841307 49.9998849,30.3571089 C50,30.3568793 50,30.3566498 50,30.3564203 L50,19.6431204 C50,19.6425466 49.9998849,19.641858 49.9998849,19.6412842 C50.0003454,19.1681036 49.850571,18.6938901 49.5788819,18.3062102 C49.3091499,17.9172679 48.9157764,17.6121049 48.4704826,17.4477599 C48.4496454,17.4399558 48.4289234,17.4321517 48.4079711,17.4244623 C48.406935,17.4241181 48.4058989,17.423659 48.4048628,17.4233147 C44.189883,15.9906896 39.9749033,14.5581792 35.7598084,13.1255541 C35.7586572,13.125095 35.757506,13.1247507 35.7564699,13.1244064 C35.5136766,13.0422339 35.257529,13 35.0013815,13 L34.9993093,13 Z M22.1153758,19.3265238 C22.1479554,19.3012705 22.1775419,19.2911692 22.1951556,19.2803791 C22.2153021,19.2746397 22.2243968,19.2692447 22.2243968,19.2692447 L22.2250875,19.2690151 C26.4399521,17.8361204 30.6549318,16.4032256 34.8700267,14.9703308 L34.8715233,14.9698716 C34.9127372,14.9558675 34.9562535,14.9486359 34.9998849,14.9486359 C35.0436314,14.9486359 35.0871477,14.9558675 35.1283616,14.9698716 L35.1291674,14.9701012 C39.3441472,16.402996 43.559242,17.835776 47.7742218,19.2686708 L47.775373,19.2691299 L47.7858491,19.2738362 C47.9381562,19.3274421 48.0472923,19.4838977 48.0456806,19.6452892 L48.0456806,19.6462075 L48.0456806,30.357162 L48.0456806,30.3588839 C48.0479831,30.5244077 47.9337815,30.6841922 47.7756032,30.7351579 L47.7750276,30.7353875 C47.1423144,30.9506144 46.5096012,31.1657266 45.8770031,31.3807239 C42.2946215,32.5985066 38.7123549,33.8161744 35.1300884,35.0340719 L35.1285918,35.034531 C35.0872628,35.0486499 35.0437465,35.055652 35.0002302,35.055652 C34.9565988,35.0557667 34.9129674,35.0486499 34.8716384,35.0346458 L34.8709477,35.0344162 C31.9136812,34.0291056 28.9566449,33.023795 25.9996086,32.0184844 C24.7416651,31.591015 23.4838368,31.163316 22.2258934,30.7358467 L22.224627,30.7352727 C22.0666789,30.684307 21.9520169,30.5247521 21.9546648,30.3591134 L21.9545496,30.3580804 L21.9545496,19.6459779 C21.9570823,19.4776992 22.0519433,19.3737015 22.1153758,19.3265238 Z M33.6360287,27.7000565 C33.6360287,28.4511124 34.2467535,29.0600611 35.0001151,29.0600611 C35.7533616,29.0600611 36.3639713,28.4511124 36.3639713,27.7000565 C36.3639713,26.9490006 35.7533616,26.3401667 35.0001151,26.3401667 C34.2467535,26.3401667 33.6360287,26.9490006 33.6360287,27.7000565 Z" id="path-4"></path>
    </defs>
    <g id="设计稿3.4" stroke="none" stroke-width="1" fill="none" fill-rule="evenodd">
        <g id="oem首页" transform="translate(-20.000000, -10.000000)">
            <g id="Group-5">
                <g id="menu">
                    <g id="favicon">
                        <use fill="#6282CD" xlink:href="#path-4"></use>
                        <use fill="url(#radialGradient-1)" xlink:href="#path-4"></use>
                        <use fill="url(#radialGradient-2)" xlink:href="#path-4"></use>
                        <use fill="url(#radialGradient-3)" xlink:href="#path-4"></use>
                    </g>
                </g>
            </g>
        </g>
    </g>
</svg>