<?xml version="1.0" encoding="UTF-8"?>
<svg width="16px" height="16px" viewBox="0 0 16 16" version="1.1" xmlns="http://www.w3.org/2000/svg" xmlns:xlink="http://www.w3.org/1999/xlink">
    <!-- Generator: Sketch 55.2 (78181) - https://sketchapp.com -->
    <title>icon_message</title>
    <desc>Created with Sketch.</desc>
    <g id="修改页" stroke="none" stroke-width="1" fill="none" fill-rule="evenodd">
        <g id="首页-02" transform="translate(-1409.000000, -22.000000)" fill="#FFFFFF" fill-rule="nonzero">
            <g id="Banner" transform="translate(0.000000, -1.000000)">
                <g id="NAV" transform="translate(240.774536, 0.981023)">
                    <g id="icon_message" transform="translate(1168.000000, 22.000000)">
                        <path d="M4.14953576,12.4810226 C3.48286576,12.4810226 2.92037139,12.2674831 2.46203576,11.8403976 C2.00370014,11.4133121 1.77453576,10.8872757 1.77453576,10.2622726 L1.77453576,3.7310226 C1.77453576,3.10601948 2.00370014,2.57477479 2.46203576,2.1372726 C2.92037139,1.69977041 3.48286576,1.4810226 4.14953576,1.4810226 L12.3995358,1.4810226 C13.0662058,1.4810226 13.6287001,1.69977041 14.0870358,2.1372726 C14.5453714,2.57477479 14.7745358,3.10601948 14.7745358,3.7310226 L14.7745358,10.2622726 C14.7745358,10.8872757 14.5453714,11.4133121 14.0870358,11.8403976 C13.6287001,12.2674831 13.0662058,12.4810226 12.3995358,12.4810226 L12.2745358,12.4810226 L12.2745358,14.4810226 C10.6286942,13.356017 9.73286982,12.7414398 9.58703576,12.6372726 C9.4412017,12.5331054 9.22245389,12.4810226 8.93078576,12.4810226 L4.14953576,12.4810226 Z M11.9932858,6.2622726 C11.8057848,6.07477166 11.5662039,5.9810226 11.2745358,5.9810226 C10.9828676,5.9810226 10.7432867,6.07477166 10.5557858,6.2622726 C10.3682848,6.44977354 10.2745358,6.68935448 10.2745358,6.9810226 C10.2745358,7.27269073 10.3682848,7.51227166 10.5557858,7.6997726 C10.7432867,7.88727354 10.9828676,7.9810226 11.2745358,7.9810226 C11.5662039,7.9810226 11.8057848,7.88727354 11.9932858,7.6997726 C12.1807867,7.51227166 12.2745358,7.27269073 12.2745358,6.9810226 C12.2745358,6.68935448 12.1807867,6.44977354 11.9932858,6.2622726 Z M8.99328576,6.2622726 C8.80578482,6.07477166 8.56620389,5.9810226 8.27453576,5.9810226 C7.98286764,5.9810226 7.7432867,6.07477166 7.55578576,6.2622726 C7.36828482,6.44977354 7.27453576,6.68935448 7.27453576,6.9810226 C7.27453576,7.27269073 7.36828482,7.51227166 7.55578576,7.6997726 C7.7432867,7.88727354 7.98286764,7.9810226 8.27453576,7.9810226 C8.56620389,7.9810226 8.80578482,7.88727354 8.99328576,7.6997726 C9.1807867,7.51227166 9.27453576,7.27269073 9.27453576,6.9810226 C9.27453576,6.68935448 9.1807867,6.44977354 8.99328576,6.2622726 Z M5.99328576,6.2622726 C5.80578482,6.07477166 5.56620389,5.9810226 5.27453576,5.9810226 C4.98286764,5.9810226 4.7432867,6.07477166 4.55578576,6.2622726 C4.36828482,6.44977354 4.27453576,6.68935448 4.27453576,6.9810226 C4.27453576,7.27269073 4.36828482,7.51227166 4.55578576,7.6997726 C4.7432867,7.88727354 4.98286764,7.9810226 5.27453576,7.9810226 C5.56620389,7.9810226 5.80578482,7.88727354 5.99328576,7.6997726 C6.1807867,7.51227166 6.27453576,7.27269073 6.27453576,6.9810226 C6.27453576,6.68935448 6.1807867,6.44977354 5.99328576,6.2622726 Z"></path>
                    </g>
                </g>
            </g>
        </g>
    </g>
</svg>