<?xml version="1.0" encoding="utf-8"?>
<!-- Generator: Adobe Illustrator 21.0.0, SVG Export Plug-In . SVG Version: 6.00 Build 0)  -->
<svg version="1.1" id="图层_1" xmlns="http://www.w3.org/2000/svg" xmlns:xlink="http://www.w3.org/1999/xlink" x="0px" y="0px"
	 viewBox="0 0 200 200" style="enable-background:new 0 0 200 200;" xml:space="preserve">
<style type="text/css">
	.st0{fill:#94A8C6;}
</style>
<path class="st0" d="M24.7,186.8H175c6.8,0,12.3-5.5,12.3-12.3s-5.5-12.3-12.3-12.3H24.7c-6.8,0-12.3,5.5-12.3,12.3
	S17.9,186.8,24.7,186.8z M90.8,149.4c0.3,0.3,0.6,0.6,0.9,0.8c0.1,0.1,0.3,0.2,0.4,0.3c0.2,0.1,0.4,0.3,0.5,0.4
	c0.2,0.1,0.4,0.2,0.5,0.3c0.2,0.1,0.3,0.2,0.5,0.3c0.2,0.1,0.4,0.2,0.6,0.3c0.2,0.1,0.4,0.2,0.5,0.2c0.2,0.1,0.4,0.1,0.5,0.2
	c0.2,0.1,0.4,0.1,0.6,0.2c0.2,0.1,0.4,0.1,0.6,0.1c0.2,0.1,0.4,0.1,0.6,0.1s0.4,0.1,0.6,0.1s0.4,0.1,0.5,0.1c0.4,0,0.8,0.1,1.2,0.1
	l0,0l0,0c0.1,0,0.1,0,0.2,0c3.2,0,6.4-1.1,8.9-3.6l62.3-62c4.8-4.8,4.8-12.6,0-17.4c-2.4-2.4-5.5-3.6-8.7-3.6s-6.3,1.2-8.7,3.6
	l-41.5,41.5V25.5c0-6.8-5.5-12.3-12.3-12.3s-12.3,5.5-12.3,12.3v85.6L46,69.9c-2.4-2.4-5.5-3.6-8.7-3.6c-3.1,0-6.3,1.2-8.7,3.6
	c-4.8,4.8-4.8,12.6,0,17.4L90.8,149.4z"/>
</svg>
