<?xml version="1.0" encoding="UTF-8"?>
<svg width="101px" height="84px" viewBox="0 0 101 84" version="1.1" xmlns="http://www.w3.org/2000/svg" xmlns:xlink="http://www.w3.org/1999/xlink">
    <!-- Generator: Sketch 52 (66869) - http://www.bohemiancoding.com/sketch -->
    <title>Group 3</title>
    <desc>Created with Sketch.</desc>
    <g id="全部页面" stroke="none" stroke-width="1" fill="none" fill-rule="evenodd">
        <g id="17任务运维-基本指标-暂无任务运行" transform="translate(-690.000000, -288.000000)" fill="#C5C5C5">
            <g id="浮层" transform="translate(371.000000, 50.000000)">
                <g id="详细报告">
                    <g id="Group-3" transform="translate(313.000000, 228.000000)">
                        <path d="M70.5,83 L70.5,85 L12.97051,85 C9.12080363,85 6,81.8791964 6,78.02949 L6,16.97051 C6,13.1208036 9.12080363,10 12.97051,10 L86.02949,10 C89.8791964,10 93,13.1208036 93,16.97051 L93,55.5 L91,55.5 L91,16.97051 C91,14.2253731 88.7746269,12 86.02949,12 L12.97051,12 C10.2253731,12 8,14.2253731 8,16.97051 L8,78.02949 C8,80.7746269 10.2253731,83 12.97051,83 L70.5,83 Z" id="Rectangle-4" fill-rule="nonzero"></path>
                        <path d="M22.2441763,49.3289117 L31.6913957,49.5521159 C32.1823981,49.5637166 32.5743906,49.9650798 32.5743906,50.4562192 C32.5743906,50.932631 32.1881825,51.318839 31.7117707,51.318839 C31.7049783,51.318839 31.6981862,51.3187588 31.6913957,51.3185984 L21.4573854,51.0768051 C21.2274924,51.0713735 21.0193045,50.9804974 20.8628942,50.8349679 C20.4997466,50.6850742 20.2441763,50.3274957 20.2441763,49.9102255 L20.2441763,43.9102255 C20.2441763,43.3579407 20.6918915,42.9102255 21.2441763,42.9102255 C21.796461,42.9102255 22.2441763,43.3579407 22.2441763,43.9102255 L22.2441763,49.3289117 Z" id="Combined-Shape" transform="translate(26.409283, 47.114532) rotate(-51.000000) translate(-26.409283, -47.114532) "></path>
                        <path d="M41,48 L70,48 C70.5522847,48 71,48.4477153 71,49 L71,49 C71,49.5522847 70.5522847,50 70,50 L41,50 C40.4477153,50 40,49.5522847 40,49 L40,49 C40,48.4477153 40.4477153,48 41,48 Z" id="Rectangle-6"></path>
                        <path d="M41,63 L70,63 C70.5522847,63 71,63.4477153 71,64 L71,64 C71,64.5522847 70.5522847,65 70,65 L41,65 C40.4477153,65 40,64.5522847 40,64 L40,64 C40,63.4477153 40.4477153,63 41,63 Z" id="Rectangle-6-Copy"></path>
                        <path d="M25,67 C26.1045695,67 27,66.1045695 27,65 C27,63.8954305 26.1045695,63 25,63 C23.8954305,63 23,63.8954305 23,65 C23,66.1045695 23.8954305,67 25,67 Z M25,69 C22.790861,69 21,67.209139 21,65 C21,62.790861 22.790861,61 25,61 C27.209139,61 29,62.790861 29,65 C29,67.209139 27.209139,69 25,69 Z" id="Oval-2" fill-rule="nonzero"></path>
                        <path d="M91,30 L91,16.97051 C91,14.2253731 88.7746269,12 86.02949,12 L12.97051,12 C10.2253731,12 8,14.2253731 8,16.97051 L8,30 L91,30 Z M12.97051,10 L86.02949,10 C89.8791964,10 93,13.1208036 93,16.97051 L93,32 L6,32 L6,16.97051 C6,13.1208036 9.12080363,10 12.97051,10 Z" id="Rectangle-4-Copy" fill-rule="nonzero"></path>
                        <ellipse id="Oval-4" cx="18.6105263" cy="20.8570833" rx="1.95394737" ry="1.95238095"></ellipse>
                        <ellipse id="Oval-4-Copy" cx="26.2842105" cy="20.8570833" rx="1.95394737" ry="1.95238095"></ellipse>
                        <ellipse id="Oval-4-Copy-2" cx="32.9578947" cy="20.8570833" rx="1.95394737" ry="1.95238095"></ellipse>
                        <path d="M87,94 C75.954305,94 67,85.045695 67,74 C67,62.954305 75.954305,54 87,54 C98.045695,54 107,62.954305 107,74 C107,85.045695 98.045695,94 87,94 Z M87,92 C96.9411255,92 105,83.9411255 105,74 C105,64.0588745 96.9411255,56 87,56 C77.0588745,56 69,64.0588745 69,74 C69,83.9411255 77.0588745,92 87,92 Z" id="Oval" fill-rule="nonzero"></path>
                        <rect id="Rectangle" fill-rule="nonzero" x="76" y="73" width="22" height="2"></rect>
                    </g>
                </g>
            </g>
        </g>
    </g>
</svg>