<?xml version="1.0" encoding="utf-8"?>
<!-- Generator: Adobe Illustrator 21.0.0, SVG Export Plug-In . SVG Version: 6.00 Build 0)  -->
<svg version="1.1" id="图层_1" xmlns="http://www.w3.org/2000/svg" xmlns:xlink="http://www.w3.org/1999/xlink" x="0px" y="0px"
	 viewBox="0 0 16 16" style="enable-background:new 0 0 16 16;" xml:space="preserve">
<style type="text/css">
	.st0{fill:#333333;}
</style>
<path class="st0" d="M3.8,9.6L5.3,11c0.1,0.1,0.1,0.3,0,0.4H5.2c-0.1,0.1-0.3,0.1-0.5,0L3,9.9C2.9,9.7,2.9,9.5,3,9.4l1.7-1.7
	c0.1-0.1,0.3-0.1,0.5,0h0.1c0.1,0.1,0.1,0.3,0,0.4L3.8,9.6z M11.1,9.6L9.6,8.2c-0.1-0.1-0.1-0.3,0-0.4h0.1c0.1-0.1,0.3-0.1,0.5,0
	l1.7,1.7c0.1,0.1,0.1,0.3,0,0.4l-1.7,1.7c-0.1,0.1-0.3,0.1-0.5,0H9.6c-0.1-0.1-0.1-0.3,0-0.4L11.1,9.6z M8.1,7L8.1,7
	c0.2,0,0.3,0.2,0.3,0.4l0,0l-1,3.9c0,0.2-0.2,0.3-0.4,0.3l0,0c-0.2,0-0.3-0.2-0.3-0.4l0,0l1-3.9C7.7,7.1,7.9,7,8.1,7z M14,5v7.9
	c0,0.6-0.5,1.1-1.1,1.1H2.1C1.5,14,1,13.5,1,12.9V5V3.1C1,2.5,1.5,2,2.1,2H13c0.5,0,1,0.5,1,1.1V5z M1.9,5h11.2V3.1
	c0-0.1-0.1-0.2-0.2-0.2H2.1C2,2.9,1.9,3,1.9,3.1V5z M1.9,6v6.9c0,0.1,0.1,0.2,0.2,0.2H13c0.1,0,0.2-0.1,0.2-0.2V6H1.9z"/>
</svg>
