<?xml version="1.0" standalone="no"?><!DOCTYPE svg PUBLIC "-//W3C//DTD SVG 1.1//EN" "http://www.w3.org/Graphics/SVG/1.1/DTD/svg11.dtd"><svg t="1550819883746" class="icon" style="" viewBox="0 0 1024 1024" version="1.1" xmlns="http://www.w3.org/2000/svg" p-id="2010" xmlns:xlink="http://www.w3.org/1999/xlink" width="200" height="200"><defs><style type="text/css"></style></defs><path d="M64 64v896h896V64H64z m0-64h896a64 64 0 0 1 64 64v896a64 64 0 0 1-64 64H64a64 64 0 0 1-64-64V64a64 64 0 0 1 64-64z m605.44 520.128l-73.6-13.312c8.32-29.696 22.528-51.648 42.688-65.92 20.224-14.272 50.24-21.376 90.048-21.376 36.16 0 63.104 4.288 80.832 12.864 17.664 8.576 30.144 19.456 37.376 32.64 7.168 13.248 10.816 37.44 10.816 72.704l-0.896 94.848c0 27.008 1.28 46.848 3.904 59.712 2.56 12.8 7.488 26.496 14.592 41.152H794.88a299.136 299.136 0 0 1-7.744-24 146.24 146.24 0 0 0-2.88-9.536c-13.888 13.504-28.672 23.68-44.48 30.4-15.744 6.72-32.64 10.112-50.496 10.112-31.552 0-56.384-8.576-74.624-25.728a85.568 85.568 0 0 1-27.264-65.088c0-17.28 4.16-32.768 12.416-46.4 8.32-13.568 19.84-23.936 34.816-31.168 14.912-7.232 36.352-13.568 64.448-18.944 37.952-7.168 64.192-13.824 78.784-19.968v-8.064c0-15.616-3.84-26.752-11.52-33.408-7.68-6.656-22.208-9.984-43.52-9.984-14.464 0-25.728 2.88-33.792 8.512-8.128 5.76-14.656 15.68-19.648 29.952z m108.48 65.92c-10.368 3.456-26.816 7.616-49.28 12.416-22.528 4.8-37.248 9.536-44.16 14.144a33.92 33.92 0 0 0-15.936 28.608c0 11.392 4.288 21.248 12.736 29.504 8.448 8.32 19.2 12.416 32.32 12.416 14.592 0 28.544-4.8 41.856-14.4a50.88 50.88 0 0 0 19.328-26.88c2.112-6.976 3.2-20.16 3.2-39.68v-16.128z m-299.456-11.392l93.312 29.632c-14.272 52.096-38.08 90.88-71.36 116.16s-75.52 37.952-126.656 37.952c-63.36 0-115.328-21.696-156.096-65.024s-61.12-102.528-61.12-177.664c0-79.488 20.48-141.248 61.44-185.216 40.96-43.968 94.848-65.92 161.6-65.92 58.368 0 105.728 17.216 142.08 51.712 21.76 20.48 38.016 49.792 48.832 88l-95.296 22.784a101.248 101.248 0 0 0-35.264-58.624c-17.92-14.336-39.68-21.504-65.216-21.504-35.328 0-64 12.672-86.016 38.08-22.016 25.408-32.96 66.56-32.96 123.52 0 60.352 10.816 103.36 32.512 128.96 21.632 25.6 49.856 38.4 84.48 38.4 25.6 0 47.616-8.064 66.048-24.384 18.432-16.256 31.68-41.92 39.68-76.864z" p-id="2011" fill="#2591F7"></path></svg>