<?xml version="1.0" encoding="utf-8"?>
<!-- Generator: Adobe Illustrator 21.0.0, SVG Export Plug-In . SVG Version: 6.00 Build 0)  -->
<svg version="1.1" id="图层_1" xmlns="http://www.w3.org/2000/svg" xmlns:xlink="http://www.w3.org/1999/xlink" x="0px" y="0px"
	 viewBox="0 0 200 200" style="enable-background:new 0 0 200 200;" xml:space="preserve">
<style type="text/css">
	.st0{fill:#2591F7;}
</style>
<g>
	<path class="st0" d="M57.9,45.2c0,4.6,3.8,8.4,8.4,8.4s8.4-3.8,8.4-8.4s-3.8-8.4-8.4-8.4S57.9,40.6,57.9,45.2z M41,70.5
		c0,4.6,3.8,8.4,8.4,8.4s8.4-3.8,8.4-8.4c0-4.6-3.8-8.4-8.4-8.4S41,65.8,41,70.5z M66.3,87.4c0,4.6,3.8,8.4,8.4,8.4s8.4-3.8,8.4-8.4
		S79.3,79,74.7,79S66.3,82.7,66.3,87.4z M116.9,87.4c0,4.6,3.8,8.4,8.4,8.4s8.4-3.8,8.4-8.4s-3.8-8.4-8.4-8.4
		C120.7,79,116.9,82.7,116.9,87.4L116.9,87.4z M116.9,112.6c0,4.6,3.8,8.4,8.4,8.4s8.4-3.8,8.4-8.4s-3.8-8.4-8.4-8.4
		C120.7,104.2,116.9,108,116.9,112.6L116.9,112.6z M142.1,112.6c0,4.6,3.8,8.4,8.4,8.4c4.6,0,8.4-3.8,8.4-8.4s-3.8-8.4-8.4-8.4
		C145.9,104.2,142.1,108,142.1,112.6L142.1,112.6z M142.1,87.4c0,4.6,3.8,8.4,8.4,8.4c4.6,0,8.4-3.8,8.4-8.4s-3.8-8.4-8.4-8.4
		C145.9,79,142.1,82.7,142.1,87.4z M49.5,146.4c0,4.6,3.8,8.4,8.4,8.4s8.4-3.8,8.4-8.4s-3.8-8.4-8.4-8.4S49.5,141.7,49.5,146.4z
		 M57.9,116.9c0,7,5.7,12.7,12.7,12.7s12.7-5.7,12.7-12.7s-5.7-12.7-12.7-12.7S57.9,109.9,57.9,116.9L57.9,116.9z"/>
	<path class="st0" d="M98,167.8l33.7-20.2c1.3-0.8,2-2.1,2-3.6v-10.2c0-2.3-1.9-4.2-4.2-4.2h0c-2.3,0-4.2,1.9-4.2,4.2v5.2
		c0,1.5-0.8,2.8-2,3.6l-16.8,10.1c-2.8,1.7-6.4-0.3-6.4-3.6V51c0-3.3,3.6-5.3,6.4-3.6l16.8,10.1c1.3,0.8,2,2.1,2,3.6v5.2
		c0,2.3,1.9,4.2,4.2,4.2h0c2.3,0,4.2-1.9,4.2-4.2V56c0-1.5-0.8-2.8-2-3.6L98,32.2c-2.8-1.7-6.4,0.3-6.4,3.6v128.4
		C91.6,167.5,95.2,169.5,98,167.8z"/>
</g>
<path class="st0" d="M184.4,15.6v168.8H15.6V15.6H184.4 M187.9,0H12.1C5.4,0,0,5.4,0,12.1v175.8c0,6.7,5.4,12.1,12.1,12.1h175.8
	c6.7,0,12.1-5.4,12.1-12.1V12.1C200,5.4,194.6,0,187.9,0L187.9,0z"/>
</svg>
