<?xml version="1.0" encoding="utf-8"?>
<!-- Generator: Adobe Illustrator 21.0.0, SVG Export Plug-In . SVG Version: 6.00 Build 0)  -->
<svg version="1.1" id="图层_1" xmlns="http://www.w3.org/2000/svg" xmlns:xlink="http://www.w3.org/1999/xlink" x="0px" y="0px"
	 viewBox="0 0 200 200" style="enable-background:new 0 0 200 200;" xml:space="preserve">
<style type="text/css">
	.st0{fill:#2591F7;}
</style>
<path class="st0" d="M150.1,133.4c-8.1,0-15.3,5.4-18,12.6l-61.4-14.4V128c0-8.1-5.4-15.3-12.6-18l9-48.7c4.5-0.9,8.1-3.6,9.9-7.2
	l57.8-3.6c1.8,0.9,3.6,2.7,5.4,4.5l-7.2,31.6c-5.4,0.9-9.9,4.5-11.7,9.9h-19c0,0,0-0.9-0.9-0.9l4.5-14.4c4.5-0.9,7.2-4.5,7.2-9
	c0-5.4-4.5-9.9-9.9-9.9c-5.4,0-9.9,4.5-9.9,9.9c0,2.7,0.9,5.4,2.7,7.2L92.3,91c-4.5,0.9-9,4.5-9,9.9c0,5.4,4.5,9.9,9.9,9.9
	c3.6,0,6.3-1.8,8.1-4.5h19c1.8,5.4,7.2,9,13.5,9c8.1,0,14.4-6.3,14.4-14.4c0-5.4-2.7-9.9-6.3-12.6l7.2-31.6
	c7.2-0.9,13.5-7.2,13.5-14.4c0-8.1-6.3-14.4-14.4-14.4c-7.2,0-13.5,5.4-14.4,12.6l-55.1,2.7c-0.9-6.3-7.2-11.7-14.4-11.7
	c-8.1,0-14.4,7.2-14.4,14.4c0,5.4,2.7,10.8,8.1,12.6l-9,49.6c-9.9,0.9-17.1,9-17.1,19c0,10.8,9,19,19,19c5.4,0,10.8-2.7,14.4-6.3
	l65,15.3c0.9,9,9,17.1,19,17.1c10.8,0,19-9,19-19C169,142.4,160.9,133.4,150.1,133.4"/>
<path class="st0" d="M183.4,14.6v168.8H14.6V14.6H183.4 M186.9-1H11.1C4.4-1-1,4.4-1,11.1v175.8c0,6.7,5.4,12.1,12.1,12.1h175.8
	c6.7,0,12.1-5.4,12.1-12.1V11.1C199,4.4,193.6-1,186.9-1L186.9-1z"/>
</svg>
