<?xml version="1.0" encoding="UTF-8"?>
<svg width="200px" height="200px" viewBox="0 0 200 200" version="1.1" xmlns="http://www.w3.org/2000/svg" xmlns:xlink="http://www.w3.org/1999/xlink">
    <!-- Generator: Sketch 55.2 (78181) - https://sketchapp.com -->
    <title>Cu</title>
    <desc>Created with Sketch.</desc>
    <g id="页面1" stroke="none" stroke-width="1" fill="none" fill-rule="evenodd">
        <path d="M81.2847125,107.9674 L103,115.362118 C101.541367,122.222807 99.244055,127.953656 96.1079944,132.554836 C92.9719338,137.156017 89.0792659,140.627391 84.4298738,142.969063 C79.7804817,145.310736 73.863991,146.481554 66.6802244,146.481554 C57.9648933,146.481554 50.8450487,145.053977 45.3204769,142.19878 C39.7959051,139.343583 35.0280705,134.321388 31.0168303,127.132043 C27.00559,119.942699 25,110.740475 25,99.5250978 C25,84.5712609 28.5280152,73.0787524 35.5841515,65.0472273 C42.6402877,57.0157023 52.6226564,53 65.5315568,53 C75.6325891,53 83.5729024,55.3005558 89.3527349,59.9017364 C95.1325675,64.5029169 99.4263534,71.5689097 102.234222,81.0999266 L80.3548387,86.5843421 C79.5890565,83.8318502 78.7868205,81.8188639 77.9481066,80.5453228 C76.5624054,78.4090604 74.8667702,76.7658063 72.8611501,75.6155111 C70.8555299,74.465216 68.6129156,73.890077 66.1332398,73.890077 C60.5175035,73.890077 56.2146012,76.4371209 53.2244039,81.5312852 C50.9635231,85.3108263 49.8330996,91.2470819 49.8330996,99.3402299 C49.8330996,109.36423 51.1823147,116.235087 53.8807854,119.953005 C56.5792561,123.670923 60.3716446,125.529854 65.2580645,125.529854 C69.9986212,125.529854 73.5813343,124.030385 76.0063114,121.031401 C78.4312884,118.032418 80.1907379,113.677794 81.2847125,107.9674 Z M175,145.013029 L154.020481,145.013029 L154.020481,134.488602 C150.89194,138.812613 147.735843,141.892405 144.552093,143.72807 C141.368343,145.563735 137.457726,146.481554 132.820125,146.481554 C126.636657,146.481554 121.787492,144.431759 118.272484,140.332107 C114.757477,136.232455 113,129.919901 113,121.394257 L113,80.0308108 L135.580588,80.0308108 L135.580588,115.764912 C135.580588,119.844168 136.261495,122.740396 137.62333,124.453683 C138.985166,126.166971 140.899068,127.023602 143.365093,127.023602 C146.051958,127.023602 148.251105,125.881427 149.9626,123.597044 C151.674096,121.312661 152.529831,117.21307 152.529831,111.29815 L152.529831,80.0308108 L175,80.0308108 L175,145.013029 Z M184.4,15.6 L15.6,15.6 L15.6,184.4 L184.4,184.4 L184.4,15.6 Z M187.9,0 C194.6,0 200,5.4 200,12.1 L200,187.9 C200,194.6 194.6,200 187.9,200 L12.1,200 C5.4,200 0,194.6 0,187.9 L0,12.1 C0,5.4 5.4,0 12.1,0 L187.9,0 Z" id="Cu" fill="#2591F7" fill-rule="nonzero"></path>
    </g>
</svg>