<?xml version="1.0" encoding="utf-8"?>
<!-- Generator: Adobe Illustrator 21.0.0, SVG Export Plug-In . SVG Version: 6.00 Build 0)  -->
<svg version="1.1" id="图层_1" xmlns="http://www.w3.org/2000/svg" xmlns:xlink="http://www.w3.org/1999/xlink" x="0px" y="0px"
	 viewBox="0 0 200 200" style="enable-background:new 0 0 200 200;" xml:space="preserve">
<style type="text/css">
	.st0{fill:#2491F7;}
</style>
<path class="st0" d="M184.4,15.6v168.8H15.6V15.6H184.4 M187.9,0H12.1C5.4,0,0,5.4,0,12.1v175.8c0,6.7,5.4,12.1,12.1,12.1h175.8
	c6.7,0,12.1-5.4,12.1-12.1V12.1C200,5.4,194.6,0,187.9,0L187.9,0z"/>
<path class="st0" d="M151.5,74.2H65.7V100L31.3,65.7l34.3-34.4v25.8h103v51.5h-17.2V74.2z M48.5,125.8h85.9V100l34.4,34.4
	l-34.4,34.3v-25.8h-103V91.4h17.2L48.5,125.8z"/>
</svg>
