<?xml version="1.0" encoding="utf-8"?>
<!-- Generator: Adobe Illustrator 21.0.0, SVG Export Plug-In . SVG Version: 6.00 Build 0)  -->
<svg version="1.1" id="图层_1" xmlns="http://www.w3.org/2000/svg" xmlns:xlink="http://www.w3.org/1999/xlink" x="0px" y="0px"
	 viewBox="0 0 200 200" style="enable-background:new 0 0 200 200;" xml:space="preserve">
<style type="text/css">
	.st0{fill:#94A8C6;}
</style>
<path class="st0" d="M162.1,69.1L156.3,180c-0.2,4.1-3.6,7.3-7.7,7.3H51.4c-4.1,0-7.4-3.2-7.7-7.3L37.9,69.1c-0.2-4.2,3-7.8,7.3-8.1
	c4.2-0.2,7.8,3,8.1,7.3l5.5,103.6h82.7l5.5-103.6c0.2-4.2,3.9-7.4,8.1-7.3C159.1,61.3,162.3,64.9,162.1,69.1z M182.5,43.4
	c0,4.2-3.4,7.7-7.7,7.7H25.2c-4.2,0-7.7-3.4-7.7-7.7s3.4-7.7,7.7-7.7h42.2V18.5c0-3.7,2.5-5.8,6.2-5.8h52.8c3.7,0,6.2,2,6.2,5.8
	v17.3h42.2C179,35.8,182.5,39.2,182.5,43.4z M80.8,35.8h38.4v-9.6H80.8V35.8z M84,160.4c0.1,0,0.1,0,0.2,0c3.7,0,6.6-3.6,6.6-7.3
	l-2-82.9c-0.1-3.7-3.1-6.7-6.9-6.7c-3.7,0.1-6.6,3.1-6.6,6.8l2,83.1C77.4,157.1,80.4,160.4,84,160.4z M115.7,160.4
	c3.6,0,6.6-3.1,6.7-6.7l2-82.8c0.1-3.7-2.8-6.8-6.6-6.9c-3.8-0.1-6.8,2.8-6.9,6.5l-2,82.9c-0.1,3.7,2.8,7,6.6,7
	C115.6,160.4,115.6,160.4,115.7,160.4z"/>
</svg>
