<?xml version="1.0" standalone="no"?><!DOCTYPE svg PUBLIC "-//W3C//DTD SVG 1.1//EN" "http://www.w3.org/Graphics/SVG/1.1/DTD/svg11.dtd"><svg t="1557286251540" class="icon" style="" viewBox="0 0 1024 1024" version="1.1" xmlns="http://www.w3.org/2000/svg" p-id="3639" xmlns:xlink="http://www.w3.org/1999/xlink" width="8" height="8"><defs><style type="text/css"></style></defs><path d="M864 256h-128c-19.2 0-32 12.8-32 32v128c0 19.2 12.8 32 32 32h32v96h-224V224h64l-96-96-96 96h64v448H256v-134.4c38.4-12.8 64-48 64-89.6 0-54.4-41.6-96-96-96s-96 41.6-96 96c0 41.6 25.6 76.8 64 89.6V704c0 19.2 12.8 32 32 32h256v41.6c-19.2 9.6-32 32-32 54.4 0 35.2 28.8 64 64 64s64-28.8 64-64c0-22.4-12.8-44.8-32-54.4V608h256c19.2 0 32-12.8 32-32v-128h32c19.2 0 32-12.8 32-32V288c0-19.2-12.8-32-32-32zM224 416c19.2 0 32 12.8 32 32s-12.8 32-32 32-32-12.8-32-32 12.8-32 32-32z m608-32h-64v-64h64v64z" p-id="3640" fill="#1296db"></path></svg>