<?xml version="1.0" encoding="UTF-8"?>
<svg width="200px" height="200px" viewBox="0 0 200 200" version="1.1" xmlns="http://www.w3.org/2000/svg" xmlns:xlink="http://www.w3.org/1999/xlink">
    <!-- Generator: Sketch 55.2 (78181) - https://sketchapp.com -->
    <title>H</title>
    <desc>Created with Sketch.</desc>
    <g id="页面1" stroke="none" stroke-width="1" fill="none" fill-rule="evenodd">
        <g id="H" fill="#2591F7" fill-rule="nonzero">
            <path d="M184.4,15.6 L15.6,15.6 L15.6,184.4 L184.4,184.4 L184.4,15.6 Z M187.9,0 C194.6,0 200,5.4 200,12.1 L200,187.9 C200,194.6 194.6,200 187.9,200 L12.1,200 C5.4,200 0,194.6 0,187.9 L0,12.1 C0,5.4 5.4,0 12.1,0 L187.9,0 Z" id="Cu"></path>
            <polygon points="46 44 80.8709907 44 80.8709907 83.489665 118.975053 83.489665 118.975053 44 154 44 154 156.849608 118.975053 156.849608 118.975053 111.201711 80.8709907 111.201711 80.8709907 156.849608 46 156.849608"></polygon>
        </g>
    </g>
</svg>