<?xml version="1.0" encoding="UTF-8"?>
<svg width="200px" height="200px" viewBox="0 0 200 200" version="1.1" xmlns="http://www.w3.org/2000/svg" xmlns:xlink="http://www.w3.org/1999/xlink">
    <!-- Generator: Sketch 54.1 (76490) - https://sketchapp.com -->
    <title>libra</title>
    <desc>Created with Sketch.</desc>
    <g id="页面1" stroke="none" stroke-width="1" fill="none" fill-rule="evenodd">
        <g id="函数管理" transform="translate(-327.000000, -120.000000)" fill="#2591F7" fill-rule="nonzero">
            <g id="libra" transform="translate(327.000000, 120.000000)">
                <path d="M184.4,15.6 L184.4,184.4 L15.6,184.4 L15.6,15.6 L184.4,15.6 L184.4,15.6 Z M187.9,0 L12.1,0 C5.4,0 0,5.4 0,12.1 L0,187.9 C0,194.6 5.4,200 12.1,200 L187.9,200 C194.6,200 200,194.6 200,187.9 L200,12.1 C200,5.4 194.6,0 187.9,0 L187.9,0 Z" id="形状"></path>
                <polygon id="L" points="63 153 63 47 84.5116279 47 84.5116279 134.993122 138 134.993122 138 153"></polygon>
            </g>
        </g>
    </g>
</svg>