<?xml version="1.0" encoding="utf-8"?>
<!-- Generator: Adobe Illustrator 21.0.0, SVG Export Plug-In . SVG Version: 6.00 Build 0)  -->
<svg version="1.1" id="图层_1" xmlns="http://www.w3.org/2000/svg" xmlns:xlink="http://www.w3.org/1999/xlink" x="0px" y="0px"
	 viewBox="0 0 200 200" style="enable-background:new 0 0 200 200;" xml:space="preserve">
<style type="text/css">
	.st0{fill:#2591F7;}
	.st1{fill:#FFFFFF;}
</style>
<path class="st0" d="M184.4,16.6v168.8H15.6V16.6H184.4 M187.9,1H12.1C5.4,1,0,6.4,0,13.1v175.8c0,6.7,5.4,12.1,12.1,12.1h175.8
	c6.7,0,12.1-5.4,12.1-12.1V13.1C200,6.4,194.6,1,187.9,1L187.9,1z"/>
<g>
	<circle class="st0" cx="75.4" cy="100" r="45.8"/>
	<path class="st1" d="M89.9,118.7V115c1.9,0,3.2-0.3,3.9-0.9c0.8-0.6,1.1-1.5,1.1-2.8V95.9c0-3-0.5-5.2-1.4-6.7S91,87,88.8,87
		c-1.8,0-3.3,0.6-4.5,1.7s-2.1,2.8-2.9,5V110c0,1.6,0.4,2.9,1.2,3.7c0.8,0.8,2.1,1.3,3.9,1.3v3.7H65.2V115c1.7,0,2.9-0.5,3.6-1.4
		c0.7-0.9,1.1-2.2,1.1-3.9V98.1c0-3.7-0.5-6.4-1.4-8.3c-0.9-1.9-2.5-2.8-4.7-2.8c-2.6,0-4.5,0.8-5.7,2.5c-1.2,1.7-1.8,4.1-1.8,7.4
		v14.2c0,2.6,1.7,3.9,5.1,3.9v3.7H40V115c3.2,0,4.8-1.2,4.8-3.7V89.7c0-1.3-1.9-2-5.8-2v-3.3l16.3-3.1c0.5,0.5,0.7,1.3,0.7,2.4v3.2
		c1.4-1.7,3.1-3,5.1-3.9c2-0.9,4.2-1.4,6.4-1.4c2.2,0,4.3,0.5,6.2,1.5c1.9,1,3.5,2.6,4.6,4.7c1.6-2,3.5-3.6,5.7-4.6
		c2.2-1.1,4.7-1.6,7.2-1.6c1.9,0,3.7,0.2,5.5,0.6c1.8,0.4,3.4,1.1,4.7,2.1c1.4,1,2.5,2.3,3.3,3.9c0.8,1.6,1.3,3.7,1.3,6.1v17.1
		c0,2.5,1.8,3.7,5.5,3.7v3.7H89.9z"/>
	<path class="st0" d="M150.3,118.7V115c1.3,0,2.2-0.1,2.6-0.3c0.4-0.2,0.6-0.4,0.6-0.7c0-0.5-0.4-1.2-1.1-2.1l-4.8-6.9l-5.4,6.4
		c-0.4,0.4-0.6,0.8-0.8,1.1c-0.2,0.3-0.3,0.6-0.3,0.9c0,0.6,0.3,1,1,1.3c0.6,0.3,1.8,0.4,3.5,0.4v3.7H130V115c2.5,0,4.7-1,6.6-3.1
		l9-10.1l-9.9-13.5c-0.5-0.6-1.2-1.1-2.2-1.3c-1-0.2-2-0.4-3.2-0.4v-3.7h19.4v3.7c-2,0-3,0.4-3,1.1c0,0.3,0,0.6,0.1,0.8
		c0.1,0.3,0.2,0.5,0.4,0.8l4.5,6.2l4.8-5.3c0.4-0.4,0.6-0.8,0.8-1.2c0.2-0.4,0.3-0.8,0.3-1.4c0-0.7-1.5-1.1-4.5-1.1v-3.7h15.9v3.7
		c-1.6,0-2.9,0.2-3.9,0.7c-1.1,0.5-2,1.1-2.7,1.9l-8.7,9.5l10.8,13.7c1.2,1.6,3.1,2.5,5.8,2.5v3.7H150.3z"/>
</g>
</svg>
