<?xml version="1.0" encoding="utf-8"?>
<!-- Generator: Adobe Illustrator 21.0.0, SVG Export Plug-In . SVG Version: 6.00 Build 0)  -->
<svg version="1.1" id="图层_1" xmlns="http://www.w3.org/2000/svg" xmlns:xlink="http://www.w3.org/1999/xlink" x="0px" y="0px"
	 viewBox="0 0 200 200" style="enable-background:new 0 0 200 200;" xml:space="preserve">
<style type="text/css">
	.st0{fill:#2591F7;}
</style>
<path class="st0" d="M184.4,16.6v168.8H15.6V16.6H184.4 M187.9,1H12.1C5.4,1,0,6.4,0,13.1v175.8c0,6.7,5.4,12.1,12.1,12.1h175.8
	c6.7,0,12.1-5.4,12.1-12.1V13.1C200,6.4,194.6,1,187.9,1L187.9,1z"/>
<g>
	<g>
		<path class="st0" d="M164.2,90h-45.4c0.5-4.5,2.1-8.7,4.7-12.6c2.6-3.9,7.6-8.7,14.8-14.1c4.5-3.3,7.2-5.8,8.5-7.5
			c1.2-1.7,1.8-3.3,1.8-4.9c0-1.7-0.7-3-1.8-4.2c-1.2-1.2-2.8-1.7-4.6-1.7c-2,0-3.5,0.7-4.7,1.8c-1.2,1.2-2.1,3.4-2.5,6.4l-15.1-1.2
			c0.7-4.2,1.7-7.6,3.3-10c1.6-2.4,3.8-4.2,6.7-5.5c2.9-1.3,6.8-2,12-2c5.4,0,9.5,0.7,12.5,1.8c3,1.2,5.3,3,7,5.6
			c1.7,2.5,2.5,5.4,2.5,8.4c0,3.3-0.9,6.4-2.9,9.5c-2,3-5.5,6.3-10.6,10c-3,2.1-5.1,3.5-6.2,4.5c-1.1,0.8-2.2,2-3.7,3.3h23.6V90
			H164.2z"/>
	</g>
	<g>
		<polygon class="st0" points="128.3,99.2 115.1,99.2 115.1,122.9 108.4,129.5 101.8,122.9 101.8,99.2 88.6,99.2 88.6,128.4 
			101.8,141.6 101.8,165.3 115.1,165.3 115.1,141.6 128.3,128.4 		"/>
		<path class="st0" d="M49,99.2h-6.6h-6.6v66H49v-26.4H65l10.5-10.5v-18.7L65,99.2H49z M62.2,122.9l-2.7,2.7H49v-13.2h10.5l2.7,2.7
			V122.9z"/>
	</g>
</g>
</svg>
