<?xml version="1.0" encoding="utf-8"?>
<!-- Generator: Adobe Illustrator 21.0.0, SVG Export Plug-In . SVG Version: 6.00 Build 0)  -->
<svg version="1.1" id="图层_1" xmlns="http://www.w3.org/2000/svg" xmlns:xlink="http://www.w3.org/1999/xlink" x="0px" y="0px"
	 viewBox="0 0 200 200" style="enable-background:new 0 0 200 200;" xml:space="preserve">
<style type="text/css">
	.st0{fill:#2591F7;}
</style>
<path class="st0" d="M184.4,16.6v168.8H15.6V16.6H184.4 M187.9,1H12.1C5.4,1,0,6.4,0,13.1v175.8c0,6.7,5.4,12.1,12.1,12.1h175.8
	c6.7,0,12.1-5.4,12.1-12.1V13.1C200,6.4,194.6,1,187.9,1L187.9,1z"/>
<g>
	<path class="st0" d="M119.1,56.2l-19-3.3c1.6-6.1,4.6-10.7,9.1-13.9c4.5-3.2,10.9-4.9,19.3-4.9c9.6,0,16.4,1.7,20.6,5.2
		c4.2,3.6,6.2,8,6.2,13.5c0,3.2-0.9,5.9-2.6,8.5c-1.7,2.6-4.2,4.8-7.8,6.7c2.9,0.7,4.9,1.6,6.5,2.3c2.3,1.6,4.2,3.3,5.6,5.9
		c1.3,2.6,2,5.2,2,8.7c0,4.2-1.2,8.4-3.3,12.2c-2.2,3.9-5.5,7-9.6,9c-4.2,2-9.7,3.2-16.5,3.2c-6.7,0-11.9-0.9-15.6-2.3
		c-3.8-1.6-7-3.9-9.6-6.8c-2.6-3-4.5-6.8-5.6-11.2l20.3-2.8c0.9,4.1,2,7,3.8,8.5c1.7,1.6,3.8,2.3,6.5,2.3c2.8,0,4.9-1,6.8-3
		s2.8-4.6,2.8-8c0-3.3-0.9-5.9-2.6-7.8c-1.7-1.9-4.1-2.8-7.1-2.8c-1.6,0-3.8,0.3-6.7,1.2l1-14.5c1.2,0.1,2,0.1,2.6,0.1
		c2.8,0,4.9-0.9,6.7-2.6c1.7-1.7,2.8-3.8,2.8-5.9s-0.7-3.9-2-5.2c-1.3-1.3-3.2-2-5.5-2c-2.3,0-4.2,0.7-5.8,2.2
		C120.5,49.9,119.5,52.5,119.1,56.2z"/>
</g>
<g>
	<polygon class="st0" points="104.3,115.3 94.6,115.3 94.6,132.6 89.8,137.4 85,132.6 85,115.3 75.4,115.3 75.4,136.5 85,146.2 
		85,163.5 94.6,163.5 94.6,146.2 104.3,136.5 	"/>
	<path class="st0" d="M46.3,115.3h-4.8h-4.8v48.2h9.6v-19.3H58l7.7-7.7v-13.6l-7.6-7.7H46.3z M56,132.6l-2,2h-7.7v-9.6H54l2,2
		C56,126.9,56,132.6,56,132.6z"/>
</g>
</svg>
