<?xml version="1.0" encoding="utf-8"?>
<!-- Generator: Adobe Illustrator 21.0.0, SVG Export Plug-In . SVG Version: 6.00 Build 0)  -->
<svg version="1.1" id="图层_1" xmlns="http://www.w3.org/2000/svg" xmlns:xlink="http://www.w3.org/1999/xlink" x="0px" y="0px"
	 viewBox="0 0 200 200" style="enable-background:new 0 0 200 200;" xml:space="preserve">
<style type="text/css">
	.st0{fill:#2591F7;}
</style>
<path class="st0" d="M184.4,16.6v168.8H15.6V16.6H184.4 M187.9,1H12.1C5.4,1,0,6.4,0,13.1v175.8c0,6.7,5.4,12.1,12.1,12.1h175.8
	c6.7,0,12.1-5.4,12.1-12.1V13.1C200,6.4,194.6,1,187.9,1L187.9,1z"/>
<path class="st0" d="M76.1,110.8h26.2c7.3,0,13.1-6,13.1-13.3V72.6c0-7.1-6-12.4-13.1-13.6c-4.5-0.7-9.2-1.1-13.6-1.1
	s-8.8,0.4-12.5,1.1C65,60.9,63,65,63,72.6v10h26.2v3.3h-36c-7.6,0-14.3,4.6-16.4,13.3c-2.4,10-2.5,16.2,0,26.6
	c1.9,7.8,6.3,13.3,13.9,13.3h9v-12C59.7,118.5,67.2,110.8,76.1,110.8L76.1,110.8z M74.4,75.9c-2.7,0-4.9-2.2-4.9-5l0,0
	c0-2.8,2.2-5,4.9-5c2.7,0,4.9,2.2,4.9,5C79.3,73.7,77.1,75.9,74.4,75.9z M141.5,99.2c-1.9-7.6-5.5-13.3-13.1-13.3h-9.8v11.6
	c0,9-7.6,16.6-16.4,16.6H76.1c-7.2,0-13.1,6.1-13.1,13.3v24.9c0,7.1,6.2,11.3,13.1,13.3c8.3,2.4,16.2,2.9,26.2,0
	c6.6-1.9,13.1-5.8,13.1-13.3v-10H89.1V139h39.3c7.6,0,10.4-5.3,13.1-13.3C144.2,117.6,144.1,109.7,141.5,99.2L141.5,99.2z
	 M103.9,149c2.7,0,4.9,2.2,4.9,5s-2.2,5-4.9,5c-2.7,0-4.9-2.3-4.9-5C98.9,151.3,101.2,149,103.9,149z"/>
<g>
	<path class="st0" d="M165.1,75.1h-34.6c0.4-3.4,1.6-6.6,3.6-9.6c2-3,5.8-6.6,11.3-10.7c3.4-2.5,5.5-4.4,6.5-5.7
		c0.9-1.3,1.4-2.5,1.4-3.7c0-1.3-0.5-2.3-1.4-3.2s-2.1-1.3-3.5-1.3c-1.5,0-2.7,0.5-3.6,1.4c-0.9,0.9-1.6,2.6-1.9,4.9l-11.5-0.9
		c0.5-3.2,1.3-5.8,2.5-7.6c1.2-1.8,2.9-3.2,5.1-4.2c2.2-1,5.2-1.5,9.1-1.5c4.1,0,7.2,0.5,9.5,1.4c2.3,0.9,4,2.3,5.3,4.3
		c1.3,1.9,1.9,4.1,1.9,6.4c0,2.5-0.7,4.9-2.2,7.2s-4.2,4.8-8.1,7.6c-2.3,1.6-3.9,2.7-4.7,3.4c-0.8,0.6-1.7,1.5-2.8,2.5h18V75.1z"/>
</g>
</svg>
