<?xml version="1.0" encoding="utf-8"?>
<!-- Generator: Adobe Illustrator 21.0.0, SVG Export Plug-In . SVG Version: 6.00 Build 0)  -->
<svg version="1.1" id="图层_1" xmlns="http://www.w3.org/2000/svg" xmlns:xlink="http://www.w3.org/1999/xlink" x="0px" y="0px"
	 viewBox="0 0 200 200" style="enable-background:new 0 0 200 200;" xml:space="preserve">
<style type="text/css">
	.st0{fill:#2591F7;}
</style>
<path class="st0" d="M184.4,16.6v168.8H15.6V16.6H184.4 M187.9,1H12.1C5.4,1,0,6.4,0,13.1v175.8c0,6.7,5.4,12.1,12.1,12.1h175.8
	c6.7,0,12.1-5.4,12.1-12.1V13.1C200,6.4,194.6,1,187.9,1L187.9,1z"/>
<g>
	<path class="st0" d="M158.3,109.5H97.3c0.7-6,2.8-11.7,6.3-16.9c3.5-5.2,10.2-11.7,19.9-18.9c6-4.4,9.7-7.8,11.4-10.1
		c1.6-2.3,2.4-4.4,2.4-6.6c0-2.3-0.9-4-2.4-5.6c-1.6-1.6-3.8-2.3-6.2-2.3c-2.7,0-4.7,0.9-6.3,2.4c-1.6,1.6-2.8,4.6-3.4,8.6
		l-20.3-1.6c0.9-5.6,2.3-10.2,4.4-13.4c2.1-3.2,5.1-5.6,9-7.4c3.9-1.7,9.1-2.7,16.1-2.7c7.2,0,12.7,0.9,16.8,2.4
		c4,1.6,7.1,4,9.4,7.5c2.3,3.4,3.4,7.2,3.4,11.3c0,4.4-1.2,8.6-3.9,12.7c-2.7,4-7.4,8.5-14.2,13.4c-4,2.8-6.8,4.7-8.3,6
		c-1.5,1.1-3,2.7-5,4.4h31.7v16.6H158.3z"/>
</g>
<g>
	<polygon class="st0" points="104.4,115.3 94.6,115.3 94.6,132.9 89.6,137.8 84.7,132.9 84.7,115.3 74.9,115.3 74.9,136.9 
		84.7,146.7 84.7,164.3 94.6,164.3 94.6,146.7 104.4,136.9 	"/>
	<path class="st0" d="M45.6,115.3h-4.9h-4.9v48.9h9.8v-19.6h11.9l7.8-7.8V123l-7.8-7.7H45.6z M55.4,132.9l-2,2h-7.8v-9.8h7.8l2,2
		V132.9z"/>
</g>
</svg>
