<?xml version="1.0" encoding="utf-8"?>
<!-- Generator: Adobe Illustrator 21.0.0, SVG Export Plug-In . SVG Version: 6.00 Build 0)  -->
<svg version="1.1" id="图层_1" xmlns="http://www.w3.org/2000/svg" xmlns:xlink="http://www.w3.org/1999/xlink" x="0px" y="0px"
	 viewBox="0 0 200 200" style="enable-background:new 0 0 200 200;" xml:space="preserve">
<style type="text/css">
	.st0{fill:#2591F7;}
</style>
<path class="st0" d="M184.4,16.6v168.8H15.6V16.6H184.4 M187.9,1H12.1C5.4,1,0,6.4,0,13.1v175.8c0,6.7,5.4,12.1,12.1,12.1h175.8
	c6.7,0,12.1-5.4,12.1-12.1V13.1C200,6.4,194.6,1,187.9,1L187.9,1z"/>
<g>
	<path class="st0" d="M76.1,110.8h26.2c7.3,0,13.1-6,13.1-13.3V72.6c0-7.1-6-12.4-13.1-13.6c-4.5-0.7-9.2-1.1-13.6-1.1
		s-8.8,0.4-12.5,1.1C65,60.9,63,65,63,72.6v10h26.2v3.3h-36c-7.6,0-14.3,4.6-16.4,13.3c-2.4,10-2.5,16.2,0,26.6
		c1.9,7.8,6.3,13.3,13.9,13.3h9v-12C59.7,118.5,67.2,110.8,76.1,110.8L76.1,110.8z M74.4,75.9c-2.7,0-4.9-2.2-4.9-5c0,0,0,0,0,0
		c0-2.8,2.2-5,4.9-5c2.7,0,4.9,2.2,4.9,5C79.3,73.7,77.1,75.9,74.4,75.9z M141.5,99.2c-1.9-7.6-5.5-13.3-13.1-13.3h-9.8v11.6
		c0,9-7.6,16.6-16.4,16.6H76.1c-7.2,0-13.1,6.1-13.1,13.3v24.9c0,7.1,6.2,11.3,13.1,13.3c8.3,2.4,16.2,2.9,26.2,0
		c6.6-1.9,13.1-5.8,13.1-13.3v-10H89.1v-3.3h39.3c7.6,0,10.4-5.3,13.1-13.3C144.2,117.6,144.1,109.7,141.5,99.2L141.5,99.2z
		 M103.9,149c2.7,0,4.9,2.2,4.9,5c0,2.8-2.2,5-4.9,5c-2.7,0-4.9-2.3-4.9-5C98.9,151.3,101.2,149,103.9,149z"/>
	<g>
		<path class="st0" d="M141.6,45.4l-11.2-2c0.9-3.6,2.7-6.3,5.4-8.2c2.7-1.9,6.4-2.9,11.3-2.9c5.6,0,9.6,1,12.1,3.1
			c2.5,2.1,3.7,4.7,3.7,7.9c0,1.9-0.5,3.5-1.5,5c-1,1.5-2.5,2.8-4.6,3.9c1.7,0.4,2.9,0.9,3.8,1.4c1.4,0.9,2.5,2,3.3,3.5
			s1.2,3.1,1.2,5.1c0,2.5-0.7,4.9-2,7.2c-1.3,2.3-3.2,4.1-5.6,5.3c-2.5,1.2-5.7,1.9-9.7,1.9c-3.9,0-7-0.5-9.2-1.4
			c-2.2-0.9-4.1-2.3-5.6-4c-1.5-1.8-2.6-4-3.3-6.6l11.9-1.6c0.5,2.4,1.2,4.1,2.2,5s2.2,1.4,3.8,1.4c1.6,0,2.9-0.6,4-1.8
			c1.1-1.2,1.6-2.7,1.6-4.7c0-2-0.5-3.5-1.5-4.6c-1-1.1-2.4-1.6-4.2-1.6c-0.9,0-2.2,0.2-3.9,0.7l0.6-8.5c0.7,0.1,1.2,0.1,1.5,0.1
			c1.6,0,2.9-0.5,3.9-1.5c1-1,1.6-2.2,1.6-3.5c0-1.3-0.4-2.3-1.2-3.1c-0.8-0.8-1.9-1.2-3.2-1.2c-1.4,0-2.5,0.4-3.4,1.3
			C142.5,41.8,141.9,43.3,141.6,45.4z"/>
	</g>
</g>
</svg>
