<?xml version="1.0" encoding="utf-8"?>
<!-- Generator: Adobe Illustrator 21.0.0, SVG Export Plug-In . SVG Version: 6.00 Build 0)  -->
<svg version="1.1" id="图层_1" xmlns="http://www.w3.org/2000/svg" xmlns:xlink="http://www.w3.org/1999/xlink" x="0px" y="0px"
	 viewBox="0 0 200 200" style="enable-background:new 0 0 200 200;" xml:space="preserve">
<style type="text/css">
	.st0{fill:#2591F7;}
</style>
<path class="st0" d="M184.4,16.6v168.8H15.6V16.6H184.4 M187.9,1H12.1C5.4,1,0,6.4,0,13.1v175.8c0,6.7,5.4,12.1,12.1,12.1h175.8
	c6.7,0,12.1-5.4,12.1-12.1V13.1C200,6.4,194.6,1,187.9,1L187.9,1z"/>
<g>
	<g>
		<path class="st0" d="M135.7,52.9l-13.1-2.3c1.1-4.2,3.2-7.4,6.3-9.6s7.5-3.4,13.3-3.4c6.6,0,11.3,1.2,14.2,3.6
			c2.9,2.5,4.3,5.5,4.3,9.3c0,2.2-0.6,4.1-1.8,5.9c-1.2,1.8-2.9,3.3-5.4,4.6c2,0.5,3.4,1.1,4.5,1.6c1.6,1.1,2.9,2.3,3.9,4.1
			c0.9,1.8,1.4,3.6,1.4,6c0,2.9-0.8,5.8-2.3,8.4c-1.5,2.7-3.8,4.8-6.6,6.2c-2.9,1.4-6.7,2.2-11.4,2.2c-4.6,0-8.2-0.6-10.8-1.6
			c-2.6-1.1-4.8-2.7-6.6-4.7c-1.8-2.1-3.1-4.7-3.9-7.7l14-1.9c0.6,2.8,1.4,4.8,2.6,5.9c1.2,1.1,2.6,1.6,4.5,1.6
			c1.9,0,3.4-0.7,4.7-2.1c1.3-1.4,1.9-3.2,1.9-5.5c0-2.3-0.6-4.1-1.8-5.4c-1.2-1.3-2.8-1.9-4.9-1.9c-1.1,0-2.6,0.2-4.6,0.8l0.7-10
			c0.8,0.1,1.4,0.1,1.8,0.1c1.9,0,3.4-0.6,4.6-1.8c1.2-1.2,1.9-2.6,1.9-4.1s-0.5-2.7-1.4-3.6s-2.2-1.4-3.8-1.4c-1.6,0-2.9,0.5-4,1.5
			C136.7,48.6,136,50.4,135.7,52.9z"/>
	</g>
	<g>
		<polygon class="st0" points="129.2,96.5 116,96.5 116,120.2 109.4,126.8 102.8,120.2 102.8,96.5 89.6,96.5 89.6,125.6 
			102.8,138.8 102.8,162.5 116,162.5 116,138.8 129.2,125.6 		"/>
		<path class="st0" d="M49.9,96.5h-6.6h-6.6v66h13.2v-26.4h15.9l10.5-10.5V107L65.9,96.5H49.9z M63.1,120.2l-2.7,2.7H49.9v-13.2
			h10.5l2.7,2.7V120.2z"/>
	</g>
</g>
</svg>
