<?xml version="1.0" encoding="UTF-8"?>
<svg width="200px" height="200px" viewBox="0 0 200 200" version="1.1" xmlns="http://www.w3.org/2000/svg" xmlns:xlink="http://www.w3.org/1999/xlink">
    <!-- Generator: Sketch 54.1 (76490) - https://sketchapp.com -->
    <title>sparksql</title>
    <desc>Created with Sketch.</desc>
    <g id="页面1" stroke="none" stroke-width="1" fill="none" fill-rule="evenodd">
        <g id="sparksql" fill="#2591F7" fill-rule="nonzero">
            <path d="M184.4,15.6 L184.4,184.4 L15.6,184.4 L15.6,15.6 L184.4,15.6 L184.4,15.6 Z M187.9,0 L12.1,0 C5.4,0 0,5.4 0,12.1 L0,187.9 C0,194.6 5.4,200 12.1,200 L187.9,200 C194.6,200 200,194.6 200,187.9 L200,12.1 C200,5.4 194.6,0 187.9,0 L187.9,0 Z" id="形状"></path>
            <path d="M126.943878,39.5942408 C123.778061,36.434555 120.053571,33.8324607 115.770408,31.973822 C111.30102,30.1151832 106.459184,29 101.244898,29 C95.2857143,29 89.8852041,30.1151832 85.2295918,32.1596859 C80.5739796,34.3900524 76.8494898,37.1780105 73.869898,40.895288 C70.8903061,44.4267016 68.6556122,48.8874346 67.1658163,53.7198953 C65.6760204,58.552356 64.9311224,63.5706806 64.9311224,68.960733 C64.9311224,77.882199 66.4209184,85.3167539 69.5867347,91.4502618 C72.752551,97.7696335 78.8979592,102.787958 88.0229592,106.505236 L101.617347,112.081152 C103.852041,113.010471 105.528061,113.939791 106.831633,114.683246 C107.762755,115.240838 108.507653,115.984293 108.880102,116.727749 C109.438776,117.657068 109.811224,118.958115 109.997449,120.63089 C110.183673,122.675393 110.369898,125.463351 110.369898,128.808901 C110.369898,131.596859 110.183673,134.384817 109.997449,136.615183 C109.811224,138.659686 109.438776,140.146597 108.693878,141.447644 C108.135204,142.562827 107.204082,143.306283 106.086735,143.863874 C105.155612,144.235602 103.479592,144.793194 100.127551,144.793194 C96.4030612,144.793194 93.9821429,143.863874 92.6785714,142.005236 C91.002551,139.774869 90.2576531,137.358639 90.2576531,134.756545 L90.2576531,125.091623 L64,125.091623 L64,135.871728 C64,140.890052 64.9311224,145.536649 66.7933673,149.811518 C68.6556122,154.086387 71.2627551,157.803665 74.4285714,160.963351 C77.5943878,164.123037 81.505102,166.539267 85.9744898,168.397906 C90.4438776,170.256545 95.0994898,171 100.313776,171 C107.017857,171 112.604592,169.884817 117.446429,167.65445 C122.288265,165.424084 126.012755,162.264398 128.992347,158.361257 C131.785714,154.643979 133.834184,149.997382 135.137755,144.793194 C136.255102,139.774869 137,134.198953 137,128.437173 C137,123.418848 136.813776,118.958115 136.255102,115.054974 C135.696429,110.965969 134.579082,107.062827 133.089286,103.903141 C131.413265,100.557592 128.992347,97.5837696 126.012755,94.9816754 C123.033163,92.565445 119.308673,90.5209424 114.653061,88.6623037 L100.127551,82.9005236 C97.8928571,81.9712042 96.2168367,81.2277487 94.9132653,80.2984293 C93.9821429,79.5549738 93.2372449,78.8115183 92.6785714,78.0680628 C92.119898,77.1387435 91.9336735,76.2094241 91.747449,74.908377 C91.5612245,73.2356021 91.5612245,71.1910995 91.5612245,68.5890052 C91.5612245,66.5445026 91.747449,64.6858639 92.119898,62.8272251 C92.4923469,61.1544503 92.8647959,59.8534031 93.6096939,58.552356 C94.1683673,57.4371728 95.0994898,56.6937173 96.2168367,55.9502618 C97.3341837,55.2068063 98.8239796,55.0209424 100.872449,55.0209424 C105.714286,55.0209424 107.390306,56.8795812 108.135204,58.1806283 C109.811224,60.7827225 110.556122,63.7565445 110.556122,67.473822 L110.556122,75.4659686 L136.813776,75.4659686 L136.813776,62.4554974 C136.813776,58.1806283 135.882653,54.091623 134.206633,50.1884817 C132.530612,46.2853403 130.109694,42.7539267 126.943878,39.5942408 Z" id="路径"></path>
        </g>
    </g>
</svg>