<?xml version="1.0" encoding="utf-8"?>
<!-- Generator: Adobe Illustrator 21.0.0, SVG Export Plug-In . SVG Version: 6.00 Build 0)  -->
<svg version="1.1" id="图层_1" xmlns="http://www.w3.org/2000/svg" xmlns:xlink="http://www.w3.org/1999/xlink" x="0px" y="0px"
	 viewBox="0 0 200 200" style="enable-background:new 0 0 200 200;" xml:space="preserve">
<style type="text/css">
	.st0{fill:#2591F7;}
</style>
<path class="st0" d="M184.4,16.6v168.8H15.6V16.6H184.4 M187.9,1H12.1C5.4,1,0,6.4,0,13.1v175.8c0,6.7,5.4,12.1,12.1,12.1h175.8
	c6.7,0,12.1-5.4,12.1-12.1V13.1C200,6.4,194.6,1,187.9,1L187.9,1z"/>
<g>
	<path class="st0" d="M130.7,89.9l15.8,4.4L137,75.7l14.4-17.6L130,63.3l-10.6-17.4l-4.3,21.7l-21.4,7.3l15.8,6.7l-10.7,7.2L86,83.5
		c0,0-6.9-3.2-6.9-8.6c0-5.5,7.2-7.3,7.2-7.3l21.1-6.6l3.5-20.5c0,0,1.7-8.1,7.3-8.1c5.7,0,8,6.6,10.9,10.9L135,53l21-5.5
		c0,0,17.3-3.7,6.9,11L148,76l8.9,17.3c0,0,6.9,14.1-9.3,12.1l-15.3-4.9L130.7,89.9L130.7,89.9z"/>
	<g>
		<polygon class="st0" points="126.4,101.6 113.2,101.6 113.2,125.3 106.6,131.9 100,125.3 100,101.6 86.8,101.6 86.8,130.7 
			100,143.9 100,167.6 113.2,167.6 113.2,143.9 126.4,130.7 		"/>
		<path class="st0" d="M47.1,101.6h-6.6h-6.6v66h13.2v-26.4H63l10.5-10.5v-18.6l-10.4-10.5L47.1,101.6L47.1,101.6z M60.3,125.3
			l-2.7,2.7H47.1v-13.2h10.5l2.7,2.7V125.3z"/>
	</g>
</g>
</svg>
