<?xml version="1.0" encoding="utf-8"?>
<!-- Generator: Adobe Illustrator 21.0.0, SVG Export Plug-In . SVG Version: 6.00 Build 0)  -->
<svg version="1.1" id="图层_1" xmlns="http://www.w3.org/2000/svg" xmlns:xlink="http://www.w3.org/1999/xlink" x="0px" y="0px"
	 viewBox="0 0 200 200" style="enable-background:new 0 0 200 200;" xml:space="preserve">
<style type="text/css">
	.st0{fill:#2591F7;}
</style>
<title>sparksql</title>
<desc>Created with Sketch.</desc>
<g id="页面1">
	<g id="sparksql">
		<path id="形状" class="st0" d="M184.4,15.6v168.8H15.6V15.6H184.4L184.4,15.6z M187.9,0H12.1C5.4,0,0,5.4,0,12.1v175.8
			c0,6.7,5.4,12.1,12.1,12.1h175.8c6.7,0,12.1-5.4,12.1-12.1V12.1C200,5.4,194.6,0,187.9,0L187.9,0z"/>
		<path id="路径" class="st0" d="M126.4,48.1c-3.2-2.7-6.9-5-11.2-6.5C110.8,40,106,39,100.7,39c-6,0-11.4,1-16,2.7
			c-4.7,1.9-8.4,4.3-11.4,7.5c-3,3-5.2,6.9-6.7,11c-1.5,4.2-2.2,8.5-2.2,13.1c0,7.7,1.5,14.1,4.7,19.3c3.2,5.4,9.3,9.7,18.4,12.9
			l13.6,4.8c2.2,0.8,3.9,1.6,5.2,2.2c0.9,0.5,1.7,1.1,2,1.8c0.6,0.8,0.9,1.9,1.1,3.4c0.2,1.8,0.4,4.2,0.4,7c0,2.4-0.2,4.8-0.4,6.7
			c-0.2,1.8-0.6,3-1.3,4.2c-0.6,1-1.5,1.6-2.6,2.1c-0.9,0.3-2.6,0.8-6,0.8c-3.7,0-6.1-0.8-7.4-2.4c-1.7-1.9-2.4-4-2.4-6.2v-8.3H63.5
			v9.3c0,4.3,0.9,8.3,2.8,12c1.9,3.7,4.5,6.9,7.6,9.6c3.2,2.7,7.1,4.8,11.5,6.4c4.5,1.6,9.1,2.2,14.3,2.2c6.7,0,12.3-1,17.1-2.9
			s8.6-4.6,11.5-8c2.8-3.2,4.8-7.2,6.1-11.7c1.1-4.3,1.9-9.1,1.9-14.1c0-4.3-0.2-8.1-0.7-11.5c-0.6-3.5-1.7-6.9-3.2-9.6
			c-1.7-2.9-4.1-5.4-7.1-7.7c-3-2.1-6.7-3.8-11.4-5.4l-14.5-5c-2.2-0.8-3.9-1.4-5.2-2.2c-0.9-0.6-1.7-1.3-2.2-1.9
			c-0.6-0.8-0.7-1.6-0.9-2.7c-0.2-1.4-0.2-3.2-0.2-5.4c0-1.8,0.2-3.4,0.6-5c0.4-1.4,0.7-2.6,1.5-3.7c0.6-1,1.5-1.6,2.6-2.2
			s2.6-0.8,4.7-0.8c4.8,0,6.5,1.6,7.3,2.7c1.7,2.2,2.4,4.8,2.4,8v6.9h26.3V67.7c0-3.7-0.9-7.2-2.6-10.5
			C132,53.9,129.6,50.8,126.4,48.1z"/>
	</g>
</g>
</svg>
