<?xml version="1.0" encoding="utf-8"?>
<!-- Generator: Adobe Illustrator 21.0.0, SVG Export Plug-In . SVG Version: 6.00 Build 0)  -->
<svg version="1.1" id="图层_1" xmlns="http://www.w3.org/2000/svg" xmlns:xlink="http://www.w3.org/1999/xlink" x="0px" y="0px"
	 viewBox="0 0 200 200" style="enable-background:new 0 0 200 200;" xml:space="preserve">
<style type="text/css">
	.st0{fill:#2591F7;}
	.st1{fill:#E16A1A;}
</style>
<path class="st0" d="M184.4,16.6v168.8H15.6V16.6H184.4 M187.9,1H12.1C5.4,1,0,6.4,0,13.1v175.8c0,6.7,5.4,12.1,12.1,12.1h175.8
	c6.7,0,12.1-5.4,12.1-12.1V13.1C200,6.4,194.6,1,187.9,1L187.9,1z"/>
<g>
	<path class="st0" d="M73.3,113.4h26.9c7.5,0,13.5-6.2,13.5-13.7V74.1c0-7.3-6.2-12.8-13.5-14c-4.6-0.7-9.5-1.1-14-1.1
		s-9.1,0.4-12.9,1.1c-11.5,2-13.6,6.2-13.6,14v10.3h26.9v3.4h-37c-7.8,0-14.7,4.7-16.9,13.7c-2.5,10.3-2.6,16.7,0,27.4
		c2,8,6.5,13.7,14.3,13.7h9.3v-12.3C56.4,121.3,64.2,113.4,73.3,113.4L73.3,113.4z M71.6,77.5c-2.8,0-5-2.3-5-5.1l0,0
		c0-2.9,2.3-5.1,5-5.1c2.8,0,5,2.3,5,5.1C76.6,75.2,74.3,77.5,71.6,77.5z M140.6,101.4c-2-7.8-5.7-13.7-13.5-13.7H117v11.9
		c0,9.3-7.8,17.1-16.9,17.1H73.3c-7.4,0-13.5,6.3-13.5,13.7V156c0,7.3,6.4,11.6,13.5,13.7c8.5,2.5,16.7,3,26.9,0
		c6.8-2,13.5-6,13.5-13.7v-10.3h-27v-3.4h40.4c7.8,0,10.7-5.5,13.5-13.7C143.4,120.4,143.3,112.2,140.6,101.4L140.6,101.4z
		 M101.9,152.6c2.8,0,5,2.3,5,5.1s-2.3,5.1-5,5.1c-2.8,0-5-2.4-5-5.1C96.8,155,99.1,152.6,101.9,152.6z"/>
	<path class="st1" d="M145.8,65.9l10.3,2.9l-6.2-12.2l9.4-11.5l-14,3.4l-6.9-11.4l-2.8,14.2l-14,4.8l10.3,4.4l-7,4.7l-8.3-3.5
		c0,0-4.5-2.1-4.5-5.6c0-3.6,4.7-4.8,4.7-4.8l13.8-4.3l2.3-13.4c0,0,1.1-5.3,4.8-5.3c3.7,0,5.2,4.3,7.1,7.1l3.8,6.4l13.7-3.6
		c0,0,11.3-2.4,4.5,7.2l-9.7,11.4l5.8,11.3c0,0,4.5,9.2-6.1,7.9l-10-3.2L145.8,65.9L145.8,65.9z"/>
</g>
</svg>
