<?xml version="1.0" standalone="no"?><!DOCTYPE svg PUBLIC "-//W3C//DTD SVG 1.1//EN" "http://www.w3.org/Graphics/SVG/1.1/DTD/svg11.dtd"><svg t="1550733904891" class="icon" style="" viewBox="0 0 1024 1024" version="1.1" xmlns="http://www.w3.org/2000/svg" p-id="1957" xmlns:xlink="http://www.w3.org/1999/xlink" width="200" height="200"><defs><style type="text/css"></style></defs><path d="M128 128h704a64 64 0 0 1 64 64v704a64 64 0 0 1-64 64H128a64 64 0 0 1-64-64V192a64 64 0 0 1 64-64z m256 256v128h192V384H384zM128 384v128h192V384H128z m512 0v128h192V384h-192zM384 576v128h192V576H384zM128 576v128h192V576H128z m256 192v128h192v-128H384z m-256 0v128h192v-128H128z m512-192v128h192V576h-192z m0 192v128h192v-128h-192zM128 192v128h704V192H128z" fill="#333333" p-id="1958"></path></svg>