<?xml version="1.0" standalone="no"?><!DOCTYPE svg PUBLIC "-//W3C//DTD SVG 1.1//EN" "http://www.w3.org/Graphics/SVG/1.1/DTD/svg11.dtd"><svg t="1542698222883" class="icon" style="" viewBox="0 0 1024 1024" version="1.1" xmlns="http://www.w3.org/2000/svg" p-id="2699" xmlns:xlink="http://www.w3.org/1999/xlink" width="16" height="16"><defs><style type="text/css"></style></defs><path d="M512.095167 65.290005c-159.675676 0-291.461141 132.104737-291.461141 294.480918 0 99.006921 38.960337 178.750103 116.649743 231.970212l0 95.180779c0 10.843976 6.385431 21.195741 14.307867 28.54922 7.15905 6.643304 17.454534 10.29446 27.121707 10.29446 1.032516 0 2.533706-0.042979 3.570315-0.12382l267.163759-21.518083c20.058848-1.627057 37.434587-18.47477 37.434587-38.715767l0-73.02313c67.977207-49.285496 116.483968-134.508483 116.483968-232.614895C803.365974 197.394742 671.76982 65.290005 512.095167 65.290005zM628.192326 536.035416c-12.589736 6.747681-18.998703 19.928888-18.998703 34.282804l0 59.252499-194.22147 15.249309 0-74.478272c0-13.81668-5.649674-26.591635-17.512862-33.553187-66.86692-39.237653-98.546434-97.139387-98.546434-177.018669 0-119.53956 95.675036-216.791511 212.770941-216.791511 117.095905 0 213.293851 97.252974 213.293851 216.791511C724.977649 437.34572 689.378873 503.241522 628.192326 536.035416zM683.397648 786.759761c1.546216 21.399379-14.440897 40.006156-35.707246 41.556465L382.452505 847.699692c-0.951675 0.071631-1.899256 0.104377-2.841721 0.104377-20.050662 0-36.989449-15.591093-38.465057-36.028565-1.546216-21.399379 14.440897-40.006156 35.706223-41.556465l265.237897-19.384489C663.310148 749.261729 681.856549 765.359358 683.397648 786.759761zM598.893023 909.428591c1.635243 21.389146-14.271028 40.067554-35.533284 41.713031l-96.245018 7.453762c-1.007957 0.075725-2.01182 0.113587-3.006474 0.113587-19.980054 0-36.895305-15.486716-38.455847-35.861766-1.635243-21.389146 14.272052-40.066531 35.534308-41.713031l96.243995-7.453762C578.725704 872.130104 597.253686 888.038422 598.893023 909.428591zM666.877393 359.050516c-1.701758 17.558911-16.401552 30.693046-33.58184 30.693046-1.098008 0-2.206248-0.056282-3.322675-0.164752-18.570961-1.820462-32.153304-18.441001-30.344099-37.128619 5.387707-55.587016-43.144636-75.322499-48.691979-77.389578-17.386996-6.477528-26.492374-25.889647-20.214391-43.434232 6.277984-17.548678 25.281803-26.780947 42.777269-20.641109C609.532337 223.649709 675.423023 270.892687 666.877393 359.050516z" p-id="2700" fill="#333333"></path></svg>