<?xml version="1.0" encoding="utf-8"?>
<!-- Generator: Adobe Illustrator 21.0.0, SVG Export Plug-In . SVG Version: 6.00 Build 0)  -->
<svg version="1.1" id="图层_1" xmlns="http://www.w3.org/2000/svg" xmlns:xlink="http://www.w3.org/1999/xlink" x="0px" y="0px"
	 viewBox="0 0 200 200" style="enable-background:new 0 0 200 200;" xml:space="preserve">
<style type="text/css">
	.st0{fill:#2591F7;}
</style>
<path class="st0" d="M184.4,16.6v168.8H15.6V16.6H184.4 M187.9,1H12.1C5.4,1,0,6.4,0,13.1v175.8c0,6.7,5.4,12.1,12.1,12.1h175.8
	c6.7,0,12.1-5.4,12.1-12.1V13.1C200,6.4,194.6,1,187.9,1L187.9,1z"/>
<path class="st0" d="M170.2,74.5V36.1c0-3.5-2.9-6.4-6.4-6.4h-38.3c-3.5,0-6.4,2.8-6.4,6.4c0,0,0,0,0,0v16
	c-31.2,0-57.4,21.4-64.9,50.3l-6.6-1.2c-1.7-0.3-3.4,0.9-3.7,2.6c-0.1,0.7,0,1.4,0.3,2l6.9,13.7c-12.3,2-21.4,12.7-21.4,25.2
	c0,14.1,11.4,25.5,25.5,25.5c12.9,0,23.7-9.6,25.3-22.4h22.6v6.4c0,1.8,1.4,3.2,3.2,3.2c0.7,0,1.3-0.2,1.9-0.6l11.2-8.4
	c1.9,12.5,12.6,21.8,25.2,21.8c14.1,0,25.5-11.4,25.5-25.5c0-12.9-9.6-23.7-22.4-25.3V96.8h6.4c1.8,0,3.2-1.4,3.2-3.2
	c0-0.7-0.2-1.3-0.6-1.9l-8.1-10.9h15.2C167.4,80.9,170.2,78,170.2,74.5C170.2,74.5,170.2,74.5,170.2,74.5L170.2,74.5z M55.3,157.5
	c-7,0-12.8-5.7-12.8-12.8s5.7-12.8,12.8-12.8s12.8,5.7,12.8,12.8S62.3,157.5,55.3,157.5z M157.5,144.7c0,7-5.7,12.8-12.8,12.8
	s-12.8-5.7-12.8-12.8s5.7-12.8,12.8-12.8S157.5,137.7,157.5,144.7z M132.3,95c0.5,1.1,1.6,1.8,2.9,1.8h6.4v22.6
	c-11.3,1.4-20.3,10.3-22,21.6l-11.2-8.4c-1.4-1.1-3.4-0.8-4.5,0.7c-0.4,0.6-0.6,1.2-0.6,1.9v6.4H80.6c-1.5-11.6-10.6-20.7-22.2-22.1
	c0-0.1,0-0.1,0-0.2v0l9.7-9c1.3-1.2,1.4-3.2,0.2-4.5c-0.5-0.5-1.1-0.9-1.8-1l-5.9-1c6.9-25.9,30.5-45.1,58.6-45.1v16
	c0,3.5,2.9,6.4,6.4,6.4h15.2l-8.1,10.9C131.8,92.7,131.7,94,132.3,95L132.3,95z M157.5,68.1h-25.5V42.5h25.5V68.1L157.5,68.1z"/>
</svg>
