<?xml version="1.0" standalone="no"?><!DOCTYPE svg PUBLIC "-//W3C//DTD SVG 1.1//EN" "http://www.w3.org/Graphics/SVG/1.1/DTD/svg11.dtd"><svg t="1552383571328" class="icon" style="" viewBox="0 0 1024 1024" version="1.1" xmlns="http://www.w3.org/2000/svg" p-id="1225" xmlns:xlink="http://www.w3.org/1999/xlink" width="8" height="8"><defs><style type="text/css"></style></defs><path d="M64 0h896a64 64 0 0 1 64 64v896a64 64 0 0 1-64 64H64a64 64 0 0 1-64-64V64a64 64 0 0 1 64-64z m446.272 573.44a51.52 51.52 0 0 1-28.16-7.232 56.832 56.832 0 0 1-18.176-18.432 76.8 76.8 0 0 1-9.728-25.344 144.512 144.512 0 0 1-2.816-28.416c0-9.92 1.088-19.392 3.328-28.416 2.24-9.024 5.76-17.088 10.752-24.064a55.424 55.424 0 0 1 18.432-16.64 53.312 53.312 0 0 1 26.368-6.144c11.968 0 21.824 2.24 29.696 6.656 7.872 4.48 14.144 10.432 18.944 17.92 4.8 7.488 8.192 16.128 10.24 25.856 2.048 9.728 3.072 20.032 3.072 30.976 0 9.6-1.28 18.688-3.84 27.392-2.56 8.704-6.4 16.448-11.52 23.296a56.768 56.768 0 0 1-46.592 22.528z m131.072 45.504V371.2H572.16v35.328h-1.024c-8.896-15.36-19.84-26.24-33.024-32.768a102.336 102.336 0 0 0-45.824-9.728 106.88 106.88 0 0 0-48.896 10.752 105.152 105.152 0 0 0-35.584 28.928c-9.6 12.16-16.832 26.112-21.76 41.984a164.992 164.992 0 0 0-7.424 49.408c0 18.112 2.112 35.2 6.4 51.456 4.288 16.192 11.008 30.4 20.224 42.496 9.216 12.16 20.992 21.696 35.328 28.672 14.336 7.04 31.36 10.496 51.2 10.496 16 0 31.36-3.328 45.824-9.984 14.528-6.656 25.664-16.96 33.536-30.976h1.024v34.816c0.32 18.752-4.16 34.304-13.568 46.592-9.408 12.288-24.32 18.432-44.8 18.432a71.68 71.68 0 0 1-34.304-7.936c-9.92-5.312-16.576-14.72-19.968-28.416H387.392c1.024 15.04 5.184 27.904 12.544 38.656 7.36 10.752 16.576 19.52 27.648 26.368 11.072 6.848 23.36 11.84 36.864 15.104 13.44 3.2 26.688 4.864 39.68 4.864 30.4 0 54.592-4.096 72.704-12.288 18.112-8.192 31.936-18.176 41.472-29.952a89.6 89.6 0 0 0 18.688-38.144 177.28 177.28 0 0 0 4.352-36.352z m164.8-45.568a51.52 51.52 0 0 1-28.16-7.168 56.832 56.832 0 0 1-18.176-18.432 76.8 76.8 0 0 1-9.728-25.344 144.512 144.512 0 0 1-2.816-28.416c0-9.92 1.088-19.392 3.328-28.416 2.24-9.024 5.76-17.088 10.752-24.064a55.424 55.424 0 0 1 18.432-16.64 53.312 53.312 0 0 1 26.368-6.144c11.968 0 21.824 2.24 29.696 6.656 7.872 4.48 14.144 10.432 18.944 17.92 4.8 7.488 8.192 16.128 10.24 25.856 2.048 9.728 3.072 20.032 3.072 30.976 0 9.6-1.28 18.688-3.84 27.392-2.56 8.704-6.4 16.448-11.52 23.296a56.768 56.768 0 0 1-46.592 22.528z m131.072 45.568V371.2h-69.12v35.328h-1.024c-8.896-15.36-19.84-26.24-33.024-32.768a102.336 102.336 0 0 0-45.824-9.728 106.88 106.88 0 0 0-48.896 10.752 105.152 105.152 0 0 0-35.584 28.928c-9.6 12.16-16.832 26.112-21.76 41.984a164.992 164.992 0 0 0-7.424 49.408c0 18.112 2.112 35.2 6.4 51.456 4.288 16.192 11.008 30.4 20.224 42.496 9.216 12.16 20.992 21.696 35.328 28.672 14.336 7.04 31.36 10.496 51.2 10.496 16 0 31.36-3.328 45.824-9.984 14.528-6.656 25.664-16.96 33.536-30.976h1.024v34.816c0.32 18.752-4.16 34.304-13.568 46.592-9.408 12.288-24.32 18.432-44.8 18.432a71.68 71.68 0 0 1-34.304-7.936c-9.92-5.312-16.576-14.72-19.968-28.416h-72.192c1.024 15.04 5.184 27.904 12.544 38.656 7.36 10.752 16.576 19.52 27.648 26.368 11.072 6.848 23.36 11.84 36.864 15.104 13.44 3.2 26.688 4.864 39.68 4.864 30.4 0 54.592-4.096 72.704-12.288 18.112-8.192 31.936-18.176 41.472-29.952a89.6 89.6 0 0 0 18.688-38.144 177.28 177.28 0 0 0 4.352-36.352z m-572.16-86.208C363.712 433.536 312.448 384 210.944 384 116.48 387.52 67.52 437.696 64 534.528c4.672 87.488 57.152 132.992 157.44 136.448 77.056 0 126.656-26.816 148.8-80.448l-91.008-10.56c-8.128 22.208-27.968 33.92-59.52 35.008-43.136-3.456-66.432-23.872-69.952-61.248h215.232v-20.992z m-217.024-33.28c3.456-37.312 26.24-57.152 68.224-59.456 40.832 3.52 62.976 23.36 66.496 59.52H147.968z" fill="#2491F7" p-id="1226"></path></svg>