<?xml version="1.0" standalone="no"?><!DOCTYPE svg PUBLIC "-//W3C//DTD SVG 1.1//EN" "http://www.w3.org/Graphics/SVG/1.1/DTD/svg11.dtd"><svg t="1532068719762" class="icon" style="" viewBox="0 0 1024 1024" version="1.1" xmlns="http://www.w3.org/2000/svg" p-id="9578" xmlns:xlink="http://www.w3.org/1999/xlink" width="200" height="200"><defs><style type="text/css"></style></defs><path d="M95.944 371.082h239.487c19.851 0 36-16.149 36-36V95.594c0-17.673-14.327-32-32-32s-32 14.327-32 32v211.488H95.944c-17.673 0-32 14.327-32 32 0 17.672 14.327 32 32 32zM95.944 716.016h211.487v211.487c0 17.673 14.327 32 32 32s32-14.327 32-32V688.016c0-19.851-16.149-36-36-36H95.944c-17.673 0-32 14.327-32 32s14.327 32 32 32zM684.513 959.402c17.673 0 32-14.327 32-32V715.915H928c17.673 0 32-14.327 32-32s-14.327-32-32-32H688.513c-19.851 0-36 16.149-36 36v239.487c0 17.673 14.327 32 32 32zM688.513 371.639H928c17.673 0 32-14.327 32-32s-14.327-32-32-32H716.513V96.151c0-17.673-14.327-32-32-32s-32 14.327-32 32v239.488c0 19.85 16.149 36 36 36z" fill="#515151" p-id="9579"></path></svg>