<?xml version="1.0" encoding="UTF-8"?>
<svg width="16px" height="16px" viewBox="0 0 16 16" version="1.1" xmlns="http://www.w3.org/2000/svg" xmlns:xlink="http://www.w3.org/1999/xlink">
    <!-- Generator: Sketch 52.2 (67145) - http://www.bohemiancoding.com/sketch -->
    <title>icon_dataasset</title>
    <desc>Created with Sketch.</desc>
    <g id="icon_dataasset" stroke="none" stroke-width="1" fill="none" fill-rule="evenodd">
        <g id="icon_searchdata">
            <rect id="di" fill="#1B1E21" opacity="0" x="0" y="0" width="16" height="16"></rect>
            <rect id="Rectangle" fill="#FFFFFF" x="11" y="5" width="1" height="1"></rect>
            <path d="M3,3 L3,14 L13,14 L13,3 L3,3 Z M3,2 L13,2 C13.5522847,2 14,2.44771525 14,3 L14,14 C14,14.5522847 13.5522847,15 13,15 L3,15 C2.44771525,15 2,14.5522847 2,14 L2,3 C2,2.44771525 2.44771525,2 3,2 Z" id="Rectangle" fill="#FFFFFF" fill-rule="nonzero"></path>
            <rect id="Rectangle" fill="#FFFFFF" x="4" y="5" width="6" height="1" rx="0.5"></rect>
            <rect id="Rectangle-Copy-2" fill="#FFFFFF" x="11" y="8" width="1" height="1"></rect>
            <rect id="Rectangle-Copy" fill="#FFFFFF" x="4" y="8" width="6" height="1" rx="0.5"></rect>
            <rect id="Rectangle-Copy-4" fill="#FFFFFF" x="11" y="11" width="1" height="1"></rect>
            <rect id="Rectangle-Copy-3" fill="#FFFFFF" x="4" y="11" width="6" height="1" rx="0.5"></rect>
        </g>
    </g>
</svg>