<?xml version="1.0" encoding="UTF-8"?>
<svg width="16px" height="16px" viewBox="0 0 16 16" version="1.1" xmlns="http://www.w3.org/2000/svg" xmlns:xlink="http://www.w3.org/1999/xlink">
    <!-- Generator: Sketch 52.2 (67145) - http://www.bohemiancoding.com/sketch -->
    <title>icon_tuomin</title>
    <desc>Created with Sketch.</desc>
    <g id="icon_tuomin" stroke="none" stroke-width="1" fill="none" fill-rule="evenodd">
        <g>
            <rect id="Rectangle" fill="#1B1E21" opacity="0" x="0" y="0" width="16" height="16"></rect>
            <path d="M4.68553719,4.08114689 C4.62299712,4.10613821 4.5,4.34045224 4.5,4.56936369 L4.5,5.25716005 L3.5,5.25716005 L3.5,4.56936369 C3.5,3.96684811 3.82471813,3.34824813 4.31446281,3.15254375 L8.31446281,1.55412405 C9.07441365,1.25044394 9.5,2.00451278 9.5,2.90434317 L9.5,13.7615434 C9.5,14.6613737 9.07441365,15.4154426 8.31446281,15.1117625 L4.31446281,13.5133428 C3.82471813,13.3176384 3.5,12.6990384 3.5,12.0965228 L3.5,11.7083008 L4.5,11.7083008 L4.5,11.8048898 C4.5,11.8051283 4.5,11.8051283 3.5,11.8052471 L3.5,11.7586169 L4.5,11.758563 L4.5,11.8052309 L3.5,11.8052471 L3.5,11.7586967 C3.5,11.7585994 3.5,11.7585994 4.5,11.758563 L4.5,12.0965228 C4.5,12.3254343 4.62299712,12.5597483 4.68553719,12.5847396 L8.4650931,14.0950688 C8.48636119,14.0072341 8.5,13.8925109 8.5,13.7615434 L8.5,2.90434317 C8.5,2.77337562 8.48636119,2.65865244 8.4650931,2.57081773 L4.68553719,4.08114689 Z" id="Path" fill="#FFFFFF" fill-rule="nonzero"></path>
            <circle id="Oval" fill="#FFFFFF" cx="5" cy="7" r="1"></circle>
            <circle id="Oval-Copy-4" fill="#FFFFFF" cx="12" cy="4" r="1"></circle>
            <circle id="Oval-Copy-5" fill="#FFFFFF" cx="12" cy="7" r="1"></circle>
            <circle id="Oval-Copy-6" fill="#FFFFFF" cx="14" cy="8" r="1"></circle>
            <circle id="Oval-Copy-7" fill="#FFFFFF" cx="13" cy="10" r="1"></circle>
            <circle id="Oval-Copy" fill="#FFFFFF" cx="3" cy="10" r="1"></circle>
            <circle id="Oval-Copy-2" fill="#FFFFFF" cx="7" cy="9" r="1"></circle>
        </g>
    </g>
</svg>