<?xml version="1.0" standalone="no"?><!DOCTYPE svg PUBLIC "-//W3C//DTD SVG 1.1//EN" "http://www.w3.org/Graphics/SVG/1.1/DTD/svg11.dtd"><svg t="1552380645391" class="icon" style="" viewBox="0 0 1024 1024" version="1.1" xmlns="http://www.w3.org/2000/svg" p-id="1692" xmlns:xlink="http://www.w3.org/1999/xlink" width="8" height="8"><defs><style type="text/css"></style></defs><path d="M64 0h896a64 64 0 0 1 64 64v896a64 64 0 0 1-64 64H64a64 64 0 0 1-64-64V64a64 64 0 0 1 64-64z m304 582.08a65.28 65.28 0 0 1-33.408-8.064 64.704 64.704 0 0 1-22.144-21.056 90.752 90.752 0 0 1-12.16-30.208 165.44 165.44 0 0 1-3.712-35.2c0-12.224 1.152-24.128 3.456-35.648a89.6 89.6 0 0 1 11.776-30.528 67.2 67.2 0 0 1 21.952-21.632 63.104 63.104 0 0 1 33.664-8.32c13.056 0 24.064 2.752 33.152 8.32 8.96 5.568 16.384 12.864 22.144 21.888 5.76 9.024 9.856 19.328 12.352 30.848 2.56 11.52 3.776 23.232 3.776 35.136 0 11.904-1.152 23.616-3.456 35.136-2.304 11.52-6.208 21.568-11.776 30.208a65.536 65.536 0 0 1-21.888 21.056 64.896 64.896 0 0 1-33.728 8.064zM217.664 337.856v402.048h81.792V598.784h1.152c9.984 14.592 22.72 25.6 38.272 33.088 15.616 7.488 32.576 11.264 51.008 11.264 21.888 0 40.96-4.224 57.344-12.672 16.32-8.448 29.888-19.84 40.832-33.984 11.008-14.208 19.136-30.528 24.512-48.96 5.376-18.432 8.064-37.632 8.064-57.6 0-21.12-2.688-41.408-8.064-60.8a148.352 148.352 0 0 0-24.768-50.944 124.864 124.864 0 0 0-42.048-35.2c-16.896-8.768-37.056-13.184-60.48-13.184-18.432 0-35.328 3.648-50.688 10.88-15.36 7.36-28.032 19.072-38.016 35.2h-1.152v-38.016H217.664z m498.816 334.656l124.416-334.72h-84.672l-65.088 203.968h-1.152L622.592 337.856H535.616l104.256 279.36c2.304 5.76 3.456 11.904 3.456 18.432 0 8.832-2.56 16.896-7.744 24.192a31.808 31.808 0 0 1-23.936 12.672 169.728 169.728 0 0 1-24.192-0.64 5032.576 5032.576 0 0 1-23.616-2.24v67.392c8.448 0.768 16.768 1.408 25.024 1.984 8.32 0.64 16.64 0.896 25.088 0.896 28.032 0 49.92-5.184 65.664-15.552 15.744-10.368 28.032-27.648 36.864-51.84z" fill="#2491F7" p-id="1693"></path></svg>