<?xml version="1.0" standalone="no"?><!DOCTYPE svg PUBLIC "-//W3C//DTD SVG 1.1//EN" "http://www.w3.org/Graphics/SVG/1.1/DTD/svg11.dtd"><svg t="1493271751262" class="icon" style="" viewBox="0 0 1024 1024" version="1.1" xmlns="http://www.w3.org/2000/svg" p-id="1192" xmlns:xlink="http://www.w3.org/1999/xlink" width="200" height="200"><defs><style type="text/css"></style></defs><path d="M511.99711 1024C229.670521 1024 0 794.329479 0 511.995665 0 229.671244 229.670521 0 511.99711 0c282.332369 0 512.00289 229.671244 512.00289 511.995665C1024 794.329479 794.329479 1024 511.99711 1024L511.99711 1024zM511.99711 73.471693c-241.807611 0-438.52614 196.717807-438.52614 438.524334 0 241.775821 196.718529 438.533003 438.52614 438.533003 241.774376 0 438.53192-196.757544 438.53192-438.533003C950.52903 270.1895 753.771486 73.471693 511.99711 73.471693L511.99711 73.471693zM757.683402 376.211119c-14.335984-14.22436-37.522095-14.079862-51.70744 0.289357l-266.606678 269.530951-118.018907-121.266495c-14.112735-14.520219-37.265611-14.776702-51.70744-0.731159-14.486623 14.079139-14.815717 37.265611-0.731159 51.708885l144.017667 148.006167c0.07261 0.105845 0.217469 0.105845 0.290079 0.21783 0.07261 0.07261 0.111625 0.217469 0.184235 0.290079 2.304739 2.271144 5.156403 3.660851 7.862846 5.195417 1.428722 0.770173 2.561584 2.047895 4.02354 2.633833 4.425244 1.830425 9.140567 2.740039 13.822656 2.740039 4.642713 0 9.291206-0.909613 13.677436-2.667429 1.428722-0.584493 2.52257-1.757815 3.87832-2.487529 2.739678-1.536011 5.597121-2.886343 7.935095-5.191082 0.07261-0.07261 0.111625-0.223249 0.217469-0.295859 0.07261-0.105845 0.184235-0.144859 0.295859-0.217469l292.823268-296.010166C772.169664 413.547896 772.019386 390.401522 757.683402 376.211119L757.683402 376.211119zM757.683402 376.211119" p-id="1193"></path></svg>