<?xml version="1.0" standalone="no"?><!DOCTYPE svg PUBLIC "-//W3C//DTD SVG 1.1//EN" "http://www.w3.org/Graphics/SVG/1.1/DTD/svg11.dtd"><svg t="1493187469616" class="icon" style="" fill="#808080" viewBox="0 0 1024 1024" version="1.1" xmlns="http://www.w3.org/2000/svg" p-id="18217" xmlns:xlink="http://www.w3.org/1999/xlink" width="200" height="200"><defs><style type="text/css"></style></defs><path d="M625.888863 516.224208l-88.975451-88.975451c-0.807389-1.025353-1.676176-2.020006-2.623757-2.966565-12.458753-12.458753-32.270984-12.848633-44.249807-0.868787l-0.476861 0.476861c-0.192382 0.183172-0.388856 0.361227-0.577145 0.550539s-0.366344 0.384763-0.550539 0.577145l-90.325192 90.325192c-11.979846 11.979846-11.590989 31.791054 0.868787 44.249807s32.270984 12.848633 44.249807 0.868787l38.068014-38.068014 0 342.639754c0 16.956184 13.746072 30.702256 30.702256 30.702256s30.702256-13.746072 30.702256-30.702256L542.701233 523.274788l38.068014 38.068014c11.979846 11.979846 31.791054 11.590989 44.249807-0.868787C637.479853 548.015262 637.868709 528.204054 625.888863 516.224208z" p-id="18218"></path><path d="M703.511755 320.476989 703.511755 313.267796c0-101.673657-81.46336-184.391591-181.595918-184.391591l-19.832697 0c-100.132558 0-181.594895 82.717933-181.594895 184.391591l0 7.204076-0.355087 0c-105.61134 0-191.532221 85.920882-191.532221 191.532221 0 105.612363 85.920882 191.532221 191.532221 191.532221l30.79947 0c16.954137 0 30.699186-13.745049 30.699186-30.699186s-13.745049-30.699186-30.699186-30.699186l-30.79947 0c-71.756277 0-130.133849-58.378595-130.133849-130.133849 0-71.756277 58.377572-130.133849 130.133849-130.133849L349.923648 381.870244c0.419556 0.017396 0.840134 0.031722 1.263783 0.031722 16.954137 0 30.699186-13.745049 30.699186-30.699186L381.886617 313.267796c0-67.818595 53.92005-122.993219 120.196523-122.993219l19.832697 0c66.277496 0 120.197546 55.174624 120.197546 122.993219l0 31.945573c-0.378623 1.927909-0.582261 3.918239-0.582261 5.956665 0 16.505929 13.028735 29.964452 29.362748 30.665417 0.635473 0.038886 1.274016 0.065492 1.919722 0.065492 0.423649 0 0.844228-0.01535 1.263783-0.031722l28.953426 0c71.756277 0 130.134873 58.377572 130.134873 130.133849 0 71.756277-58.378595 130.133849-130.134873 130.133849l-30.800493 0c-16.954137 0-30.699186 13.745049-30.699186 30.699186s13.745049 30.699186 30.699186 30.699186l30.800493 0c105.61134 0 191.533244-85.920882 191.533244-191.532221C894.563022 406.553413 808.90206 320.738955 703.511755 320.476989z" p-id="18219"></path></svg>