<?xml version="1.0" standalone="no"?><!DOCTYPE svg PUBLIC "-//W3C//DTD SVG 1.1//EN" "http://www.w3.org/Graphics/SVG/1.1/DTD/svg11.dtd"><svg t="1552380655954" class="icon" style="" viewBox="0 0 1024 1024" version="1.1" xmlns="http://www.w3.org/2000/svg" p-id="1910" xmlns:xlink="http://www.w3.org/1999/xlink" width="8" height="8"><defs><style type="text/css"></style></defs><path d="M64 0h896a64 64 0 0 1 64 64v896a64 64 0 0 1-64 64H64a64 64 0 0 1-64-64V64a64 64 0 0 1 64-64z m63.488 603.84v61.632h273.664v-61.632H235.2l154.88-174.528v-61.632H139.008v61.632h143.424l-154.88 174.528z m401.472-282.24V254.272H447.168v67.456h81.792z m-81.792 46.08V665.6h81.792V367.744H447.168z m296.704 244.288a65.28 65.28 0 0 1-33.408-8.128 64.704 64.704 0 0 1-22.208-20.992 90.752 90.752 0 0 1-12.096-30.272 165.44 165.44 0 0 1-3.712-35.136c0-12.288 1.088-24.128 3.392-35.712a89.6 89.6 0 0 1 11.84-30.464 67.2 67.2 0 0 1 21.888-21.632 63.104 63.104 0 0 1 33.728-8.32c13.056 0 24.064 2.752 33.088 8.32 9.024 5.568 16.384 12.864 22.144 21.888 5.76 9.024 9.92 19.264 12.416 30.848 2.496 11.52 3.776 23.168 3.776 35.072 0 11.968-1.152 23.68-3.52 35.2-2.304 11.52-6.208 21.568-11.776 30.208a65.536 65.536 0 0 1-21.888 21.056 64.896 64.896 0 0 1-33.664 8.064z m-150.4-244.224v401.984h81.856V628.672h1.152c9.984 14.592 22.72 25.6 38.272 33.088 15.552 7.488 32.512 11.2 50.944 11.2 21.952 0 41.024-4.16 57.344-12.608 16.32-8.512 29.952-19.84 40.896-33.984 10.944-14.272 19.072-30.528 24.512-49.024 5.376-18.432 8.064-37.568 8.064-57.6 0-21.12-2.688-41.344-8.064-60.736a148.352 148.352 0 0 0-24.768-50.944 124.864 124.864 0 0 0-42.048-35.2c-16.96-8.832-37.12-13.184-60.48-13.184-18.496 0-35.328 3.584-50.752 10.88-15.36 7.36-27.968 19.008-37.952 35.2h-1.152v-38.08H593.472z" fill="#2491F7" p-id="1911"></path></svg>