<?xml version="1.0" standalone="no"?><!DOCTYPE svg PUBLIC "-//W3C//DTD SVG 1.1//EN" "http://www.w3.org/Graphics/SVG/1.1/DTD/svg11.dtd"><svg t="1493278205175" class="icon" style="" viewBox="0 0 1639 1024" version="1.1" xmlns="http://www.w3.org/2000/svg" p-id="23682" xmlns:xlink="http://www.w3.org/1999/xlink" width="320.1171875" height="200"><defs><style type="text/css"></style></defs><path d="M641.5 516.6c0-5.8 2.9-12.4 7.3-16.7L988 160.7c4.4-4.4 10.9-7.3 16.7-7.3 5.8 0 12.4 2.9 16.7 7.3l36.4 36.4c4.4 4.4 7.3 10.9 7.3 16.7s-2.9 12.4-7.3 16.7L771.8 516.6l286.1 286.1c4.4 4.4 7.3 10.9 7.3 16.7 0 6.6-2.9 12.4-7.3 16.7l-36.4 36.4c-4.4 4.4-10.9 7.3-16.7 7.3-5.8 0-12.4-2.9-16.7-7.3L648.8 533.4C644.4 529 641.5 522.5 641.5 516.6z" p-id="23683"></path></svg>