<?xml version="1.0" encoding="UTF-8"?>
<svg width="16px" height="16px" viewBox="0 0 16 16" version="1.1" xmlns="http://www.w3.org/2000/svg" xmlns:xlink="http://www.w3.org/1999/xlink">
    <!-- Generator: Sketch 52.2 (67145) - http://www.bohemiancoding.com/sketch -->
    <title>icon_access</title>
    <desc>Created with Sketch.</desc>
    <g id="icon_access" stroke="none" stroke-width="1" fill="none" fill-rule="evenodd">
        <g>
            <rect id="Rectangle" fill="#1B1E21" opacity="0" x="0" y="0" width="16" height="16"></rect>
            <path d="M10.2928932,1.70710678 L11,2 L10.5857864,2 L10.2928932,1.70710678 Z M10.5857864,2 L13,4.41421356 L13,14 L11,14 L11,15 L13,15 C13.5522847,15 14,14.5522847 14,14 L14,4 L11,1 L4,1 C3.44771525,1 3,1.44771525 3,2 L3,6 L4,6 L4,2 L10.5857864,2 Z M13.2928932,4.70710678 L13,4 L13,4.41421356 L13.2928932,4.70710678 Z M13,4 L13.2928932,4.70710678 L13,4.41421356 L13,4 Z M13,4.41421356 L13,14 L11,14 L11,15 L13,15 C13.5522847,15 14,14.5522847 14,14 L14,4 L11,1 L4,1 C3.44771525,1 3,1.44771525 3,2 L3,6 L4,6 L4,2 L10.5857864,2 L13,4.41421356 Z M11,2 L10.2928932,1.70710678 L10.5857864,2 L11,2 Z" id="Path" fill="#FFFFFF" fill-rule="nonzero"></path>
            <circle id="Oval" stroke="#FFFFFF" cx="6" cy="9" r="2.5"></circle>
            <path d="M1,16 C1,13.2385763 3.23857625,11 6,11 C8.76142375,11 11,13.2385763 11,16 L10,16 C10,13.790861 8.209139,12 6,12 C3.790861,12 2,13.790861 2,16 L1,16 Z" id="Path" fill="#FFFFFF"></path>
            <rect id="Rectangle" fill="#FFFFFF" x="10" y="2" width="1" height="3"></rect>
            <rect id="Rectangle-Copy-5" fill="#FFFFFF" transform="translate(11.500000, 4.500000) rotate(-270.000000) translate(-11.500000, -4.500000) " x="11" y="3" width="1" height="3"></rect>
        </g>
    </g>
</svg>