<?xml version="1.0" standalone="no"?><!DOCTYPE svg PUBLIC "-//W3C//DTD SVG 1.1//EN" "http://www.w3.org/Graphics/SVG/1.1/DTD/svg11.dtd"><svg t="1552380659036" class="icon" style="" viewBox="0 0 1024 1024" version="1.1" xmlns="http://www.w3.org/2000/svg" p-id="2019" xmlns:xlink="http://www.w3.org/1999/xlink" width="8" height="8"><defs><style type="text/css"></style></defs><path d="M64 0h896a64 64 0 0 1 64 64v896a64 64 0 0 1-64 64H64a64 64 0 0 1-64-64V64a64 64 0 0 1 64-64z m210.944 360.128V292.736H193.152v67.392h81.856zM144.192 738.56v67.392c7.68 1.536 16.32 2.304 25.92 2.304 20.8 0 37.824-1.792 51.264-5.44 13.44-3.712 24.128-9.216 32-16.704a61.696 61.696 0 0 0 16.704-27.968c3.264-11.136 4.928-24.384 4.928-39.744V406.208H193.152v308.16c0 11.136-3.2 18.304-9.536 21.568a47.808 47.808 0 0 1-22.208 4.928 52.096 52.096 0 0 1-17.28-2.304zM342.4 497.792h81.856c1.536-16.128 6.848-27.648 16.128-34.56 9.216-6.912 21.824-10.368 37.952-10.368 7.36 0 14.144 0.448 20.48 1.408a45.312 45.312 0 0 1 16.704 5.76 31.744 31.744 0 0 1 11.52 12.16c2.88 5.12 4.352 12.16 4.352 20.992 0.384 8.448-2.112 14.848-7.488 19.264a55.232 55.232 0 0 1-21.952 10.112 218.24 218.24 0 0 1-31.616 5.184 625.152 625.152 0 0 0-36.288 4.608 344.32 344.32 0 0 0-36.608 7.808 103.232 103.232 0 0 0-32.256 14.656 74.624 74.624 0 0 0-23.04 26.24c-5.952 10.88-8.96 24.832-8.96 41.728 0 15.36 2.624 28.608 7.808 39.744 5.184 11.136 12.352 20.352 21.632 27.648 9.216 7.296 19.904 12.672 32.192 16.128 12.352 3.456 25.6 5.184 39.808 5.184 18.432 0 36.48-2.688 54.144-8.064 17.664-5.376 32.96-14.784 46.08-28.224a122.88 122.88 0 0 0 5.76 28.8h82.944c-3.84-6.144-6.528-15.36-8.128-27.648a311.168 311.168 0 0 1-2.304-38.592V482.816c0-18.048-3.968-32.512-12.096-43.52a82.88 82.88 0 0 0-31.104-25.6 139.2 139.2 0 0 0-41.984-12.416 333.76 333.76 0 0 0-45.504-3.136c-16.576 0-32.96 1.6-49.28 4.928a140.544 140.544 0 0 0-44.096 16.384c-13.056 7.68-23.744 17.856-32.256 30.528-8.448 12.672-13.184 28.608-14.336 47.808z m188.992 60.48V588.8c0 4.608-0.512 10.752-1.472 18.432a61.696 61.696 0 0 1-7.744 22.784 53.952 53.952 0 0 1-19.584 19.264c-8.896 5.376-21.312 8.064-37.504 8.064-6.528 0-12.8-0.576-18.944-1.728a46.208 46.208 0 0 1-16.128-6.08 30.912 30.912 0 0 1-10.944-11.776 38.464 38.464 0 0 1-4.032-18.432c0-7.68 1.28-14.016 4.032-19.008a36.992 36.992 0 0 1 10.624-12.416 53.632 53.632 0 0 1 15.552-7.744c5.952-1.92 11.968-3.456 18.112-4.608 6.592-1.152 13.056-2.112 19.584-2.88a256 256 0 0 0 18.752-2.88c5.952-1.152 11.52-2.56 16.704-4.352a36.672 36.672 0 0 0 12.992-7.168z m145.152-152.064V704h81.728V569.792c0-13.44 1.344-25.92 4.096-37.44 2.688-11.52 7.168-21.568 13.504-30.208 6.336-8.704 14.72-15.488 25.088-20.48 10.368-4.992 23.04-7.488 38.016-7.488a157.12 157.12 0 0 1 29.376 2.88V401.024a63.808 63.808 0 0 0-17.92-2.88c-10.368 0-20.288 1.536-29.952 4.608-9.6 3.072-18.56 7.36-27.072 12.928a101.888 101.888 0 0 0-38.016 45.824h-1.152v-55.296H676.48z" fill="#2491F7" p-id="2020"></path></svg>