<?xml version="1.0" encoding="utf-8"?>
<!-- Generator: Adobe Illustrator 21.0.0, SVG Export Plug-In . SVG Version: 6.00 Build 0)  -->
<svg version="1.1" id="图层_1" xmlns="http://www.w3.org/2000/svg" xmlns:xlink="http://www.w3.org/1999/xlink" x="0px" y="0px"
	 viewBox="0 0 17 17" style="enable-background:new 0 0 17 17;" xml:space="preserve">
<style type="text/css">
	.st0{fill:#FFFFFF;}
</style>
<title>icon_help</title>
<desc>Created with Sketch.</desc>
<g id="修改页">
	<g id="首页-02" transform="translate(-1375.000000, -20.000000)">
		<g id="Banner" transform="translate(0.000000, -1.000000)">
			<g id="NAV" transform="translate(240.774536, 0.981023)">
				<g id="icon_help" transform="translate(1135.225017, 20.812053)">
					<path class="st0" d="M14,7.6c0,1.8-0.6,3.3-1.8,4.6s-2.8,1.9-4.6,2c-1.8,0-3.3-0.6-4.6-1.8S1,9.6,1,7.8C1,6,1.6,4.5,2.8,3.2
						s2.8-1.9,4.6-2c1.8,0,3.3,0.6,4.6,1.8S14,5.8,14,7.6z M8.2,3.8C8,3.6,7.8,3.5,7.5,3.5S7,3.6,6.8,3.8S6.6,4.2,6.6,4.5
						c0,0.3,0.1,0.5,0.3,0.7s0.4,0.3,0.7,0.3S8,5.3,8.2,5.1s0.3-0.4,0.3-0.7C8.4,4.2,8.3,4,8.2,3.8z M8.8,11.7v-0.3H8.1v-5H6.2v0.3
						h0.6v4.6H6.2v0.3H8.8z"/>
				</g>
			</g>
		</g>
	</g>
</g>
</svg>
