<?xml version="1.0" encoding="utf-8"?>
<!-- Generator: Adobe Illustrator 21.0.0, SVG Export Plug-In . SVG Version: 6.00 Build 0)  -->
<svg version="1.1" id="图层_1" xmlns="http://www.w3.org/2000/svg" xmlns:xlink="http://www.w3.org/1999/xlink" x="0px" y="0px"
	 viewBox="0 0 24 24" style="enable-background:new 0 0 24 24;" xml:space="preserve">
<style type="text/css">
	.st0{fill:#2491F7;}
</style>
<title>logo_flow</title>
<desc>Created with Sketch.</desc>
<g id="全部页面">
	<g id="_x31_6流计算首页" transform="translate(-40.000000, -12.000000)">
		<g id="menu">
			<g id="logo_flow" transform="translate(40.900000, 12.005796)">
				<circle id="Oval" class="st0" cx="1.8" cy="3.1" r="2.4"/>
				<circle id="Oval-Copy-3" class="st0" cx="1.8" cy="11.2" r="2.4"/>
				<circle id="Oval-Copy-5" class="st0" cx="1.8" cy="19.3" r="2.4"/>
				<circle id="Oval-Copy-4" class="st0" cx="13.9" cy="11.2" r="2.4"/>
				<circle id="Oval-Copy-7" class="st0" cx="13.9" cy="20.9" r="2.4"/>
				<circle id="Oval-Copy-6" class="st0" cx="20.4" cy="16" r="2.4"/>
				<circle id="Oval-Copy-2" class="st0" cx="20.4" cy="6.3" r="2.4"/>
				<path id="Combined-Shape" class="st0" d="M10.7,2.3l3.8,3.2h5.9v1.6h-6.5v0l-3.8-3.2H1V2.3L10.7,2.3L10.7,2.3z"/>
				<path id="Combined-Shape-Copy-2" class="st0" d="M10.7,15.2l-3.8,3.2H1v1.6h6.5v0l3.8-3.2h9.2v-1.6L10.7,15.2L10.7,15.2z"/>
				<rect id="Rectangle-Copy-3" x="1" y="10.4" class="st0" width="11.4" height="1.6"/>
			</g>
		</g>
	</g>
</g>
</svg>
