<svg id="图层_1" data-name="图层 1" xmlns="http://www.w3.org/2000/svg" viewBox="0 0 16 16"><defs><style>.cls-1{fill:#2491f7;}</style></defs><title>btn_search</title><path class="cls-1" d="M7.44,5.61c-2.55,0-5-.86-5-1.76s2.42-1.76,5-1.76,5,.86,5,1.76S10,5.61,7.44,5.61Zm-5,4.82a9.44,9.44,0,0,0,5,1.17,9.44,9.44,0,0,0,5-1.18v.92c0,.91-2.42,1.76-5,1.76s-5-.86-5-1.76Zm5,.08c-2.55,0-5-.86-5-1.76V7.84A9.44,9.44,0,0,0,7.44,9a9.44,9.44,0,0,0,5-1.18v.92C12.41,9.66,10,10.52,7.44,10.52Zm0-2.6c-2.55,0-5-.86-5-1.76V5.53a9.44,9.44,0,0,0,5,1.18,9.44,9.44,0,0,0,5-1.18v.63C12.41,7.07,10,7.92,7.44,7.92ZM7.44,1C4,1,1.37,2.23,1.37,3.85v7.5C1.37,13,4,14.21,7.44,14.21s6.07-1.23,6.07-2.85V3.85C13.51,2.23,10.9,1,7.44,1Z"/></svg>