<?xml version="1.0" encoding="UTF-8"?>
<svg width="868px" height="252px" viewBox="0 0 868 252" version="1.1" xmlns="http://www.w3.org/2000/svg" xmlns:xlink="http://www.w3.org/1999/xlink">
    <!-- Generator: Sketch 54.1 (76490) - https://sketchapp.com -->
    <title>流程图</title>
    <desc>Created with Sketch.</desc>
    <defs>
        <rect id="path-1" x="0" y="13" width="150" height="38"></rect>
        <mask id="mask-2" maskContentUnits="userSpaceOnUse" maskUnits="objectBoundingBox" x="0" y="0" width="150" height="38" fill="white">
            <use xlink:href="#path-1"></use>
        </mask>
        <polygon id="path-3" points="149 13.4765625 177 -2.84217094e-14 177 38 149 51.4765625"></polygon>
        <mask id="mask-4" maskContentUnits="userSpaceOnUse" maskUnits="objectBoundingBox" x="0" y="0" width="28" height="51.4765625" fill="white">
            <use xlink:href="#path-3"></use>
        </mask>
        <polygon id="path-5" points="27 1 177 1 150 14 0 14"></polygon>
        <mask id="mask-6" maskContentUnits="userSpaceOnUse" maskUnits="objectBoundingBox" x="0" y="0" width="177" height="13" fill="white">
            <use xlink:href="#path-5"></use>
        </mask>
        <rect id="path-7" x="0" y="13" width="150" height="38"></rect>
        <mask id="mask-8" maskContentUnits="userSpaceOnUse" maskUnits="objectBoundingBox" x="0" y="0" width="150" height="38" fill="white">
            <use xlink:href="#path-7"></use>
        </mask>
        <polygon id="path-9" points="149 13.4765625 177 -2.84217094e-14 177 38 149 51.4765625"></polygon>
        <mask id="mask-10" maskContentUnits="userSpaceOnUse" maskUnits="objectBoundingBox" x="0" y="0" width="28" height="51.4765625" fill="white">
            <use xlink:href="#path-9"></use>
        </mask>
        <polygon id="path-11" points="27 1 177 1 150 14 0 14"></polygon>
        <mask id="mask-12" maskContentUnits="userSpaceOnUse" maskUnits="objectBoundingBox" x="0" y="0" width="177" height="13" fill="white">
            <use xlink:href="#path-11"></use>
        </mask>
        <rect id="path-13" x="0" y="13" width="150" height="38"></rect>
        <mask id="mask-14" maskContentUnits="userSpaceOnUse" maskUnits="objectBoundingBox" x="0" y="0" width="150" height="38" fill="white">
            <use xlink:href="#path-13"></use>
        </mask>
        <polygon id="path-15" points="149 13.4765625 177 -2.84217094e-14 177 38 149 51.4765625"></polygon>
        <mask id="mask-16" maskContentUnits="userSpaceOnUse" maskUnits="objectBoundingBox" x="0" y="0" width="28" height="51.4765625" fill="white">
            <use xlink:href="#path-15"></use>
        </mask>
        <polygon id="path-17" points="27 1 177 1 150 14 0 14"></polygon>
        <mask id="mask-18" maskContentUnits="userSpaceOnUse" maskUnits="objectBoundingBox" x="0" y="0" width="177" height="13" fill="white">
            <use xlink:href="#path-17"></use>
        </mask>
        <rect id="path-19" x="0" y="13" width="150" height="38"></rect>
        <mask id="mask-20" maskContentUnits="userSpaceOnUse" maskUnits="objectBoundingBox" x="0" y="0" width="150" height="38" fill="white">
            <use xlink:href="#path-19"></use>
        </mask>
        <polygon id="path-21" points="149 13.4765625 177 -2.84217094e-14 177 38 149 51.4765625"></polygon>
        <mask id="mask-22" maskContentUnits="userSpaceOnUse" maskUnits="objectBoundingBox" x="0" y="0" width="28" height="51.4765625" fill="white">
            <use xlink:href="#path-21"></use>
        </mask>
        <polygon id="path-23" points="27 1 177 1 150 14 0 14"></polygon>
        <mask id="mask-24" maskContentUnits="userSpaceOnUse" maskUnits="objectBoundingBox" x="0" y="0" width="177" height="13" fill="white">
            <use xlink:href="#path-23"></use>
        </mask>
        <rect id="path-25" x="0" y="13" width="150" height="38"></rect>
        <mask id="mask-26" maskContentUnits="userSpaceOnUse" maskUnits="objectBoundingBox" x="0" y="0" width="150" height="38" fill="white">
            <use xlink:href="#path-25"></use>
        </mask>
        <polygon id="path-27" points="149 13.4765625 177 -2.84217094e-14 177 38 149 51.4765625"></polygon>
        <mask id="mask-28" maskContentUnits="userSpaceOnUse" maskUnits="objectBoundingBox" x="0" y="0" width="28" height="51.4765625" fill="white">
            <use xlink:href="#path-27"></use>
        </mask>
        <polygon id="path-29" points="27 1 177 1 150 14 0 14"></polygon>
        <mask id="mask-30" maskContentUnits="userSpaceOnUse" maskUnits="objectBoundingBox" x="0" y="0" width="177" height="13" fill="white">
            <use xlink:href="#path-29"></use>
        </mask>
        <rect id="path-31" x="0" y="13" width="150" height="38"></rect>
        <mask id="mask-32" maskContentUnits="userSpaceOnUse" maskUnits="objectBoundingBox" x="0" y="0" width="150" height="38" fill="white">
            <use xlink:href="#path-31"></use>
        </mask>
        <polygon id="path-33" points="149 13.4765625 177 -2.84217094e-14 177 38 149 51.4765625"></polygon>
        <mask id="mask-34" maskContentUnits="userSpaceOnUse" maskUnits="objectBoundingBox" x="0" y="0" width="28" height="51.4765625" fill="white">
            <use xlink:href="#path-33"></use>
        </mask>
        <polygon id="path-35" points="27 1 177 1 150 14 0 14"></polygon>
        <mask id="mask-36" maskContentUnits="userSpaceOnUse" maskUnits="objectBoundingBox" x="0" y="0" width="177" height="13" fill="white">
            <use xlink:href="#path-35"></use>
        </mask>
        <rect id="path-37" x="0" y="13" width="150" height="38"></rect>
        <mask id="mask-38" maskContentUnits="userSpaceOnUse" maskUnits="objectBoundingBox" x="0" y="0" width="150" height="38" fill="white">
            <use xlink:href="#path-37"></use>
        </mask>
        <polygon id="path-39" points="149 13.4765625 177 -2.84217094e-14 177 38 149 51.4765625"></polygon>
        <mask id="mask-40" maskContentUnits="userSpaceOnUse" maskUnits="objectBoundingBox" x="0" y="0" width="28" height="51.4765625" fill="white">
            <use xlink:href="#path-39"></use>
        </mask>
        <polygon id="path-41" points="27 1 177 1 150 14 0 14"></polygon>
        <mask id="mask-42" maskContentUnits="userSpaceOnUse" maskUnits="objectBoundingBox" x="0" y="0" width="177" height="13" fill="white">
            <use xlink:href="#path-41"></use>
        </mask>
        <rect id="path-43" x="0" y="13" width="150" height="38"></rect>
        <mask id="mask-44" maskContentUnits="userSpaceOnUse" maskUnits="objectBoundingBox" x="0" y="0" width="150" height="38" fill="white">
            <use xlink:href="#path-43"></use>
        </mask>
        <polygon id="path-45" points="149 13.4765625 177 -2.84217094e-14 177 38 149 51.4765625"></polygon>
        <mask id="mask-46" maskContentUnits="userSpaceOnUse" maskUnits="objectBoundingBox" x="0" y="0" width="28" height="51.4765625" fill="white">
            <use xlink:href="#path-45"></use>
        </mask>
        <polygon id="path-47" points="27 1 177 1 150 14 0 14"></polygon>
        <mask id="mask-48" maskContentUnits="userSpaceOnUse" maskUnits="objectBoundingBox" x="0" y="0" width="177" height="13" fill="white">
            <use xlink:href="#path-47"></use>
        </mask>
    </defs>
    <g id="1.0" stroke="none" stroke-width="1" fill="none" fill-rule="evenodd">
        <g id="算法实验-实验开发介绍页" transform="translate(-391.000000, -384.000000)">
            <g id="介绍图" transform="translate(290.000000, 245.000000)">
                <g id="流程图" transform="translate(101.000000, 139.000000)">
                    <g id="分组" transform="translate(0.000000, 81.000000)" fill="#2491F7" fill-opacity="0.2" stroke="#2491F7" stroke-dasharray="2" stroke-width="2">
                        <use id="矩形" mask="url(#mask-2)" xlink:href="#path-1"></use>
                        <use id="矩形" mask="url(#mask-4)" xlink:href="#path-3"></use>
                        <use id="矩形" mask="url(#mask-6)" xlink:href="#path-5"></use>
                    </g>
                    <g id="分组" fill="#2491F7" fill-opacity="0.2" stroke="#2491F7" stroke-dasharray="2" stroke-width="2">
                        <use id="矩形" mask="url(#mask-8)" xlink:href="#path-7"></use>
                        <use id="矩形" mask="url(#mask-10)" xlink:href="#path-9"></use>
                        <use id="矩形" mask="url(#mask-12)" xlink:href="#path-11"></use>
                    </g>
                    <g id="分组" transform="translate(0.000000, 162.000000)" fill="#2491F7" fill-opacity="0.2" stroke="#2491F7" stroke-dasharray="2" stroke-width="2">
                        <use id="矩形" mask="url(#mask-14)" xlink:href="#path-13"></use>
                        <use id="矩形" mask="url(#mask-16)" xlink:href="#path-15"></use>
                        <use id="矩形" mask="url(#mask-18)" xlink:href="#path-17"></use>
                    </g>
                    <g id="分组" transform="translate(231.000000, 120.000000)" fill="#2491F7" fill-opacity="0.2" stroke="#2491F7" stroke-dasharray="2" stroke-width="2">
                        <use id="矩形" mask="url(#mask-20)" xlink:href="#path-19"></use>
                        <use id="矩形" mask="url(#mask-22)" xlink:href="#path-21"></use>
                        <use id="矩形" mask="url(#mask-24)" xlink:href="#path-23"></use>
                    </g>
                    <g id="分组" transform="translate(461.000000, 120.000000)" fill="#2491F7" fill-opacity="0.2" stroke="#2491F7" stroke-dasharray="2" stroke-width="2">
                        <use id="矩形" mask="url(#mask-26)" xlink:href="#path-25"></use>
                        <use id="矩形" mask="url(#mask-28)" xlink:href="#path-27"></use>
                        <use id="矩形" mask="url(#mask-30)" xlink:href="#path-29"></use>
                    </g>
                    <g id="分组" transform="translate(461.000000, 199.000000)" fill="#2491F7" fill-opacity="0.2" stroke="#2491F7" stroke-dasharray="2" stroke-width="2">
                        <use id="矩形" mask="url(#mask-32)" xlink:href="#path-31"></use>
                        <use id="矩形" mask="url(#mask-34)" xlink:href="#path-33"></use>
                        <use id="矩形" mask="url(#mask-36)" xlink:href="#path-35"></use>
                    </g>
                    <g id="分组" transform="translate(691.000000, 120.000000)" fill="#2491F7" fill-opacity="0.2" stroke="#2491F7" stroke-dasharray="2" stroke-width="2">
                        <use id="矩形" mask="url(#mask-38)" xlink:href="#path-37"></use>
                        <use id="矩形" mask="url(#mask-40)" xlink:href="#path-39"></use>
                        <use id="矩形" mask="url(#mask-42)" xlink:href="#path-41"></use>
                    </g>
                    <g id="分组" transform="translate(231.000000, 200.000000)" fill="#2491F7" fill-opacity="0.2" stroke="#2491F7" stroke-dasharray="2" stroke-width="2">
                        <use id="矩形" mask="url(#mask-44)" xlink:href="#path-43"></use>
                        <use id="矩形" mask="url(#mask-46)" xlink:href="#path-45"></use>
                        <use id="矩形" mask="url(#mask-48)" xlink:href="#path-47"></use>
                    </g>
                    <text id="创建实验" font-family="PingFangSC-Regular, PingFang SC" font-size="14" font-weight="normal" fill="#2491F7">
                        <tspan x="40" y="37">创建实验</tspan>
                    </text>
                    <text id="实验搭建" font-family="PingFangSC-Regular, PingFang SC" font-size="14" font-weight="normal" fill="#333333">
                        <tspan x="40" y="117">实验搭建</tspan>
                    </text>
                    <text id="运行实验" font-family="PingFangSC-Regular, PingFang SC" font-size="14" font-weight="normal" fill="#333333">
                        <tspan x="40" y="197">运行实验</tspan>
                    </text>
                    <text id="模型训练" font-family="PingFangSC-Regular, PingFang SC" font-size="14" font-weight="normal" fill="#333333">
                        <tspan x="269" y="157">模型训练</tspan>
                    </text>
                    <text id="模型在线部署" font-family="PingFangSC-Regular, PingFang SC" font-size="14" font-weight="normal" fill="#333333">
                        <tspan x="499" y="157">模型在线部署</tspan>
                    </text>
                    <text id="模型在线调用" font-family="PingFangSC-Regular, PingFang SC" font-size="14" font-weight="normal" fill="#333333">
                        <tspan x="729" y="157">模型在线调用</tspan>
                    </text>
                    <text id="实验离线调度" font-family="PingFangSC-Regular, PingFang SC" font-size="14" font-weight="normal" fill="#333333">
                        <tspan x="271" y="237">实验离线调度</tspan>
                    </text>
                    <text id="算法结果输出" font-family="PingFangSC-Regular, PingFang SC" font-size="14" font-weight="normal" fill="#333333">
                        <tspan x="501" y="237">算法结果输出</tspan>
                    </text>
                    <text id="usb---anticon" font-family="anticon" font-size="16" font-weight="400" fill="#2491F7">
                        <tspan x="18" y="38"></tspan>
                    </text>
                    <text id="usb---anticon" font-family="anticon" font-size="16" font-weight="400" fill="#333333">
                        <tspan x="18" y="118"></tspan>
                    </text>
                    <text id="usb---anticon" font-family="anticon" font-size="16" font-weight="400" fill="#333333">
                        <tspan x="18" y="198"></tspan>
                    </text>
                    <text id="usb---anticon" font-family="anticon" font-size="16" font-weight="400" fill="#333333">
                        <tspan x="249" y="238"></tspan>
                    </text>
                    <text id="code-o---anticon" font-family="anticon" font-size="16" font-weight="400" fill="#333333">
                        <tspan x="479" y="238"></tspan>
                    </text>
                    <polygon id="路径-9" fill="#2591F7" fill-rule="nonzero" points="74.5 84.5 74.5 51 75.5 51 75.5 84.5 79.5 84.5 75 93.5 70.5 84.5"></polygon>
                    <polygon id="路径-9" fill="#2591F7" fill-rule="nonzero" points="74.5 164.5 74.5 131 75.5 131 75.5 164.5 79.5 164.5 75 173.5 70.5 164.5"></polygon>
                    <path d="M257.269707,152.459491 C257.085865,152.53828 256.966667,152.71905 256.966667,152.919064 L256.966667,157.276462 C256.966667,157.344175 256.980421,157.411183 257.007094,157.473421 C257.115872,157.727236 257.409811,157.844812 257.663626,157.736034 L262.19696,155.793177 C262.380802,155.714388 262.5,155.533619 262.5,155.333605 L262.5,150.976206 C262.5,150.908493 262.486246,150.841485 262.459573,150.779247 C262.350795,150.525432 262.056855,150.407856 261.80304,150.516634 L257.269707,152.459491 Z M254.730293,152.459491 L250.19696,150.516634 C249.943145,150.407856 249.649205,150.525432 249.540427,150.779247 C249.513754,150.841485 249.5,150.908493 249.5,150.976206 L249.5,155.333605 C249.5,155.533619 249.619198,155.714388 249.80304,155.793177 L254.336374,157.736034 C254.590189,157.844812 254.884128,157.727236 254.992906,157.473421 C255.019579,157.411183 255.033333,157.344175 255.033333,157.276462 L255.033333,152.919064 C255.033333,152.71905 254.914135,152.53828 254.730293,152.459491 Z M256.169307,145.539683 C256.051665,145.493403 255.92086,145.493403 255.803218,145.539683 L250.615202,147.58064 C250.486018,147.631461 250.383777,147.733702 250.332956,147.862886 C250.231863,148.119858 250.358229,148.410127 250.615202,148.51122 L255.803218,150.552177 C255.92086,150.598457 256.051665,150.598457 256.169307,150.552177 L261.357323,148.51122 C261.486508,148.460399 261.588748,148.358158 261.639569,148.228974 C261.740662,147.972002 261.614296,147.681733 261.357323,147.58064 L256.169307,145.539683 Z" id="合并形状" stroke="#333333"></path>
                    <path d="M487.269707,152.459491 C487.085865,152.53828 486.966667,152.71905 486.966667,152.919064 L486.966667,157.276462 C486.966667,157.344175 486.980421,157.411183 487.007094,157.473421 C487.115872,157.727236 487.409811,157.844812 487.663626,157.736034 L492.19696,155.793177 C492.380802,155.714388 492.5,155.533619 492.5,155.333605 L492.5,150.976206 C492.5,150.908493 492.486246,150.841485 492.459573,150.779247 C492.350795,150.525432 492.056855,150.407856 491.80304,150.516634 L487.269707,152.459491 Z M484.730293,152.459491 L480.19696,150.516634 C479.943145,150.407856 479.649205,150.525432 479.540427,150.779247 C479.513754,150.841485 479.5,150.908493 479.5,150.976206 L479.5,155.333605 C479.5,155.533619 479.619198,155.714388 479.80304,155.793177 L484.336374,157.736034 C484.590189,157.844812 484.884128,157.727236 484.992906,157.473421 C485.019579,157.411183 485.033333,157.344175 485.033333,157.276462 L485.033333,152.919064 C485.033333,152.71905 484.914135,152.53828 484.730293,152.459491 Z M486.169307,145.539683 C486.051665,145.493403 485.92086,145.493403 485.803218,145.539683 L480.615202,147.58064 C480.486018,147.631461 480.383777,147.733702 480.332956,147.862886 C480.231863,148.119858 480.358229,148.410127 480.615202,148.51122 L485.803218,150.552177 C485.92086,150.598457 486.051665,150.598457 486.169307,150.552177 L491.357323,148.51122 C491.486508,148.460399 491.588748,148.358158 491.639569,148.228974 C491.740662,147.972002 491.614296,147.681733 491.357323,147.58064 L486.169307,145.539683 Z" id="合并形状" stroke="#333333"></path>
                    <path d="M717.269707,152.459491 C717.085865,152.53828 716.966667,152.71905 716.966667,152.919064 L716.966667,157.276462 C716.966667,157.344175 716.980421,157.411183 717.007094,157.473421 C717.115872,157.727236 717.409811,157.844812 717.663626,157.736034 L722.19696,155.793177 C722.380802,155.714388 722.5,155.533619 722.5,155.333605 L722.5,150.976206 C722.5,150.908493 722.486246,150.841485 722.459573,150.779247 C722.350795,150.525432 722.056855,150.407856 721.80304,150.516634 L717.269707,152.459491 Z M714.730293,152.459491 L710.19696,150.516634 C709.943145,150.407856 709.649205,150.525432 709.540427,150.779247 C709.513754,150.841485 709.5,150.908493 709.5,150.976206 L709.5,155.333605 C709.5,155.533619 709.619198,155.714388 709.80304,155.793177 L714.336374,157.736034 C714.590189,157.844812 714.884128,157.727236 714.992906,157.473421 C715.019579,157.411183 715.033333,157.344175 715.033333,157.276462 L715.033333,152.919064 C715.033333,152.71905 714.914135,152.53828 714.730293,152.459491 Z M716.169307,145.539683 C716.051665,145.493403 715.92086,145.493403 715.803218,145.539683 L710.615202,147.58064 C710.486018,147.631461 710.383777,147.733702 710.332956,147.862886 C710.231863,148.119858 710.358229,148.410127 710.615202,148.51122 L715.803218,150.552177 C715.92086,150.598457 716.051665,150.598457 716.169307,150.552177 L721.357323,148.51122 C721.486508,148.460399 721.588748,148.358158 721.639569,148.228974 C721.740662,147.972002 721.614296,147.681733 721.357323,147.58064 L716.169307,145.539683 Z" id="合并形状" stroke="#333333"></path>
                    <path d="M222.5,152.5 L201.976562,152.5 L201.976562,189 C201.976562,190.932997 200.409559,192.5 198.476562,192.5 L177,192.5 L177,191.5 L198.476562,191.5 C199.857274,191.5 200.976562,190.380712 200.976562,189 L200.976562,151.5 L222.5,151.5 L222.5,147.5 L231.5,152 L222.5,156.5 L222.5,152.5 Z" id="路径-10" fill="#2491F7" fill-rule="nonzero"></path>
                    <path d="M222.5,196.5 L201.976562,196.5 L201.976562,233 C201.976562,234.932997 200.409559,236.5 198.476562,236.5 L177,236.5 L177,235.5 L198.476562,235.5 C199.857274,235.5 200.976562,234.380712 200.976562,233 L200.976562,195.5 L222.5,195.5 L222.5,191.5 L231.5,196 L222.5,200.5 L222.5,196.5 Z" id="路径-10" fill="#2491F7" fill-rule="nonzero" transform="translate(204.250000, 214.000000) scale(1, -1) translate(-204.250000, -214.000000) "></path>
                    <polygon id="路径-11" fill="#2491F7" fill-rule="nonzero" points="452.5 152.5 381 152.5 381 151.5 452.5 151.5 452.5 147.5 461.5 152 452.5 156.5"></polygon>
                    <polygon id="路径-11" fill="#2491F7" fill-rule="nonzero" points="682.5 152.5 611 152.5 611 151.5 682.5 151.5 682.5 147.5 691.5 152 682.5 156.5"></polygon>
                    <polygon id="路径-11" fill="#2491F7" fill-rule="nonzero" points="452.5 233 381 233 381 232 452.5 232 452.5 228 461.5 232.5 452.5 237"></polygon>
                </g>
            </g>
        </g>
    </g>
</svg>