<?xml version="1.0" encoding="UTF-8"?>
<svg width="868px" height="252px" viewBox="0 0 868 252" version="1.1" xmlns="http://www.w3.org/2000/svg" xmlns:xlink="http://www.w3.org/1999/xlink">
    <!-- Generator: Sketch 54.1 (76490) - https://sketchapp.com -->
    <title>流程图02</title>
    <desc>Created with Sketch.</desc>
    <defs>
        <rect id="path-1" x="0" y="13" width="150" height="38"></rect>
        <mask id="mask-2" maskContentUnits="userSpaceOnUse" maskUnits="objectBoundingBox" x="0" y="0" width="150" height="38" fill="white">
            <use xlink:href="#path-1"></use>
        </mask>
        <polygon id="path-3" points="149 13.4765625 177 -2.84217094e-14 177 38 149 51.4765625"></polygon>
        <mask id="mask-4" maskContentUnits="userSpaceOnUse" maskUnits="objectBoundingBox" x="0" y="0" width="28" height="51.4765625" fill="white">
            <use xlink:href="#path-3"></use>
        </mask>
        <polygon id="path-5" points="27 1 177 1 150 14 0 14"></polygon>
        <mask id="mask-6" maskContentUnits="userSpaceOnUse" maskUnits="objectBoundingBox" x="0" y="0" width="177" height="13" fill="white">
            <use xlink:href="#path-5"></use>
        </mask>
        <rect id="path-7" x="0" y="13" width="150" height="38"></rect>
        <mask id="mask-8" maskContentUnits="userSpaceOnUse" maskUnits="objectBoundingBox" x="0" y="0" width="150" height="38" fill="white">
            <use xlink:href="#path-7"></use>
        </mask>
        <polygon id="path-9" points="149 13.4765625 177 -2.84217094e-14 177 38 149 51.4765625"></polygon>
        <mask id="mask-10" maskContentUnits="userSpaceOnUse" maskUnits="objectBoundingBox" x="0" y="0" width="28" height="51.4765625" fill="white">
            <use xlink:href="#path-9"></use>
        </mask>
        <polygon id="path-11" points="27 1 177 1 150 14 0 14"></polygon>
        <mask id="mask-12" maskContentUnits="userSpaceOnUse" maskUnits="objectBoundingBox" x="0" y="0" width="177" height="13" fill="white">
            <use xlink:href="#path-11"></use>
        </mask>
        <rect id="path-13" x="0" y="13" width="150" height="38"></rect>
        <mask id="mask-14" maskContentUnits="userSpaceOnUse" maskUnits="objectBoundingBox" x="0" y="0" width="150" height="38" fill="white">
            <use xlink:href="#path-13"></use>
        </mask>
        <polygon id="path-15" points="149 13.4765625 177 -2.84217094e-14 177 38 149 51.4765625"></polygon>
        <mask id="mask-16" maskContentUnits="userSpaceOnUse" maskUnits="objectBoundingBox" x="0" y="0" width="28" height="51.4765625" fill="white">
            <use xlink:href="#path-15"></use>
        </mask>
        <polygon id="path-17" points="27 1 177 1 150 14 0 14"></polygon>
        <mask id="mask-18" maskContentUnits="userSpaceOnUse" maskUnits="objectBoundingBox" x="0" y="0" width="177" height="13" fill="white">
            <use xlink:href="#path-17"></use>
        </mask>
        <rect id="path-19" x="0" y="13" width="150" height="38"></rect>
        <mask id="mask-20" maskContentUnits="userSpaceOnUse" maskUnits="objectBoundingBox" x="0" y="0" width="150" height="38" fill="white">
            <use xlink:href="#path-19"></use>
        </mask>
        <polygon id="path-21" points="149 13.4765625 177 -2.84217094e-14 177 38 149 51.4765625"></polygon>
        <mask id="mask-22" maskContentUnits="userSpaceOnUse" maskUnits="objectBoundingBox" x="0" y="0" width="28" height="51.4765625" fill="white">
            <use xlink:href="#path-21"></use>
        </mask>
        <polygon id="path-23" points="27 1 177 1 150 14 0 14"></polygon>
        <mask id="mask-24" maskContentUnits="userSpaceOnUse" maskUnits="objectBoundingBox" x="0" y="0" width="177" height="13" fill="white">
            <use xlink:href="#path-23"></use>
        </mask>
        <rect id="path-25" x="0" y="13" width="150" height="38"></rect>
        <mask id="mask-26" maskContentUnits="userSpaceOnUse" maskUnits="objectBoundingBox" x="0" y="0" width="150" height="38" fill="white">
            <use xlink:href="#path-25"></use>
        </mask>
        <polygon id="path-27" points="149 13.4765625 177 -2.84217094e-14 177 38 149 51.4765625"></polygon>
        <mask id="mask-28" maskContentUnits="userSpaceOnUse" maskUnits="objectBoundingBox" x="0" y="0" width="28" height="51.4765625" fill="white">
            <use xlink:href="#path-27"></use>
        </mask>
        <polygon id="path-29" points="27 1 177 1 150 14 0 14"></polygon>
        <mask id="mask-30" maskContentUnits="userSpaceOnUse" maskUnits="objectBoundingBox" x="0" y="0" width="177" height="13" fill="white">
            <use xlink:href="#path-29"></use>
        </mask>
        <rect id="path-31" x="0" y="13" width="150" height="38"></rect>
        <mask id="mask-32" maskContentUnits="userSpaceOnUse" maskUnits="objectBoundingBox" x="0" y="0" width="150" height="38" fill="white">
            <use xlink:href="#path-31"></use>
        </mask>
        <polygon id="path-33" points="149 13.4765625 177 -2.84217094e-14 177 38 149 51.4765625"></polygon>
        <mask id="mask-34" maskContentUnits="userSpaceOnUse" maskUnits="objectBoundingBox" x="0" y="0" width="28" height="51.4765625" fill="white">
            <use xlink:href="#path-33"></use>
        </mask>
        <polygon id="path-35" points="27 1 177 1 150 14 0 14"></polygon>
        <mask id="mask-36" maskContentUnits="userSpaceOnUse" maskUnits="objectBoundingBox" x="0" y="0" width="177" height="13" fill="white">
            <use xlink:href="#path-35"></use>
        </mask>
        <rect id="path-37" x="0" y="13" width="150" height="38"></rect>
        <mask id="mask-38" maskContentUnits="userSpaceOnUse" maskUnits="objectBoundingBox" x="0" y="0" width="150" height="38" fill="white">
            <use xlink:href="#path-37"></use>
        </mask>
        <polygon id="path-39" points="149 13.4765625 177 -2.84217094e-14 177 38 149 51.4765625"></polygon>
        <mask id="mask-40" maskContentUnits="userSpaceOnUse" maskUnits="objectBoundingBox" x="0" y="0" width="28" height="51.4765625" fill="white">
            <use xlink:href="#path-39"></use>
        </mask>
        <polygon id="path-41" points="27 1 177 1 150 14 0 14"></polygon>
        <mask id="mask-42" maskContentUnits="userSpaceOnUse" maskUnits="objectBoundingBox" x="0" y="0" width="177" height="13" fill="white">
            <use xlink:href="#path-41"></use>
        </mask>
        <rect id="path-43" x="0" y="13" width="150" height="38"></rect>
        <mask id="mask-44" maskContentUnits="userSpaceOnUse" maskUnits="objectBoundingBox" x="0" y="0" width="150" height="38" fill="white">
            <use xlink:href="#path-43"></use>
        </mask>
        <polygon id="path-45" points="149 13.4765625 177 -2.84217094e-14 177 38 149 51.4765625"></polygon>
        <mask id="mask-46" maskContentUnits="userSpaceOnUse" maskUnits="objectBoundingBox" x="0" y="0" width="28" height="51.4765625" fill="white">
            <use xlink:href="#path-45"></use>
        </mask>
        <polygon id="path-47" points="27 1 177 1 150 14 0 14"></polygon>
        <mask id="mask-48" maskContentUnits="userSpaceOnUse" maskUnits="objectBoundingBox" x="0" y="0" width="177" height="13" fill="white">
            <use xlink:href="#path-47"></use>
        </mask>
    </defs>
    <g id="1.0" stroke="none" stroke-width="1" fill="none" fill-rule="evenodd">
        <g id="流程图02">
            <g id="分组" transform="translate(0.000000, 81.000000)" fill="#2491F7" fill-opacity="0.2" stroke="#2491F7" stroke-dasharray="2" stroke-width="2">
                <use id="矩形" mask="url(#mask-2)" xlink:href="#path-1"></use>
                <use id="矩形" mask="url(#mask-4)" xlink:href="#path-3"></use>
                <use id="矩形" mask="url(#mask-6)" xlink:href="#path-5"></use>
            </g>
            <g id="分组" fill="#2491F7" fill-opacity="0.2" stroke="#2491F7" stroke-dasharray="2" stroke-width="2">
                <use id="矩形" mask="url(#mask-8)" xlink:href="#path-7"></use>
                <use id="矩形" mask="url(#mask-10)" xlink:href="#path-9"></use>
                <use id="矩形" mask="url(#mask-12)" xlink:href="#path-11"></use>
            </g>
            <g id="分组" transform="translate(0.000000, 162.000000)" fill="#2491F7" fill-opacity="0.2" stroke="#2491F7" stroke-dasharray="2" stroke-width="2">
                <use id="矩形" mask="url(#mask-14)" xlink:href="#path-13"></use>
                <use id="矩形" mask="url(#mask-16)" xlink:href="#path-15"></use>
                <use id="矩形" mask="url(#mask-18)" xlink:href="#path-17"></use>
            </g>
            <g id="分组" transform="translate(231.000000, 120.000000)" fill="#2491F7" fill-opacity="0.2" stroke="#2491F7" stroke-dasharray="2" stroke-width="2">
                <use id="矩形" mask="url(#mask-20)" xlink:href="#path-19"></use>
                <use id="矩形" mask="url(#mask-22)" xlink:href="#path-21"></use>
                <use id="矩形" mask="url(#mask-24)" xlink:href="#path-23"></use>
            </g>
            <g id="分组" transform="translate(461.000000, 120.000000)" fill="#2491F7" fill-opacity="0.2" stroke="#2491F7" stroke-dasharray="2" stroke-width="2">
                <use id="矩形" mask="url(#mask-26)" xlink:href="#path-25"></use>
                <use id="矩形" mask="url(#mask-28)" xlink:href="#path-27"></use>
                <use id="矩形" mask="url(#mask-30)" xlink:href="#path-29"></use>
            </g>
            <g id="分组" transform="translate(461.000000, 199.000000)" fill="#2491F7" fill-opacity="0.2" stroke="#2491F7" stroke-dasharray="2" stroke-width="2">
                <use id="矩形" mask="url(#mask-32)" xlink:href="#path-31"></use>
                <use id="矩形" mask="url(#mask-34)" xlink:href="#path-33"></use>
                <use id="矩形" mask="url(#mask-36)" xlink:href="#path-35"></use>
            </g>
            <g id="分组" transform="translate(691.000000, 120.000000)" fill="#2491F7" fill-opacity="0.2" stroke="#2491F7" stroke-dasharray="2" stroke-width="2">
                <use id="矩形" mask="url(#mask-38)" xlink:href="#path-37"></use>
                <use id="矩形" mask="url(#mask-40)" xlink:href="#path-39"></use>
                <use id="矩形" mask="url(#mask-42)" xlink:href="#path-41"></use>
            </g>
            <g id="分组" transform="translate(231.000000, 200.000000)" fill="#2491F7" fill-opacity="0.2" stroke="#2491F7" stroke-dasharray="2" stroke-width="2">
                <use id="矩形" mask="url(#mask-44)" xlink:href="#path-43"></use>
                <use id="矩形" mask="url(#mask-46)" xlink:href="#path-45"></use>
                <use id="矩形" mask="url(#mask-48)" xlink:href="#path-47"></use>
            </g>
            <text id="创建实验" font-family="PingFangSC-Regular, PingFang SC" font-size="14" font-weight="normal" fill="#2491F7">
                <tspan x="40" y="37">创建实验</tspan>
            </text>
            <text id="实验搭建" font-family="PingFangSC-Regular, PingFang SC" font-size="14" font-weight="normal" fill="#333333">
                <tspan x="40" y="117">实验搭建</tspan>
            </text>
            <text id="运行实验" font-family="PingFangSC-Regular, PingFang SC" font-size="14" font-weight="normal" fill="#333333">
                <tspan x="40" y="197">运行实验</tspan>
            </text>
            <text id="模型训练" font-family="PingFangSC-Regular, PingFang SC" font-size="14" font-weight="normal" fill="#333333">
                <tspan x="269" y="157">模型训练</tspan>
            </text>
            <text id="模型在线部署" font-family="PingFangSC-Regular, PingFang SC" font-size="14" font-weight="normal" fill="#333333">
                <tspan x="499" y="157">模型在线部署</tspan>
            </text>
            <text id="模型在线调用" font-family="PingFangSC-Regular, PingFang SC" font-size="14" font-weight="normal" fill="#333333">
                <tspan x="729" y="157">模型在线调用</tspan>
            </text>
            <text id="实验离线调度" font-family="PingFangSC-Regular, PingFang SC" font-size="14" font-weight="normal" fill="#333333">
                <tspan x="271" y="237">实验离线调度</tspan>
            </text>
            <text id="算法结果输出" font-family="PingFangSC-Regular, PingFang SC" font-size="14" font-weight="normal" fill="#333333">
                <tspan x="501" y="237">算法结果输出</tspan>
            </text>
            <path d="M30,27 L33,27 L33,30 L32,30 L32,32.15625 C32,32.4687516 31.8906261,32.7343739 31.671875,32.953125 C31.4531239,33.1718761 31.1875016,33.28125 30.875,33.28125 L26.5625,33.28125 L26.5625,36.109375 C26.8437514,36.2239589 27.0703116,36.4062488 27.2421875,36.65625 C27.4140634,36.9062512 27.5,37.1874984 27.5,37.5 C27.5,37.9166687 27.3541681,38.2708319 27.0625,38.5625 C26.7708319,38.8541681 26.4166687,39 26,39 C25.5833313,39 25.2291681,38.8541681 24.9375,38.5625 C24.6458319,38.2708319 24.5,37.9166687 24.5,37.5 C24.5,37.1874984 24.5859366,36.9062512 24.7578125,36.65625 C24.9296884,36.4062488 25.1562486,36.2239589 25.4375,36.109375 L25.4375,35 L21.125,35 C20.8124984,35 20.5468761,34.8906261 20.328125,34.671875 C20.1093739,34.4531239 20,34.1875016 20,33.875 L20,31.90625 C19.7083319,31.8124995 19.4687509,31.635418 19.28125,31.375 C19.0937491,31.114582 19,30.8229183 19,30.5 C19,30.0833313 19.1458319,29.7291681 19.4375,29.4375 C19.7291681,29.1458319 20.0833313,29 20.5,29 C20.9166687,29 21.2708319,29.1458319 21.5625,29.4375 C21.8541681,29.7291681 22,30.0833313 22,30.5 C22,30.6666675 21.9687503,30.8333325 21.90625,31 C21.7708327,31.3958353 21.5104186,31.6822908 21.125,31.859375 L21.125,33.875 L25.4375,33.875 L25.4375,27 L24.5,27 L26,25 L27.5,27 L26.5625,27 L26.5625,32.15625 L30.875,32.15625 L30.875,30 L30,30 L30,27 Z M20.765625,30.765625 C20.838542,30.692708 20.875,30.6041672 20.875,30.5 C20.875,30.3958328 20.838542,30.307292 20.765625,30.234375 C20.692708,30.161458 20.6041672,30.125 20.5,30.125 C20.3958328,30.125 20.307292,30.161458 20.234375,30.234375 C20.161458,30.307292 20.125,30.3958328 20.125,30.5 C20.125,30.6041672 20.161458,30.692708 20.234375,30.765625 C20.307292,30.838542 20.3958328,30.875 20.5,30.875 C20.6041672,30.875 20.692708,30.838542 20.765625,30.765625 Z M31.875,28.875 L31.875,28.125 L31.125,28.125 L31.125,28.875 L31.875,28.875 Z" id="" fill="#2491F7" fill-rule="nonzero"></path>
            <path d="M30,107 L33,107 L33,110 L32,110 L32,112.15625 C32,112.468752 31.8906261,112.734374 31.671875,112.953125 C31.4531239,113.171876 31.1875016,113.28125 30.875,113.28125 L26.5625,113.28125 L26.5625,116.109375 C26.8437514,116.223959 27.0703116,116.406249 27.2421875,116.65625 C27.4140634,116.906251 27.5,117.187498 27.5,117.5 C27.5,117.916669 27.3541681,118.270832 27.0625,118.5625 C26.7708319,118.854168 26.4166687,119 26,119 C25.5833313,119 25.2291681,118.854168 24.9375,118.5625 C24.6458319,118.270832 24.5,117.916669 24.5,117.5 C24.5,117.187498 24.5859366,116.906251 24.7578125,116.65625 C24.9296884,116.406249 25.1562486,116.223959 25.4375,116.109375 L25.4375,115 L21.125,115 C20.8124984,115 20.5468761,114.890626 20.328125,114.671875 C20.1093739,114.453124 20,114.187502 20,113.875 L20,111.90625 C19.7083319,111.8125 19.4687509,111.635418 19.28125,111.375 C19.0937491,111.114582 19,110.822918 19,110.5 C19,110.083331 19.1458319,109.729168 19.4375,109.4375 C19.7291681,109.145832 20.0833313,109 20.5,109 C20.9166687,109 21.2708319,109.145832 21.5625,109.4375 C21.8541681,109.729168 22,110.083331 22,110.5 C22,110.666668 21.9687503,110.833332 21.90625,111 C21.7708327,111.395835 21.5104186,111.682291 21.125,111.859375 L21.125,113.875 L25.4375,113.875 L25.4375,107 L24.5,107 L26,105 L27.5,107 L26.5625,107 L26.5625,112.15625 L30.875,112.15625 L30.875,110 L30,110 L30,107 Z M20.765625,110.765625 C20.838542,110.692708 20.875,110.604167 20.875,110.5 C20.875,110.395833 20.838542,110.307292 20.765625,110.234375 C20.692708,110.161458 20.6041672,110.125 20.5,110.125 C20.3958328,110.125 20.307292,110.161458 20.234375,110.234375 C20.161458,110.307292 20.125,110.395833 20.125,110.5 C20.125,110.604167 20.161458,110.692708 20.234375,110.765625 C20.307292,110.838542 20.3958328,110.875 20.5,110.875 C20.6041672,110.875 20.692708,110.838542 20.765625,110.765625 Z M31.875,108.875 L31.875,108.125 L31.125,108.125 L31.125,108.875 L31.875,108.875 Z" id="" fill="#333333" fill-rule="nonzero"></path>
            <path d="M30,187 L33,187 L33,190 L32,190 L32,192.15625 C32,192.468752 31.8906261,192.734374 31.671875,192.953125 C31.4531239,193.171876 31.1875016,193.28125 30.875,193.28125 L26.5625,193.28125 L26.5625,196.109375 C26.8437514,196.223959 27.0703116,196.406249 27.2421875,196.65625 C27.4140634,196.906251 27.5,197.187498 27.5,197.5 C27.5,197.916669 27.3541681,198.270832 27.0625,198.5625 C26.7708319,198.854168 26.4166687,199 26,199 C25.5833313,199 25.2291681,198.854168 24.9375,198.5625 C24.6458319,198.270832 24.5,197.916669 24.5,197.5 C24.5,197.187498 24.5859366,196.906251 24.7578125,196.65625 C24.9296884,196.406249 25.1562486,196.223959 25.4375,196.109375 L25.4375,195 L21.125,195 C20.8124984,195 20.5468761,194.890626 20.328125,194.671875 C20.1093739,194.453124 20,194.187502 20,193.875 L20,191.90625 C19.7083319,191.8125 19.4687509,191.635418 19.28125,191.375 C19.0937491,191.114582 19,190.822918 19,190.5 C19,190.083331 19.1458319,189.729168 19.4375,189.4375 C19.7291681,189.145832 20.0833313,189 20.5,189 C20.9166687,189 21.2708319,189.145832 21.5625,189.4375 C21.8541681,189.729168 22,190.083331 22,190.5 C22,190.666667 21.9687503,190.833333 21.90625,191 C21.7708327,191.395835 21.5104186,191.682291 21.125,191.859375 L21.125,193.875 L25.4375,193.875 L25.4375,187 L24.5,187 L26,185 L27.5,187 L26.5625,187 L26.5625,192.15625 L30.875,192.15625 L30.875,190 L30,190 L30,187 Z M20.765625,190.765625 C20.838542,190.692708 20.875,190.604167 20.875,190.5 C20.875,190.395833 20.838542,190.307292 20.765625,190.234375 C20.692708,190.161458 20.6041672,190.125 20.5,190.125 C20.3958328,190.125 20.307292,190.161458 20.234375,190.234375 C20.161458,190.307292 20.125,190.395833 20.125,190.5 C20.125,190.604167 20.161458,190.692708 20.234375,190.765625 C20.307292,190.838542 20.3958328,190.875 20.5,190.875 C20.6041672,190.875 20.692708,190.838542 20.765625,190.765625 Z M31.875,188.875 L31.875,188.125 L31.125,188.125 L31.125,188.875 L31.875,188.875 Z" id="" fill="#333333" fill-rule="nonzero"></path>
            <path d="M261,227 L264,227 L264,230 L263,230 L263,232.15625 C263,232.468752 262.890626,232.734374 262.671875,232.953125 C262.453124,233.171876 262.187502,233.28125 261.875,233.28125 L257.5625,233.28125 L257.5625,236.109375 C257.843751,236.223959 258.070312,236.406249 258.242188,236.65625 C258.414063,236.906251 258.5,237.187498 258.5,237.5 C258.5,237.916669 258.354168,238.270832 258.0625,238.5625 C257.770832,238.854168 257.416669,239 257,239 C256.583331,239 256.229168,238.854168 255.9375,238.5625 C255.645832,238.270832 255.5,237.916669 255.5,237.5 C255.5,237.187498 255.585937,236.906251 255.757812,236.65625 C255.929688,236.406249 256.156249,236.223959 256.4375,236.109375 L256.4375,235 L252.125,235 C251.812498,235 251.546876,234.890626 251.328125,234.671875 C251.109374,234.453124 251,234.187502 251,233.875 L251,231.90625 C250.708332,231.8125 250.468751,231.635418 250.28125,231.375 C250.093749,231.114582 250,230.822918 250,230.5 C250,230.083331 250.145832,229.729168 250.4375,229.4375 C250.729168,229.145832 251.083331,229 251.5,229 C251.916669,229 252.270832,229.145832 252.5625,229.4375 C252.854168,229.729168 253,230.083331 253,230.5 C253,230.666667 252.96875,230.833333 252.90625,231 C252.770833,231.395835 252.510419,231.682291 252.125,231.859375 L252.125,233.875 L256.4375,233.875 L256.4375,227 L255.5,227 L257,225 L258.5,227 L257.5625,227 L257.5625,232.15625 L261.875,232.15625 L261.875,230 L261,230 L261,227 Z M251.765625,230.765625 C251.838542,230.692708 251.875,230.604167 251.875,230.5 C251.875,230.395833 251.838542,230.307292 251.765625,230.234375 C251.692708,230.161458 251.604167,230.125 251.5,230.125 C251.395833,230.125 251.307292,230.161458 251.234375,230.234375 C251.161458,230.307292 251.125,230.395833 251.125,230.5 C251.125,230.604167 251.161458,230.692708 251.234375,230.765625 C251.307292,230.838542 251.395833,230.875 251.5,230.875 C251.604167,230.875 251.692708,230.838542 251.765625,230.765625 Z M262.875,228.875 L262.875,228.125 L262.125,228.125 L262.125,228.875 L262.875,228.875 Z" id="" fill="#333333" fill-rule="nonzero"></path>
            <path d="M492.875,225 C493.187502,225 493.455728,225.109374 493.679688,225.328125 C493.903647,225.546876 494.015625,225.812498 494.015625,226.125 L494.015625,237.890625 C494.015625,238.19271 493.903647,238.455728 493.679688,238.679688 C493.455728,238.903647 493.19271,239.015625 492.890625,239.015625 L481.125,239.015625 C480.812498,239.015625 480.546876,238.903647 480.328125,238.679688 C480.109374,238.455728 480,238.19271 480,237.890625 L480,226.125 C480,225.812498 480.109374,225.546876 480.328125,225.328125 C480.546876,225.109374 480.812498,225 481.125,225 L492.875,225 Z M492.875,237.890625 L492.875,226.125 L481.125,226.125 L481.125,237.890625 L492.875,237.890625 Z M482.015625,232.015625 C482.015625,231.859374 482.067708,231.723959 482.171875,231.609375 L483.96875,229.8125 L482.171875,227.984375 C482.067708,227.869791 482.015625,227.73698 482.015625,227.585938 C482.015625,227.434895 482.070312,227.304688 482.179688,227.195312 C482.289063,227.085937 482.421874,227.03125 482.578125,227.03125 C482.734376,227.03125 482.864583,227.083333 482.96875,227.1875 L485.171875,229.40625 C485.276042,229.520834 485.328125,229.656249 485.328125,229.8125 C485.328125,229.968751 485.270834,230.098958 485.15625,230.203125 L482.96875,232.40625 C482.864583,232.520834 482.734376,232.578125 482.578125,232.578125 C482.421874,232.578125 482.289063,232.523438 482.179688,232.414062 C482.070312,232.304687 482.015625,232.171876 482.015625,232.015625 Z M485.140625,231.609375 C485.255209,231.494791 485.390624,231.4375 485.546875,231.4375 L488.65625,231.453125 C488.802084,231.453125 488.932291,231.507812 489.046875,231.617188 C489.161459,231.726563 489.21875,231.859374 489.21875,232.015625 C489.21875,232.171876 489.161459,232.304687 489.046875,232.414062 C488.932291,232.523438 488.802084,232.578125 488.65625,232.578125 L488.640625,232.578125 L485.53125,232.5625 C485.385416,232.5625 485.257813,232.507813 485.148438,232.398438 C485.039062,232.289062 484.984375,232.156251 484.984375,232 C484.984375,231.843749 485.036458,231.713542 485.140625,231.609375 Z" id="" fill="#333333" fill-rule="nonzero"></path>
            <polygon id="路径-9" fill="#2591F7" fill-rule="nonzero" points="74.5 84.5 74.5 51 75.5 51 75.5 84.5 79.5 84.5 75 93.5 70.5 84.5"></polygon>
            <polygon id="路径-9" fill="#2591F7" fill-rule="nonzero" points="74.5 164.5 74.5 131 75.5 131 75.5 164.5 79.5 164.5 75 173.5 70.5 164.5"></polygon>
            <path d="M257.269707,152.459491 C257.085865,152.53828 256.966667,152.71905 256.966667,152.919064 L256.966667,157.276462 C256.966667,157.344175 256.980421,157.411183 257.007094,157.473421 C257.115872,157.727236 257.409811,157.844812 257.663626,157.736034 L262.19696,155.793177 C262.380802,155.714388 262.5,155.533619 262.5,155.333605 L262.5,150.976206 C262.5,150.908493 262.486246,150.841485 262.459573,150.779247 C262.350795,150.525432 262.056855,150.407856 261.80304,150.516634 L257.269707,152.459491 Z M254.730293,152.459491 L250.19696,150.516634 C249.943145,150.407856 249.649205,150.525432 249.540427,150.779247 C249.513754,150.841485 249.5,150.908493 249.5,150.976206 L249.5,155.333605 C249.5,155.533619 249.619198,155.714388 249.80304,155.793177 L254.336374,157.736034 C254.590189,157.844812 254.884128,157.727236 254.992906,157.473421 C255.019579,157.411183 255.033333,157.344175 255.033333,157.276462 L255.033333,152.919064 C255.033333,152.71905 254.914135,152.53828 254.730293,152.459491 Z M256.169307,145.539683 C256.051665,145.493403 255.92086,145.493403 255.803218,145.539683 L250.615202,147.58064 C250.486018,147.631461 250.383777,147.733702 250.332956,147.862886 C250.231863,148.119858 250.358229,148.410127 250.615202,148.51122 L255.803218,150.552177 C255.92086,150.598457 256.051665,150.598457 256.169307,150.552177 L261.357323,148.51122 C261.486508,148.460399 261.588748,148.358158 261.639569,148.228974 C261.740662,147.972002 261.614296,147.681733 261.357323,147.58064 L256.169307,145.539683 Z" id="合并形状" stroke="#333333"></path>
            <path d="M487.269707,152.459491 C487.085865,152.53828 486.966667,152.71905 486.966667,152.919064 L486.966667,157.276462 C486.966667,157.344175 486.980421,157.411183 487.007094,157.473421 C487.115872,157.727236 487.409811,157.844812 487.663626,157.736034 L492.19696,155.793177 C492.380802,155.714388 492.5,155.533619 492.5,155.333605 L492.5,150.976206 C492.5,150.908493 492.486246,150.841485 492.459573,150.779247 C492.350795,150.525432 492.056855,150.407856 491.80304,150.516634 L487.269707,152.459491 Z M484.730293,152.459491 L480.19696,150.516634 C479.943145,150.407856 479.649205,150.525432 479.540427,150.779247 C479.513754,150.841485 479.5,150.908493 479.5,150.976206 L479.5,155.333605 C479.5,155.533619 479.619198,155.714388 479.80304,155.793177 L484.336374,157.736034 C484.590189,157.844812 484.884128,157.727236 484.992906,157.473421 C485.019579,157.411183 485.033333,157.344175 485.033333,157.276462 L485.033333,152.919064 C485.033333,152.71905 484.914135,152.53828 484.730293,152.459491 Z M486.169307,145.539683 C486.051665,145.493403 485.92086,145.493403 485.803218,145.539683 L480.615202,147.58064 C480.486018,147.631461 480.383777,147.733702 480.332956,147.862886 C480.231863,148.119858 480.358229,148.410127 480.615202,148.51122 L485.803218,150.552177 C485.92086,150.598457 486.051665,150.598457 486.169307,150.552177 L491.357323,148.51122 C491.486508,148.460399 491.588748,148.358158 491.639569,148.228974 C491.740662,147.972002 491.614296,147.681733 491.357323,147.58064 L486.169307,145.539683 Z" id="合并形状" stroke="#333333"></path>
            <path d="M717.269707,152.459491 C717.085865,152.53828 716.966667,152.71905 716.966667,152.919064 L716.966667,157.276462 C716.966667,157.344175 716.980421,157.411183 717.007094,157.473421 C717.115872,157.727236 717.409811,157.844812 717.663626,157.736034 L722.19696,155.793177 C722.380802,155.714388 722.5,155.533619 722.5,155.333605 L722.5,150.976206 C722.5,150.908493 722.486246,150.841485 722.459573,150.779247 C722.350795,150.525432 722.056855,150.407856 721.80304,150.516634 L717.269707,152.459491 Z M714.730293,152.459491 L710.19696,150.516634 C709.943145,150.407856 709.649205,150.525432 709.540427,150.779247 C709.513754,150.841485 709.5,150.908493 709.5,150.976206 L709.5,155.333605 C709.5,155.533619 709.619198,155.714388 709.80304,155.793177 L714.336374,157.736034 C714.590189,157.844812 714.884128,157.727236 714.992906,157.473421 C715.019579,157.411183 715.033333,157.344175 715.033333,157.276462 L715.033333,152.919064 C715.033333,152.71905 714.914135,152.53828 714.730293,152.459491 Z M716.169307,145.539683 C716.051665,145.493403 715.92086,145.493403 715.803218,145.539683 L710.615202,147.58064 C710.486018,147.631461 710.383777,147.733702 710.332956,147.862886 C710.231863,148.119858 710.358229,148.410127 710.615202,148.51122 L715.803218,150.552177 C715.92086,150.598457 716.051665,150.598457 716.169307,150.552177 L721.357323,148.51122 C721.486508,148.460399 721.588748,148.358158 721.639569,148.228974 C721.740662,147.972002 721.614296,147.681733 721.357323,147.58064 L716.169307,145.539683 Z" id="合并形状" stroke="#333333"></path>
            <path d="M222.5,152.5 L201.976562,152.5 L201.976562,189 C201.976562,190.932997 200.409559,192.5 198.476562,192.5 L177,192.5 L177,191.5 L198.476562,191.5 C199.857274,191.5 200.976562,190.380712 200.976562,189 L200.976562,151.5 L222.5,151.5 L222.5,147.5 L231.5,152 L222.5,156.5 L222.5,152.5 Z" id="路径-10" fill="#2491F7" fill-rule="nonzero"></path>
            <path d="M222.5,196.5 L201.976562,196.5 L201.976562,233 C201.976562,234.932997 200.409559,236.5 198.476562,236.5 L177,236.5 L177,235.5 L198.476562,235.5 C199.857274,235.5 200.976562,234.380712 200.976562,233 L200.976562,195.5 L222.5,195.5 L222.5,191.5 L231.5,196 L222.5,200.5 L222.5,196.5 Z" id="路径-10" fill="#2491F7" fill-rule="nonzero" transform="translate(204.250000, 214.000000) scale(1, -1) translate(-204.250000, -214.000000) "></path>
            <polygon id="路径-11" fill="#2491F7" fill-rule="nonzero" points="452.5 152.5 381 152.5 381 151.5 452.5 151.5 452.5 147.5 461.5 152 452.5 156.5"></polygon>
            <polygon id="路径-11" fill="#2491F7" fill-rule="nonzero" points="682.5 152.5 611 152.5 611 151.5 682.5 151.5 682.5 147.5 691.5 152 682.5 156.5"></polygon>
            <polygon id="路径-11" fill="#2491F7" fill-rule="nonzero" points="452.5 233 381 233 381 232 452.5 232 452.5 228 461.5 232.5 452.5 237"></polygon>
        </g>
    </g>
</svg>