<?xml version="1.0" standalone="no"?><!DOCTYPE svg PUBLIC "-//W3C//DTD SVG 1.1//EN" "http://www.w3.org/Graphics/SVG/1.1/DTD/svg11.dtd"><svg t="1557041267519" class="icon" style="" viewBox="0 0 1024 1024" version="1.1" xmlns="http://www.w3.org/2000/svg" p-id="755" xmlns:xlink="http://www.w3.org/1999/xlink" width="8" height="8"><defs><style type="text/css"></style></defs><path d="M317.952 231.76533332a32.97280001 32.97280001 0 0 1 42.32533333-20.88959998c17.3056 6.28053333 26.38506667 25.77066667 20.2752 43.51999999-24.95146667 72.94293333-38.84373334 162.81600001-38.84373333 257.60426667 0 228.42026667 81.30560001 409.6 165.95626667 409.6 26.28266668 0 53.93066667-18.19306667 79.872-54.9888a32.59733333 32.59733333 0 0 1 46.35306666-7.61173334c14.848 11.09333333 18.15893333 32.42666668 7.40693334 47.68426667C603.92106667 959.65866667 558.04586667 989.86666667 507.66506667 989.86666667c-135.30453333 0-232.31146668-216.1664-232.31146667-477.86666667 0-102.2976 15.01866667-199.7824 42.5984-280.23466668z m176.19626667 469.43573335a942.25066667 942.25066667 0 0 0 81.78346666-42.08639999 1207.9104 1207.9104 0 0 0 94.34453334-60.45013335c2.21866667-27.51146668 3.31093333-56.38826667 3.31093332-86.66453333 0-31.232-1.50186667-61.5424-4.33493332-90.65813333-30.27626667-18.22720001-60.99626667-35.66933333-89.22453334-51.98506667a933.95626668 933.95626668 0 0 0-84.7872-43.4176c-25.7024 12.56106667-52.66773333 26.99946667-80.9984 43.34933333-77.17546667 44.57813334-141.96053333 96.256-189.71306667 147.08053334 48.81066668 51.02933333 112.70826668 100.52266667 185.44640001 142.50666666 27.61386667 15.94026667 55.87626667 30.03733333 84.1728 42.32533334z m-84.75306668 33.10933333c-10.92266667-5.7344-21.84533333-11.70773333-32.59733332-17.95413333-75.43466668-43.55413333-142.37013333-94.78826667-195.072-148.58239999-43.55413333 60.24533333-59.392 115.0976-39.25333335 150.05013333 13.5168 23.38133333 44.37333333 38.4 91.17013335 41.98399999a32.59733333 32.59733333 0 0 1 30.27626666 35.90826667c-1.87733333 18.39786667-18.5344 32.15360001-37.13706666 30.72-66.83306668-5.12000001-117.62346668-29.7984-143.42826668-74.47893333-67.65226668-117.17973333 71.06560001-309.28213333 297.71093334-440.14933334 10.71786668-6.144 21.26506667-12.11733333 31.6416-17.78346666-131.51573333-42.73493333-240.23040001-37.88800001-270.336 14.23359999-14.30186667 24.74666667-10.752 61.61066667 12.6976 107.00800001a32.63146667 32.63146667 0 0 1-14.57493333 44.6464 34.74773334 34.74773334 0 0 1-45.67040001-15.46240001c-32.93866667-63.76106667-38.67306667-123.392-11.60533333-170.32533333 55.808-96.59733334 225.89440001-97.1776 410.93120001-21.02613333 43.4176-19.6608 84.0704-34.23573333 122.88-43.75893334C586.82026667 142.74559999 547.6352 102.4 507.69919999 102.4c-28.12586667 0-57.7536 20.82133334-85.06026665 62.60053334a32.63146667 32.63146667 0 0 1-46.08000001 9.31839999 34.74773334 34.74773334 0 0 1-9.0112-47.37706666C406.016 68.02773333 454.21226667 34.13333333 507.66506667 34.13333333c112.09386667 0 197.90506668 148.3776 224.0512 348.09173335 36.4544 23.04 71.33866668 47.17226668 100.352 71.85066665 47.8208-57.7536 69.05173333-110.01173333 49.59573332-143.70133333-12.62933334-21.91360001-40.48213334-36.4544-82.67093332-41.1648a32.59733333 32.59733333 0 0 1-28.9792-36.9664 34.78186667 34.78186667 0 0 1 38.22933333-29.4912c61.44 6.8608 108.20266668 31.30026667 132.53973332 73.48906667 35.97653334 62.32746668 3.9936 145.92-67.95946665 230.1952-3.3792 7.16800001-10.92266667 15.29173333-19.38773334 21.67466666-33.79200001 36.18133333-74.47893334 72.22613333-119.91040001 106.42773335a753.04960001 753.04960001 0 0 1-24.37119999 125.88373331c85.46986667 9.14773333 151.75680001-4.26666667 172.544-40.20906666 12.73173333-22.08426667 11.29813333-53.72586668-6.00746666-92.9792a32.59733333 32.59733333 0 0 1 17.37386666-43.62240001 34.78186667 34.78186667 0 0 1 44.68053334 18.19306668c25.19040001 57.0368 27.5456 110.11413334 3.072 152.54186667-56.2176 97.34826667-251.83573334 97.04106667-446.39573334 19.1488-54.92053333 22.86933334-109.15840001 39.28746667-159.98293334 48.3328-10.6496-43.21280001-14.13120001-65.1264-10.44479999-65.77493335a636.928 636.928 0 0 0 85.40159999-21.74293332z m170.32533334-1.36533333c21.50400001 6.62186668 42.66666668 12.1856 63.21493334 16.62293333 6.144-19.86559999 11.33226667-40.8576 15.63306667-63.04426667-16.14506667 10.3424-32.6656 20.3776-49.49333334 30.07146668-9.728 5.632-19.52426667 11.09333333-29.35466667 16.34986666z m77.07306668-395.8784a692.77013333 692.77013333 0 0 0-16.28160001-64.88746666c-20.68480001 4.64213333-42.15466667 11.02506667-64.58026667 19.18293332 12.42453333 6.48533334 24.8832 13.34613333 37.30773335 20.51413334l43.55413333 25.1904z m82.15893332 128.9216c0.68266667 15.1552 1.02400001 30.51520001 1.024 46.01173333 0 11.26400001-0.13653333 22.39146667-0.44373332 33.31413333 16.96426667-14.2336 32.8704-28.53546667 47.44533332-42.76906666a615.08266667 615.08266667 0 0 0-48.0256-36.52266667zM507.66506667 546.13333333c-18.3296 0-33.1776-15.29173333-33.1776-34.13333333s14.848-34.13333333 33.1776-34.13333333c18.3296 0 33.1776 15.29173333 33.1776 34.13333333s-14.848 34.13333333-33.1776 34.13333333z" fill="#1296db" p-id="756"></path></svg>