<?xml version="1.0" encoding="UTF-8"?>
<svg width="868px" height="253px" viewBox="0 0 868 253" version="1.1" xmlns="http://www.w3.org/2000/svg" xmlns:xlink="http://www.w3.org/1999/xlink">
    <!-- Generator: Sketch 54.1 (76490) - https://sketchapp.com -->
    <title>流程图01</title>
    <desc>Created with Sketch.</desc>
    <defs>
        <rect id="path-1" x="0" y="13" width="150" height="38"></rect>
        <mask id="mask-2" maskContentUnits="userSpaceOnUse" maskUnits="objectBoundingBox" x="0" y="0" width="150" height="38" fill="white">
            <use xlink:href="#path-1"></use>
        </mask>
        <polygon id="path-3" points="149 13.4765625 177 -2.84217094e-14 177 38 149 51.4765625"></polygon>
        <mask id="mask-4" maskContentUnits="userSpaceOnUse" maskUnits="objectBoundingBox" x="0" y="0" width="28" height="51.4765625" fill="white">
            <use xlink:href="#path-3"></use>
        </mask>
        <polygon id="path-5" points="27 1 177 1 150 14 0 14"></polygon>
        <mask id="mask-6" maskContentUnits="userSpaceOnUse" maskUnits="objectBoundingBox" x="0" y="0" width="177" height="13" fill="white">
            <use xlink:href="#path-5"></use>
        </mask>
        <rect id="path-7" x="0" y="13" width="150" height="38"></rect>
        <mask id="mask-8" maskContentUnits="userSpaceOnUse" maskUnits="objectBoundingBox" x="0" y="0" width="150" height="38" fill="white">
            <use xlink:href="#path-7"></use>
        </mask>
        <polygon id="path-9" points="149 13.4765625 177 -2.84217094e-14 177 38 149 51.4765625"></polygon>
        <mask id="mask-10" maskContentUnits="userSpaceOnUse" maskUnits="objectBoundingBox" x="0" y="0" width="28" height="51.4765625" fill="white">
            <use xlink:href="#path-9"></use>
        </mask>
        <polygon id="path-11" points="27 1 177 1 150 14 0 14"></polygon>
        <mask id="mask-12" maskContentUnits="userSpaceOnUse" maskUnits="objectBoundingBox" x="0" y="0" width="177" height="13" fill="white">
            <use xlink:href="#path-11"></use>
        </mask>
        <rect id="path-13" x="0" y="13" width="150" height="38"></rect>
        <mask id="mask-14" maskContentUnits="userSpaceOnUse" maskUnits="objectBoundingBox" x="0" y="0" width="150" height="38" fill="white">
            <use xlink:href="#path-13"></use>
        </mask>
        <polygon id="path-15" points="149 13.4765625 177 -2.84217094e-14 177 38 149 51.4765625"></polygon>
        <mask id="mask-16" maskContentUnits="userSpaceOnUse" maskUnits="objectBoundingBox" x="0" y="0" width="28" height="51.4765625" fill="white">
            <use xlink:href="#path-15"></use>
        </mask>
        <polygon id="path-17" points="27 1 177 1 150 14 0 14"></polygon>
        <mask id="mask-18" maskContentUnits="userSpaceOnUse" maskUnits="objectBoundingBox" x="0" y="0" width="177" height="13" fill="white">
            <use xlink:href="#path-17"></use>
        </mask>
        <rect id="path-19" x="0" y="13" width="150" height="38"></rect>
        <mask id="mask-20" maskContentUnits="userSpaceOnUse" maskUnits="objectBoundingBox" x="0" y="0" width="150" height="38" fill="white">
            <use xlink:href="#path-19"></use>
        </mask>
        <polygon id="path-21" points="149 13.4765625 177 -2.84217094e-14 177 38 149 51.4765625"></polygon>
        <mask id="mask-22" maskContentUnits="userSpaceOnUse" maskUnits="objectBoundingBox" x="0" y="0" width="28" height="51.4765625" fill="white">
            <use xlink:href="#path-21"></use>
        </mask>
        <polygon id="path-23" points="27 1 177 1 150 14 0 14"></polygon>
        <mask id="mask-24" maskContentUnits="userSpaceOnUse" maskUnits="objectBoundingBox" x="0" y="0" width="177" height="13" fill="white">
            <use xlink:href="#path-23"></use>
        </mask>
        <rect id="path-25" x="0" y="13" width="150" height="38"></rect>
        <mask id="mask-26" maskContentUnits="userSpaceOnUse" maskUnits="objectBoundingBox" x="0" y="0" width="150" height="38" fill="white">
            <use xlink:href="#path-25"></use>
        </mask>
        <polygon id="path-27" points="149 13.4765625 177 -2.84217094e-14 177 38 149 51.4765625"></polygon>
        <mask id="mask-28" maskContentUnits="userSpaceOnUse" maskUnits="objectBoundingBox" x="0" y="0" width="28" height="51.4765625" fill="white">
            <use xlink:href="#path-27"></use>
        </mask>
        <polygon id="path-29" points="27 1 177 1 150 14 0 14"></polygon>
        <mask id="mask-30" maskContentUnits="userSpaceOnUse" maskUnits="objectBoundingBox" x="0" y="0" width="177" height="13" fill="white">
            <use xlink:href="#path-29"></use>
        </mask>
        <rect id="path-31" x="0" y="13" width="150" height="38"></rect>
        <mask id="mask-32" maskContentUnits="userSpaceOnUse" maskUnits="objectBoundingBox" x="0" y="0" width="150" height="38" fill="white">
            <use xlink:href="#path-31"></use>
        </mask>
        <polygon id="path-33" points="149 13.4765625 177 -2.84217094e-14 177 38 149 51.4765625"></polygon>
        <mask id="mask-34" maskContentUnits="userSpaceOnUse" maskUnits="objectBoundingBox" x="0" y="0" width="28" height="51.4765625" fill="white">
            <use xlink:href="#path-33"></use>
        </mask>
        <polygon id="path-35" points="27 1 177 1 150 14 0 14"></polygon>
        <mask id="mask-36" maskContentUnits="userSpaceOnUse" maskUnits="objectBoundingBox" x="0" y="0" width="177" height="13" fill="white">
            <use xlink:href="#path-35"></use>
        </mask>
        <rect id="path-37" x="0" y="13" width="150" height="38"></rect>
        <mask id="mask-38" maskContentUnits="userSpaceOnUse" maskUnits="objectBoundingBox" x="0" y="0" width="150" height="38" fill="white">
            <use xlink:href="#path-37"></use>
        </mask>
        <polygon id="path-39" points="149 13.4765625 177 -2.84217094e-14 177 38 149 51.4765625"></polygon>
        <mask id="mask-40" maskContentUnits="userSpaceOnUse" maskUnits="objectBoundingBox" x="0" y="0" width="28" height="51.4765625" fill="white">
            <use xlink:href="#path-39"></use>
        </mask>
        <polygon id="path-41" points="27 1 177 1 150 14 0 14"></polygon>
        <mask id="mask-42" maskContentUnits="userSpaceOnUse" maskUnits="objectBoundingBox" x="0" y="0" width="177" height="13" fill="white">
            <use xlink:href="#path-41"></use>
        </mask>
        <rect id="path-43" x="0" y="13" width="150" height="38"></rect>
        <mask id="mask-44" maskContentUnits="userSpaceOnUse" maskUnits="objectBoundingBox" x="0" y="0" width="150" height="38" fill="white">
            <use xlink:href="#path-43"></use>
        </mask>
        <polygon id="path-45" points="149 13.4765625 177 -2.84217094e-14 177 38 149 51.4765625"></polygon>
        <mask id="mask-46" maskContentUnits="userSpaceOnUse" maskUnits="objectBoundingBox" x="0" y="0" width="28" height="51.4765625" fill="white">
            <use xlink:href="#path-45"></use>
        </mask>
        <polygon id="path-47" points="27 1 177 1 150 14 0 14"></polygon>
        <mask id="mask-48" maskContentUnits="userSpaceOnUse" maskUnits="objectBoundingBox" x="0" y="0" width="177" height="13" fill="white">
            <use xlink:href="#path-47"></use>
        </mask>
    </defs>
    <g id="1.0" stroke="none" stroke-width="1" fill="none" fill-rule="evenodd">
        <g id="流程图01">
            <g id="分组" transform="translate(0.000000, 82.000000)" fill="#2491F7" fill-opacity="0.2" stroke="#2491F7" stroke-dasharray="2" stroke-width="2">
                <use id="矩形" mask="url(#mask-2)" xlink:href="#path-1"></use>
                <use id="矩形" mask="url(#mask-4)" xlink:href="#path-3"></use>
                <use id="矩形" mask="url(#mask-6)" xlink:href="#path-5"></use>
            </g>
            <g id="分组" fill="#2491F7" fill-opacity="0.2" stroke="#2491F7" stroke-dasharray="2" stroke-width="2">
                <use id="矩形" mask="url(#mask-8)" xlink:href="#path-7"></use>
                <use id="矩形" mask="url(#mask-10)" xlink:href="#path-9"></use>
                <use id="矩形" mask="url(#mask-12)" xlink:href="#path-11"></use>
            </g>
            <g id="分组" transform="translate(0.000000, 163.000000)" fill="#2491F7" fill-opacity="0.2" stroke="#2491F7" stroke-dasharray="2" stroke-width="2">
                <use id="矩形" mask="url(#mask-14)" xlink:href="#path-13"></use>
                <use id="矩形" mask="url(#mask-16)" xlink:href="#path-15"></use>
                <use id="矩形" mask="url(#mask-18)" xlink:href="#path-17"></use>
            </g>
            <g id="分组" transform="translate(231.000000, 121.000000)" fill="#2491F7" fill-opacity="0.2" stroke="#2491F7" stroke-dasharray="2" stroke-width="2">
                <use id="矩形" mask="url(#mask-20)" xlink:href="#path-19"></use>
                <use id="矩形" mask="url(#mask-22)" xlink:href="#path-21"></use>
                <use id="矩形" mask="url(#mask-24)" xlink:href="#path-23"></use>
            </g>
            <g id="分组" transform="translate(461.000000, 121.000000)" fill="#2491F7" fill-opacity="0.2" stroke="#2491F7" stroke-dasharray="2" stroke-width="2">
                <use id="矩形" mask="url(#mask-26)" xlink:href="#path-25"></use>
                <use id="矩形" mask="url(#mask-28)" xlink:href="#path-27"></use>
                <use id="矩形" mask="url(#mask-30)" xlink:href="#path-29"></use>
            </g>
            <g id="分组" transform="translate(461.000000, 200.000000)" fill="#2491F7" fill-opacity="0.2" stroke="#2491F7" stroke-dasharray="2" stroke-width="2">
                <use id="矩形" mask="url(#mask-32)" xlink:href="#path-31"></use>
                <use id="矩形" mask="url(#mask-34)" xlink:href="#path-33"></use>
                <use id="矩形" mask="url(#mask-36)" xlink:href="#path-35"></use>
            </g>
            <g id="分组" transform="translate(691.000000, 121.000000)" fill="#2491F7" fill-opacity="0.2" stroke="#2491F7" stroke-dasharray="2" stroke-width="2">
                <use id="矩形" mask="url(#mask-38)" xlink:href="#path-37"></use>
                <use id="矩形" mask="url(#mask-40)" xlink:href="#path-39"></use>
                <use id="矩形" mask="url(#mask-42)" xlink:href="#path-41"></use>
            </g>
            <g id="分组" transform="translate(231.000000, 201.000000)" fill="#2491F7" fill-opacity="0.2" stroke="#2491F7" stroke-dasharray="2" stroke-width="2">
                <use id="矩形" mask="url(#mask-44)" xlink:href="#path-43"></use>
                <use id="矩形" mask="url(#mask-46)" xlink:href="#path-45"></use>
                <use id="矩形" mask="url(#mask-48)" xlink:href="#path-47"></use>
            </g>
            <text id="创建Notebook" font-family="PingFangSC-Regular, PingFang SC" font-size="14" font-weight="normal" fill="#2491F7">
                <tspan x="40" y="38">创建Notebook</tspan>
            </text>
            <text id="代码编写" font-family="PingFangSC-Regular, PingFang SC" font-size="14" font-weight="normal" fill="#333333">
                <tspan x="40" y="118">代码编写</tspan>
            </text>
            <text id="代码运行" font-family="PingFangSC-Regular, PingFang SC" font-size="14" font-weight="normal" fill="#333333">
                <tspan x="40" y="198">代码运行</tspan>
            </text>
            <text id="模型训练" font-family="PingFangSC-Regular, PingFang SC" font-size="14" font-weight="normal" fill="#333333">
                <tspan x="269" y="158">模型训练</tspan>
            </text>
            <text id="模型在线部署" font-family="PingFangSC-Regular, PingFang SC" font-size="14" font-weight="normal" fill="#333333">
                <tspan x="499" y="158">模型在线部署</tspan>
            </text>
            <text id="模型在线调用" font-family="PingFangSC-Regular, PingFang SC" font-size="14" font-weight="normal" fill="#333333">
                <tspan x="729" y="158">模型在线调用</tspan>
            </text>
            <text id="作业离线调度" font-family="PingFangSC-Regular, PingFang SC" font-size="14" font-weight="normal" fill="#333333">
                <tspan x="271" y="238">作业离线调度</tspan>
            </text>
            <text id="算法结果输出" font-family="PingFangSC-Regular, PingFang SC" font-size="14" font-weight="normal" fill="#333333">
                <tspan x="501" y="238">算法结果输出</tspan>
            </text>
            <path d="M30.84375,26 C31.1562516,26 31.424478,26.1093739 31.6484375,26.328125 C31.872397,26.5468761 31.984375,26.8124984 31.984375,27.125 L31.984375,38.890625 C31.984375,39.1927098 31.872397,39.455728 31.6484375,39.6796875 C31.424478,39.903647 31.1614598,40.015625 30.859375,40.015625 L21.1875,40.015625 C20.8854152,40.015625 20.622397,39.903647 20.3984375,39.6796875 C20.174478,39.455728 20.0625,39.1927098 20.0625,38.890625 L20.0625,27.125 C20.0625,26.8124984 20.174478,26.5468761 20.3984375,26.328125 C20.622397,26.1093739 20.8854152,26 21.1875,26 L30.84375,26 Z M25.671875,27.125 L23.78125,27.125 L23.78125,30.421875 L24.46875,29.734375 C24.541667,29.661458 24.6302078,29.625 24.734375,29.625 C24.8385422,29.625 24.9322912,29.661458 25.015625,29.734375 L25.53125,30.265625 L25.671875,30.390625 L25.671875,27.125 Z M22.65625,27.125 L21.203125,27.125 L21.203125,36.875 L30.859375,36.875 L30.859375,27.125 L26.796875,27.125 L26.796875,31.453125 C26.796875,31.6093758 26.742188,31.7395828 26.6328125,31.84375 C26.523437,31.9479172 26.3906258,32 26.234375,32 L26.21875,32 C25.8541648,31.9895833 25.541668,31.854168 25.28125,31.59375 L24.734375,31.0625 L24.1875,31.609375 C23.9166653,31.869793 23.5885436,32 23.203125,32 C23.0468742,32 22.9166672,31.9479172 22.8125,31.84375 C22.7083328,31.7395828 22.65625,31.6093758 22.65625,31.453125 L22.65625,27.125 Z M21.1875,38.890625 L30.84375,38.890625 L30.84375,38 L21.1875,38 L21.1875,38.890625 Z" id="" fill="#2491F7" fill-rule="nonzero"></path>
            <path d="M31.875,106 C32.1875016,106 32.455728,106.109374 32.6796875,106.328125 C32.903647,106.546876 33.015625,106.812498 33.015625,107.125 L33.015625,118.890625 C33.015625,119.19271 32.903647,119.455728 32.6796875,119.679688 C32.455728,119.903647 32.1927098,120.015625 31.890625,120.015625 L20.125,120.015625 C19.8124984,120.015625 19.5468761,119.903647 19.328125,119.679688 C19.1093739,119.455728 19,119.19271 19,118.890625 L19,107.125 C19,106.812498 19.1093739,106.546876 19.328125,106.328125 C19.5468761,106.109374 19.8124984,106 20.125,106 L31.875,106 Z M31.875,118.890625 L31.875,107.125 L20.125,107.125 L20.125,118.890625 L31.875,118.890625 Z M21.015625,113.015625 C21.015625,112.859374 21.0677078,112.723959 21.171875,112.609375 L22.96875,110.8125 L21.171875,108.984375 C21.0677078,108.869791 21.015625,108.73698 21.015625,108.585938 C21.015625,108.434895 21.070312,108.304688 21.1796875,108.195312 C21.289063,108.085937 21.4218742,108.03125 21.578125,108.03125 C21.7343758,108.03125 21.8645828,108.083333 21.96875,108.1875 L24.171875,110.40625 C24.2760422,110.520834 24.328125,110.656249 24.328125,110.8125 C24.328125,110.968751 24.2708339,111.098958 24.15625,111.203125 L21.96875,113.40625 C21.8645828,113.520834 21.7343758,113.578125 21.578125,113.578125 C21.4218742,113.578125 21.289063,113.523438 21.1796875,113.414062 C21.070312,113.304687 21.015625,113.171876 21.015625,113.015625 Z M24.140625,112.609375 C24.2552089,112.494791 24.3906242,112.4375 24.546875,112.4375 L27.65625,112.453125 C27.8020841,112.453125 27.9322911,112.507812 28.046875,112.617188 C28.1614589,112.726563 28.21875,112.859374 28.21875,113.015625 C28.21875,113.171876 28.1614589,113.304687 28.046875,113.414062 C27.9322911,113.523438 27.8020841,113.578125 27.65625,113.578125 L27.640625,113.578125 L24.53125,113.5625 C24.3854159,113.5625 24.257813,113.507813 24.1484375,113.398438 C24.039062,113.289062 23.984375,113.156251 23.984375,113 C23.984375,112.843749 24.0364578,112.713542 24.140625,112.609375 Z" id="" fill="#333333" fill-rule="nonzero"></path>
            <path d="M31.875,186 C32.1875016,186 32.455728,186.109374 32.6796875,186.328125 C32.903647,186.546876 33.015625,186.812498 33.015625,187.125 L33.015625,198.890625 C33.015625,199.19271 32.903647,199.455728 32.6796875,199.679688 C32.455728,199.903647 32.1927098,200.015625 31.890625,200.015625 L20.125,200.015625 C19.8124984,200.015625 19.5468761,199.903647 19.328125,199.679688 C19.1093739,199.455728 19,199.19271 19,198.890625 L19,187.125 C19,186.812498 19.1093739,186.546876 19.328125,186.328125 C19.5468761,186.109374 19.8124984,186 20.125,186 L31.875,186 Z M31.875,198.890625 L31.875,187.125 L20.125,187.125 L20.125,198.890625 L31.875,198.890625 Z M21.015625,193.015625 C21.015625,192.859374 21.0677078,192.723959 21.171875,192.609375 L22.96875,190.8125 L21.171875,188.984375 C21.0677078,188.869791 21.015625,188.73698 21.015625,188.585938 C21.015625,188.434895 21.070312,188.304688 21.1796875,188.195312 C21.289063,188.085937 21.4218742,188.03125 21.578125,188.03125 C21.7343758,188.03125 21.8645828,188.083333 21.96875,188.1875 L24.171875,190.40625 C24.2760422,190.520834 24.328125,190.656249 24.328125,190.8125 C24.328125,190.968751 24.2708339,191.098958 24.15625,191.203125 L21.96875,193.40625 C21.8645828,193.520834 21.7343758,193.578125 21.578125,193.578125 C21.4218742,193.578125 21.289063,193.523438 21.1796875,193.414062 C21.070312,193.304687 21.015625,193.171876 21.015625,193.015625 Z M24.140625,192.609375 C24.2552089,192.494791 24.3906242,192.4375 24.546875,192.4375 L27.65625,192.453125 C27.8020841,192.453125 27.9322911,192.507812 28.046875,192.617188 C28.1614589,192.726563 28.21875,192.859374 28.21875,193.015625 C28.21875,193.171876 28.1614589,193.304687 28.046875,193.414062 C27.9322911,193.523438 27.8020841,193.578125 27.65625,193.578125 L27.640625,193.578125 L24.53125,193.5625 C24.3854159,193.5625 24.257813,193.507813 24.1484375,193.398438 C24.039062,193.289062 23.984375,193.156251 23.984375,193 C23.984375,192.843749 24.0364578,192.713542 24.140625,192.609375 Z" id="" fill="#333333" fill-rule="nonzero"></path>
            <path d="M262.875,226 C263.187502,226 263.455728,226.109374 263.679688,226.328125 C263.903647,226.546876 264.015625,226.812498 264.015625,227.125 L264.015625,238.890625 C264.015625,239.19271 263.903647,239.455728 263.679688,239.679688 C263.455728,239.903647 263.19271,240.015625 262.890625,240.015625 L251.125,240.015625 C250.812498,240.015625 250.546876,239.903647 250.328125,239.679688 C250.109374,239.455728 250,239.19271 250,238.890625 L250,227.125 C250,226.812498 250.109374,226.546876 250.328125,226.328125 C250.546876,226.109374 250.812498,226 251.125,226 L262.875,226 Z M262.875,238.890625 L262.875,227.125 L251.125,227.125 L251.125,238.890625 L262.875,238.890625 Z M252.015625,233.015625 C252.015625,232.859374 252.067708,232.723959 252.171875,232.609375 L253.96875,230.8125 L252.171875,228.984375 C252.067708,228.869791 252.015625,228.73698 252.015625,228.585938 C252.015625,228.434895 252.070312,228.304688 252.179688,228.195312 C252.289063,228.085937 252.421874,228.03125 252.578125,228.03125 C252.734376,228.03125 252.864583,228.083333 252.96875,228.1875 L255.171875,230.40625 C255.276042,230.520834 255.328125,230.656249 255.328125,230.8125 C255.328125,230.968751 255.270834,231.098958 255.15625,231.203125 L252.96875,233.40625 C252.864583,233.520834 252.734376,233.578125 252.578125,233.578125 C252.421874,233.578125 252.289063,233.523438 252.179688,233.414062 C252.070312,233.304687 252.015625,233.171876 252.015625,233.015625 Z M255.140625,232.609375 C255.255209,232.494791 255.390624,232.4375 255.546875,232.4375 L258.65625,232.453125 C258.802084,232.453125 258.932291,232.507812 259.046875,232.617188 C259.161459,232.726563 259.21875,232.859374 259.21875,233.015625 C259.21875,233.171876 259.161459,233.304687 259.046875,233.414062 C258.932291,233.523438 258.802084,233.578125 258.65625,233.578125 L258.640625,233.578125 L255.53125,233.5625 C255.385416,233.5625 255.257813,233.507813 255.148438,233.398438 C255.039062,233.289062 254.984375,233.156251 254.984375,233 C254.984375,232.843749 255.036458,232.713542 255.140625,232.609375 Z" id="" fill="#333333" fill-rule="nonzero"></path>
            <path d="M492.875,226 C493.187502,226 493.455728,226.109374 493.679688,226.328125 C493.903647,226.546876 494.015625,226.812498 494.015625,227.125 L494.015625,238.890625 C494.015625,239.19271 493.903647,239.455728 493.679688,239.679688 C493.455728,239.903647 493.19271,240.015625 492.890625,240.015625 L481.125,240.015625 C480.812498,240.015625 480.546876,239.903647 480.328125,239.679688 C480.109374,239.455728 480,239.19271 480,238.890625 L480,227.125 C480,226.812498 480.109374,226.546876 480.328125,226.328125 C480.546876,226.109374 480.812498,226 481.125,226 L492.875,226 Z M492.875,238.890625 L492.875,227.125 L481.125,227.125 L481.125,238.890625 L492.875,238.890625 Z M482.015625,233.015625 C482.015625,232.859374 482.067708,232.723959 482.171875,232.609375 L483.96875,230.8125 L482.171875,228.984375 C482.067708,228.869791 482.015625,228.73698 482.015625,228.585938 C482.015625,228.434895 482.070312,228.304688 482.179688,228.195312 C482.289063,228.085937 482.421874,228.03125 482.578125,228.03125 C482.734376,228.03125 482.864583,228.083333 482.96875,228.1875 L485.171875,230.40625 C485.276042,230.520834 485.328125,230.656249 485.328125,230.8125 C485.328125,230.968751 485.270834,231.098958 485.15625,231.203125 L482.96875,233.40625 C482.864583,233.520834 482.734376,233.578125 482.578125,233.578125 C482.421874,233.578125 482.289063,233.523438 482.179688,233.414062 C482.070312,233.304687 482.015625,233.171876 482.015625,233.015625 Z M485.140625,232.609375 C485.255209,232.494791 485.390624,232.4375 485.546875,232.4375 L488.65625,232.453125 C488.802084,232.453125 488.932291,232.507812 489.046875,232.617188 C489.161459,232.726563 489.21875,232.859374 489.21875,233.015625 C489.21875,233.171876 489.161459,233.304687 489.046875,233.414062 C488.932291,233.523438 488.802084,233.578125 488.65625,233.578125 L488.640625,233.578125 L485.53125,233.5625 C485.385416,233.5625 485.257813,233.507813 485.148438,233.398438 C485.039062,233.289062 484.984375,233.156251 484.984375,233 C484.984375,232.843749 485.036458,232.713542 485.140625,232.609375 Z" id="" fill="#333333" fill-rule="nonzero"></path>
            <polygon id="路径-9" fill="#2591F7" fill-rule="nonzero" points="74.5 85.5 74.5 52 75.5 52 75.5 85.5 79.5 85.5 75 94.5 70.5 85.5"></polygon>
            <polygon id="路径-9" fill="#2591F7" fill-rule="nonzero" points="74.5 165.5 74.5 132 75.5 132 75.5 165.5 79.5 165.5 75 174.5 70.5 165.5"></polygon>
            <path d="M257.269707,153.459491 C257.085865,153.53828 256.966667,153.71905 256.966667,153.919064 L256.966667,158.276462 C256.966667,158.344175 256.980421,158.411183 257.007094,158.473421 C257.115872,158.727236 257.409811,158.844812 257.663626,158.736034 L262.19696,156.793177 C262.380802,156.714388 262.5,156.533619 262.5,156.333605 L262.5,151.976206 C262.5,151.908493 262.486246,151.841485 262.459573,151.779247 C262.350795,151.525432 262.056855,151.407856 261.80304,151.516634 L257.269707,153.459491 Z M254.730293,153.459491 L250.19696,151.516634 C249.943145,151.407856 249.649205,151.525432 249.540427,151.779247 C249.513754,151.841485 249.5,151.908493 249.5,151.976206 L249.5,156.333605 C249.5,156.533619 249.619198,156.714388 249.80304,156.793177 L254.336374,158.736034 C254.590189,158.844812 254.884128,158.727236 254.992906,158.473421 C255.019579,158.411183 255.033333,158.344175 255.033333,158.276462 L255.033333,153.919064 C255.033333,153.71905 254.914135,153.53828 254.730293,153.459491 Z M256.169307,146.539683 C256.051665,146.493403 255.92086,146.493403 255.803218,146.539683 L250.615202,148.58064 C250.486018,148.631461 250.383777,148.733702 250.332956,148.862886 C250.231863,149.119858 250.358229,149.410127 250.615202,149.51122 L255.803218,151.552177 C255.92086,151.598457 256.051665,151.598457 256.169307,151.552177 L261.357323,149.51122 C261.486508,149.460399 261.588748,149.358158 261.639569,149.228974 C261.740662,148.972002 261.614296,148.681733 261.357323,148.58064 L256.169307,146.539683 Z" id="合并形状" stroke="#333333"></path>
            <path d="M487.269707,153.459491 C487.085865,153.53828 486.966667,153.71905 486.966667,153.919064 L486.966667,158.276462 C486.966667,158.344175 486.980421,158.411183 487.007094,158.473421 C487.115872,158.727236 487.409811,158.844812 487.663626,158.736034 L492.19696,156.793177 C492.380802,156.714388 492.5,156.533619 492.5,156.333605 L492.5,151.976206 C492.5,151.908493 492.486246,151.841485 492.459573,151.779247 C492.350795,151.525432 492.056855,151.407856 491.80304,151.516634 L487.269707,153.459491 Z M484.730293,153.459491 L480.19696,151.516634 C479.943145,151.407856 479.649205,151.525432 479.540427,151.779247 C479.513754,151.841485 479.5,151.908493 479.5,151.976206 L479.5,156.333605 C479.5,156.533619 479.619198,156.714388 479.80304,156.793177 L484.336374,158.736034 C484.590189,158.844812 484.884128,158.727236 484.992906,158.473421 C485.019579,158.411183 485.033333,158.344175 485.033333,158.276462 L485.033333,153.919064 C485.033333,153.71905 484.914135,153.53828 484.730293,153.459491 Z M486.169307,146.539683 C486.051665,146.493403 485.92086,146.493403 485.803218,146.539683 L480.615202,148.58064 C480.486018,148.631461 480.383777,148.733702 480.332956,148.862886 C480.231863,149.119858 480.358229,149.410127 480.615202,149.51122 L485.803218,151.552177 C485.92086,151.598457 486.051665,151.598457 486.169307,151.552177 L491.357323,149.51122 C491.486508,149.460399 491.588748,149.358158 491.639569,149.228974 C491.740662,148.972002 491.614296,148.681733 491.357323,148.58064 L486.169307,146.539683 Z" id="合并形状" stroke="#333333"></path>
            <path d="M717.269707,153.459491 C717.085865,153.53828 716.966667,153.71905 716.966667,153.919064 L716.966667,158.276462 C716.966667,158.344175 716.980421,158.411183 717.007094,158.473421 C717.115872,158.727236 717.409811,158.844812 717.663626,158.736034 L722.19696,156.793177 C722.380802,156.714388 722.5,156.533619 722.5,156.333605 L722.5,151.976206 C722.5,151.908493 722.486246,151.841485 722.459573,151.779247 C722.350795,151.525432 722.056855,151.407856 721.80304,151.516634 L717.269707,153.459491 Z M714.730293,153.459491 L710.19696,151.516634 C709.943145,151.407856 709.649205,151.525432 709.540427,151.779247 C709.513754,151.841485 709.5,151.908493 709.5,151.976206 L709.5,156.333605 C709.5,156.533619 709.619198,156.714388 709.80304,156.793177 L714.336374,158.736034 C714.590189,158.844812 714.884128,158.727236 714.992906,158.473421 C715.019579,158.411183 715.033333,158.344175 715.033333,158.276462 L715.033333,153.919064 C715.033333,153.71905 714.914135,153.53828 714.730293,153.459491 Z M716.169307,146.539683 C716.051665,146.493403 715.92086,146.493403 715.803218,146.539683 L710.615202,148.58064 C710.486018,148.631461 710.383777,148.733702 710.332956,148.862886 C710.231863,149.119858 710.358229,149.410127 710.615202,149.51122 L715.803218,151.552177 C715.92086,151.598457 716.051665,151.598457 716.169307,151.552177 L721.357323,149.51122 C721.486508,149.460399 721.588748,149.358158 721.639569,149.228974 C721.740662,148.972002 721.614296,148.681733 721.357323,148.58064 L716.169307,146.539683 Z" id="合并形状" stroke="#333333"></path>
            <path d="M222.5,153.5 L201.976562,153.5 L201.976562,190 C201.976562,191.932997 200.409559,193.5 198.476562,193.5 L150,193.5 L150,192.5 L198.476562,192.5 C199.857274,192.5 200.976562,191.380712 200.976562,190 L200.976562,152.5 L222.5,152.5 L222.5,148.5 L231.5,153 L222.5,157.5 L222.5,153.5 Z" id="路径-10" fill="#2491F7" fill-rule="nonzero"></path>
            <path d="M222.5,197.5 L201.976562,197.5 L201.976563,234 C201.976563,235.932997 200.409559,237.5 198.476563,237.5 L150,237.5 L150,236.5 L198.476563,236.5 C199.857274,236.5 200.976563,235.380712 200.976563,234 L200.976563,196.5 L222.5,196.5 L222.5,192.5 L231.5,197 L222.5,201.5 L222.5,197.5 L222.5,197.5 Z" id="路径-10" fill="#2491F7" fill-rule="nonzero" transform="translate(190.750000, 215.000000) scale(1, -1) translate(-190.750000, -215.000000) "></path>
            <polygon id="路径-11" fill="#2491F7" fill-rule="nonzero" points="452.5 153.5 381 153.5 381 152.5 452.5 152.5 452.5 148.5 461.5 153 452.5 157.5"></polygon>
            <polygon id="路径-11" fill="#2491F7" fill-rule="nonzero" points="682.5 153.5 611 153.5 611 152.5 682.5 152.5 682.5 148.5 691.5 153 682.5 157.5"></polygon>
            <polygon id="路径-11" fill="#2491F7" fill-rule="nonzero" points="452.5 234 381 234 381 233 452.5 233 452.5 229 461.5 233.5 452.5 238"></polygon>
        </g>
    </g>
</svg>