<?xml version="1.0" standalone="no"?><!DOCTYPE svg PUBLIC "-//W3C//DTD SVG 1.1//EN" "http://www.w3.org/Graphics/SVG/1.1/DTD/svg11.dtd"><svg t="1535527632252" class="icon" style="" viewBox="0 0 1024 1024" version="1.1" xmlns="http://www.w3.org/2000/svg" p-id="2879" xmlns:xlink="http://www.w3.org/1999/xlink" width="16" height="16"><defs><style type="text/css"></style></defs><path d="M739.555556 568.888889h170.666666V512h-170.666666V392.533333c68.266667-17.066667 142.222222-68.266667 142.222222-193.422222h-56.888889C824.888889 335.644444 699.733333 341.333333 682.666667 341.333333H284.444444c-5.688889 0-142.222222 0-142.222222-142.222222h-56.888889c0 119.466667 73.955556 170.666667 142.222223 193.422222V512H56.888889v56.888889h170.666667v85.333333c0 34.133333 5.688889 62.577778 17.066666 91.022222-68.266667 11.377778-159.288889 62.577778-159.288889 193.422223h56.888889c0-119.466667 91.022222-136.533333 130.844445-142.222223 45.511111 68.266667 125.155556 113.777778 210.488889 113.777778 91.022222 0 164.977778-45.511111 210.488888-113.777778 34.133333 5.688889 130.844444 22.755556 130.844445 142.222223h56.888889c0-130.844444-91.022222-182.044444-159.288889-193.422223 11.377778-28.444444 17.066667-56.888889 17.066667-91.022222V568.888889z m-256 284.444444C375.466667 853.333333 284.444444 762.311111 284.444444 654.222222V398.222222h170.666667v341.333334h56.888889V398.222222h170.666667v256c0 108.088889-91.022222 199.111111-199.111111 199.111111z" fill="#ffffff" p-id="2880"></path><path d="M483.555556 85.333333C375.466667 85.333333 284.444444 176.355556 284.444444 284.444444h398.222223c0-108.088889-91.022222-199.111111-199.111111-199.111111zM352.711111 227.555556c22.755556-51.2 73.955556-85.333333 130.844445-85.333334s108.088889 34.133333 130.844444 85.333334H352.711111z" fill="#ffffff" p-id="2881"></path></svg>