<?xml version="1.0" standalone="no"?><!DOCTYPE svg PUBLIC "-//W3C//DTD SVG 1.1//EN" "http://www.w3.org/Graphics/SVG/1.1/DTD/svg11.dtd"><svg t="1531984752675" class="icon" style="" viewBox="0 0 1024 1024" version="1.1" xmlns="http://www.w3.org/2000/svg" p-id="5258" xmlns:xlink="http://www.w3.org/1999/xlink" width="200" height="200"><defs><style type="text/css"></style></defs><path fill="#515151" d="M384 350.848c0 0.192-0.128 0.384-0.128 0.64C383.872 351.68 384 351.872 384 352.064 384 360.32 380.544 367.68 375.232 373.312 374.912 373.632 374.784 374.08 374.528 374.336c-1.024 1.024-2.432 1.664-3.584 2.56C365.504 381.056 359.168 384 351.936 384 351.744 384 351.616 383.936 351.424 383.936S351.04 384 350.848 384L97.28 384C78.72 384 64 369.664 64 352 63.872 334.4 78.848 320 97.152 320l177.6 0L73.984 119.36C60.992 106.304 60.672 85.632 73.216 73.216c12.352-12.608 33.152-12.16 46.08 0.832l200.704 200.704L320 97.216C319.936 78.784 334.4 64 352 64 369.6 63.872 384 78.848 384 97.152L384 350.848zM862.848 320l-177.6 0 200.768-200.704c12.992-13.056 13.312-33.664 0.832-46.144-12.352-12.608-33.152-12.16-46.08 0.832l-200.704 200.704L640.064 97.216C640.064 78.784 625.6 64 608 64 590.4 63.872 576 78.848 576 97.152l0 253.696c0 0.192 0.128 0.384 0.128 0.64C576.128 351.68 576 351.872 576 352.064 576 360.32 579.456 367.68 584.768 373.312c0.32 0.32 0.448 0.768 0.768 1.024 1.024 1.024 2.432 1.664 3.648 2.56C594.496 381.056 600.832 384 608.064 384c0.192 0 0.32-0.064 0.512-0.064S608.96 384 609.152 384l253.632 0C881.28 384 896 369.664 896 352 896.128 334.4 881.152 320 862.848 320zM384 608c0-8.256-3.456-15.552-8.768-21.248C374.912 586.432 374.784 585.984 374.528 585.664 373.44 584.704 372.096 584.064 370.944 583.168 365.568 579.008 359.168 576 351.936 576 351.744 576 351.616 576.128 351.424 576.128S351.04 576 350.848 576L97.28 576C78.72 576 64 590.4 64 608 63.872 625.6 78.848 640 97.152 640l177.6 0-200.768 200.768c-12.992 12.992-13.312 33.6-0.832 46.144 12.352 12.608 33.152 12.096 46.08-0.896l200.704-200.704 0 177.536c0 18.368 14.464 33.28 32.064 33.152C369.6 896.256 384 881.28 384 862.848L384 609.28c0-0.256-0.128-0.448-0.128-0.64C383.872 608.384 384 608.192 384 608zM685.248 640l177.6 0c18.24 0 33.28-14.4 33.152-32C896 590.4 881.28 576 862.72 576L609.152 576C608.96 576 608.768 576.128 608.576 576.128S608.256 576 608.064 576C600.832 576 594.432 579.008 589.056 583.168 587.904 584.064 586.56 584.704 585.472 585.664 585.216 585.984 585.088 586.432 584.768 586.752 579.456 592.448 576 599.744 576 608c0 0.192 0.128 0.384 0.128 0.64C576.128 608.832 576 609.024 576 609.28l0 253.632C576 881.28 590.4 896.256 608 896c17.6 0.128 32.064-14.72 32.064-33.152l0-177.536 200.704 200.704c12.928 12.992 33.664 13.504 46.08 0.896 12.48-12.48 12.16-33.152-0.832-46.144L685.248 640z" p-id="5259"></path></svg>