<?xml version="1.0" standalone="no"?><!DOCTYPE svg PUBLIC "-//W3C//DTD SVG 1.1//EN" "http://www.w3.org/Graphics/SVG/1.1/DTD/svg11.dtd"><svg t="1532070821527" class="icon" style="" viewBox="0 0 1024 1024" version="1.1" xmlns="http://www.w3.org/2000/svg" p-id="3737" xmlns:xlink="http://www.w3.org/1999/xlink" width="200" height="200"><defs><style type="text/css"></style></defs><path d="M339.432 63.594H99.944c-19.851 0-36 16.149-36 36v239.488c0 17.673 14.327 32 32 32s32-14.327 32-32V127.594h211.487c17.673 0 32-14.327 32-32 0.001-17.673-14.326-32-31.999-32zM339.432 895.503H127.944V684.016c0-17.673-14.327-32-32-32s-32 14.327-32 32v239.487c0 19.851 16.149 36 36 36h239.487c17.673 0 32-14.327 32-32s-14.326-32-31.999-32zM928 651.915c-17.673 0-32 14.327-32 32v211.487H684.513c-17.673 0-32 14.327-32 32s14.327 32 32 32H924c19.851 0 36-16.149 36-36V683.915c0-17.673-14.327-32-32-32zM924 64.151H684.513c-17.673 0-32 14.327-32 32s14.327 32 32 32H896v211.488c0 17.673 14.327 32 32 32s32-14.327 32-32V100.151c0-19.851-16.149-36-36-36z" fill="#515151" p-id="3738"></path></svg>