<?xml version="1.0" encoding="UTF-8"?>
<svg width="16px" height="16px" viewBox="0 0 16 16" version="1.1" xmlns="http://www.w3.org/2000/svg" xmlns:xlink="http://www.w3.org/1999/xlink">
    <!-- Generator: Sketch 52.2 (67145) - http://www.bohemiancoding.com/sketch -->
    <title>icon_preview</title>
    <desc>Created with Sketch.</desc>
    <g id="icon_preview" stroke="none" stroke-width="1" fill="none" fill-rule="evenodd">
        <g transform="translate(0.000000, 3.000000)" fill="#2491F7" fill-rule="nonzero">
            <path d="M7.9903015,1 C5.00424705,1 2.35300676,2.58789334 1.10771781,4.98648404 C2.3529467,7.38554374 5.00410337,8.97354276 7.9903015,8.97354276 C10.9769097,8.97354276 13.6281394,7.38559734 14.8734681,4.98647823 C13.6280985,2.58780309 10.9768129,1 7.9903015,1 Z M7.9903015,9.97354276 C4.37274534,9.97354276 1.27982912,7.90986157 0,4.9864329 C1.27982557,2.0636911 4.37274534,-2.84217094e-14 7.9903015,-2.84217094e-14 C11.6083679,-2.84217094e-14 14.7012877,2.06360854 15.9811954,4.98643292 C14.7012842,7.90986157 11.6083644,9.97354276 7.9903015,9.97354276 Z" id="Path"></path>
            <path d="M8,7.5 C6.61928813,7.5 5.5,6.38071187 5.5,5 C5.5,3.61928813 6.61928813,2.5 8,2.5 C9.38071187,2.5 10.5,3.61928813 10.5,5 C10.5,6.38071187 9.38071187,7.5 8,7.5 Z M8,6.5 C8.82842712,6.5 9.5,5.82842712 9.5,5 C9.5,4.17157288 8.82842712,3.5 8,3.5 C7.17157288,3.5 6.5,4.17157288 6.5,5 C6.5,5.82842712 7.17157288,6.5 8,6.5 Z" id="Oval"></path>
        </g>
    </g>
</svg>