<?xml version="1.0" encoding="UTF-8"?>
<svg width="16px" height="16px" viewBox="0 0 16 16" version="1.1" xmlns="http://www.w3.org/2000/svg" xmlns:xlink="http://www.w3.org/1999/xlink">
    <!-- Generator: Sketch 52.2 (67145) - http://www.bohemiancoding.com/sketch -->
    <title>icon_datasheet</title>
    <desc>Created with Sketch.</desc>
    <g id="icon_datasheet" stroke="none" stroke-width="1" fill="none" fill-rule="evenodd">
        <g id="icon_searchdata">
            <rect id="Rectangle" fill="#1B1E21" opacity="0" x="0" y="0" width="16" height="16"></rect>
            <path d="M2,5 L2,14 L11,14 L11,5 L2,5 Z M2,4 L11,4 C11.5522847,4 12,4.44771525 12,5 L12,14 C12,14.5522847 11.5522847,15 11,15 L2,15 C1.44771525,15 1,14.5522847 1,14 L1,5 C1,4.44771525 1.44771525,4 2,4 Z" id="Rectangle" fill="#FFFFFF" fill-rule="nonzero"></path>
            <path d="M6,2.94755141 L6,2 L12.4,2 C13.2836556,2 14,2.63634983 14,3.42132712 L14,11 L12.9333333,11 L12.9333333,3.42132712 C12.9333333,3.15966802 12.6945519,2.94755141 12.4,2.94755141 L6,2.94755141 Z" id="Path" fill="#FFFFFF" fill-rule="nonzero"></path>
            <path d="M4,7 L4,9 L6,9 L6,7 L4,7 Z M3,6 L7,6 L7,10 L3,10 L3,6 Z" id="Rectangle" fill="#FFFFFF" fill-rule="nonzero"></path>
            <rect id="Rectangle" fill="#FFFFFF" x="7" y="10" width="3" height="1" rx="0.5"></rect>
            <rect id="Rectangle-Copy-6" fill="#FFFFFF" x="7" y="12" width="3" height="1" rx="0.5"></rect>
        </g>
    </g>
</svg>