<?xml version="1.0" encoding="UTF-8"?>
<svg width="16px" height="16px" viewBox="0 0 16 16" version="1.1" xmlns="http://www.w3.org/2000/svg" xmlns:xlink="http://www.w3.org/1999/xlink">
    <!-- Generator: Sketch 52.2 (67145) - http://www.bohemiancoding.com/sketch -->
    <title>icon_classity</title>
    <desc>Created with Sketch.</desc>
    <g id="icon_classity" stroke="none" stroke-width="1" fill="none" fill-rule="evenodd">
        <g>
            <rect id="Rectangle" fill="#1B1E21" opacity="0" x="0" y="0" width="16" height="16"></rect>
            <path d="M3,3 L3,7 L7,7 L7,3 L3,3 Z M3,2 L7,2 C7.55228475,2 8,2.44771525 8,3 L8,7 C8,7.55228475 7.55228475,8 7,8 L3,8 C2.44771525,8 2,7.55228475 2,7 L2,3 C2,2.44771525 2.44771525,2 3,2 Z" id="Rectangle" fill="#FFFFFF" fill-rule="nonzero"></path>
            <path d="M10,3 L10,7 L14,7 L14,3 L10,3 Z M10,2 L14,2 C14.5522847,2 15,2.44771525 15,3 L15,7 C15,7.55228475 14.5522847,8 14,8 L10,8 C9.44771525,8 9,7.55228475 9,7 L9,3 C9,2.44771525 9.44771525,2 10,2 Z" id="Rectangle-Copy-7" fill="#FFFFFF" fill-rule="nonzero"></path>
            <path d="M9.5,10 L14.5,10 C14.7761424,10 15,10.2238576 15,10.5 C15,10.7761424 14.7761424,11 14.5,11 L9.5,11 C9.22385763,11 9,10.7761424 9,10.5 C9,10.2238576 9.22385763,10 9.5,10 Z M9.5,12 L14.5,12 C14.7761424,12 15,12.2238576 15,12.5 C15,12.7761424 14.7761424,13 14.5,13 L9.5,13 C9.22385763,13 9,12.7761424 9,12.5 C9,12.2238576 9.22385763,12 9.5,12 Z M9.5,14 L14.5,14 C14.7761424,14 15,14.2238576 15,14.5 C15,14.7761424 14.7761424,15 14.5,15 L9.5,15 C9.22385763,15 9,14.7761424 9,14.5 C9,14.2238576 9.22385763,14 9.5,14 Z" id="Combined-Shape" fill="#FFFFFF"></path>
            <path d="M3,10 L3,14 L7,14 L7,10 L3,10 Z M3,9 L7,9 C7.55228475,9 8,9.44771525 8,10 L8,14 C8,14.5522847 7.55228475,15 7,15 L3,15 C2.44771525,15 2,14.5522847 2,14 L2,10 C2,9.44771525 2.44771525,9 3,9 Z" id="Rectangle-Copy-9" fill="#FFFFFF" fill-rule="nonzero"></path>
        </g>
    </g>
</svg>