<?xml version="1.0" standalone="no"?><!DOCTYPE svg PUBLIC "-//W3C//DTD SVG 1.1//EN" "http://www.w3.org/Graphics/SVG/1.1/DTD/svg11.dtd"><svg t="1535527916507" class="icon" style="" viewBox="0 0 1024 1024" version="1.1" xmlns="http://www.w3.org/2000/svg" p-id="2186" xmlns:xlink="http://www.w3.org/1999/xlink" width="16" height="16"><defs><style type="text/css"></style></defs><path d="M512 967.111111c170.666667-68.266667 284.444444-164.977778 341.333333-284.444444 73.955556-142.222222 91.022222-307.2 56.888889-500.622223L512 56.888889 113.777778 187.733333c-34.133333 187.733333-17.066667 352.711111 51.2 494.933334C227.555556 802.133333 341.333333 898.844444 512 967.111111z m-295.822222-307.2C153.6 534.755556 136.533333 392.533333 164.977778 227.555556L512 113.777778l347.022222 113.777778c22.755556 164.977778 5.688889 307.2-56.888889 426.666666-51.2 102.4-147.911111 182.044444-290.133333 244.622222-147.911111-56.888889-244.622222-142.222222-295.822222-238.933333z" fill="#ffffff" p-id="2187"></path><path d="M512 631.466667L318.577778 438.044444l45.511111-39.822222L512 546.133333 716.8 341.333333l45.511111 39.822223z" fill="#ffffff" p-id="2188"></path></svg>