<?xml version="1.0" encoding="utf-8"?>
<!-- Generator: Adobe Illustrator 21.0.0, SVG Export Plug-In . SVG Version: 6.00 Build 0)  -->
<svg version="1.1" id="图层_1" xmlns="http://www.w3.org/2000/svg" xmlns:xlink="http://www.w3.org/1999/xlink" x="0px" y="0px"
	 viewBox="0 0 200 200" style="enable-background:new 0 0 200 200;" xml:space="preserve">
<style type="text/css">
	.st0{fill:#333333;}
</style>
<title>实时</title>
<g id="Page-1">
	<g id="修改-copy-7">
		<g id="流计算">
			<g id="实时">
				<g id="合并形状">
					<path id="Combined-Shape" class="st0" d="M80.6,103.4H35.1c-1.6,5.2-6.5,8.6-11.9,8.6c-7.2-0.5-12.6-6.7-12.1-13.9
						c0.4-6.5,5.6-11.6,12.1-12.1c5.4,0,10.2,3.5,11.9,8.7h45.5c2.2-6.6,9.3-10.2,15.9-8c3.8,1.2,6.8,4.2,8,8h35.6
						c0.9-3.1,3-5.8,5.8-7.4c3.9-2.3,8.8-2.3,12.7,0c6.2,3.7,8.2,11.8,4.5,18c-1.1,1.8-2.7,3.4-4.5,4.5c-3.9,2.3-8.8,2.3-12.7,0
						c-2.6-1.5-4.5-3.9-5.5-6.7h-35.8c-2,6.7-9.1,10.4-15.7,8.4C84.9,110.3,81.9,107.3,80.6,103.4L80.6,103.4z M41.6,45.2
						c-2.1,6.5-8.2,10.8-15,10.7c-8.7,0.1-15.9-6.8-16-15.5c0-0.2,0-0.4,0-0.5c-0.2-8.7,6.8-15.9,15.5-16.1c0.2,0,0.4,0,0.5,0
						c6.8-0.1,12.9,4.2,15,10.7h41.8l26.2,25.2h11.2c2.1-6.5,8.2-10.8,15-10.7c8.9,0,16.1,7.2,16.1,16.1c0,8.9-7.2,16.1-16.1,16.1
						c-6.8,0.1-12.9-4.2-15-10.7h-15.5L79,45.2H41.6z M163.2,121.8c-0.1-7.7,6-14,13.7-14.1c0.2,0,0.3,0,0.5,0
						c7.8,0,14.1,6.3,14.2,14.1c0.1,7.7-6,14-13.7,14.1c-0.2,0-0.3,0-0.5,0c-4,0-7.8-1.7-10.4-4.7h-64.9l-34.9,40.1H36.9
						c-3.6,6-10.9,8.6-17.5,6.1c-7.4-2.6-11.3-10.6-8.8-18c2.6-7.4,10.6-11.3,18-8.8c0.4,0.1,0.8,0.3,1.1,0.4
						c4.7,1.7,8.2,5.9,9,10.8h24.5l34.9-40.1L163.2,121.8z M114.3,153.5c6.3-3.6,14.4-1.4,18.1,4.9c3.6,6.3,1.4,14.4-4.9,18.1
						c-6.3,3.6-14.4,1.4-18.1-4.9c-1.1-2-1.8-4.3-1.7-6.6C107.6,160.3,110.1,155.9,114.3,153.5L114.3,153.5z"/>
				</g>
			</g>
		</g>
	</g>
</g>
</svg>
