<?xml version="1.0" standalone="no"?><!DOCTYPE svg PUBLIC "-//W3C//DTD SVG 1.1//EN" "http://www.w3.org/Graphics/SVG/1.1/DTD/svg11.dtd"><svg t="1537237268805" class="icon" style="" viewBox="0 0 1024 1024" version="1.1" xmlns="http://www.w3.org/2000/svg" p-id="1016" xmlns:xlink="http://www.w3.org/1999/xlink" width="200" height="200"><defs><style type="text/css"></style></defs><path d="M1014.023788 968.836633 786.143731 740.955552c68.109214-78.54796 109.326964-181.045379 109.326964-293.171086 0-247.27171-200.453405-447.724091-447.724091-447.724091S0.021489 200.51378 0.021489 447.784466s200.453405 447.724091 447.724091 447.724091c112.125707 0 214.623126-41.21775 293.171086-109.326964l227.881081 227.881081c5.786797 5.78782 13.782911 9.367345 22.61302 9.367345 17.662265 0 31.980365-14.3181 31.980365-31.980365C1023.391133 982.618521 1019.811608 974.623429 1014.023788 968.836633zM447.74558 831.54885c-211.94718 0-383.76336-171.817204-383.76336-383.76336S235.798401 64.021106 447.74558 64.021106s383.76336 171.817204 383.76336 383.76336S659.69276 831.54885 447.74558 831.54885z" p-id="1017" fill="#515151"></path></svg>