<?xml version="1.0" encoding="utf-8"?>
<!-- Generator: Adobe Illustrator 21.0.0, SVG Export Plug-In . SVG Version: 6.00 Build 0)  -->
<svg version="1.1" id="图层_1" xmlns="http://www.w3.org/2000/svg" xmlns:xlink="http://www.w3.org/1999/xlink" x="0px" y="0px"
	 viewBox="0 0 200 200" style="enable-background:new 0 0 200 200;" xml:space="preserve">
<style type="text/css">
	.st0{fill:#2491F7;}
</style>
<title>Server - FontAwesome</title>
<desc>Created with Sketch.</desc>
<g id="Page-1">
	<g id="数据质量-任务查询-详细报告" transform="translate(-44.000000, -16.000000)">
		<g id="menu">
			<path id="Server---FontAwesome" class="st0" d="M97.7,150.7h61.7V143H97.7V150.7z M97.7,119.9h61.7v-7.7H97.7V119.9z
				 M192.2,146.9c0-3.2-2.6-5.8-5.8-5.8c-3.2,0-5.8,2.6-5.8,5.8c0,3.2,2.6,5.8,5.8,5.8C189.6,152.6,192.2,150.1,192.2,146.9z
				 M97.7,89h61.7v-7.7H97.7V89z M192.2,116c0-3.2-2.6-5.8-5.8-5.8c-3.2,0-5.8,2.6-5.8,5.8c0,3.2,2.6,5.8,5.8,5.8
				C189.6,121.8,192.2,119.2,192.2,116z M192.2,85.1c0-3.2-2.6-5.8-5.8-5.8c-3.2,0-5.8,2.6-5.8,5.8c0,3.2,2.6,5.8,5.8,5.8
				C189.6,90.9,192.2,88.3,192.2,85.1z M198,135.3v23.1H90v-23.1H198z M198,104.4v23.1H90v-23.1H198z M198,73.6v23.1H90V73.6H198z"
				/>
		</g>
	</g>
</g>
</svg>
