<?xml version="1.0" encoding="utf-8"?>
<!-- Generator: Adobe Illustrator 21.0.0, SVG Export Plug-In . SVG Version: 6.00 Build 0)  -->
<svg version="1.1" id="图层_1" xmlns="http://www.w3.org/2000/svg" xmlns:xlink="http://www.w3.org/1999/xlink" x="0px" y="0px"
	 viewBox="0 0 200 200" style="enable-background:new 0 0 200 200;" xml:space="preserve">
<style type="text/css">
	.st0{fill:#2491F7;}
</style>
<title>Server - FontAwesome</title>
<desc>Created with Sketch.</desc>
<g id="Page-1">
	<g id="数据质量-任务查询-详细报告" transform="translate(-44.000000, -16.000000)">
		<g id="menu">
			<path id="Server---FontAwesome" class="st0" d="M58.3,180.3h114.3V166H58.3V180.3z M58.3,123.2h114.3V109H58.3V123.2z
				 M233.3,173.2c0-5.9-4.8-10.7-10.7-10.7s-10.7,4.8-10.7,10.7c0,5.9,4.8,10.7,10.7,10.7C228.4,183.8,233.3,179.1,233.3,173.2z
				 M58.3,66h114.3V51.7H58.3V66z M233.3,116c0-5.9-4.8-10.7-10.7-10.7s-10.7,4.8-10.7,10.7c0,5.9,4.8,10.7,10.7,10.7
				C228.4,126.7,233.3,121.9,233.3,116z M233.3,58.8c0-5.9-4.8-10.7-10.7-10.7s-10.7,4.8-10.7,10.7c0,5.9,4.8,10.7,10.7,10.7
				C228.4,69.5,233.3,64.7,233.3,58.8z M244,151.7v42.8H44v-42.8H244z M244,94.5v42.8H44V94.5H244z M244,37.5v42.8H44V37.5H244z"/>
		</g>
	</g>
</g>
</svg>
