<?xml version="1.0" encoding="UTF-8"?>
<svg width="12px" height="12px" viewBox="0 0 12 12" version="1.1" xmlns="http://www.w3.org/2000/svg" xmlns:xlink="http://www.w3.org/1999/xlink">
    <!-- Generator: Sketch 58 (84663) - https://sketch.com -->
    <title>项目2</title>
    <desc>Created with Sketch.</desc>
    <g id="Page-1" stroke="none" stroke-width="1" fill="none" fill-rule="evenodd">
        <g id="数据质量首页(空状态)" transform="translate(-467.000000, -274.000000)" fill="#42C1FF">
            <g id="常用项目" transform="translate(19.000000, 104.000000)">
                <g id="项目2" transform="translate(329.000000, 51.000000)">
                    <g id="Group-4" transform="translate(119.000000, 119.000000)">
                        <path d="M6.5,1 C6.77614237,1 7,1.22385763 7,1.5 L7,5 L10.5,5 C10.7761424,5 11,5.22385763 11,5.5 C11,5.77614237 10.7761424,6 10.5,6 L6.999,6 L7,9.5 C7,9.77614237 6.77614237,10 6.5,10 C6.22385763,10 6,9.77614237 6,9.5 L5.999,6 L2.5,6 C2.22385763,6 2,5.77614237 2,5.5 C2,5.22385763 2.22385763,5 2.5,5 L6,5 L6,1.5 C6,1.22385763 6.22385763,1 6.5,1 Z" id="Combined-Shape"></path>
                    </g>
                </g>
            </g>
        </g>
    </g>
</svg>