<?xml version="1.0" encoding="UTF-8"?>
<svg width="36px" height="36px" viewBox="0 0 36 36" version="1.1" xmlns="http://www.w3.org/2000/svg" xmlns:xlink="http://www.w3.org/1999/xlink">
    <title>console_logo</title>
    <defs>
        <linearGradient x1="100%" y1="50%" x2="0%" y2="50%" id="linearGradient-1">
            <stop stop-color="#3F87FF" offset="0%"></stop>
            <stop stop-color="#7ED7FF" offset="100%"></stop>
        </linearGradient>
    </defs>
    <g id="页面-1" stroke="none" stroke-width="1" fill="none" fill-rule="evenodd">
        <g id="logo_上色" transform="translate(-180.000000, -38.000000)" fill="url(#linearGradient-1)" fill-rule="nonzero">
            <g id="console16" transform="translate(180.000000, 38.000000)">
                <g id="编组" transform="translate(4.000000, 5.000000)">
                    <path d="M26,0 C27.1045695,0 28,0.8954305 28,2 L28,2 L28,19.5 C28,20.6045695 27.1045695,21.5 26,21.5 L26,21.5 L15,21.5 L15,24.642 L20.5,24.6421475 C21.0522847,24.6421475 21.5,25.0898628 21.5,25.6421475 C21.5,26.1549833 21.1139598,26.5776547 20.6166211,26.6354198 L20.5,26.6421475 L7.5,26.6421475 C6.94771525,26.6421475 6.5,26.1944323 6.5,25.6421475 C6.5,25.1293117 6.88604019,24.7066403 7.38337887,24.6488752 L7.5,24.6421475 L13,24.642 L13,21.5 L2,21.5 C0.945638205,21.5 0.0818348781,20.6841222 0.00548573643,19.6492623 L0,19.5 L0,2 C0,0.8954305 0.8954305,0 2,0 L2,0 Z M26,2 L2,2 L2,19.5 L26,19.5 L26,2 Z M9.90841574,12.78125 C10.89782,12.78125 11.7495407,13.370743 12.1315142,14.2176653 L21.3125,14.21875 C21.8647847,14.21875 22.3125,14.6664653 22.3125,15.21875 C22.3125,15.7315858 21.9264598,16.1542572 21.4291211,16.2120223 L21.3125,16.21875 L12.1319627,16.2188397 C11.7502077,17.0662952 10.8982074,17.65625 9.90841574,17.65625 C8.91862412,17.65625 8.06662382,17.0662952 7.68486881,16.2188397 L6.6875,16.21875 C6.13521525,16.21875 5.6875,15.7710347 5.6875,15.21875 C5.6875,14.7059142 6.07354019,14.2832428 6.57087887,14.2254777 L6.6875,14.21875 L7.68531727,14.2176653 C8.06729077,13.370743 8.91901151,12.78125 9.90841574,12.78125 Z M18.875,7.90625 C19.8644042,7.90625 20.716125,8.49574304 21.0980985,9.34266534 L21.3125,9.34375 C21.8647847,9.34375 22.3125,9.79146525 22.3125,10.34375 C22.3125,10.8565858 21.9264598,11.2792572 21.4291211,11.3370223 L21.3125,11.34375 L21.0985469,11.3438397 C20.7167919,12.1912952 19.8647916,12.78125 18.875,12.78125 C17.8852084,12.78125 17.0332081,12.1912952 16.6514531,11.3438397 L6.6875,11.34375 C6.13521525,11.34375 5.6875,10.8960347 5.6875,10.34375 C5.6875,9.83091416 6.07354019,9.40824284 6.57087887,9.35047773 L6.6875,9.34375 L16.6519015,9.34266534 C17.033875,8.49574304 17.8855958,7.90625 18.875,7.90625 Z M9.90841574,3.03125 C10.89782,3.03125 11.7495407,3.62074304 12.1315142,4.46766534 L21.3125,4.46875 C21.8647847,4.46875 22.3125,4.91646525 22.3125,5.46875 C22.3125,5.98158584 21.9264598,6.40425716 21.4291211,6.46202227 L21.3125,6.46875 L12.1319627,6.46883973 C11.7502077,7.31629525 10.8982074,7.90625 9.90841574,7.90625 C8.91862412,7.90625 8.06662382,7.31629525 7.68486881,6.46883973 L6.6875,6.46875 C6.13521525,6.46875 5.6875,6.02103475 5.6875,5.46875 C5.6875,4.95591416 6.07354019,4.53324284 6.57087887,4.47547773 L6.6875,4.46875 L7.68531727,4.46766534 C8.06729077,3.62074304 8.91901151,3.03125 9.90841574,3.03125 Z" id="形状结合"></path>
                </g>
            </g>
        </g>
    </g>
</svg>