<?xml version="1.0" standalone="no"?><!DOCTYPE svg PUBLIC "-//W3C//DTD SVG 1.1//EN" "http://www.w3.org/Graphics/SVG/1.1/DTD/svg11.dtd"><svg t="1493193720899" class="icon" style="" viewBox="0 0 1024 1024" version="1.1" xmlns="http://www.w3.org/2000/svg" p-id="30701" xmlns:xlink="http://www.w3.org/1999/xlink" width="200" height="200"><defs><style type="text/css"></style></defs><path d="M512 0C292.571429 0 109.714286 138.971429 36.571429 329.142857h80.457142c21.942857-43.885714 51.2-87.771429 87.771429-124.342857C285.257143 117.028571 394.971429 73.142857 512 73.142857s226.742857 43.885714 307.2 131.657143C899.657143 285.257143 950.857143 394.971429 950.857143 512s-43.885714 226.742857-131.657143 307.2C738.742857 899.657143 629.028571 950.857143 512 950.857143s-226.742857-43.885714-307.2-131.657143c-36.571429-36.571429-65.828571-80.457143-87.771429-124.342857H36.571429C109.714286 885.028571 292.571429 1024 512 1024c285.257143 0 512-226.742857 512-512s-234.057143-512-512-512zM402.285714 665.6l51.2 51.2L658.285714 512 453.485714 307.2l-51.2 51.2 117.028572 117.028571H0v73.142858h519.314286L402.285714 665.6z" fill="#040000" p-id="30702"></path></svg>