<?xml version="1.0" encoding="UTF-8"?>
<svg width="16px" height="16px" viewBox="0 0 16 16" version="1.1" xmlns="http://www.w3.org/2000/svg" xmlns:xlink="http://www.w3.org/1999/xlink">
    <title>Group 11</title>
    <g id="Page-1" stroke="none" stroke-width="1" fill="none" fill-rule="evenodd">
        <g id="脏数据处理" transform="translate(-19.000000, -436.000000)" fill="#FFFFFF" fill-rule="nonzero">
            <g id="Group-11" transform="translate(19.000000, 436.000000)">
                <path d="M10,1 C10.5895944,1 11,1.44771525 11,2 L11.001171,4.23421573 C11.0644526,4.32184643 11.1024528,4.43011003 11.1023362,4.54997627 L11.1023362,4.54997627 L11.0994503,6.92280089 L12.0597013,6.92138668 L12.0630571,4.54581724 C12.063512,4.19529333 12.3886123,3.94698785 12.7159506,4.01820652 L12.7159506,4.01820652 L12.8050379,4.04571515 L13.1342038,4.17708843 C13.773729,4.45553677 14.3239919,4.90098811 14.7347953,5.47453542 C15.2075933,6.13512642 15.4578268,6.91682525 15.4559481,7.72896806 C15.4551565,8.53191447 15.2098339,9.30440904 14.7476115,9.96033048 C14.4212918,10.4232235 14.0038511,10.805056 13.5210485,11.0850585 L13.5210485,11.0850585 L13.4201747,11.1385715 L13.416442,14.5587453 C13.4161723,14.8359694 13.3225514,15.1003308 13.1515258,15.3144872 L13.1515258,15.3144872 L13.0596365,15.4172088 C12.8305216,15.6463237 12.524601,15.7736997 12.201173,15.7740143 L12.201173,15.7740143 L10.9364171,15.7752163 C10.6123995,15.7722251 10.3084225,15.6430868 10.0837479,15.4184122 C9.85761334,15.1922777 9.72755317,14.8852265 9.72787018,14.5592804 L9.72787018,14.5592804 L9.728,14 L1,14 C0.410405646,14 0,13.5522847 0,13 L0,2 C0,1.44771525 0.410405646,1 1,1 L10,1 Z M10.0211124,5.37494415 L9.91012909,5.4528327 C9.74245932,5.57929792 9.58847242,5.73813329 9.42702501,5.94518661 L9.42702501,5.94518661 L9.30421025,6.1097651 C8.96231727,6.58682481 8.78193742,7.14768427 8.78136347,7.73640793 C8.78080039,8.31675641 8.95604915,8.87165378 9.2893041,9.34522236 C9.3818877,9.4771289 9.48552568,9.60022798 9.60042421,9.71512651 C9.84580374,9.96050604 10.1330641,10.1562889 10.4338839,10.2876643 L10.4338839,10.2876643 L10.4691153,10.3015147 C10.6758831,10.3828004 10.8117634,10.5824314 10.8115459,10.8046031 L10.8115459,10.8046031 L10.8078697,14.5603342 C10.8078349,14.5961287 10.8218114,14.6291251 10.8474232,14.6547369 C10.8731966,14.6805103 10.9070667,14.6948993 10.9408768,14.6952396 L10.9408768,14.6952396 L12.2001226,14.6940148 C12.2369538,14.693979 12.268758,14.6807367 12.2959612,14.6535335 C12.3231644,14.6263303 12.3364066,14.5945262 12.3364425,14.5576168 L12.3364425,14.5576168 L12.3406384,10.8020383 C12.3408802,10.5856328 12.4702927,10.3902728 12.6694647,10.3056448 C13.1501852,10.1013873 13.5610333,9.76910311 13.8648464,9.3381362 C14.1989293,8.86405231 14.3753734,8.30844911 14.3759469,7.72718694 C14.3773031,7.14075775 14.1977271,6.57978432 13.8566695,6.10326027 L13.8566695,6.10326027 L13.7255755,5.93398426 C13.5886271,5.77026723 13.4346089,5.62385774 13.2649821,5.49627216 L13.2649821,5.49627216 L13.1422818,5.41029949 L13.1392721,7.46301862 C13.1389286,7.72768959 12.9482076,7.94771832 12.6967065,7.99354944 L12.6967065,7.99354944 L12.5997977,8.00231756 L10.5600267,8.00430143 C10.2613828,8.00459189 10.0192113,7.7624204 10.0195018,7.46377648 L10.0195018,7.46377648 L10.0211124,5.37494415 Z M10,2 L1,2 L1,13 L9.729,13 L9.73119866,11.1421071 L9.59268007,11.066276 C9.38640658,10.9438819 9.19220521,10.8024979 9.01209174,10.6435507 L9.01209174,10.6435507 L8.83674889,10.4788018 C8.6779536,10.3200065 8.53401561,10.1490399 8.40569729,9.9662204 C7.94451956,9.31086942 7.70058422,8.53848692 7.70136347,7.73535753 C7.70215699,6.92140285 7.95317103,6.14091878 8.42647787,5.48049103 C8.92034318,4.79188545 9.39870501,4.39360418 10.1100365,4.13835325 L9.997,4.182 L10,2 Z M5.5,10 C5.77614237,10 6,10.2238576 6,10.5 C6,10.7761424 5.77614237,11 5.5,11 L2.5,11 C2.22385763,11 2,10.7761424 2,10.5 C2,10.2238576 2.22385763,10 2.5,10 L5.5,10 Z M6.5,7 C6.77614237,7 7,7.22385763 7,7.5 C7,7.77614237 6.77614237,8 6.5,8 L2.5,8 C2.22385763,8 2,7.77614237 2,7.5 C2,7.22385763 2.22385763,7 2.5,7 L6.5,7 Z M7.5,4 C7.77614237,4 8,4.22385763 8,4.5 C8,4.77614237 7.77614237,5 7.5,5 L2.5,5 C2.22385763,5 2,4.77614237 2,4.5 C2,4.22385763 2.22385763,4 2.5,4 L7.5,4 Z" id="Combined-Shape"></path>
            </g>
        </g>
    </g>
</svg>