<?xml version="1.0" encoding="UTF-8"?>
<svg width="12px" height="12px" viewBox="0 0 12 12" version="1.1" xmlns="http://www.w3.org/2000/svg" xmlns:xlink="http://www.w3.org/1999/xlink">
    <!-- Generator: Sketch 63.1 (92452) - https://sketch.com -->
    <title>项目</title>
    <desc>Created with Sketch.</desc>
    <g id="页面-1" stroke="none" stroke-width="1" fill="none" fill-rule="evenodd">
        <g id="项目切换" transform="translate(-287.000000, -130.000000)" fill-rule="nonzero">
            <g id="下拉" transform="translate(241.000000, 52.000000)">
                <g id="tree" transform="translate(12.000000, 49.000000)">
                    <g id="项目" transform="translate(34.000000, 29.000000)">
                        <rect id="矩形" fill="#000000" opacity="0" x="0" y="0" width="12" height="12"></rect>
                        <path d="M1.11428571,3.42857143 L6,5.91428571 L10.8857143,3.42857143 L6,1.02857143 L1.11428571,3.42857143 Z M1.8,7.28571429 L0.771428566,6.77142857 C0.428571434,6.6 0.257142855,6.34285714 0.257142855,6 C0.257142855,5.65714286 0.428571422,5.4 0.771428566,5.22857143 L1.8,4.71428571 L0.771428566,4.2 C0.342857145,4.02857143 0.171428566,3.51428571 0.342857145,3.08571429 C0.428571434,2.91428572 0.6,2.74285714 0.685714289,2.74285714 L5.57142857,0.342857145 C5.82857142,0.257142855 6.08571428,0.257142855 6.34285714,0.342857145 L11.2285714,2.74285714 C11.6571429,2.91428571 11.8285714,3.42857143 11.5714286,3.85714286 C11.4857143,4.02857142 11.3142857,4.2 11.2285714,4.2 L10.2,4.71428571 L11.1428571,5.14285714 C11.5714286,5.31428571 11.7428571,5.57142858 11.7428571,6 C11.7428571,6.34285714 11.5714286,6.68571429 11.1428571,6.85714286 L10.2,7.28571429 L11.1428571,7.71428571 C11.5714286,7.88571428 11.7428571,8.14285714 11.7428571,8.57142857 C11.7428571,8.91428571 11.5714286,9.25714286 11.1428571,9.42857143 L6.42857143,11.7428571 C6.34285714,11.8285714 6.17142858,11.8285714 6,11.8285714 C5.82857142,11.8285714 5.74285714,11.8285714 5.57142857,11.7428571 L0.685714289,9.34285714 C0.342857145,9.17142858 0.257142855,8.91428571 0.257142855,8.57142857 C0.257142855,8.22857142 0.428571422,7.97142857 0.771428566,7.8 L1.8,7.28571429 Z M2.74285714,7.8 L1.11428571,8.57142857 L6,11.0571429 L10.8857143,8.65714286 L9.25714286,7.88571429 L6.42857143,9.25714286 C6.34285714,9.34285714 6.17142858,9.34285714 6,9.34285714 C5.82857142,9.34285714 5.74285714,9.34285714 5.57142857,9.25714286 L2.74285714,7.8 Z M9.25714286,5.22857143 L6.42857143,6.6 C6.17142858,6.68571429 5.91428572,6.68571429 5.65714286,6.6 L2.74285714,5.22857143 L1.11428571,6 L6,8.48571429 L10.8857143,6 L9.25714286,5.22857143 Z" id="形状" fill="#2491F7"></path>
                    </g>
                </g>
            </g>
        </g>
    </g>
</svg>