<?xml version="1.0" encoding="utf-8"?>
<!-- Generator: Adobe Illustrator 21.0.0, SVG Export Plug-In . SVG Version: 6.00 Build 0)  -->
<svg version="1.1" id="图层_1" xmlns="http://www.w3.org/2000/svg" xmlns:xlink="http://www.w3.org/1999/xlink" x="0px" y="0px"
	 viewBox="0 0 24 24" style="enable-background:new 0 0 24 24;" xml:space="preserve">
<style type="text/css">
	.st0{fill:#2491F7;}
</style>
<title>logo_engine</title>
<desc>Created with Sketch.</desc>
<g id="全部页面">
	<g id="_x31_6流计算首页" transform="translate(-10.000000, -14.000000)">
		<g id="menu">
			<path id="logo_engine" class="st0" d="M32.8,15.5c-0.1-0.3-0.3-0.5-0.6-0.6c-4.5-1-9.3,0.2-12.8,3.7c-0.5,0.5-0.9,1-1.3,1.6
				c-0.1,0.2-0.3,0.3-0.5,0.3c-1.8,0.4-3.6,1.4-5,2.8c-0.6,0.6-1.2,1.4-1.7,2.2c-0.4,0.7,0.3,1.5,1,1.2c1.1-0.4,2.4-0.6,3.7-0.6
				c0,0.1,0,0.2-0.1,0.3c0.9,1,1.8,2.1,2.8,3c1,1,2,1.9,3,2.8c0.1,0,0.2,0,0.3-0.1c0,1.3-0.2,2.5-0.6,3.7c-0.3,0.7,0.5,1.4,1.2,1
				c0.8-0.5,1.5-1,2.2-1.7c1.4-1.4,2.4-3.2,2.8-5c0-0.2,0.2-0.4,0.3-0.5c0.6-0.4,1.1-0.9,1.6-1.3C32.6,24.8,33.8,19.9,32.8,15.5z
				 M23.3,24.4c-1.1-1.1-1.1-2.8,0-3.9c1.1-1.1,2.8-1.1,3.9,0c1.1,1.1,1.1,2.8,0,3.9C26.1,25.4,24.3,25.4,23.3,24.4z M11.3,37.3
				c-1.3-1,1.6-6.6,2.4-7.5c0.8-0.9,2.4-0.8,3.7,0.2c1.3,1,1.7,2.6,1,3.5C17.7,34.4,12.6,38.3,11.3,37.3z"/>
		</g>
	</g>
</g>
</svg>
