<svg id="图层_1" data-name="图层 1" xmlns="http://www.w3.org/2000/svg" viewBox="0 0 144.39 165.3"><defs><style>.cls-1{fill:none;}</style></defs><title>logo</title><path fill="#fff" d="M170.23,58,103.54,19.53a5.46,5.46,0,0,0-5.47,0L31.38,58a5.48,5.48,0,0,0-2.74,4.74v77a5.49,5.49,0,0,0,2.74,4.74L98.07,183a5.49,5.49,0,0,0,5.47,0l66.69-38.51a5.49,5.49,0,0,0,2.74-4.74v-77A5.49,5.49,0,0,0,170.23,58Zm-9.93,77-59.42,34.3L41.47,135V66.43l59.42-34.3,59.42,34.3Z" transform="translate(-28.61 -18.61)"/><rect class="cls-1" width="144.39" height="165.3"/><path d="M55.15,76.87a5.48,5.48,0,0,0,2,7.48l38.07,22V149.8a5.47,5.47,0,0,0,10.94,0V106.39l38.21-22.07a5.47,5.47,0,1,0-5.47-9.48h0l-38.14,22-38.14-22a5.49,5.49,0,0,0-7.48,2Z" fill="#fff" transform="translate(-28.61 -18.61)"/></svg>