<?xml version="1.0" encoding="utf-8"?>
<!-- Generator: Adobe Illustrator 21.0.0, SVG Export Plug-In . SVG Version: 6.00 Build 0)  -->
<svg version="1.1" id="图层_1" xmlns="http://www.w3.org/2000/svg" xmlns:xlink="http://www.w3.org/1999/xlink" x="0px" y="0px"
	 viewBox="0 0 200 200" style="enable-background:new 0 0 200 200;" xml:space="preserve">
<style type="text/css">
	.st0{fill:#2491F7;}
	.st1{fill:#FFFFFF;}
</style>
<g id="Page-1">
	<g id="仪表盘皮肤深色配置" transform="translate(-305.000000, -66.000000)">
		<g id="title" transform="translate(0.000000, 50.000000)">
			<path id="表格" class="st0" d="M405.3,46.1h68.8c4.8-1.2,9.7,1.9,10.7,6.8c0.3,1.3,0.3,2.6,0,3.9v118.3
				c1.2,4.8-1.9,9.7-6.8,10.7c-1.3,0.3-2.6,0.3-3.9,0H335.1c-4.6,0.9-9.1-2.2-10-6.7c-0.3-1-0.1-2.2,0-3.3V56.3
				c-0.9-4.6,2-9.1,6.7-10c1.2-0.3,2.2-0.3,3.3,0h70.3V46.1z M375.4,148.7h-39.5V176h39.5V148.7L375.4,148.7z M425.5,148.7H386V176
				h39.5V148.7L425.5,148.7z M435.5,175.2h39.3v-26.6h-39.3V175.2L435.5,175.2z M335.9,138.7h39.5v-26.6h-39.5V138.7L335.9,138.7z
				 M434.8,139.3h37.9c1-0.3,1.9-1.2,2.2-2.2V112h-40.1V139.3L434.8,139.3z M385.3,139.3h39.3v-26.6h-39.3V139.3L385.3,139.3z
				 M375.4,102.9V76.3h-39.5v24.4c0.4,1.3,1.6,2,2.9,2.2C351,103.6,363.2,102.9,375.4,102.9L375.4,102.9z M385.3,102.9h39.5V76.3
				h-39.5V102.9z M435.5,102.9H475V76.3h-39.5V102.9z"/>
		</g>
	</g>
</g>
<g>
	<path class="st1" d="M172.8,98.8c-14.6-12.2-41.7-31-72.8-31s-58.2,18.6-72.8,31c-6.3,5.3-6.3,15.9,0,21.2
		c14.6,12.2,41.7,31,72.8,31s58.2-18.6,72.8-31C179.3,114.7,179.3,104.3,172.8,98.8z"/>
</g>
<g>
	<path class="st0" d="M154.4,102.1c-10.9-8.4-31.1-21.2-54.4-21.2s-43.5,12.7-54.4,21.2c-4.7,3.6-4.7,10.9,0,14.5
		c10.9,8.4,31.1,21.2,54.4,21.2s43.5-12.7,54.4-21.2C159.2,113,159.2,105.8,154.4,102.1z M100.2,127.3c-9.8,0-17.9-8-17.9-17.9
		c0-9.8,8-17.9,17.9-17.9c9.8,0,17.9,8,17.9,17.9C118,119.2,110,127.3,100.2,127.3z"/>
	<circle class="st0" cx="100.2" cy="109.4" r="7.9"/>
</g>
</svg>
