<?xml version="1.0" encoding="utf-8"?>
<!-- Generator: Adobe Illustrator 21.0.0, SVG Export Plug-In . SVG Version: 6.00 Build 0)  -->
<svg version="1.1" id="图层_1" xmlns="http://www.w3.org/2000/svg" xmlns:xlink="http://www.w3.org/1999/xlink" x="0px" y="0px"
	 viewBox="0 0 200 200" style="enable-background:new 0 0 200 200;" xml:space="preserve">
<style type="text/css">
	.st0{fill:#2491F7;}
</style>
<path class="st0" d="M40.4,165.6c-2.1-1.6-3.5-3.6-4.4-5.8h-7V135h23c8-5.3,17.6-10.7,28.4-15.1v-19.3h34.3v10.6
	c3-0.3,6.1-0.4,9.2-0.4c0.7,0,1.4,0,2.2,0v-10.2h40v18.8c4,1.6,7.8,3.3,11.4,5.1V39.9c0-5.2-4.2-9.3-9.3-9.3H26.9
	c-5.2,0-9.3,4.2-9.3,9.3v121.3c0,5.2,4.2,9.3,9.3,9.3h20.2C44.7,168.8,42.4,167.2,40.4,165.6z M126.1,65.6h40v24.2h-40V65.6z
	 M80.4,65.6h34.3v24.2H80.4V65.6z M29,65.6h40v24.2H29V65.6z M29,100.6h40v23.7H29V100.6z"/>
<g>
	<path class="st0" d="M181.5,147.9c-12.1-9.3-34.5-23.5-60.3-23.5s-48.2,14.1-60.3,23.5c-5.2,4-5.2,12.1,0,16.1
		c12.1,9.3,34.5,23.5,60.3,23.5s48.2-14.1,60.3-23.5C186.8,159.9,186.8,152,181.5,147.9z M121.4,175.8c-10.9,0-19.9-8.9-19.9-19.9
		c0-10.9,8.9-19.9,19.9-19.9c10.9,0,19.9,8.9,19.9,19.9C141.1,166.8,132.3,175.8,121.4,175.8z"/>
	<circle class="st0" cx="121.4" cy="155.9" r="8.7"/>
</g>
</svg>
