<?xml version="1.0" standalone="no"?><!DOCTYPE svg PUBLIC "-//W3C//DTD SVG 1.1//EN" "http://www.w3.org/Graphics/SVG/1.1/DTD/svg11.dtd"><svg t="1534152315272" class="icon" style="" viewBox="0 0 1024 1024" version="1.1" xmlns="http://www.w3.org/2000/svg" p-id="2853" xmlns:xlink="http://www.w3.org/1999/xlink" width="16" height="16"><defs><style type="text/css"></style></defs><path d="M952 173.7L768.7 68.3c-4.9-2.8-10.4-4.2-15.8-4.2s-10.9 1.4-15.8 4.2L553.8 173.7c-9.8 5.7-15.8 16.1-15.8 27.5v8.9l-10.1-5.8c-4.9-2.8-10.4-4.2-15.8-4.2s-10.9 1.4-15.8 4.2l-10.2 5.9v-9c0-11.3-6.1-21.8-15.9-27.5L286.8 68.3c-4.9-2.8-10.4-4.2-15.8-4.2s-10.9 1.4-15.8 4.2L71.9 173.7C62 179.4 56 189.8 56 201.2v211.6c0 11.3 6 21.8 15.9 27.5l183.3 105.4c4.9 2.8 10.3 4.2 15.8 4.2s10.9-1.4 15.8-4.2l10.2-5.9v9c0 11.3 6.1 21.8 15.9 27.5l6.5 3.7-6.5 3.7c-9.8 5.7-15.9 16.1-15.9 27.5v211.6c0 11.3 6.1 21.8 15.9 27.5l183.3 105.4c4.9 2.8 10.4 4.2 15.8 4.2s10.9-1.4 15.8-4.2l183.3-105.4c9.8-5.7 15.9-16.1 15.9-27.5V611.3c0-11.3-6.1-21.8-15.9-27.5l-6.5-3.7 6.5-3.7c9.8-5.7 15.9-16.1 15.9-27.5V540l10.1 5.8c4.9 2.8 10.4 4.2 15.8 4.2s10.9-1.4 15.8-4.2L952 440.3c9.8-5.7 16-16.1 16-27.5V201.2c0-11.4-6.1-21.8-16-27.5z m-681 298l-143-82.2v-165l143-82.2 143 82.2v27.1l-101.1 58.1c-9.8 5.7-15.9 16.1-15.9 27.5v119.6l-26 14.9z m143-167v84.9l-71 40.8v-84.9l71-40.8z m241 329.9v165l-143 82.2-143-82.2v-165l22.6-13 104.6 60.1c4.9 2.8 10.4 4.2 15.8 4.2s10.9-1.4 15.8-4.2l104.6-60.1 22.6 13zM437.8 595l74.2-42.7 74.2 42.7-74.2 42.7-74.2-42.7zM681 540.6l-22.5 13-130.7-75.1c-4.9-2.8-10.4-4.2-15.8-4.2s-10.9 1.4-15.8 4.2l-130.7 75.1-22.5-13v-27.2l127.1-73.1c9.8-5.7 15.9-16.1 15.9-27.5V263.3l26.1-15 25.9 14.9v149.7c0 11.3 6 21.8 15.8 27.5L681 513.5v27.1z m0-110.2l-71-40.9v-85l71 40.9v85z m215-40.9l-143.1 82.2-25.9-14.8V337.2c0-11.3-6-21.8-15.8-27.5L610 251.5v-27l143-82.2 143 82.2v165z" p-id="2854" fill="#2491f7"></path></svg>