<?xml version="1.0" encoding="UTF-8"?>
<svg width="16px" height="16px" viewBox="0 0 16 16" version="1.1" xmlns="http://www.w3.org/2000/svg" xmlns:xlink="http://www.w3.org/1999/xlink">
    <!-- Generator: Sketch 52.2 (67145) - http://www.bohemiancoding.com/sketch -->
    <title>Combined Shape</title>
    <desc>Created with Sketch.</desc>
    <g id="设计稿3.4" stroke="none" stroke-width="1" fill="none" fill-rule="evenodd">
        <g id="Artboard" transform="translate(-93.000000, -88.000000)" fill="#2491F7" fill-rule="nonzero">
            <g id="生成api的icon" transform="translate(93.000000, 88.000000)">
                <path d="M2,1 C1.44771525,1 1,1.44771525 1,2 L1,14 C1,14.5522847 1.44771525,15 2,15 L14,15 C14.5522847,15 15,14.5522847 15,14 L15,2 C15,1.44771525 14.5522847,1 14,1 L2,1 Z M2,0 L14,0 C15.1045695,-2.02906125e-16 16,0.8954305 16,2 L16,14 C16,15.1045695 15.1045695,16 14,16 L2,16 C0.8954305,16 1.3527075e-16,15.1045695 0,14 L0,2 C-1.3527075e-16,0.8954305 0.8954305,2.02906125e-16 2,0 Z M7.5,5 L7.5,3 C7.5,2.72385763 7.72385763,2.5 8,2.5 C8.27614237,2.5 8.5,2.72385763 8.5,3 L8.5,5 L10.5,5 C10.7761424,5 11,5.22385763 11,5.5 C11,5.77614237 10.7761424,6 10.5,6 L8.5,6 L8.5,8 C8.5,8.27614237 8.27614237,8.5 8,8.5 C7.72385763,8.5 7.5,8.27614237 7.5,8 L7.5,6 L5.5,6 C5.22385763,6 5,5.77614237 5,5.5 C5,5.22385763 5.22385763,5 5.5,5 L7.5,5 Z M7.43931311,14 L6.46755321,14 L6.08126356,13.0244141 L4.31278124,13.0244141 L3.9476168,14 L3,14 L4.723214,9.70507812 L5.66781291,9.70507812 L7.43931311,14 Z M5.7945642,12.3007812 L5.18495085,10.7070312 L4.58740904,12.3007812 L5.7945642,12.3007812 Z M7.91312152,14 L7.91312152,9.70507812 L9.34661827,9.70507812 C9.88984081,9.70507812 10.2439361,9.72656229 10.4089148,9.76953125 C10.6624187,9.8339847 10.8746747,9.97412001 11.0456892,10.1899414 C11.2167037,10.4057628 11.3022096,10.6845686 11.3022096,11.0263672 C11.3022096,11.2900404 11.252918,11.5117179 11.1543331,11.6914062 C11.0557483,11.8710946 10.9305072,12.0122065 10.7786061,12.1147461 C10.626705,12.2172857 10.4722912,12.2851561 10.3153603,12.3183594 C10.1020951,12.3593752 9.79326771,12.3798828 9.3888687,12.3798828 L8.80641634,12.3798828 L8.80641634,14 L7.91312152,14 Z M8.80641634,10.4316406 L8.80641634,11.6503906 L9.29531418,11.6503906 C9.64740286,11.6503906 9.88279577,11.6279299 10.0015,11.5830078 C10.1202041,11.5380857 10.2132547,11.4677739 10.2806546,11.3720703 C10.3480544,11.2763667 10.3817538,11.1650397 10.3817538,11.0380859 C10.3817538,10.8818352 10.3344741,10.7529302 10.2399131,10.6513672 C10.1453521,10.5498042 10.0256438,10.4863283 9.88078443,10.4609375 C9.77415186,10.4414062 9.55988396,10.4316406 9.23797431,10.4316406 L8.80641634,10.4316406 Z M12.0083954,14 L12.0083954,9.70507812 L12.9016902,9.70507812 L12.9016902,14 L12.0083954,14 Z" id="Combined-Shape"></path>
            </g>
        </g>
    </g>
</svg>