<?xml version="1.0" encoding="utf-8"?>
<!-- Generator: Adobe Illustrator 21.0.0, SVG Export Plug-In . SVG Version: 6.00 Build 0)  -->
<svg version="1.1" id="图层_1" xmlns="http://www.w3.org/2000/svg" xmlns:xlink="http://www.w3.org/1999/xlink" x="0px" y="0px"
	 viewBox="0 0 200 200" style="enable-background:new 0 0 200 200;" xml:space="preserve">
<style type="text/css">
	.st0{fill:#2491F7;}
</style>
<g>
	<path class="st0" d="M79.7,89.3l-3.9,10.9h8.1L79.7,89.3z"/>
	<path class="st0" d="M148.3,44.1H51.6c-3.9,0-6.9,3.2-6.9,6.9v96.4c0,3.9,3.2,6.9,6.9,6.9h96.4c3.9,0,6.9-3.2,6.9-6.9V51.1
		C155.3,47.3,152,44.1,148.3,44.1L148.3,44.1z M125.1,82.4h6v29.4h-6V82.4z M97.8,82.4h9.5c3.7,0,6,0.2,7,0.5c1.8,0.5,3.2,1.4,4.2,3
		c1.1,1.6,1.8,3.3,1.8,5.6c0,1.9-0.4,3.3-0.9,4.6c-0.7,1.2-1.6,2.1-2.5,3s-2.1,1.1-3.2,1.4c-1.4,0.4-3.5,0.5-6.2,0.5h-3.9v11.1H98
		L97.8,82.4L97.8,82.4z M76.7,82.4H83l11.8,29.4h-6.5l-2.5-6.7H74.1l-2.3,6.7h-6.3C65.1,111.8,76.7,82.4,76.7,82.4z M130.2,146.3
		H61.2c-4.6,0-8.1-3.7-8.1-8.1V69.2c0-1.2,1.1-2.3,2.3-2.3s2.3,1.1,2.3,2.3v68.9c0,1.9,1.6,3.5,3.5,3.5h69.1c1.2,0,2.3,1.1,2.3,2.3
		C132.6,145.2,131.6,146.3,130.2,146.3z"/>
	<path class="st0" d="M111.7,95.3c0.7-0.4,1.4-0.7,1.9-1.4c0.5-0.7,0.7-1.4,0.7-2.1c0-1.1-0.4-1.9-0.9-2.6c-0.7-0.7-1.4-1.1-2.3-1.2
		c-0.7-0.4-2.1-0.4-4.2-0.4h-3v8.3h3.2C109.4,95.8,111,95.6,111.7,95.3L111.7,95.3z"/>
	<path class="st0" d="M194.2,69.4c3,0,5.5-2.5,5.5-5.5s-2.5-5.5-5.5-5.5h-19V43c0-10.6-8.4-19.2-19.2-19.2h-7.6V5.6
		c0-3-2.5-5.5-5.5-5.5s-5.5,2.5-5.5,5.5v18.3h-12.7V5.6c0-3-2.5-5.5-5.5-5.5S114,2.6,114,5.6v18.3h-12.8V5.6c0-3-2.5-5.5-5.5-5.5
		s-5.5,2.5-5.5,5.5v18.3H77.6V5.6c0-3-2.5-5.5-5.5-5.5s-5.5,2.5-5.5,5.5v18.3H43.8c-10.6,0-19.2,8.4-19.2,19.2v15.5h-19
		c-3,0-5.5,2.5-5.5,5.5c0,3,2.5,5.5,5.5,5.5h19v12.7h-19c-3,0-5.5,2.5-5.5,5.5s2.3,5.6,5.5,5.6h19v12.7h-19c-3,0-5.5,2.5-5.5,5.5
		s2.5,5.5,5.5,5.5h19v12.7h-19c-3,0-5.5,2.5-5.5,5.5s2.5,5.5,5.5,5.5h19v15.5c0,10.6,8.4,19.2,19.2,19.2h8.3v19.9
		c0,3,2.5,5.5,5.5,5.5c3,0,5.5-2.5,5.5-5.5v-19.9h12.7v19.9c0,3,2.5,5.5,5.5,5.5s5.5-2.5,5.5-5.5v-19.9h12.7v19.9
		c0,3,2.5,5.5,5.5,5.5c3,0,5.5-2.5,5.5-5.5v-19.9h12.7v19.9c0,3,2.5,5.5,5.5,5.5s5.5-2.5,5.5-5.5v-19.9h22.7
		c10.6,0,19.2-8.4,19.2-19.2v-15.5h19c3,0,5.5-2.5,5.5-5.5s-2.5-5.5-5.5-5.5h-19v-12.7h19c3,0,5.5-2.5,5.5-5.5s-2.5-5.5-5.5-5.5h-19
		v-13h19c3,0,5.5-2.5,5.5-5.5s-2.5-5.5-5.5-5.5h-19V69.2C174.8,69.4,194.2,69.4,194.2,69.4z M164.5,155.6c0,4.4-3.7,8.1-8.1,8.1
		H43.8c-4.4,0-8.1-3.7-8.1-8.1V43c0-4.4,3.7-8.1,8.1-8.1h112.4c4.4,0,8.1,3.7,8.1,8.1v112.6H164.5z"/>
</g>
</svg>
