<?xml version="1.0" encoding="utf-8"?>
<!-- Generator: Adobe Illustrator 21.0.0, SVG Export Plug-In . SVG Version: 6.00 Build 0)  -->
<svg version="1.1" id="图层_1" xmlns="http://www.w3.org/2000/svg" xmlns:xlink="http://www.w3.org/1999/xlink" x="0px" y="0px"
	 viewBox="0 0 200 200" style="enable-background:new 0 0 200 200;" xml:space="preserve">
<style type="text/css">
	.st0{fill:#2491F7;}
</style>
<g>
	<path class="st0" d="M88.5,94l-2.2,6.2h4.6L88.5,94z"/>
	<path class="st0" d="M127.5,68.3H72.5c-2.2,0-3.9,1.8-3.9,3.9v54.8c0,2.2,1.8,3.9,3.9,3.9h54.8c2.2,0,3.9-1.8,3.9-3.9V72.3
		C131.5,70.1,129.6,68.3,127.5,68.3L127.5,68.3z M114.3,90.1h3.4v16.7h-3.4V90.1z M98.8,90.1h5.4c2.1,0,3.4,0.1,4,0.3
		c1,0.3,1.8,0.8,2.4,1.7s1,1.9,1,3.2c0,1.1-0.2,1.9-0.5,2.6c-0.4,0.7-0.9,1.2-1.4,1.7s-1.2,0.6-1.8,0.8c-0.8,0.2-2,0.3-3.5,0.3h-2.2
		v6.3h-3.3L98.8,90.1L98.8,90.1z M86.8,90.1h3.6l6.7,16.7h-3.7l-1.4-3.8h-6.7l-1.3,3.8h-3.6C80.2,106.8,86.8,90.1,86.8,90.1z
		 M117.2,126.4H78c-2.6,0-4.6-2.1-4.6-4.6V82.6c0-0.7,0.6-1.3,1.3-1.3s1.3,0.6,1.3,1.3v39.2c0,1.1,0.9,2,2,2h39.3
		c0.7,0,1.3,0.6,1.3,1.3C118.6,125.8,118,126.4,117.2,126.4z"/>
	<path class="st0" d="M106.7,97.4c0.4-0.2,0.8-0.4,1.1-0.8c0.3-0.4,0.4-0.8,0.4-1.2c0-0.6-0.2-1.1-0.5-1.5c-0.4-0.4-0.8-0.6-1.3-0.7
		c-0.4-0.2-1.2-0.2-2.4-0.2h-1.7v4.7h1.8C105.4,97.7,106.3,97.6,106.7,97.4L106.7,97.4z"/>
	<path class="st0" d="M153.6,82.7c1.7,0,3.1-1.4,3.1-3.1s-1.4-3.1-3.1-3.1h-10.8v-8.8c0-6-4.8-10.9-10.9-10.9h-4.3V46.4
		c0-1.7-1.4-3.1-3.1-3.1c-1.7,0-3.1,1.4-3.1,3.1v10.4h-7.2V46.4c0-1.7-1.4-3.1-3.1-3.1s-3.1,1.4-3.1,3.1v10.4h-7.3V46.4
		c0-1.7-1.4-3.1-3.1-3.1s-3.1,1.4-3.1,3.1v10.4h-7.2V46.4c0-1.7-1.4-3.1-3.1-3.1s-3.1,1.4-3.1,3.1v10.4H68.1
		c-6,0-10.9,4.8-10.9,10.9v8.8H46.4c-1.7,0-3.1,1.4-3.1,3.1s1.4,3.1,3.1,3.1h10.8v7.2H46.4c-1.7,0-3.1,1.4-3.1,3.1s1.3,3.2,3.1,3.2
		h10.8v7.2H46.4c-1.7,0-3.1,1.4-3.1,3.1s1.4,3.1,3.1,3.1h10.8v7.2H46.4c-1.7,0-3.1,1.4-3.1,3.1s1.4,3.1,3.1,3.1h10.8v8.8
		c0,6,4.8,10.9,10.9,10.9h4.7v11.3c0,1.7,1.4,3.1,3.1,3.1s3.1-1.4,3.1-3.1v-11.3h7.2v11.3c0,1.7,1.4,3.1,3.1,3.1s3.1-1.4,3.1-3.1
		v-11.3h7.2v11.3c0,1.7,1.4,3.1,3.1,3.1s3.1-1.4,3.1-3.1v-11.3h7.2v11.3c0,1.7,1.4,3.1,3.1,3.1s3.1-1.4,3.1-3.1v-11.3h12.9
		c6,0,10.9-4.8,10.9-10.9v-8.8h10.8c1.7,0,3.1-1.4,3.1-3.1s-1.4-3.1-3.1-3.1h-10.8v-7.2h10.8c1.7,0,3.1-1.4,3.1-3.1
		c0-1.7-1.4-3.1-3.1-3.1h-10.8V96h10.8c1.7,0,3.1-1.4,3.1-3.1s-1.4-3.1-3.1-3.1h-10.8v-7.2C142.6,82.7,153.6,82.7,153.6,82.7z
		 M136.7,131.7c0,2.5-2.1,4.6-4.6,4.6H68.1c-2.5,0-4.6-2.1-4.6-4.6V67.7c0-2.5,2.1-4.6,4.6-4.6H132c2.5,0,4.6,2.1,4.6,4.6V131.7
		L136.7,131.7z"/>
</g>
</svg>
