<?xml version="1.0" encoding="UTF-8"?>
<svg width="20px" height="20px" viewBox="0 0 20 20" version="1.1" xmlns="http://www.w3.org/2000/svg" xmlns:xlink="http://www.w3.org/1999/xlink">
    <!-- Generator: Sketch 52.2 (67145) - http://www.bohemiancoding.com/sketch -->
    <title>Icon_Delete</title>
    <desc>Created with Sketch.</desc>
    <defs>
        <path d="M11.6291261,9.86135912 L14.7227182,6.76776695 L12.9549513,5 L9.86135912,8.09359217 L6.76776695,5 L5,6.76776695 L8.09359217,9.86135912 L5,12.9549513 L6.76776695,14.7227182 L9.86135912,11.6291261 L12.9549513,14.7227182 L14.7227182,12.9549513 L11.6291261,9.86135912 Z M10,20 C4.4771525,20 0,15.5228475 0,10 C0,4.4771525 4.4771525,0 10,0 C15.5228475,0 20,4.4771525 20,10 C20,15.5228475 15.5228475,20 10,20 Z" id="path-1"></path>
    </defs>
    <g id="设计稿3.4" stroke="none" stroke-width="1" fill="none" fill-rule="evenodd">
        <g id="提示样式更改" transform="translate(-1076.000000, -183.000000)">
            <g id="Group-3" transform="translate(1060.000000, 165.000000)">
                <g id="Alert/Large/Error" transform="translate(16.000000, 14.000000)">
                    <g id="Icon/Error" transform="translate(10.000000, 14.000000) scale(1, -1) translate(-10.000000, -14.000000) translate(0.000000, 4.000000)">
                        <g id="Color-/-White-/-100%-1">
                            <mask id="mask-2" fill="white">
                                <use xlink:href="#path-1"></use>
                            </mask>
                            <use id="Mask" fill="#F54745" xlink:href="#path-1"></use>
                            <g id="&amp;Color/Red/500-F15533-Nomal" mask="url(#mask-2)" fill="#F15533">
                                <polygon id="button_ok_bg" points="0 0 20 0 20 20 0 20"></polygon>
                            </g>
                        </g>
                    </g>
                </g>
            </g>
        </g>
    </g>
</svg>