<?xml version="1.0" standalone="no"?><!DOCTYPE svg PUBLIC "-//W3C//DTD SVG 1.1//EN" "http://www.w3.org/Graphics/SVG/1.1/DTD/svg11.dtd"><svg class="icon" width="200px" height="200.00px" viewBox="0 0 1024 1024" version="1.1" xmlns="http://www.w3.org/2000/svg"><path fill="#2491F7" d="M514.048 198.144m-164.864 0a164.864 164.864 0 1 0 329.728 0 164.864 164.864 0 1 0-329.728 0Z"  /><path fill="#2491F7" d="M78.848 889.344a106.496 102.912 90 1 0 205.824 0 106.496 102.912 90 1 0-205.824 0Z"  /><path fill="#2491F7" d="M420.352 886.272a102.912 99.84 90 1 0 199.68 0 102.912 99.84 90 1 0-199.68 0Z"  /><path fill="#2491F7" d="M755.2 886.272a102.912 99.84 90 1 0 199.68 0 102.912 99.84 90 1 0-199.68 0Z"  /><path fill="#2491F7" d="M145.92 452.096h745.472v68.608H145.92z"  /><path fill="#2491F7" d="M145.92 455.68h68.608v355.328H145.92zM484.352 305.664H552.96v504.832H484.352zM822.272 455.68H890.88v352.768h-68.608z"  /></svg>