<?xml version="1.0" encoding="utf-8"?>
<!-- Generator: Adobe Illustrator 21.0.0, SVG Export Plug-In . SVG Version: 6.00 Build 0)  -->
<svg version="1.1" id="图层_1" xmlns="http://www.w3.org/2000/svg" xmlns:xlink="http://www.w3.org/1999/xlink" x="0px" y="0px"
	 viewBox="0 0 16 16" style="enable-background:new 0 0 16 16;" xml:space="preserve">
<style type="text/css">
	.st0{fill:#333333;}
</style>
<path class="st0" d="M8.2,14.1c-0.5,0-0.8-0.4-0.8-0.8c0-0.5,0.4-0.8,0.8-0.8c0.5,0,0.8,0.4,0.8,0.8C9,13.7,8.7,14.1,8.2,14.1z
	 M14.2,6.9c-0.3,0-0.5,0.2-0.5,0.5c0,2.4-1.5,4.5-3.8,5.2C9.7,12,9,11.4,8.2,11.4c-1,0-1.8,0.8-1.8,1.8S7.2,15,8.2,15
	c0.9,0,1.6-0.6,1.8-1.4c2.8-0.8,4.7-3.3,4.7-6.3C14.7,7.2,14.5,6.9,14.2,6.9z M3.1,3.3c0.5,0,0.8,0.4,0.8,0.8C3.9,4.6,3.6,5,3.1,5
	S2.3,4.6,2.3,4.2C2.3,3.7,2.6,3.3,3.1,3.3z M5.4,12.2c-1.7-1-2.7-2.8-2.7-4.8c0-0.5,0.1-1,0.2-1.5C2.9,6,3,6,3.1,6
	c1,0,1.8-0.8,1.8-1.8S4.1,2.4,3.1,2.4S1.3,3.2,1.3,4.2c0,0.6,0.3,1.1,0.7,1.4C1.8,6.2,1.7,6.8,1.7,7.4c0,2.3,1.2,4.4,3.2,5.6
	c0.1,0,0.2,0.1,0.2,0.1c0.2,0,0.3-0.1,0.4-0.2C5.7,12.6,5.6,12.3,5.4,12.2z M14.1,4.2c0,0.5-0.4,0.8-0.8,0.8c-0.5,0-0.8-0.4-0.8-0.8
	c0-0.5,0.4-0.8,0.8-0.8C13.7,3.3,14.1,3.7,14.1,4.2z M11.7,3.2c-0.2,0.3-0.3,0.6-0.3,1c0,1,0.8,1.8,1.8,1.8S15,5.2,15,4.2
	s-0.8-1.8-1.8-1.8c-0.3,0-0.5,0.1-0.8,0.2C11.2,1.6,9.7,1,8.1,1c-1,0-1.9,0.2-2.8,0.6C5.2,1.7,5.1,2,5.2,2.2s0.4,0.3,0.7,0.2
	C6.6,2,7.4,1.9,8.3,1.9C9.5,1.9,10.7,2.4,11.7,3.2z"/>
</svg>
