<?xml version="1.0" standalone="no"?><!DOCTYPE svg PUBLIC "-//W3C//DTD SVG 1.1//EN" "http://www.w3.org/Graphics/SVG/1.1/DTD/svg11.dtd"><svg fill="#1296db" t="1626057691637" class="icon" viewBox="0 0 1024 1024" version="1.1" xmlns="http://www.w3.org/2000/svg" p-id="3070" xmlns:xlink="http://www.w3.org/1999/xlink" width="200" height="200"><defs><style type="text/css"></style></defs><path d="M512 0c282.794667 0 512 230.144 512 514.133333a514.304 514.304 0 0 1-277.674667 457.216 44.544 44.544 0 0 1-60.074666-19.285333 44.885333 44.885333 0 0 1 19.2-60.330667 424.618667 424.618667 0 0 0 229.290666-377.6C934.741333 279.637333 745.472 89.6 512 89.6c-233.472 0-422.741333 190.037333-422.741333 424.533333 0 161.792 90.88 307.2 232.021333 378.965334 22.016 11.178667 30.72 38.144 19.626667 60.245333a44.544 44.544 0 0 1-59.904 19.712A514.304 514.304 0 0 1 0 514.133333C0 230.144 229.205333 0 512 0z m156.245333 313.258667l-81.664 230.826666c-1.28 48.64-39.082667 87.637333-85.930666 87.637334-47.616 0-86.186667-40.277333-86.186667-89.941334 0-41.130667 26.538667-75.349333 62.634667-86.186666l191.146666-142.336z" p-id="3071"></path></svg>
