<?xml version="1.0" standalone="no"?><!DOCTYPE svg PUBLIC "-//W3C//DTD SVG 1.1//EN" "http://www.w3.org/Graphics/SVG/1.1/DTD/svg11.dtd"><svg t="1598245192010" class="icon" viewBox="0 0 1024 1024" version="1.1" xmlns="http://www.w3.org/2000/svg" p-id="1242" width="16" height="16" xmlns:xlink="http://www.w3.org/1999/xlink"><defs><style type="text/css"></style></defs><path d="M512 0a512 512 0 1 1 0 1024A512 512 0 0 1 512 0z m0 85.333333a426.666667 426.666667 0 1 0 0 853.333334A426.666667 426.666667 0 0 0 512 85.333333z m-42.666667 170.666667a42.666667 42.666667 0 0 1 42.666667 42.666667v213.248L725.333333 512a42.666667 42.666667 0 0 1 0 85.333333H470.186667A42.666667 42.666667 0 0 1 426.666667 554.666667v-256a42.666667 42.666667 0 0 1 42.666666-42.666667z" p-id="1243" fill="#1296db"></path></svg>