<?xml version="1.0" standalone="no"?><!DOCTYPE svg PUBLIC "-//W3C//DTD SVG 1.1//EN" "http://www.w3.org/Graphics/SVG/1.1/DTD/svg11.dtd"><svg t="1598252311293" class="icon" viewBox="0 0 1024 1024" version="1.1" xmlns="http://www.w3.org/2000/svg" p-id="1846" xmlns:xlink="http://www.w3.org/1999/xlink" width="16" height="16"><defs><style type="text/css"></style></defs><path d="M512 0a512 512 0 1 1 0 1024A512 512 0 0 1 512 0z m0 64a448 448 0 1 0 0 896A448 448 0 0 0 512 64z m0 192a32 32 0 0 1 32 32v192h192a32 32 0 1 1 0 64H543.936l0.064 192a32 32 0 1 1-64 0l-0.064-192H288a32 32 0 0 1 0-64h192v-192A32 32 0 0 1 512 256z" p-id="1847" fill="#ffffff"></path></svg>