<?xml version="1.0" standalone="no"?><!DOCTYPE svg PUBLIC "-//W3C//DTD SVG 1.1//EN" "http://www.w3.org/Graphics/SVG/1.1/DTD/svg11.dtd"><svg t="1493274794250" class="icon" style="" viewBox="0 0 1024 1024" version="1.1" xmlns="http://www.w3.org/2000/svg" p-id="19296" xmlns:xlink="http://www.w3.org/1999/xlink" width="200" height="200"><defs><style type="text/css"></style></defs><path d="M635.166 536.076c-7.536-3.421-14.566-7.863-22.141-11.27a314.58 314.58 0 0 0-2.532-1.121l-8.367-3.68 6.931-5.126c27.565-20.391 50.418-47.231 66.089-77.621 16.424-31.852 24.752-66.302 24.752-102.394 0-59.772-23.276-115.966-65.542-158.232-42.265-42.265-98.46-65.542-158.231-65.542-59.772 0-115.966 23.277-158.232 65.542-42.265 42.266-65.542 98.46-65.542 158.232 0 36.091 8.327 70.541 24.752 102.393 15.671 30.391 38.524 57.231 66.089 77.621l6.936 5.13-8.169 3.587c-0.913 0.4-1.826 0.801-2.735 1.209-41.726 18.772-79.16 45.603-111.26 79.747-31.97 34.004-57.059 73.572-74.568 117.603-18.084 45.478-27.254 93.749-27.254 143.476 0 17.612 14.328 31.94 31.94 31.94 17.611 0 31.939-14.328 31.939-31.94 0-82.195 30.003-159.376 84.483-217.322 53.972-57.406 125.576-89.02 201.622-89.02 47.43 0 93.545 11.252 133.347 35.931 39.652 24.586 74.652-36.914 25.693-59.143zM476.125 494.76c-42.71 0-82.863-16.632-113.064-46.832-30.2-30.2-46.832-70.353-46.832-113.063 0-42.709 16.632-82.862 46.832-113.063 30.201-30.2 70.354-46.832 113.064-46.832 42.71 0 82.862 16.631 113.062 46.832 30.201 30.201 46.833 70.354 46.833 113.063s-16.632 82.862-46.833 113.063c-30.2 30.2-70.352 46.832-113.062 46.832zM895.176 723.184a12.035 12.035 0 0 0-7.902-9.55l-19.695-6.988a9.76 9.76 0 0 1-5.845-5.66 113.34 113.34 0 0 0-1.664-4.037 9.767 9.767 0 0 1 0.154-8.081l8.968-18.833a12.023 12.023 0 0 0-1.181-12.32 149.525 149.525 0 0 0-32.059-31.985 12.02 12.02 0 0 0-7.155-2.342c-1.809 0-3.556 0.394-5.192 1.172l-18.744 8.887c-0.802 0.38-1.641 0.693-2.514 0.849-2.006 0.357-3.965 0.128-5.76-0.667-1.353-0.599-2.734-1.128-4.108-1.678a9.754 9.754 0 0 1-5.557-5.794l-7.003-19.65a12.061 12.061 0 0 0-9.551-7.877c-8.47-1.298-15.674-1.903-22.671-1.903h-0.001c-6.997 0-14.207 0.605-22.69 1.903a12.065 12.065 0 0 0-9.552 7.877l-7.004 19.65a9.759 9.759 0 0 1-5.558 5.794c-1.375 0.551-2.757 1.081-4.112 1.68-1.792 0.792-3.748 1.021-5.753 0.664-0.873-0.156-1.712-0.468-2.514-0.848l-18.751-8.887a12.162 12.162 0 0 0-5.189-1.171c-2.591 0-5.064 0.81-7.152 2.342a149.547 149.547 0 0 0-32.059 31.985 12.025 12.025 0 0 0-1.181 12.321l8.967 18.832a9.764 9.764 0 0 1 0.156 8.078 110.385 110.385 0 0 0-1.659 4.031 9.76 9.76 0 0 1-5.847 5.67l-19.703 6.997a12.049 12.049 0 0 0-7.898 9.541c-1.286 8.431-1.885 15.618-1.885 22.619 0 7 0.599 14.188 1.885 22.619a12.036 12.036 0 0 0 7.903 9.55l19.695 6.988a9.76 9.76 0 0 1 5.849 5.668 110.743 110.743 0 0 0 1.663 4.037 9.762 9.762 0 0 1-0.157 8.079l-8.969 18.827a12.02 12.02 0 0 0 1.177 12.313 149.333 149.333 0 0 0 32.063 31.993 12.025 12.025 0 0 0 7.156 2.345 11.96 11.96 0 0 0 5.19-1.175l18.742-8.886c0.801-0.38 1.64-0.693 2.513-0.849 2.008-0.359 3.968-0.129 5.763 0.667 1.352 0.599 2.732 1.127 4.104 1.677a9.763 9.763 0 0 1 5.559 5.794l7.004 19.65a12.061 12.061 0 0 0 9.552 7.877c8.266 1.271 15.685 1.889 22.681 1.889s14.415-0.618 22.681-1.888a12.064 12.064 0 0 0 9.552-7.878l7.004-19.649a9.755 9.755 0 0 1 5.555-5.793c1.371-0.55 2.751-1.077 4.101-1.676 1.801-0.799 3.768-1.03 5.781-0.668 0.871 0.157 1.708 0.47 2.508 0.849l18.738 8.884a11.993 11.993 0 0 0 5.195 1.175c2.592 0 5.065-0.811 7.154-2.345a149.565 149.565 0 0 0 32.059-31.993 12.022 12.022 0 0 0 1.177-12.313l-8.968-18.825a9.768 9.768 0 0 1-0.156-8.08c0.578-1.336 1.137-2.68 1.663-4.038a9.764 9.764 0 0 1 5.849-5.67l19.695-6.988a12.036 12.036 0 0 0 7.901-9.549c1.286-8.432 1.885-15.619 1.885-22.619 0.002-7-0.596-14.187-1.883-22.62z m-147.488 78.279c-32.424 0-58.803-26.324-58.803-58.68 0-32.357 26.379-58.681 58.803-58.681s58.803 26.324 58.803 58.681c0 32.356-26.379 58.68-58.803 58.68z" fill="#6C7480" p-id="19297"></path></svg>