<?xml version="1.0" standalone="no"?><!DOCTYPE svg PUBLIC "-//W3C//DTD SVG 1.1//EN" "http://www.w3.org/Graphics/SVG/1.1/DTD/svg11.dtd"><svg t="1493188270949" class="icon" style="" viewBox="0 0 1024 1024" version="1.1" xmlns="http://www.w3.org/2000/svg" p-id="21562" xmlns:xlink="http://www.w3.org/1999/xlink" width="200" height="200"><defs><style type="text/css"></style></defs><path d="M861.040535 903.894551c0 30.909987-25.074072 55.877635-55.924707 55.877635l-698.703239 0 97.848539-461.131449c0-30.879288 24.919553-55.906288 55.770188-55.906288L902.95925 442.73445c30.855752 0 55.828516 25.027 55.828516 55.906288L861.040535 903.894551 861.040535 903.894551 861.040535 903.894551zM218.161718 400.792199l628.870778 0L847.032496 345.901031c0-30.879288-25.076118-55.906288-55.877635-55.906288L455.787744 289.994744l0-50.658773c0-30.827099-25.027-55.877635-55.877635-55.877635L120.367415 183.458335c-30.855752 0-55.877635 25.050536-55.877635 55.877635l0 664.558581 97.747231-447.175599C162.237011 425.837618 187.311083 400.792199 218.161718 400.792199L218.161718 400.792199 218.161718 400.792199zM218.161718 400.792199" fill="#2491F7" p-id="21563"></path></svg>