<?xml version="1.0" standalone="no"?><!DOCTYPE svg PUBLIC "-//W3C//DTD SVG 1.1//EN" "http://www.w3.org/Graphics/SVG/1.1/DTD/svg11.dtd"><svg t="1552380663030" class="icon" style="" viewBox="0 0 1024 1024" version="1.1" xmlns="http://www.w3.org/2000/svg" p-id="2128" xmlns:xlink="http://www.w3.org/1999/xlink" width="8" height="8"><defs><style type="text/css"></style></defs><path d="M64 0h896a64 64 0 0 1 64 64v896a64 64 0 0 1-64 64H64a64 64 0 0 1-64-64V64a64 64 0 0 1 64-64z m192 608A80 80 0 1 0 256 448a80 80 0 0 0 0 160z m256 0A80 80 0 1 0 512 448a80 80 0 0 0 0 160z m256 0A80 80 0 1 0 768 448a80 80 0 0 0 0 160z" fill="#2491F7" p-id="2129"></path></svg>