<?xml version="1.0" standalone="no"?><!DOCTYPE svg PUBLIC "-//W3C//DTD SVG 1.1//EN" "http://www.w3.org/Graphics/SVG/1.1/DTD/svg11.dtd"><svg t="1600422312961" class="icon" viewBox="0 0 1024 1024" version="1.1" xmlns="http://www.w3.org/2000/svg" p-id="1135" xmlns:xlink="http://www.w3.org/1999/xlink" width="16" height="16"><defs><style type="text/css"></style></defs><path d="M947.114667 121.685333m0 42.666667l0 0q0 42.666667-42.666667 42.666667l-597.333333 0q-42.666667 0-42.666667-42.666667l0 0q0-42.666667 42.666667-42.666667l597.333333 0q42.666667 0 42.666667 42.666667Z" p-id="1136" fill="#1296db"></path><path d="M179.029333 697.6a157.866667 157.866667 0 0 1 145.664 96.768h579.754667a42.666667 42.666667 0 1 1 0 85.333333l-569.429333 0.085334a157.866667 157.866667 0 1 1-155.989334-182.186667z m0 85.333333a72.533333 72.533333 0 1 0 0 145.066667 72.533333 72.533333 0 0 0 0-145.066667z m678.4-428.202666a157.866667 157.866667 0 1 1-148.053333 213.077333H130.56a42.666667 42.666667 0 0 1 0-85.333333h571.733333a157.866667 157.866667 0 0 1 155.050667-127.744z m0 85.333333a72.533333 72.533333 0 1 0 0 145.066667 72.533333 72.533333 0 0 0 0-145.066667zM178.944 16.213333a157.866667 157.866667 0 1 1 0 315.733334 157.866667 157.866667 0 0 1 0-315.733334z m0 85.333334a72.533333 72.533333 0 1 0 0 145.066666 72.533333 72.533333 0 0 0 0-145.066666z" p-id="1137" fill="#1296db"></path></svg>