<?xml version="1.0" encoding="UTF-8"?>
<svg width="12px" height="12px" viewBox="0 0 12 12" version="1.1" xmlns="http://www.w3.org/2000/svg" xmlns:xlink="http://www.w3.org/1999/xlink">
    <!-- Generator: Sketch 60.1 (88133) - https://sketch.com -->
    <title>primary key</title>
    <desc>Created with Sketch.</desc>
    <g id="icon" stroke="none" stroke-width="1" fill="none" fill-rule="evenodd">
        <g id="flinkx" transform="translate(-158.000000, -113.000000)" fill-rule="nonzero">
            <g id="primary-key" transform="translate(158.000000, 113.000000)">
                <rect id="矩形" fill="#000000" opacity="0" x="0" y="0" width="12" height="12"></rect>
                <path d="M7.49882812,4.12382812 C7.49882812,2.26054688 5.98945312,0.75 4.125,0.75 C2.26054687,0.75 0.75234375,2.259375 0.75234375,4.12382812 C0.75234375,5.9859375 2.26171875,7.49765625 4.12617187,7.49765625 C5.98828125,7.49648437 7.49882812,5.98710938 7.49882812,4.12382812 Z M3.19335938,4.31601562 C2.60273437,4.31601562 2.1234375,3.83671875 2.1234375,3.24609375 C2.1234375,2.65546875 2.60273437,2.17617187 3.19335938,2.17617187 C3.78398438,2.17617187 4.26328125,2.65546875 4.26328125,3.24609375 C4.26328125,3.83671875 3.78398438,4.31601562 3.19335938,4.31601562 Z M10.8984375,8.58164062 L7.77890625,5.33203125 L7.275,6.17109375 L7.28320312,6.17109375 L10.2527344,9.29179688 L10.2316406,9.61523438 L9.69375,9.63632813 L6.90820312,6.70195313 C6.45,7.24101563 5.90507812,7.528125 5.90507812,7.528125 L5.96953125,8.840625 L6.59414062,9.5296875 L8.2734375,9.5296875 L8.25234375,11.1210938 L9.73710938,11.25 C9.73710938,11.25 9.88828125,11.0988281 10.8140625,10.1953125 C11.7386719,9.29179687 10.8984375,8.58164062 10.8984375,8.58164062 L10.8984375,8.58164062 Z" id="形状" fill="#666666"></path>
            </g>
        </g>
    </g>
</svg>