<?xml version="1.0" encoding="UTF-8"?>
<svg width="14px" height="14px" viewBox="0 0 14 14" version="1.1" xmlns="http://www.w3.org/2000/svg" xmlns:xlink="http://www.w3.org/1999/xlink">
    <!-- Generator: Sketch 49.3 (51167) - http://www.bohemiancoding.com/sketch -->
    <title>icon_develop</title>
    <desc>Created with Sketch.</desc>
    <defs></defs>
    <g id="Page-1" stroke="none" stroke-width="1" fill="none" fill-rule="evenodd">
        <g id="数据开发初始面板-copy" transform="translate(-161.000000, -19.000000)" fill="#FFFFFF">
            <g id="menu">
                <g id="icon_develop" transform="translate(161.000000, 19.000000)">
                    <rect id="Rectangle-10" x="2" y="13" width="10" height="1" rx="0.5"></rect>
                    <path fill="#999999" d="M5,5 L9.5,5 C9.77614237,5 10,5.22385763 10,5.5 C10,5.77614237 9.77614237,6 9.5,6 L4.5,6 C4.36192881,6 4.23692881,5.94403559 4.14644661,5.85355339 C4.05596441,5.76307119 4,5.63807119 4,5.5 L4,2.5 C4,2.22385763 4.22385763,2 4.5,2 C4.77614237,2 5,2.22385763 5,2.5 L5,5 Z" id="Combined-Shape" transform="translate(7.000000, 4.000000) rotate(-45.000000) translate(-7.000000, -4.000000) "></path>
                    <path fill="#999999" d="M1,1 L1,10 L13,10 L13,1 L1,1 Z M1,0 L13,0 C13.5522847,-1.52655666e-16 14,0.44771525 14,1 L14,10 C14,10.5522847 13.5522847,11 13,11 L1,11 C0.44771525,11 6.76353751e-17,10.5522847 0,10 L0,1 C-6.76353751e-17,0.44771525 0.44771525,1.52655666e-16 1,0 Z" id="Rectangle-17" fill-rule="nonzero"></path>
                </g>
            </g>
        </g>
    </g>
</svg>