<?xml version="1.0" standalone="no"?><!DOCTYPE svg PUBLIC "-//W3C//DTD SVG 1.1//EN" "http://www.w3.org/Graphics/SVG/1.1/DTD/svg11.dtd"><svg t="1598245428292" class="icon" viewBox="0 0 1024 1024" version="1.1" xmlns="http://www.w3.org/2000/svg" p-id="1660" xmlns:xlink="http://www.w3.org/1999/xlink" width="16" height="16"><defs><style type="text/css"></style></defs><path d="M768 85.333333a85.333333 85.333333 0 0 1 85.333333 85.333334v768a85.333333 85.333333 0 0 1-85.333333 85.333333H170.666667a85.333333 85.333333 0 0 1-85.333334-85.333333V170.666667a85.333333 85.333333 0 0 1 85.333334-85.333334h597.333333z m0 85.333334H170.666667v768h597.333333V170.666667zM640 682.666667a42.666667 42.666667 0 0 1 0 85.333333h-341.333333a42.666667 42.666667 0 0 1 0-85.333333h341.333333z m0-170.666667a42.666667 42.666667 0 0 1 0 85.333333h-341.333333a42.666667 42.666667 0 0 1 0-85.333333h341.333333z m0-170.666667a42.666667 42.666667 0 0 1 0 85.333334h-341.333333a42.666667 42.666667 0 0 1 0-85.333334h341.333333z" p-id="1661" fill="#1296db"></path></svg>