<?xml version="1.0" standalone="no"?><!DOCTYPE svg PUBLIC "-//W3C//DTD SVG 1.1//EN" "http://www.w3.org/Graphics/SVG/1.1/DTD/svg11.dtd"><svg t="1598245419995" class="icon" viewBox="0 0 1024 1024" version="1.1" xmlns="http://www.w3.org/2000/svg" p-id="1474" xmlns:xlink="http://www.w3.org/1999/xlink" width="16" height="16"><defs><style type="text/css"></style></defs><path d="M660.992 407.381333c16.213333 14.848 19.029333 38.912 7.68 56.917334l-4.949333 6.4-224.853334 245.162666v180.821334L512 818.432a44.8 44.8 0 0 1 57.002667-7.168l6.314666 4.949333a44.8 44.8 0 0 1 7.168 57.002667l-4.949333 6.314667L464.213333 1000.96c-38.997333 41.813333-107.52 17.664-114.176-36.437333l-0.597333-8.789334V706.816c0-13.226667 4.010667-26.197333 11.349333-37.034667l6.144-7.68 230.826667-251.989333a44.8 44.8 0 0 1 63.317333-2.730667z m359.594667-302.08l-0.426667 9.130667-78.762667 688.810667a66.304 66.304 0 0 1-80.810666 57.173333l-334.677334-77.312A44.8 44.8 0 1 1 546.133333 695.808l309.248 71.338667 70.826667-619.776-799.914667 408.832 148.309334 51.541333c20.736 7.253333 32.853333 28.16 29.525333 49.237333l-1.962667 7.850667a44.8 44.8 0 0 1-49.152 29.525333l-7.850666-1.962666L45.226667 622.933333a66.389333 66.389333 0 0 1-16.981334-116.48l8.533334-5.12L924.16 47.786667a66.304 66.304 0 0 1 96.426667 57.429333z" p-id="1475" fill="#1296db"></path></svg>