<?xml version="1.0" encoding="utf-8"?>
<!-- Generator: Adobe Illustrator 21.0.0, SVG Export Plug-In . SVG Version: 6.00 Build 0)  -->
<svg version="1.1" id="图层_1" xmlns="http://www.w3.org/2000/svg" xmlns:xlink="http://www.w3.org/1999/xlink" x="0px" y="0px"
	 viewBox="0 0 200 200" style="enable-background:new 0 0 200 200;" xml:space="preserve">
<style type="text/css">
	.st0{fill:#2491F7;}
</style>
<path class="st0" d="M133.2,108.2c0-2-0.7-3.8-2.2-5.4L89,60.9c-1.5-1.5-3.5-2.8-6-3.8s-4.8-1.5-6.8-1.5H51.8c-2,0-3.8,0.8-5.3,2.3
	s-2.3,3.3-2.3,5.3v24.4c0,2,0.5,4.4,1.5,6.8c1,2.5,2.3,4.5,3.8,6l42,42c1.5,1.5,3.3,2.2,5.3,2.2s3.8-0.7,5.4-2.2l28.8-28.8
	C132.4,112,133.2,110.3,133.2,108.2L133.2,108.2L133.2,108.2z M68.3,79.7c-1.5,1.5-3.3,2.2-5.3,2.2c-2,0-3.8-0.7-5.3-2.2
	s-2.2-3.3-2.2-5.3s0.7-3.8,2.2-5.3s3.3-2.2,5.3-2.2c2,0,3.8,0.7,5.3,2.2s2.2,3.3,2.2,5.3C70.5,76.5,69.7,78.2,68.3,79.7L68.3,79.7
	L68.3,79.7z M153.6,102.8l-42-41.9c-1.5-1.5-3.5-2.8-6-3.8s-4.8-1.5-6.8-1.5H85.5c2,0,4.4,0.5,6.8,1.5c2.5,1,4.5,2.3,6,3.8l42,41.9
	c1.5,1.5,2.2,3.3,2.2,5.4s-0.7,3.8-2.2,5.3l-27.5,27.6c1.2,1.2,2.3,2,3.1,2.6c0.9,0.6,2,0.8,3.4,0.8c2,0,3.8-0.7,5.4-2.2l28.8-28.9
	c1.5-1.5,2.2-3.3,2.2-5.3C155.7,106.1,155.1,104.4,153.6,102.8L153.6,102.8L153.6,102.8z"/>
</svg>
