<svg xmlns="http://www.w3.org/2000/svg" viewBox="0 0 200 200"><path d="M133.2 108.2c0-2-.7-3.8-2.2-5.4L89 60.9c-1.5-1.5-3.5-2.8-6-3.8s-4.8-1.5-6.8-1.5H51.8c-2 0-3.8.8-5.3 2.3s-2.3 3.3-2.3 5.3v24.4c0 2 .5 4.4 1.5 6.8 1 2.5 2.3 4.5 3.8 6l42 42c1.5 1.5 3.3 2.2 5.3 2.2s3.8-.7 5.4-2.2l28.8-28.8c1.4-1.6 2.2-3.3 2.2-5.4zM68.3 79.7c-1.5 1.5-3.3 2.2-5.3 2.2s-3.8-.7-5.3-2.2-2.2-3.3-2.2-5.3.7-3.8 2.2-5.3 3.3-2.2 5.3-2.2 3.8.7 5.3 2.2 2.2 3.3 2.2 5.3c0 2.1-.8 3.8-2.2 5.3zm85.3 23.1l-42-41.9c-1.5-1.5-3.5-2.8-6-3.8s-4.8-1.5-6.8-1.5H85.5c2 0 4.4.5 6.8 1.5 2.5 1 4.5 2.3 6 3.8l42 41.9c1.5 1.5 2.2 3.3 2.2 5.4s-.7 3.8-2.2 5.3l-27.5 27.6c1.2 1.2 2.3 2 3.1 2.6.9.6 2 .8 3.4.8 2 0 3.8-.7 5.4-2.2l28.8-28.9c1.5-1.5 2.2-3.3 2.2-5.3s-.6-3.7-2.1-5.3z" fill="#2491f7"/></svg>