<?xml version="1.0" standalone="no"?><!DOCTYPE svg PUBLIC "-//W3C//DTD SVG 1.1//EN" "http://www.w3.org/Graphics/SVG/1.1/DTD/svg11.dtd"><svg t="1539244880759" class="icon" style="" viewBox="0 0 1024 1024" version="1.1" xmlns="http://www.w3.org/2000/svg" p-id="6160" xmlns:xlink="http://www.w3.org/1999/xlink" width="200" height="200"><defs><style type="text/css"></style></defs><path d="M509.386988 64.716954c107.877963 0 195.619306 87.739297 195.619306 195.622376 0 28.463262-6.795776 57.049321-20.330024 84.943624l-2.221598 4.701069-2.733251 4.254907c-4.830005 8.771781-10.16757 17.026792-18.745946 28.528754L510.084882 614.921068 338.863243 353.222787l-5.148253-10.481725-5.718235-8.767688c-9.465582-23.3805-14.232143-48.096415-14.232143-73.634044C313.765635 152.456251 401.503908 64.716954 509.386988 64.716954M509.386988 6.139837c-140.41296 0-254.199493 113.786533-254.199493 254.200516 0 39.452547 9.021467 76.872808 25.032116 110.22952 0.061398 0.065492 0.192382 0.12689 0.192382 0.25378l229.798756 351.281575 199.878307-307.443138c7.751544-10.165524 14.675234-20.838607 20.904099-32.148188l7.624654-11.69025-1.269923 0c16.264429-33.545 26.237571-70.714552 26.237571-110.4833C763.585457 119.92637 649.793808 6.139837 509.386988 6.139837L509.386988 6.139837z" p-id="6161" fill="#333333"></path><path d="M515.103176 401.828808c-71.66725 0-129.926118-58.32436-129.926118-129.990586 0-71.666226 58.258868-129.989563 129.926118-129.989563 71.666226 0 129.993656 58.32436 129.993656 129.989563C645.096832 343.504448 586.769402 401.828808 515.103176 401.828808zM515.103176 200.425775c-39.326681 0-71.346955 32.021298-71.346955 71.412446 0 39.391149 32.021298 71.412446 71.346955 71.412446 39.390125 0 71.411423-32.021298 71.411423-71.412446C586.514599 232.448096 554.493302 200.425775 515.103176 200.425775z" p-id="6162" fill="#333333"></path><path d="M656.148539 1012.705769c-2.665713 0-5.337565-0.376577-7.941879-1.13894L350.741781 927.377382 41.585629 993.328443c-8.767688 1.647523-17.596773-0.315178-24.523533-5.9055-6.862291-5.528923-10.862395-13.916964-10.862395-22.748097L6.199701 423.429779c0-9.846252 4.951779-19.060101 13.216-24.462135l120.837112-79.606059c13.407358-8.833179 31.578206-5.082762 40.538275 8.324596 8.894577 13.530155 5.14416 31.701003-8.324596 40.59558L64.773747 439.186647l0 489.337861 280.885272-59.914578c4.574179-1.016143 9.591449-0.947582 14.042831 0.508583l296.383244 83.864036 303.437917-87.545892L959.523011 363.835496l-119.128191 48.667419c-14.862499 6.164397-32.021298-1.082658-38.181601-16.07614-6.099928-14.927991 1.077541-32.021298 16.072047-38.181601l159.473061-65.120137c8.958022-3.689019 19.250436-2.672876 27.382651 2.794649 8.066723 5.459339 12.960173 14.608719 12.960173 24.331151L1018.101151 887.485837c0 13.023618-8.640798 24.520463-21.157879 28.139897l-332.664565 95.941096C661.615041 1012.329193 658.88179 1012.705769 656.148539 1012.705769z" p-id="6163" fill="#333333"></path></svg>