<?xml version="1.0" standalone="no"?><!DOCTYPE svg PUBLIC "-//W3C//DTD SVG 1.1//EN" "http://www.w3.org/Graphics/SVG/1.1/DTD/svg11.dtd"><svg t="1559619534268" class="icon" style="" viewBox="0 0 1024 1024" version="1.1" xmlns="http://www.w3.org/2000/svg" p-id="4473" xmlns:xlink="http://www.w3.org/1999/xlink" width="16" height="16"><defs><style type="text/css"></style></defs><path d="M676 922.7c-10 0-19.3-5.4-24.2-14-5-8.6-5-19.4 0-28 5-8.6 14.3-14 24.3-14h182.2c10 0 19.3 5.4 24.2 14 5 8.6 5 19.4 0 28-5 8.6-14.3 14-24.3 14H676z m-18.2-72.9c-22.1 0-42.8-8.6-58.5-24.2-13.3-13.3-21.5-30.3-23.6-48.7H325.4c-15.3 22.6-41 36.5-68.5 36.5-4.8 0-9.6-0.4-14.4-1.3-34.1-6-61.1-33-67.1-67.1-5.7-32.2 8.4-64.8 35.2-82.9V485.3h-44.9c-15.4 0-28-12.6-28-28s12.6-28 28-28H348c15.4 0 28 12.6 28 28s-12.6 28-28 28h-81.3v163.2c18.4 2.2 35.4 10.4 48.7 23.6 13.3 13.3 21.5 30.3 23.6 48.7h236.1v-99.6c0-22.1 8.6-42.8 24.2-58.5 15.6-15.6 36.4-24.2 58.5-24.2h99.6v-236c-18.4-2.2-35.4-10.4-48.7-23.6-13.3-13.3-21.5-30.3-23.6-48.7H448.9v99.6c0 22.1-8.6 42.8-24.2 58.5-15.6 15.6-36.4 24.2-58.5 24.2H147.5c-45.6 0-82.7-37.1-82.7-82.7V184c0-45.6 37.1-82.7 82.7-82.7h218.7c22.1 0 42.8 8.6 58.5 24.2 13.3 13.3 21.5 30.3 23.6 48.7h250.3c15.3-22.6 41-36.5 68.5-36.5 4.8 0 9.6 0.4 14.4 1.3 34.1 6 61 33 67.1 67.1 5.7 32.2-8.4 64.8-35.2 82.9v249.7h63.1c45.6 0 82.7 37.1 82.7 82.7v145.8c0 22.1-8.6 42.8-24.2 58.5-15.6 15.6-36.4 24.2-58.5 24.2H657.8z m0-255.1c-14.7 0-26.7 12-26.7 26.7v145.8c0 14.7 12 26.7 26.7 26.7h218.7c14.7 0 26.7-12 26.7-26.7V621.3c0-14.7-12-26.7-26.7-26.7H657.8zM256.9 704c-14.7 0-26.7 12-26.7 26.7s12 26.7 26.7 26.7 26.7-12 26.7-26.7-12-26.7-26.7-26.7zM147.5 157.3c-14.7 0-26.7 12-26.7 26.7v145.8c0 14.7 12 26.7 26.7 26.7h218.7c14.7 0 26.7-12 26.7-26.7V184c0-7.1-2.8-13.8-7.8-18.9-5-5-11.7-7.8-18.9-7.8H147.5z m619.6 36.5c-14.7 0-26.7 12-26.7 26.7s12 26.7 26.7 26.7c9.5 0 18.3-5.1 23.1-13.3 4.7-8.2 4.7-18.4 0-26.7s-13.6-13.4-23.1-13.4z" p-id="4474"></path></svg>