<svg xmlns="http://www.w3.org/2000/svg" viewBox="0 0 200 200"><path d="M24.7 186.8H175c6.8 0 12.3-5.5 12.3-12.3s-5.5-12.3-12.3-12.3H24.7c-6.8 0-12.3 5.5-12.3 12.3s5.5 12.3 12.3 12.3zm66.1-37.4c.3.3.6.6.9.8.1.1.3.2.4.3.2.1.4.3.5.4.2.1.4.2.5.3.2.1.3.2.5.3l.6.3c.2.1.4.2.5.2.2.1.4.1.5.2.2.1.4.1.6.2.2.1.4.1.6.1.2.1.4.1.6.1s.4.1.6.1.4.1.5.1c.4 0 .8.1 1.2.1h.2c3.2 0 6.4-1.1 8.9-3.6l62.3-62c4.8-4.8 4.8-12.6 0-17.4-2.4-2.4-5.5-3.6-8.7-3.6s-6.3 1.2-8.7 3.6l-41.5 41.5V25.5c0-6.8-5.5-12.3-12.3-12.3s-12.3 5.5-12.3 12.3v85.6L46 69.9c-2.4-2.4-5.5-3.6-8.7-3.6-3.1 0-6.3 1.2-8.7 3.6-4.8 4.8-4.8 12.6 0 17.4l62.2 62.1z" fill="#94a8c6"/></svg>