<?xml version="1.0" encoding="utf-8"?>
<!-- Generator: Adobe Illustrator 21.0.0, SVG Export Plug-In . SVG Version: 6.00 Build 0)  -->
<svg version="1.1" id="图层_1" xmlns="http://www.w3.org/2000/svg" xmlns:xlink="http://www.w3.org/1999/xlink" x="0px" y="0px"
	 viewBox="0 0 200 200" style="enable-background:new 0 0 200 200;" xml:space="preserve">
<style type="text/css">
	.st0{fill:#2591F7;stroke:#2591F7;stroke-width:6;stroke-miterlimit:10;}
	.st1{fill:#2591F7;}
</style>
<path class="st0" d="M35.4,164.6c-19-19-4.5-62.7,31-98.1s79.1-50,98.1-31s4.5,62.7-31,98.1S54.5,183.6,35.4,164.6z M40.6,159.4
	c15.2,15.2,54.8,2,87.8-31s46.2-72.6,31-87.8s-54.8-2-87.8,31S25.4,144.2,40.6,159.4z M114.6,99.6c0.7,8.6-0.2,15.5-2.9,20.9
	c-3,5.9-8.1,9.7-15,11.2c-8.7,1.9-19.2-1.7-31.9-10.4c2.2,2.4,4.4,4.8,6.8,7.2c33,33,72.6,46.2,87.8,31c10.5-10.5,7.5-32.5-6.2-56
	l-0.7,0.8c-21.3-20.5-37.3-29.4-47.4-27.2c-4.8,1-8,3.4-10,7.3c-0.4,0.7-0.7,1.5-1,2.4c1.8-0.8,3.8-1.3,6-1.3
	C107.9,85.4,114.4,91.7,114.6,99.6z M106.7,113c-2,1-4.3,1.6-6.7,1.6c-7,0-12.8-4.9-14.2-11.4h0c0-0.1,0-0.2,0-0.3
	c-0.2-1-0.3-2-0.3-3c0-0.3,0-0.6,0-0.8c-0.3-7.3,0.7-13.4,3.1-18.2c3-5.9,8.1-9.7,15-11.2c9.3-2,20.8,2.2,34.8,12.5
	c-3.1-3.6-6.4-7.2-9.9-10.8c-33-33-72.6-46.2-87.8-31C30,51.2,33.2,73.8,47.4,97.7l0.3-0.3c21.3,20.5,37.3,29.4,47.4,27.2
	c4.8-1,8-3.4,10-7.3C105.8,116,106.3,114.6,106.7,113L106.7,113z M164.6,164.6c-19,19-62.7,4.5-98.1-31s-50-79.1-31-98.1
	s62.7-4.5,98.1,31S183.6,145.5,164.6,164.6L164.6,164.6z M100,107.3c4,0,7.3-3.3,7.3-7.3c0-4-3.3-7.3-7.3-7.3c-4,0-7.3,3.3-7.3,7.3
	C92.7,104,96,107.3,100,107.3z"/>
<path class="st1" d="M184.4,16.6v168.8H15.6V16.6H184.4 M187.9,1H12.1C5.4,1,0,6.4,0,13.1v175.8c0,6.7,5.4,12.1,12.1,12.1h175.8
	c6.7,0,12.1-5.4,12.1-12.1V13.1C200,6.4,194.6,1,187.9,1L187.9,1z"/>
</svg>
