<svg xmlns="http://www.w3.org/2000/svg" viewBox="0 0 200 200"><path d="M35.4 164.6c-19-19-4.5-62.7 31-98.1s79.1-50 98.1-31 4.5 62.7-31 98.1-79 50-98.1 31zm5.2-5.2c15.2 15.2 54.8 2 87.8-31s46.2-72.6 31-87.8-54.8-2-87.8 31-46.2 72.6-31 87.8zm74-59.8c.7 8.6-.2 15.5-2.9 20.9-3 5.9-8.1 9.7-15 11.2-8.7 1.9-19.2-1.7-31.9-10.4 2.2 2.4 4.4 4.8 6.8 7.2 33 33 72.6 46.2 87.8 31 10.5-10.5 7.5-32.5-6.2-56l-.7.8c-21.3-20.5-37.3-29.4-47.4-27.2-4.8 1-8 3.4-10 7.3-.4.7-.7 1.5-1 2.4 1.8-.8 3.8-1.3 6-1.3 7.8-.1 14.3 6.2 14.5 14.1zm-7.9 13.4c-2 1-4.3 1.6-6.7 1.6-7 0-12.8-4.9-14.2-11.4v-.3c-.2-1-.3-2-.3-3v-.8c-.3-7.3.7-13.4 3.1-18.2 3-5.9 8.1-9.7 15-11.2 9.3-2 20.8 2.2 34.8 12.5-3.1-3.6-6.4-7.2-9.9-10.8-33-33-72.6-46.2-87.8-31-10.7 10.8-7.5 33.4 6.7 57.3l.3-.3C69 117.9 85 126.8 95.1 124.6c4.8-1 8-3.4 10-7.3.7-1.3 1.2-2.7 1.6-4.3zm57.9 51.6c-19 19-62.7 4.5-98.1-31s-50-79.1-31-98.1 62.7-4.5 98.1 31 50 79 31 98.1zM100 107.3c4 0 7.3-3.3 7.3-7.3s-3.3-7.3-7.3-7.3-7.3 3.3-7.3 7.3 3.3 7.3 7.3 7.3z" fill="#2591f7" stroke="#2591f7" stroke-width="6" stroke-miterlimit="10"/><path d="M184.4 16.6v168.8H15.6V16.6h168.8M187.9 1H12.1C5.4 1 0 6.4 0 13.1v175.8c0 6.7 5.4 12.1 12.1 12.1h175.8c6.7 0 12.1-5.4 12.1-12.1V13.1C200 6.4 194.6 1 187.9 1z" fill="#2591f7"/></svg>