<svg xmlns="http://www.w3.org/2000/svg" viewBox="0 0 200 200"><path d="M162.1 69.1L156.3 180c-.2 4.1-3.6 7.3-7.7 7.3H51.4c-4.1 0-7.4-3.2-7.7-7.3L37.9 69.1c-.2-4.2 3-7.8 7.3-8.1 4.2-.2 7.8 3 8.1 7.3l5.5 103.6h82.7L147 68.3c.2-4.2 3.9-7.4 8.1-7.3 4 .3 7.2 3.9 7 8.1zm20.4-25.7c0 4.2-3.4 7.7-7.7 7.7H25.2c-4.2 0-7.7-3.4-7.7-7.7s3.4-7.7 7.7-7.7h42.2V18.5c0-3.7 2.5-5.8 6.2-5.8h52.8c3.7 0 6.2 2 6.2 5.8v17.3h42.2c4.2 0 7.7 3.4 7.7 7.6zM80.8 35.8h38.4v-9.6H80.8v9.6zM84 160.4h.2c3.7 0 6.6-3.6 6.6-7.3l-2-82.9c-.1-3.7-3.1-6.7-6.9-6.7-3.7.1-6.6 3.1-6.6 6.8l2 83.1c.1 3.7 3.1 7 6.7 7zm31.7 0c3.6 0 6.6-3.1 6.7-6.7l2-82.8c.1-3.7-2.8-6.8-6.6-6.9-3.8-.1-6.8 2.8-6.9 6.5l-2 82.9c-.1 3.7 2.8 7 6.6 7h.2z" fill="#94a8c6"/></svg>