<svg class="icon" viewBox="0 0 1024 1024" xmlns="http://www.w3.org/2000/svg" width="16" height="16"><defs><style/></defs><path d="M473.1 347.6l-63.5 251C380 717.4 351 803.3 322.9 856.4c-28.1 53.1-61.2 92.4-99.2 118.1-38 25.7-81.3 38.5-129.9 38.5-31 0-53.8-6-68.2-17.9C11.2 983.2 4 969.3 4 953.6c0-14.9 6-27.6 17.9-38.5 11.9-10.8 27.8-16.2 47.6-16.2 16.2 0 28.6 4.1 37.1 12.5 8.6 8.3 12.8 18.8 12.8 31.4 0 11.7-2.7 20.4-8.1 26-5.4 5.6-8.1 9.3-8.1 11.1l2.7 3.4c2.3 1.8 5 2.8 8.2 2.8 10.8 0 20-3.4 27.6-10.1 18.9-17.1 33.1-37.8 42.5-62.1 6.7-16.6 19.3-60.5 37.8-131.6l110.7-434.5h-75.6l18.2-63.5c27 .5 46.7-2.9 59-10.1 12.4-7.2 25.3-23.4 38.9-48.6C413.2 151.8 455.3 99 499.4 67c44.1-32 93.4-48 147.8-48 34.7 0 59.8 6.7 75.6 20.3 15.8 13.5 23.6 31 23.6 52.6 0 18.4-5.2 33.2-15.5 44.2-10.4 11.1-23.4 16.5-39.2 16.5-14.4 0-26.3-4.5-35.8-13.5-9.4-9-14.2-19.8-14.2-32.4 0-9 3.1-18.5 9.1-28.7 6-10.1 9.1-17 9.1-20.6 0-4-1.3-7.3-4-9.8-2.7-2.5-6.3-3.7-10.8-3.7-21.6 0-43.7 13.1-66.1 39.2-36.9 42.7-66.6 109.8-89.1 201.1h79L550 347.8h-76.9v-.2zm121.8 32.7l158-27c28.5 45 48.8 94.5 60.8 148.5 29.7-43.9 51.9-74.6 66.9-92.3 20.3-23.3 37-38.4 50-45.6 13.1-7.1 27-10.7 41.6-10.7 16.9 0 29.7 4.5 38.5 13.5s13.2 21.2 13.2 36.6c0 14.6-4.4 26.5-13.2 35.7-8.8 9.2-20 13.8-33.5 13.8-9.7 0-20.8-1.8-33.2-5.4-12.4-3.6-21-5.4-25.9-5.4-12.8 0-24.9 4.5-36.6 13.5-15.7 12.7-35 39.2-57.9 79.3 25.9 90.8 46.5 146 61.8 165.8 9 11.6 18.1 17.4 27.6 17.4 7.9 0 14.6-1.8 20.3-5.6 8.6-6.3 22.1-22.3 40.5-47.8l16.3 9.6c-26.6 43.1-52.7 73.3-78.1 90.5-19.1 13.9-38.1 20.8-56.8 20.8-19.5 0-35.6-4.3-48.4-13-12.8-8.6-24.1-22.7-34-42.2-10-19.5-21.8-50.8-35.7-93.9-35.2 45-62.9 77.9-82.9 98.7-20 20.8-36.7 34.4-50 40.8-13.3 6.4-27.5 9.6-42.4 9.6-15.7 0-28.2-4.5-37.4-13.8-9.2-9.2-13.8-20.8-13.8-35.1 0-15.4 5-28.1 14.9-38.2 10-10.1 22.6-15.2 37.9-15.2 8.3 0 17.4 2.5 27.6 7.3 15.4 7.5 26.3 11.2 32.6 11.2 9 0 16.9-1.8 23.6-5.6 9-4.5 20.4-14.2 34.3-29.3 8.6-9.3 24.2-29.4 46.7-60.1-28.9-107.2-51.4-171.5-67.5-192.9-10.5-13.5-23.6-20.3-39.4-20.3-7.9 0-17.9 1.3-29.8 3.9l3.4-17.1z" fill="#2491F7"/></svg>