<svg id="图层_1" xmlns="http://www.w3.org/2000/svg" viewBox="0 0 200 200"><style>.st0{fill:#2491f7}</style><path class="st0" d="M184.4 15.6v168.8H15.6V15.6h168.8M187.9 0H12.1C5.4 0 0 5.4 0 12.1v175.8c0 6.7 5.4 12.1 12.1 12.1h175.8c6.7 0 12.1-5.4 12.1-12.1V12.1C200 5.4 194.6 0 187.9 0z"/><path class="st0" d="M68.3 108.2c0 6.1-1.4 11.2-4.3 15.5-2.9 4.3-6.6 7.5-11.2 9.6-4.6 2.1-9.6 3.2-14.8 3.2-3.1 0-5.9-.3-8.4-.9-2.6-.6-4.9-1.5-7-2.7-2.1-1.2-4.3-3-6.5-5.2l13-12.9c1.6 1.5 3 2.6 4.1 3.2 1.2.6 2.8.9 4.8.9 3.2 0 5.7-.9 7.6-2.8 1.9-1.9 2.9-4.6 2.9-8.3V55.3h19.8v52.9zm58.8 27.6H109v-5c-2 2-4 3.4-6 4.2-2 .9-4.5 1.3-7.6 1.3-6.1 0-11-1.8-14.6-5.4-3.6-3.6-5.4-8.3-5.4-14.2 0-3.2.7-6.2 2.2-8.8 1.5-2.7 3.8-4.8 6.9-6.4 3.1-1.6 7-2.4 11.6-2.4h12.3v-1.5c0-2.8-.7-4.8-2.1-5.9-1.4-1.1-3.8-1.7-7-1.7-2.3 0-4.1.3-5.4.9-1.3.6-2.8 1.6-4.3 3.1L78.1 82.4c3.2-3.1 6.4-5.3 9.6-6.4 3.2-1.1 7.4-1.7 12.6-1.7 8.8 0 15.4 1.8 20 5.5 4.5 3.7 6.8 9.2 6.8 16.5v39.5zM108.5 113v-1.5h-9.4c-1.8 0-3.2.4-4.3 1.3-1.1.9-1.6 2-1.6 3.5 0 1.4.5 2.6 1.6 3.6s2.6 1.5 4.5 1.5c1.8 0 3.2-.1 4.3-.4 1.1-.3 2.1-.9 3.1-1.8 1.2-1.2 1.8-3.3 1.8-6.2zM184 79.9l-14 14.2c-1-1-2-1.8-3-2.3-1-.5-2.2-.8-3.7-.8-1.7 0-3.4.6-5 1.9-1.6 1.3-2.4 3.4-2.4 6.5v36.4h-18.6V75h18.1v5c1.5-1.5 3.6-2.9 6.1-4 2.5-1.1 5.3-1.7 8.3-1.7 3 0 5.6.4 7.8 1.3 2.2.8 4.3 2.3 6.4 4.3z"/></svg>