<?xml version="1.0" encoding="utf-8"?>
<!-- Generator: Adobe Illustrator 21.0.0, SVG Export Plug-In . SVG Version: 6.00 Build 0)  -->
<svg version="1.1" id="图层_1" xmlns="http://www.w3.org/2000/svg" xmlns:xlink="http://www.w3.org/1999/xlink" x="0px" y="0px"
	 viewBox="0 0 200 200" style="enable-background:new 0 0 200 200;" xml:space="preserve">
<style type="text/css">
	.st0{fill:#2491F7;}
</style>
<path class="st0" d="M184.4,15.6v168.8H15.6V15.6H184.4 M187.9,0H12.1C5.4,0,0,5.4,0,12.1v175.8c0,6.7,5.4,12.1,12.1,12.1h175.8
	c6.7,0,12.1-5.4,12.1-12.1V12.1C200,5.4,194.6,0,187.9,0L187.9,0z"/>
<path class="st0" d="M68.3,108.2c0,6.1-1.4,11.2-4.3,15.5c-2.9,4.3-6.6,7.5-11.2,9.6c-4.6,2.1-9.6,3.2-14.8,3.2
	c-3.1,0-5.9-0.3-8.4-0.9c-2.6-0.6-4.9-1.5-7-2.7c-2.1-1.2-4.3-3-6.5-5.2l13-12.9c1.6,1.5,3,2.6,4.1,3.2c1.2,0.6,2.8,0.9,4.8,0.9
	c3.2,0,5.7-0.9,7.6-2.8c1.9-1.9,2.9-4.6,2.9-8.3V55.3h19.8L68.3,108.2L68.3,108.2z"/>
<path class="st0" d="M127.1,135.8H109v-5c-2,2-4,3.4-6,4.2c-2,0.9-4.5,1.3-7.6,1.3c-6.1,0-11-1.8-14.6-5.4
	c-3.6-3.6-5.4-8.3-5.4-14.2c0-3.2,0.7-6.2,2.2-8.8c1.5-2.7,3.8-4.8,6.9-6.4c3.1-1.6,7-2.4,11.6-2.4h12.3v-1.5c0-2.8-0.7-4.8-2.1-5.9
	c-1.4-1.1-3.8-1.7-7-1.7c-2.3,0-4.1,0.3-5.4,0.9c-1.3,0.6-2.8,1.6-4.3,3.1L78.1,82.4c3.2-3.1,6.4-5.3,9.6-6.4
	c3.2-1.1,7.4-1.7,12.6-1.7c8.8,0,15.4,1.8,20,5.5c4.5,3.7,6.8,9.2,6.8,16.5L127.1,135.8z M108.5,113v-1.5h-9.4
	c-1.8,0-3.2,0.4-4.3,1.3c-1.1,0.9-1.6,2-1.6,3.5c0,1.4,0.5,2.6,1.6,3.6c1.1,1,2.6,1.5,4.5,1.5c1.8,0,3.2-0.1,4.3-0.4
	c1.1-0.3,2.1-0.9,3.1-1.8C107.9,118,108.5,115.9,108.5,113z"/>
<path class="st0" d="M184,79.9l-14,14.2c-1-1-2-1.8-3-2.3c-1-0.5-2.2-0.8-3.7-0.8c-1.7,0-3.4,0.6-5,1.9c-1.6,1.3-2.4,3.4-2.4,6.5
	v36.4h-18.6V75h18.1v5c1.5-1.5,3.6-2.9,6.1-4c2.5-1.1,5.3-1.7,8.3-1.7c3,0,5.6,0.4,7.8,1.3C179.8,76.4,181.9,77.9,184,79.9z"/>
</svg>
