<?xml version="1.0" encoding="utf-8"?>
<!-- Generator: Adobe Illustrator 21.0.0, SVG Export Plug-In . SVG Version: 6.00 Build 0)  -->
<svg version="1.1" id="图层_1" xmlns="http://www.w3.org/2000/svg" xmlns:xlink="http://www.w3.org/1999/xlink" x="0px" y="0px"
	 viewBox="0 0 200 60" style="enable-background:new 0 0 200 60;" xml:space="preserve">
<style type="text/css">
	.st0{fill:#2491F7;}
</style>
<g>
	<g>
		<rect x="29.8" y="24" class="st0" width="4.7" height="17.3"/>
		<g>
			<rect x="44.2" y="17.8" transform="matrix(0.6428 -0.766 0.766 0.6428 -3.634 45.1371)" class="st0" width="4.7" height="17.3"/>
			
				<rect x="15.3" y="17.8" transform="matrix(-0.6428 -0.766 0.766 -0.6428 8.8113 57.039)" class="st0" width="4.7" height="17.3"/>
		</g>
		<g>
			
				<rect x="16.1" y="34.4" transform="matrix(0.6428 -0.766 0.766 0.6428 -26.3572 29.4965)" class="st0" width="4.7" height="17.3"/>
			
				<rect x="43.5" y="34.4" transform="matrix(-0.6428 -0.766 0.766 -0.6428 42.3528 105.769)" class="st0" width="4.7" height="17.3"/>
		</g>
		<circle class="st0" cx="32.1" cy="14.7" r="11.8"/>
		<circle class="st0" cx="32.1" cy="47.7" r="9.4"/>
		<g>
			<circle class="st0" cx="7.7" cy="34.3" r="7.1"/>
			<circle class="st0" cx="56.5" cy="34.3" r="7.1"/>
		</g>
	</g>
	<g>
		<path class="st0" d="M74.5,17.9c0-1.2,1-2.2,2.2-2.2h11.5c3.2,0,5.5,0.7,7.1,2c1.6,1.4,2.4,3.3,2.4,5.7c0,1.4-0.2,2.5-0.6,3.4
			c-0.4,0.9-0.9,1.6-1.4,2.2c-0.5,0.5-1.1,0.9-1.6,1.2c-0.5,0.2-0.9,0.4-1.1,0.5v0.1c0.4,0.1,0.9,0.2,1.4,0.4c0.5,0.2,1,0.6,1.4,1
			s0.8,1.1,1.1,1.8s0.4,1.7,0.4,2.8c0,1.7,0.1,3.2,0.4,4.6c0,0.1,0,0.2,0.1,0.3c0.3,1.4-0.7,2.6-2.1,2.6h-0.6c-1.1,0-2-0.8-2.1-1.8
			c0-0.1,0-0.2,0-0.2c-0.1-0.7-0.1-1.5-0.1-2.2c0-1.3-0.1-2.4-0.2-3.4c-0.2-0.9-0.5-1.7-0.9-2.4s-1-1.1-1.7-1.4
			c-0.7-0.3-1.7-0.4-2.8-0.4h-5.2c-1.2,0-2.2,1-2.2,2.2v7.5c0,1.2-1,2.2-2.2,2.2h-0.7c-1.2,0-2.2-1-2.2-2.2V17.9z M79.5,26.6
			c0,1.2,1,2.2,2.2,2.2h6.1c1.6,0,2.8-0.4,3.6-1.1c0.8-0.8,1.2-1.9,1.2-3.4c0-0.9-0.1-1.7-0.4-2.2c-0.3-0.6-0.6-1-1.1-1.3
			c-0.5-0.3-1-0.5-1.6-0.6c-0.6-0.1-1.2-0.2-1.9-0.2h-6c-1.2,0-2.2,1-2.2,2.2V26.6z"/>
		<path class="st0" d="M102.7,17.9c0-1.2,1-2.2,2.2-2.2h9.7c2.2,0,4.1,0.4,5.7,1.1c1.6,0.7,2.9,1.8,3.9,3.1c1,1.3,1.8,2.8,2.3,4.6
			c0.5,1.7,0.7,3.6,0.7,5.6c0,2-0.2,3.8-0.7,5.6s-1.2,3.3-2.3,4.6c-1,1.3-2.3,2.3-3.9,3.1c-1.6,0.7-3.5,1.1-5.7,1.1h-9.7
			c-1.2,0-2.2-1-2.2-2.2V17.9z M107.7,38.1c0,1.2,1,2.2,2.2,2.2h2.8c2,0,3.5-0.3,4.8-0.8c1.2-0.5,2.2-1.2,2.9-2.2
			c0.7-0.9,1.2-2,1.4-3.2c0.3-1.2,0.4-2.6,0.4-4c0-1.4-0.1-2.8-0.4-4c-0.3-1.2-0.7-2.3-1.4-3.2c-0.7-0.9-1.7-1.6-2.9-2.2
			c-1.2-0.5-2.8-0.8-4.8-0.8h-2.8c-1.2,0-2.2,1-2.2,2.2V38.1z"/>
		<path class="st0" d="M132.7,31.2h7.3c1.2,0,2.2,1,2.2,2.2v0c0,1.2-1,2.2-2.2,2.2h-7.3c-1.2,0-2.2-1-2.2-2.2v0
			C130.6,32.2,131.5,31.2,132.7,31.2z"/>
		<path class="st0" d="M159.4,15c2.1,0,4.1,0.4,5.8,1.2c1.7,0.8,3.1,1.9,4.3,3.2c1.2,1.4,2.1,3,2.7,4.8c0.6,1.8,0.9,3.7,0.9,5.8
			c0,2.1-0.3,4-0.9,5.8c-0.6,1.8-1.5,3.4-2.7,4.8c-1.2,1.4-2.6,2.4-4.3,3.2c-1.7,0.8-3.6,1.2-5.8,1.2s-4.1-0.4-5.8-1.2
			c-1.7-0.8-3.1-1.9-4.3-3.2c-1.2-1.4-2.1-3-2.7-4.8c-0.6-1.8-0.9-3.8-0.9-5.8c0-2,0.3-4,0.9-5.8c0.6-1.8,1.5-3.4,2.7-4.8
			c1.2-1.4,2.6-2.4,4.3-3.2C155.4,15.4,157.3,15,159.4,15z M159.4,19.1c-1.5,0-2.8,0.3-3.9,0.9c-1.1,0.6-2,1.4-2.7,2.5
			c-0.7,1-1.2,2.2-1.5,3.5c-0.3,1.3-0.5,2.6-0.5,4s0.2,2.7,0.5,4c0.3,1.3,0.8,2.5,1.5,3.5c0.7,1,1.6,1.9,2.7,2.5
			c1.1,0.6,2.4,0.9,3.9,0.9s2.8-0.3,3.9-0.9c1.1-0.6,2-1.4,2.7-2.5c0.7-1,1.2-2.2,1.5-3.5c0.3-1.3,0.5-2.6,0.5-4s-0.2-2.7-0.5-4
			c-0.3-1.3-0.8-2.5-1.5-3.5c-0.7-1-1.6-1.9-2.7-2.5S161,19.1,159.4,19.1z"/>
		<path class="st0" d="M179.1,34.8c1,0,1.9,0.7,2.1,1.6c0.1,0.4,0.2,0.8,0.4,1.2c0.4,0.8,0.9,1.4,1.6,1.9c0.7,0.5,1.4,0.9,2.3,1.1
			c0.9,0.2,1.8,0.3,2.8,0.3c1.1,0,2-0.1,2.8-0.4c0.8-0.3,1.4-0.6,1.9-1c0.5-0.4,0.8-0.9,1-1.4c0.2-0.5,0.3-1,0.3-1.6
			c0-1.1-0.2-1.9-0.7-2.4s-1-0.9-1.6-1.1c-1-0.4-2.2-0.7-3.5-1.1c-1.3-0.3-3-0.8-5-1.3c-1.2-0.3-2.3-0.7-3.1-1.3
			c-0.8-0.5-1.5-1.1-1.9-1.7c-0.5-0.6-0.8-1.3-1-2c-0.2-0.7-0.3-1.5-0.3-2.2c0-1.4,0.3-2.7,0.9-3.7c0.6-1.1,1.4-1.9,2.4-2.6
			c1-0.7,2.1-1.2,3.4-1.5c1.3-0.3,2.5-0.5,3.8-0.5c1.5,0,2.9,0.2,4.2,0.6c1.3,0.4,2.5,1,3.5,1.7c1,0.8,1.8,1.7,2.4,2.9
			c0.2,0.3,0.3,0.7,0.5,1.1c0.5,1.4-0.6,2.9-2.1,2.9h-0.7c-0.9,0-1.8-0.6-2.1-1.5c-0.3-1.1-0.8-1.9-1.6-2.4
			c-1.1-0.8-2.6-1.1-4.3-1.1c-0.6,0-1.2,0.1-1.8,0.2c-0.6,0.1-1.2,0.3-1.7,0.6c-0.5,0.3-0.9,0.7-1.3,1.1c-0.3,0.5-0.5,1.1-0.5,1.8
			c0,1,0.3,1.8,0.9,2.4c0.6,0.6,1.4,1,2.5,1.3c0.1,0,0.5,0.1,1.3,0.3c0.7,0.2,1.6,0.4,2.5,0.7c0.9,0.2,1.8,0.5,2.7,0.7
			c0.9,0.2,1.5,0.4,1.9,0.5c0.9,0.3,1.8,0.7,2.4,1.2c0.7,0.5,1.3,1.1,1.7,1.7c0.5,0.7,0.8,1.4,1,2.1c0.2,0.7,0.3,1.5,0.3,2.2
			c0,1.6-0.3,3-1,4.1c-0.7,1.1-1.5,2.1-2.6,2.8c-1.1,0.7-2.3,1.2-3.6,1.6c-1.4,0.3-2.8,0.5-4.2,0.5c-1.6,0-3.2-0.2-4.6-0.6
			c-1.4-0.4-2.7-1-3.8-1.8c-1.1-0.8-1.9-1.9-2.6-3.2c-0.3-0.6-0.5-1.3-0.7-2c-0.3-1.3,0.7-2.6,2.1-2.6H179.1z"/>
	</g>
</g>
</svg>
