<svg id="图层_1" xmlns="http://www.w3.org/2000/svg" viewBox="0 0 200 200"><style>.st0{fill:#2491f7}</style><path class="st0" d="M184.4 15.6v168.8H15.6V15.6h168.8M187.9 0H12.1C5.4 0 0 5.4 0 12.1v175.8c0 6.7 5.4 12.1 12.1 12.1h175.8c6.7 0 12.1-5.4 12.1-12.1V12.1C200 5.4 194.6 0 187.9 0z"/><path class="st0" d="M98.6 139.2H79.3v-37.5L68.2 121H55.9l-11.1-19.3v37.5H25.6V60.8h18.9l17.6 34.6 17.7-34.6h18.9l-.1 78.4zm77.8 0h-22.3L140.2 110h-6.5v29.1h-19.2V60.8h31c5.6 0 10.4 1.2 14.4 3.5s7 5.5 9.1 9.3c2.1 3.8 3.2 8 3.2 12.4 0 4.9-1.3 9.1-3.7 12.6-2.5 3.5-5.5 6.1-9 7.9l16.9 32.7zm-23.3-53.1c0-1.4-.3-2.7-.9-3.9-.6-1.3-1.7-2.2-2.9-2.9s-2.7-1.1-4.4-1.1h-11V94h10.9c1.7 0 3.2-.3 4.4-1.1 1.3-.7 2.2-1.7 2.9-2.9.6-1.3 1-2.6 1-3.9z"/></svg>