<?xml version="1.0" encoding="utf-8"?>
<!-- Generator: Adobe Illustrator 21.0.0, SVG Export Plug-In . SVG Version: 6.00 Build 0)  -->
<svg version="1.1" id="图层_1" xmlns="http://www.w3.org/2000/svg" xmlns:xlink="http://www.w3.org/1999/xlink" x="0px" y="0px"
	 viewBox="0 0 200 200" style="enable-background:new 0 0 200 200;" xml:space="preserve">
<style type="text/css">
	.st0{fill:#2491F7;}
</style>
<path class="st0" d="M184.4,15.6v168.8H15.6V15.6H184.4 M187.9,0H12.1C5.4,0,0,5.4,0,12.1v175.8c0,6.7,5.4,12.1,12.1,12.1h175.8
	c6.7,0,12.1-5.4,12.1-12.1V12.1C200,5.4,194.6,0,187.9,0L187.9,0z"/>
<g>
	<path class="st0" d="M98.6,139.2H79.3v-37.5L68.2,121H55.9l-11.1-19.3v37.5H25.6V60.8h18.9l17.6,34.6l17.7-34.6h18.9L98.6,139.2
		L98.6,139.2z"/>
	<path class="st0" d="M176.4,139.2h-22.3l-13.9-29.2h-6.5v29.1h-19.2V60.8h31c5.6,0,10.4,1.2,14.4,3.5c4,2.3,7,5.5,9.1,9.3
		c2.1,3.8,3.2,8,3.2,12.4c0,4.9-1.3,9.1-3.7,12.6c-2.5,3.5-5.5,6.1-9,7.9L176.4,139.2z M153.1,86.1c0-1.4-0.3-2.7-0.9-3.9
		c-0.6-1.3-1.7-2.2-2.9-2.9s-2.7-1.1-4.4-1.1h-11V94h10.9c1.7,0,3.2-0.3,4.4-1.1c1.3-0.7,2.2-1.7,2.9-2.9
		C152.7,88.7,153.1,87.4,153.1,86.1z"/>
</g>
</svg>
