<svg id="图层_1" xmlns="http://www.w3.org/2000/svg" viewBox="0 0 200 200"><style>.st0{fill:#2591f7}</style><path class="st0" d="M184.4 16.6v168.8H15.6V16.6h168.8M187.9 1H12.1C5.4 1 0 6.4 0 13.1v175.8c0 6.7 5.4 12.1 12.1 12.1h175.8c6.7 0 12.1-5.4 12.1-12.1V13.1C200 6.4 194.6 1 187.9 1z"/><circle class="st0" cx="75.4" cy="100" r="45.8"/><path d="M89.9 118.7V115c1.9 0 3.2-.3 3.9-.9.8-.6 1.1-1.5 1.1-2.8V95.9c0-3-.5-5.2-1.4-6.7S91 87 88.8 87c-1.8 0-3.3.6-4.5 1.7s-2.1 2.8-2.9 5V110c0 1.6.4 2.9 1.2 3.7.8.8 2.1 1.3 3.9 1.3v3.7H65.2V115c1.7 0 2.9-.5 3.6-1.4.7-.9 1.1-2.2 1.1-3.9V98.1c0-3.7-.5-6.4-1.4-8.3-.9-1.9-2.5-2.8-4.7-2.8-2.6 0-4.5.8-5.7 2.5-1.2 1.7-1.8 4.1-1.8 7.4v14.2c0 2.6 1.7 3.9 5.1 3.9v3.7H40V115c3.2 0 4.8-1.2 4.8-3.7V89.7c0-1.3-1.9-2-5.8-2v-3.3l16.3-3.1c.5.5.7 1.3.7 2.4v3.2c1.4-1.7 3.1-3 5.1-3.9 2-.9 4.2-1.4 6.4-1.4s4.3.5 6.2 1.5c1.9 1 3.5 2.6 4.6 4.7 1.6-2 3.5-3.6 5.7-4.6 2.2-1.1 4.7-1.6 7.2-1.6 1.9 0 3.7.2 5.5.6 1.8.4 3.4 1.1 4.7 2.1 1.4 1 2.5 2.3 3.3 3.9.8 1.6 1.3 3.7 1.3 6.1v17.1c0 2.5 1.8 3.7 5.5 3.7v3.7H89.9z" fill="#fff"/><path class="st0" d="M150.3 118.7V115c1.3 0 2.2-.1 2.6-.3.4-.2.6-.4.6-.7 0-.5-.4-1.2-1.1-2.1l-4.8-6.9-5.4 6.4c-.4.4-.6.8-.8 1.1-.2.3-.3.6-.3.9 0 .6.3 1 1 1.3.6.3 1.8.4 3.5.4v3.7H130V115c2.5 0 4.7-1 6.6-3.1l9-10.1-9.9-13.5c-.5-.6-1.2-1.1-2.2-1.3-1-.2-2-.4-3.2-.4v-3.7h19.4v3.7c-2 0-3 .4-3 1.1 0 .3 0 .6.1.8.1.3.2.5.4.8l4.5 6.2 4.8-5.3c.4-.4.6-.8.8-1.2.2-.4.3-.8.3-1.4 0-.7-1.5-1.1-4.5-1.1v-3.7H169v3.7c-1.6 0-2.9.2-3.9.7-1.1.5-2 1.1-2.7 1.9l-8.7 9.5 10.8 13.7c1.2 1.6 3.1 2.5 5.8 2.5v3.7h-20z"/></svg>