<?xml version="1.0" encoding="utf-8"?>
<!-- Generator: Adobe Illustrator 21.0.0, SVG Export Plug-In . SVG Version: 6.00 Build 0)  -->
<svg version="1.1" id="图层_1" xmlns="http://www.w3.org/2000/svg" xmlns:xlink="http://www.w3.org/1999/xlink" x="0px" y="0px"
	 viewBox="0 0 200 200" style="enable-background:new 0 0 200 200;" xml:space="preserve">
<style type="text/css">
	.st0{fill:#2591F7;}
</style>
<path class="st0" d="M184.4,16.6v168.8H15.6V16.6H184.4 M187.9,1H12.1C5.4,1,0,6.4,0,13.1v175.8c0,6.7,5.4,12.1,12.1,12.1h175.8
	c6.7,0,12.1-5.4,12.1-12.1V13.1C200,6.4,194.6,1,187.9,1L187.9,1z"/>
<g>
	<polygon class="st0" points="161.6,56 144,56 144,87.6 135.2,96.4 126.4,87.6 126.4,56 108.8,56 108.8,94.8 126.4,112.4 126.4,144 
		144,144 144,112.4 161.6,94.8 	"/>
	<path class="st0" d="M56,56h-8.8h-8.8v88H56v-35.2h21.2l14-14V70l-14-14H56z M73.6,87.6L70,91.2H56V73.6h14l3.6,3.6V87.6z"/>
</g>
</svg>
