<?xml version="1.0" encoding="utf-8"?>
<!-- Generator: Adobe Illustrator 21.0.0, SVG Export Plug-In . SVG Version: 6.00 Build 0)  -->
<svg version="1.1" id="图层_1" xmlns="http://www.w3.org/2000/svg" xmlns:xlink="http://www.w3.org/1999/xlink" x="0px" y="0px"
	 viewBox="0 0 200 200" style="enable-background:new 0 0 200 200;" xml:space="preserve">
<style type="text/css">
	.st0{fill:#18A689;}
</style>
<path class="st0" d="M99.8,47.3c-4.2,0-8.1,0.4-11.6,1C77.9,50.1,76,53.9,76,60.9v9.3h24.3v3.1H76h-9.1c-7.1,0-13.2,4.2-15.2,12.3
	c-2.2,9.2-2.3,15,0,24.7c1.7,7.2,5.8,12.3,12.9,12.3H73v-11.1c0-8,6.9-15.1,15.2-15.1h24.2c6.7,0,12.1-5.6,12.1-12.3l0-23.1
	c0-6.6-5.5-11.5-12.1-12.6C108.2,47.6,103.9,47.3,99.8,47.3L99.8,47.3z M86.6,54.8c2.5,0,4.6,2.1,4.6,4.6c0,2.5-2,4.6-4.6,4.6
	c-2.5,0-4.6-2.1-4.6-4.6C82.1,56.8,84.1,54.8,86.6,54.8L86.6,54.8z"/>
<path class="st0" d="M127.6,73.3V84c0,8.4-7.1,15.4-15.2,15.4H88.2c-6.6,0-12.1,5.7-12.1,12.3v23.1c0,6.6,5.7,10.4,12.1,12.3
	c7.7,2.3,15.1,2.7,24.2,0c6.1-1.8,12.1-5.3,12.1-12.3v-9.3h-24.2v-3.1h24.2h12.1c7.1,0,9.7-4.9,12.1-12.3c2.5-7.6,2.4-14.9,0-24.7
	c-1.7-7-5.1-12.3-12.1-12.3H127.6L127.6,73.3L127.6,73.3z M113.9,131.8c2.5,0,4.6,2.1,4.6,4.6c0,2.6-2,4.6-4.6,4.6
	c-2.5,0-4.6-2.1-4.6-4.6C109.4,133.9,111.4,131.8,113.9,131.8L113.9,131.8z"/>
<path class="st0" d="M183.4,14.6v168.8H14.6V14.6H183.4 M186.9-1H11.1C4.4-1-1,4.4-1,11.1v175.8c0,6.7,5.4,12.1,12.1,12.1h175.8
	c6.7,0,12.1-5.4,12.1-12.1V11.1C199,4.4,193.6-1,186.9-1L186.9-1z"/>
</svg>
