<svg id="图层_1" xmlns="http://www.w3.org/2000/svg" viewBox="0 0 200 200"><style>.st0{fill:#2591f7}</style><path class="st0" d="M184.4 16.6v168.8H15.6V16.6h168.8M187.9 1H12.1C5.4 1 0 6.4 0 13.1v175.8c0 6.7 5.4 12.1 12.1 12.1h175.8c6.7 0 12.1-5.4 12.1-12.1V13.1C200 6.4 194.6 1 187.9 1z"/><path class="st0" d="M119.1 56.2l-19-3.3c1.6-6.1 4.6-10.7 9.1-13.9 4.5-3.2 10.9-4.9 19.3-4.9 9.6 0 16.4 1.7 20.6 5.2 4.2 3.6 6.2 8 6.2 13.5 0 3.2-.9 5.9-2.6 8.5-1.7 2.6-4.2 4.8-7.8 6.7 2.9.7 4.9 1.6 6.5 2.3 2.3 1.6 4.2 3.3 5.6 5.9 1.3 2.6 2 5.2 2 8.7 0 4.2-1.2 8.4-3.3 12.2-2.2 3.9-5.5 7-9.6 9-4.2 2-9.7 3.2-16.5 3.2-6.7 0-11.9-.9-15.6-2.3-3.8-1.6-7-3.9-9.6-6.8-2.6-3-4.5-6.8-5.6-11.2l20.3-2.8c.9 4.1 2 7 3.8 8.5 1.7 1.6 3.8 2.3 6.5 2.3 2.8 0 4.9-1 6.8-3s2.8-4.6 2.8-8c0-3.3-.9-5.9-2.6-7.8-1.7-1.9-4.1-2.8-7.1-2.8-1.6 0-3.8.3-6.7 1.2l1-14.5c1.2.1 2 .1 2.6.1 2.8 0 4.9-.9 6.7-2.6 1.7-1.7 2.8-3.8 2.8-5.9s-.7-3.9-2-5.2c-1.3-1.3-3.2-2-5.5-2s-4.2.7-5.8 2.2c-1.9 1.2-2.9 3.8-3.3 7.5zm-14.8 59.1h-9.7v17.3l-4.8 4.8-4.8-4.8v-17.3h-9.6v21.2l9.6 9.7v17.3h9.6v-17.3l9.7-9.7zm-58 0h-9.6v48.2h9.6v-19.3H58l7.7-7.7v-13.6l-7.6-7.7H46.3zm9.7 17.3l-2 2h-7.7V125H54l2 2v5.6z"/></svg>