<svg id="图层_1" xmlns="http://www.w3.org/2000/svg" viewBox="0 0 200 200"><style>.st0{fill:#2591f7}</style><path class="st0" d="M184.4 15.6v168.8H15.6V15.6h168.8M187.9 0H12.1C5.4 0 0 5.4 0 12.1v175.8c0 6.7 5.4 12.1 12.1 12.1h175.8c6.7 0 12.1-5.4 12.1-12.1V12.1C200 5.4 194.6 0 187.9 0z"/><path class="st0" d="M56.4 62.1c-1.7-1.7-3.7-3.1-6-4.1-2.4-1-5-1.6-7.8-1.6-3.2 0-6.1.6-8.6 1.7-2.5 1.2-4.5 2.7-6.1 4.7-1.6 1.9-2.8 4.3-3.6 6.9-.8 2.6-1.2 5.3-1.2 8.2 0 4.8.8 8.8 2.5 12.1 1.7 3.4 5 6.1 9.9 8.1l7.3 3c1.2.5 2.1 1 2.8 1.4.5.3.9.7 1.1 1.1.3.5.5 1.2.6 2.1.1 1.1.2 2.6.2 4.4 0 1.5-.1 3-.2 4.2-.1 1.1-.3 1.9-.7 2.6-.3.6-.8 1-1.4 1.3-.5.2-1.4.5-3.2.5-2 0-3.3-.5-4-1.5-.9-1.2-1.3-2.5-1.3-3.9v-5.2H22.6v5.8c0 2.7.5 5.2 1.5 7.5s2.4 4.3 4.1 6c1.7 1.7 3.8 3 6.2 4 2.4 1 4.9 1.4 7.7 1.4 3.6 0 6.6-.6 9.2-1.8 2.6-1.2 4.6-2.9 6.2-5 1.5-2 2.6-4.5 3.3-7.3.6-2.7 1-5.7 1-8.8 0-2.7-.1-5.1-.4-7.2-.3-2.2-.9-4.3-1.7-6-.9-1.8-2.2-3.4-3.8-4.8-1.6-1.3-3.6-2.4-6.1-3.4L42 85.4c-1.2-.5-2.1-.9-2.8-1.4-.5-.4-.9-.8-1.2-1.2-.3-.5-.4-1-.5-1.7-.1-.9-.1-2-.1-3.4 0-1.1.1-2.1.3-3.1.2-.9.4-1.6.8-2.3.3-.6.8-1 1.4-1.4.6-.4 1.4-.5 2.5-.5 2.6 0 3.5 1 3.9 1.7.9 1.4 1.3 3 1.3 5v4.3h14.1v-7c0-2.3-.5-4.5-1.4-6.6-.9-2.1-2.2-4-3.9-5.7zm39 18.2c-1.2-1.2-2.6-2.1-4.2-2.6-1.5-.5-3-.8-4.4-.8-2.7 0-5 .6-6.9 1.9-.3.2-.7.5-1 .8V57H64.8v75.4h14.1V96.2c0-2.4.4-3.6.8-4.2.1-.2.5-.9 2.3-.9 1.3 0 1.9.5 2.2.9.6.7.9 1.8.9 3.2v37.2h14.1v-41c0-2.5-.3-4.7-1-6.5-.6-1.8-1.6-3.4-2.8-4.6zm37.4 1.9c-1.5-1.6-3.3-2.9-5.5-3.9-2.1-.9-4.5-1.4-7.1-1.4-3.5 0-6.6.8-9.1 2.3-2.6 1.5-4.6 3.6-5.9 6.1-.8 1.5-1.4 3.3-1.7 5.3-.3 1.8-.4 3.9-.4 6v16.8c0 2.2.1 4.2.4 6 .3 2 .9 3.7 1.7 5.3 1.4 2.5 3.4 4.6 5.9 6.1 2.6 1.5 5.6 2.3 9.1 2.3 2.6 0 5-.5 7.1-1.4 2.1-.9 3.9-2.2 5.4-3.7 1.5-1.5 2.7-3.4 3.5-5.5.8-2.1 1.2-4.3 1.2-6.7v-2h-13.9l-.2 1.7c-.1.9-.4 1.8-.9 2.7-.3.6-1.4.7-2.2.7-1 0-1.8-.2-2.3-.8-.5-.5-.8-1.2-.8-2.3v-5h20.3v-16c0-2.4-.4-4.7-1.2-6.9-.8-2.2-1.9-4.1-3.4-5.7zm-12.6 8.9c1.3 0 1.9.5 2.2.8.6.6.8 1.6.8 3v3.9h-6.1V95c0-1.4.3-2.4.8-3 .4-.4 1-.9 2.3-.9zm56.3 28.3c-2.1-.2-2.7-.7-2.8-.8 0 0-.5-.5-.5-2.6V56.9h-14.1v59.8c0 1 0 1.9.1 2.8l-1.4-.1c-2.1-.2-2.7-.7-2.8-.8 0 0-.5-.5-.5-2.6V57h-14.1v59.8c0 3.2.4 5.8 1.2 7.9.8 2.2 2 4 3.6 5.2 1.5 1.2 3.5 2.1 5.7 2.5 2 .4 4.3.6 6.7.6h2v-10.7c.2.9.4 1.7.7 2.4.8 2.2 2 4 3.6 5.2 1.5 1.2 3.5 2.1 5.7 2.5 2 .4 4.3.6 6.7.6h2v-13.4l-1.8-.2z"/></svg>