<?xml version="1.0" encoding="utf-8"?>
<!-- Generator: Adobe Illustrator 21.0.0, SVG Export Plug-In . SVG Version: 6.00 Build 0)  -->
<svg version="1.1" id="图层_1" xmlns="http://www.w3.org/2000/svg" xmlns:xlink="http://www.w3.org/1999/xlink" x="0px" y="0px"
	 viewBox="0 0 200 200" style="enable-background:new 0 0 200 200;" xml:space="preserve">
<style type="text/css">
	.st0{fill:#2591F7;}
</style>
<path class="st0" d="M184.4,15.6v168.8H15.6V15.6H184.4 M187.9,0H12.1C5.4,0,0,5.4,0,12.1v175.8c0,6.7,5.4,12.1,12.1,12.1h175.8
	c6.7,0,12.1-5.4,12.1-12.1V12.1C200,5.4,194.6,0,187.9,0L187.9,0z"/>
<path class="st0" d="M56.4,62.1c-1.7-1.7-3.7-3.1-6-4.1c-2.4-1-5-1.6-7.8-1.6c-3.2,0-6.1,0.6-8.6,1.7c-2.5,1.2-4.5,2.7-6.1,4.7
	c-1.6,1.9-2.8,4.3-3.6,6.9c-0.8,2.6-1.2,5.3-1.2,8.2c0,4.8,0.8,8.8,2.5,12.1c1.7,3.4,5,6.1,9.9,8.1l7.3,3c1.2,0.5,2.1,1,2.8,1.4
	c0.5,0.3,0.9,0.7,1.1,1.1c0.3,0.5,0.5,1.2,0.6,2.1c0.1,1.1,0.2,2.6,0.2,4.4c0,1.5-0.1,3-0.2,4.2c-0.1,1.1-0.3,1.9-0.7,2.6
	c-0.3,0.6-0.8,1-1.4,1.3c-0.5,0.2-1.4,0.5-3.2,0.5c-2,0-3.3-0.5-4-1.5c-0.9-1.2-1.3-2.5-1.3-3.9v-5.2H22.6v5.8
	c0,2.7,0.5,5.2,1.5,7.5c1,2.3,2.4,4.3,4.1,6c1.7,1.7,3.8,3,6.2,4c2.4,1,4.9,1.4,7.7,1.4c3.6,0,6.6-0.6,9.2-1.8
	c2.6-1.2,4.6-2.9,6.2-5c1.5-2,2.6-4.5,3.3-7.3c0.6-2.7,1-5.7,1-8.8c0-2.7-0.1-5.1-0.4-7.2c-0.3-2.2-0.9-4.3-1.7-6
	c-0.9-1.8-2.2-3.4-3.8-4.8c-1.6-1.3-3.6-2.4-6.1-3.4l-7.8-3.1c-1.2-0.5-2.1-0.9-2.8-1.4c-0.5-0.4-0.9-0.8-1.2-1.2
	c-0.3-0.5-0.4-1-0.5-1.7c-0.1-0.9-0.1-2-0.1-3.4c0-1.1,0.1-2.1,0.3-3.1c0.2-0.9,0.4-1.6,0.8-2.3c0.3-0.6,0.8-1,1.4-1.4
	c0.6-0.4,1.4-0.5,2.5-0.5c2.6,0,3.5,1,3.9,1.7c0.9,1.4,1.3,3,1.3,5v4.3h14.1v-7c0-2.3-0.5-4.5-1.4-6.6
	C59.4,65.7,58.1,63.8,56.4,62.1z"/>
<path class="st0" d="M95.4,80.3c-1.2-1.2-2.6-2.1-4.2-2.6c-1.5-0.5-3-0.8-4.4-0.8c-2.7,0-5,0.6-6.9,1.9c-0.3,0.2-0.7,0.5-1,0.8V57
	H64.8v75.4h14.1V96.2c0-2.4,0.4-3.6,0.8-4.2c0.1-0.2,0.5-0.9,2.3-0.9c1.3,0,1.9,0.5,2.2,0.9c0.6,0.7,0.9,1.8,0.9,3.2v37.2h14.1v-41
	c0-2.5-0.3-4.7-1-6.5C97.6,83.1,96.6,81.5,95.4,80.3z"/>
<path class="st0" d="M132.8,82.2c-1.5-1.6-3.3-2.9-5.5-3.9c-2.1-0.9-4.5-1.4-7.1-1.4c-3.5,0-6.6,0.8-9.1,2.3
	c-2.6,1.5-4.6,3.6-5.9,6.1c-0.8,1.5-1.4,3.3-1.7,5.3c-0.3,1.8-0.4,3.9-0.4,6v16.8c0,2.2,0.1,4.2,0.4,6c0.3,2,0.9,3.7,1.7,5.3
	c1.4,2.5,3.4,4.6,5.9,6.1c2.6,1.5,5.6,2.3,9.1,2.3c2.6,0,5-0.5,7.1-1.4c2.1-0.9,3.9-2.2,5.4-3.7c1.5-1.5,2.7-3.4,3.5-5.5
	c0.8-2.1,1.2-4.3,1.2-6.7v-2l-13.9,0l-0.2,1.7c-0.1,0.9-0.4,1.8-0.9,2.7c-0.3,0.6-1.4,0.7-2.2,0.7c-1,0-1.8-0.2-2.3-0.8
	c-0.5-0.5-0.8-1.2-0.8-2.3v-5h20.3v-16c0-2.4-0.4-4.7-1.2-6.9C135.4,85.7,134.3,83.8,132.8,82.2z M120.2,91.1c1.3,0,1.9,0.5,2.2,0.8
	c0.6,0.6,0.8,1.6,0.8,3v3.9h-6.1V95c0-1.4,0.3-2.4,0.8-3C118.3,91.6,118.9,91.1,120.2,91.1z"/>
<path class="st0" d="M176.5,119.4c-2.1-0.2-2.7-0.7-2.8-0.8c0,0-0.5-0.5-0.5-2.6l0-59.1h-14.1v59.8c0,1,0,1.9,0.1,2.8l-1.4-0.1
	c-2.1-0.2-2.7-0.7-2.8-0.8c0,0-0.5-0.5-0.5-2.6V57h-14.1v59.8c0,3.2,0.4,5.8,1.2,7.9c0.8,2.2,2,4,3.6,5.2c1.5,1.2,3.5,2.1,5.7,2.5
	c2,0.4,4.3,0.6,6.7,0.6h2v-10.7c0.2,0.9,0.4,1.7,0.7,2.4c0.8,2.2,2,4,3.6,5.2c1.5,1.2,3.5,2.1,5.7,2.5c2,0.4,4.3,0.6,6.7,0.6h2
	v-13.4L176.5,119.4z"/>
</svg>
