<svg id="图层_1" xmlns="http://www.w3.org/2000/svg" viewBox="0 0 200 200"><style>.st0{fill:#2591f7}</style><path class="st0" d="M184.4 16.6v168.8H15.6V16.6h168.8M187.9 1H12.1C5.4 1 0 6.4 0 13.1v175.8c0 6.7 5.4 12.1 12.1 12.1h175.8c6.7 0 12.1-5.4 12.1-12.1V13.1C200 6.4 194.6 1 187.9 1z"/><path d="M130.7 89.9l15.8 4.4-9.5-18.6 14.4-17.6-21.4 5.2-10.6-17.4-4.3 21.7-21.4 7.3 15.8 6.7-10.7 7.2L86 83.5s-6.9-3.2-6.9-8.6c0-5.5 7.2-7.3 7.2-7.3l21.1-6.6 3.5-20.5s1.7-8.1 7.3-8.1c5.7 0 8 6.6 10.9 10.9L135 53l21-5.5s17.3-3.7 6.9 11L148 76l8.9 17.3s6.9 14.1-9.3 12.1l-15.3-4.9-1.6-10.6z" fill="#e16a1a"/><path class="st0" d="M126.4 101.6h-13.2v23.7l-6.6 6.6-6.6-6.6v-23.7H86.8v29.1l13.2 13.2v23.7h13.2v-23.7l13.2-13.2zm-79.3 0H33.9v66h13.2v-26.4H63l10.5-10.5v-18.6l-10.4-10.5h-16zm13.2 23.7l-2.7 2.7H47.1v-13.2h10.5l2.7 2.7v7.8z"/></svg>