<svg class="icon" viewBox="0 0 1024 1024" xmlns="http://www.w3.org/2000/svg" width="16" height="16"><defs><style/></defs><path d="M513.92 156.407c127.83 0 255.657-.03 383.486.014 44.089.019 59.21 14.925 59.214 58.73.014 219.973-.015 439.948-.146 659.924-.023 44.347-14.682 59.243-58.461 59.254-257.887.087-515.771.076-773.658.01-40.815-.01-56.815-15.596-56.85-56.475-.168-222.214-.184-444.423.02-666.637.039-39.369 16.11-54.723 56.217-54.76 130.065-.149 260.12-.056 390.179-.06zM346.41 726.57H125.54v149.938h220.87V726.569zm275.584 150.8V727.268H402.39V877.37h219.604zm55.586-1.2h221.006V726.86H677.58v149.31zM125.915 525.313v148.592h219.858V525.313H125.915zm551.472 150.542c72.062 0 141.608.166 211.145-.452 3.749-.034 10.623-6.6 10.686-10.209.724-46.407.475-92.832.475-139.045H677.387v149.706zm-276.042-1.705H622.27V526.004H401.345V674.15zm-55.377-199.915V324.793H124.18c0 46.536-.452 90.99.646 135.405.117 4.79 9.137 13.368 14.11 13.431 68.25.899 136.523.606 207.03.606zm55.916-2.03h219.848V324.332H401.884v147.873zm496.245.626V324.113H677.868V472.83h220.261zm0 0" fill="#2491F7"/></svg>