<svg class="icon" viewBox="0 0 1024 1024" xmlns="http://www.w3.org/2000/svg" width="200" height="200"><defs><style/></defs><path fill="#2491F7" d="M944 80v864H80V80h864m18.003-80H61.997C27.757 0 0 27.757 0 61.997v900.006C0 996.243 27.757 1024 61.997 1024h900.006c34.24 0 61.997-27.757 61.997-61.997V61.997C1024 27.757 996.243 0 962.003 0z"/><path fill="#2491F7" d="M890.811 662.627c-7.173 7.173-15.541 12.851-25.104 17.035-9.564 4.184-19.725 6.276-30.484 6.276-9.564 0-18.53-1.495-26.897-4.483-8.368-2.988-15.84-7.173-22.415-12.552a107.26 107.26 0 0 1-11.656-11.656l-.897-.897c-5.379-7.173-9.564-14.943-12.552-23.311-1.793-4.184-2.988-8.368-3.586-12.552-.598-4.184-.897-8.667-.897-13.449v-5.38l-179.319-75.314c-.598 0-.897.299-.897.897l-.897.897c-8.368 8.368-18.231 14.943-29.587 19.725-4.184 1.793-8.667 3.288-13.449 4.483l-17.035 206.216c9.564 4.184 17.932 9.713 25.104 16.587 7.173 6.874 12.851 15.242 17.035 25.104 4.184 9.862 6.276 20.174 6.276 30.933s-2.092 20.921-6.276 30.484c-4.184 9.564-9.862 17.932-17.035 25.104-7.173 7.173-15.541 12.851-25.104 17.035-9.564 4.184-19.725 6.276-30.484 6.276-9.564 0-18.53-1.495-26.897-4.483a65.985 65.985 0 0 1-22.415-13.449 207.118 207.118 0 0 1-11.656-10.759l-.897-.897c-5.379-7.173-9.564-14.943-12.552-23.311-.598-1.793-1.195-3.885-1.793-6.276a210.139 210.139 0 0 0-1.793-6.725c-.598-2.092-.897-4.334-.897-6.725v-6.276c0-10.759 2.092-21.07 6.276-30.933 4.184-9.862 9.713-18.231 16.587-25.104s15.391-12.403 25.553-16.587l17.935-212.491a117.656 117.656 0 0 1-18.828-10.759 276.47 276.47 0 0 1-12.552-13.449l-.897-.897-.897-.897-173.043 39.45-1.793 7.173c-.598 2.391-1.495 4.781-2.69 7.173-4.184 9.564-9.862 17.782-17.035 24.657-7.173 6.874-15.541 12.403-25.104 16.587-9.564 4.184-19.725 6.276-30.484 6.276-2.988 0-5.978-.149-8.966-.448-2.988-.298-5.978-.747-8.966-1.345s-5.978-1.495-8.966-2.69c-8.368-2.988-15.84-7.173-22.415-12.552a107.26 107.26 0 0 1-11.656-11.656l-.897-.897c-5.379-6.575-9.564-14.047-12.552-22.415-1.793-4.184-2.988-8.518-3.586-13.001s-.895-9.115-.895-13.896c0-10.161 2.092-20.174 6.276-30.036s9.713-18.38 16.587-25.553 15.242-12.851 25.104-17.035c9.862-4.184 20.174-6.276 30.933-6.276s20.921 2.092 30.484 6.276c9.564 4.184 17.932 9.862 25.104 17.035 3.586 3.586 6.874 7.771 9.862 12.552l164.973-36.76a164.237 164.237 0 0 1 2.69-17.484 150.291 150.291 0 0 1 4.483-16.587 275.113 275.113 0 0 1 7.173-13.449l-132.7-147.936c-8.966 3.586-18.231 5.38-27.794 5.38-8.966 0-17.633-1.495-26.001-4.483-8.368-2.988-16.138-7.471-23.311-13.449a103.765 103.765 0 0 0-5.828-5.38 103.382 103.382 0 0 1-5.828-5.379l-.897-1.793c-5.379-6.575-9.564-14.047-12.552-22.415-2.988-8.368-4.483-17.334-4.483-26.897 0-10.161 2.092-20.174 6.276-30.036 4.184-9.862 9.862-18.38 17.035-25.553 7.173-7.173 15.541-12.851 25.104-17.035 9.564-4.184 19.725-6.276 30.484-6.276s21.07 2.092 30.933 6.276 18.231 9.862 25.104 17.035c6.874 7.173 12.403 15.691 16.587 25.553 4.184 9.862 6.276 19.874 6.276 30.036 0 10.759-2.092 21.219-6.276 31.38v.897l136.282 152.421a246.122 246.122 0 0 1 14.345-3.138 77.646 77.646 0 0 1 14.345-1.345c11.954 0 23.611 2.391 34.967 7.173l2.69.897 85.176-115.66a149.25 149.25 0 0 1-6.276-14.345c-2.988-8.368-4.483-17.035-4.483-26.001 0-10.759 2.092-21.07 6.276-30.933 4.184-9.863 9.713-18.231 16.587-25.104 6.874-6.874 15.242-12.403 25.104-16.587 9.862-4.184 20.174-6.276 30.933-6.276s20.921 2.092 30.484 6.276 17.932 9.713 25.104 16.587c7.173 6.874 12.851 15.242 17.035 25.104 4.184 9.862 6.276 20.174 6.276 30.933s-2.092 20.921-6.276 30.484c-4.184 9.564-9.862 17.932-17.035 25.104-7.173 7.173-15.541 12.851-25.104 17.035-9.564 4.184-19.725 6.276-30.484 6.276h-4.483c-1.195 0-2.391-.149-3.586-.448a14.728 14.728 0 0 0-3.586-.448c-1.195 0-2.54-.149-4.035-.448-1.495-.299-2.839-.747-4.035-1.345l-89.659 122.832c.598 1.793 1.195 3.288 1.793 4.483 4.781 11.357 7.173 23.013 7.173 34.967v7.173l182.008 76.211c5.978-5.379 12.851-9.564 20.621-12.552 10.161-4.184 20.621-6.276 31.38-6.276s20.921 2.092 30.484 6.276c9.564 4.184 17.932 9.713 25.104 16.587 7.173 6.874 12.851 15.242 17.035 25.104 4.184 9.862 6.276 20.174 6.276 30.933v16.138l-6.276 14.345c-4.18 9.563-9.858 17.93-17.031 25.103z"/></svg>