<svg class="icon" viewBox="0 0 1024 1024" xmlns="http://www.w3.org/2000/svg" width="200" height="200"><defs><style/></defs><path d="M856.973 870.895H168.638c-55.067 0-96.366-41.3-96.366-96.367V278.926c0-13.768 13.766-27.533 27.533-27.533 13.767 0 27.533 13.766 27.533 27.533v495.601c0 20.65 20.65 41.3 41.3 41.3h688.335c13.768 0 20.652-6.884 27.535-13.767 6.883-6.885 13.766-13.767 13.766-27.533V389.06c0-13.768-6.884-20.65-13.766-27.534-6.884-13.767-13.767-13.767-27.535-13.767H533.456c-48.182 0-89.483-20.65-117.017-48.183l-68.834-68.835c-20.649-20.65-48.183-34.416-82.6-34.416h-165.2c-13.767 0-27.533-13.766-27.533-27.534 0-13.766 13.766-27.533 27.533-27.533h165.2c41.3 0 82.6 20.65 117.017 48.184l68.833 68.833c27.534 20.65 55.068 34.417 82.6 34.417h323.517c27.534 0 48.186 6.884 68.835 27.534 20.65 20.65 27.534 41.3 27.534 68.834v385.468c0 27.533-6.885 48.184-27.534 68.833-20.648 20.65-41.3 27.534-68.834 27.534zM540.34 602.444v65.391a27.534 27.534 0 0 1-55.067 0v-65.391H419.88c-15.206 0-27.533-12.327-27.533-27.533s12.327-27.533 27.533-27.533h65.393v-65.393a27.53 27.53 0 0 1 13.767-23.844 27.532 27.532 0 0 1 41.3 23.844v65.393h65.39c15.208 0 27.534 12.326 27.534 27.533s-12.326 27.533-27.534 27.533h-65.39z" fill="#515151"/></svg>