<?xml version="1.0" standalone="no"?><!DOCTYPE svg PUBLIC "-//W3C//DTD SVG 1.1//EN" "http://www.w3.org/Graphics/SVG/1.1/DTD/svg11.dtd"><svg t="1493187348039" class="icon" style="" viewBox="0 0 1024 1024" version="1.1" xmlns="http://www.w3.org/2000/svg" p-id="13670" xmlns:xlink="http://www.w3.org/1999/xlink" width="200" height="200"><defs><style type="text/css"></style></defs><path d="M856.973404 870.894973H168.638303c-55.067176 0-96.366791-41.299615-96.366791-96.366791V278.92564c0-13.767562 13.766538-27.533077 27.533076-27.533076 13.767562 0 27.533077 13.766538 27.533077 27.533076v495.601519c0 20.649296 20.650319 41.299615 41.300638 41.299614h688.335101c13.767562 0 20.651342-6.883781 27.5341-13.766538 6.883781-6.884804 13.766538-13.767562 13.766538-27.533076V389.059993c0-13.767562-6.883781-20.650319-13.766538-27.5341-6.883781-13.766538-13.766538-13.766538-27.5341-13.766538H533.456173c-48.182372 0-89.483011-20.650319-117.017111-48.183396l-68.833714-68.834738c-20.649296-20.649296-48.183396-34.415834-82.600253-34.415834H99.804588c-13.766538 0-27.533077-13.766538-27.533076-27.534099 0-13.766538 13.766538-27.533077 27.533076-27.533077h165.200507c41.299615 0 82.600253 20.650319 117.01711 48.183396l68.832691 68.833714c27.5341 20.650319 55.0682 34.416857 82.600253 34.416858h323.517232c27.5341 0 48.185442 6.883781 68.834738 27.5341 20.650319 20.649296 27.5341 41.299615 27.5341 68.833714v385.468189c0 27.533077-6.884804 48.183396-27.5341 68.832691-20.648272 20.650319-41.299615 27.5341-68.833715 27.5341zM540.339954 602.443895v65.391313a27.5341 27.5341 0 0 1-55.067177 0V602.443895h-65.392336c-15.20633 0-27.533077-12.326746-27.533077-27.533077s12.326746-27.533077 27.533077-27.533076h65.392336v-65.392336a27.530007 27.530007 0 0 1 13.767562-23.844058 27.532053 27.532053 0 0 1 41.299615 23.844058v65.392336h65.390289c15.207353 0 27.5341 12.326746 27.5341 27.533076s-12.326746 27.533077-27.5341 27.533077H540.339954z" fill="#515151" p-id="13671"></path></svg>