<svg class="icon" viewBox="0 0 1024 1024" xmlns="http://www.w3.org/2000/svg" width="200" height="200"><defs><style/></defs><path d="M768.196 767.574H248.02c-21.548 0-39.02-17.938-39.02-40.056s17.472-40.042 39.02-40.042c21.548 0 39.008-17.924 39.008-40.042V380.458c0-103.202 81.52-186.872 182.066-186.872 0-22.12 17.472-40.042 39.02-40.042 21.536 0 39.006 17.924 39.006 40.042 100.546 0 182.054 83.67 182.054 186.872V647.43c0 22.12 17.47 40.042 39.02 40.042s39.008 17.924 39.008 40.042-17.458 40.06-39.006 40.06zm-260.082 120.13c-43.096 0-78.028-35.862-78.028-80.086h156.042c0 44.224-34.93 80.086-78.014 80.086z"/></svg>