<svg class="icon" viewBox="0 0 1024 1024" xmlns="http://www.w3.org/2000/svg" width="200" height="200"><defs><style/></defs><path d="M432.455 659.004l-179.154-82.67v-1l179.154-83.219v-51.744L188.163 559.6v31.438l244.293 119.227v-51.262zm140.418-294.713h-43.26l-78.902 366.28h43.252l78.91-366.28zm264.574 188.703L592.72 440.37v50.238l195.408 84.197v1.028L592.72 660.03v50.234l244.727-112.602v-44.67zM66.293 76.66v813.038h893.04V76.661H66.293zm744.87 52.357h80.783v79.556h-80.782v-79.556zm-132.896 0h80.742v79.556h-80.742v-79.556zm-140.792 0h80.783v79.556h-80.783v-79.556zm363.048 698.39H125.067V282.473h775.456v544.935z"/></svg>