<?xml version="1.0" encoding="utf-8"?>
<!-- Generator: Adobe Illustrator 21.0.0, SVG Export Plug-In . SVG Version: 6.00 Build 0)  -->
<svg version="1.1" id="图层_1" xmlns="http://www.w3.org/2000/svg" xmlns:xlink="http://www.w3.org/1999/xlink" x="0px" y="0px"
	 viewBox="0 0 200 200" fill="#000000" style="enable-background:new 0 0 200 200;" xml:space="preserve">
<path d="M180.7,22.1H19.3c-4.6,0-8.3,3.7-8.3,8.3v139.1c0,4.6,3.7,8.3,8.3,8.3h161.3c4.6,0,8.3-3.7,8.3-8.3V30.5
	C189,25.9,185.3,22.1,180.7,22.1z M77.8,30.5c4.6,0,8.3,3.7,8.3,8.3s-3.7,8.3-8.3,8.3s-8.3-3.7-8.3-8.3S73.1,30.5,77.8,30.5z
	 M52.7,30.5c4.6,0,8.3,3.7,8.3,8.3s-3.7,8.3-8.3,8.3s-8.3-3.7-8.3-8.3S48.1,30.5,52.7,30.5z M27.7,30.5c4.6,0,8.3,3.7,8.3,8.3
	s-3.7,8.3-8.3,8.3s-8.3-3.7-8.3-8.3S23.1,30.5,27.7,30.5z M180.7,169.5H19.3v-114h161.3V169.5z"/>
<path d="M105.4,116.4v12.8c0,3-2.4,5.4-5.4,5.3c-2.9,0-5.3-2.4-5.3-5.3v-12.8H81.9c-3,0-5.4-2.4-5.4-5.4c0-3,2.4-5.4,5.4-5.4h12.8
	V92.9c0-1.9,1-3.7,2.7-4.7c2.6-1.5,5.9-0.6,7.3,2c0.5,0.8,0.7,1.7,0.7,2.7v12.8h12.8c3,0,5.4,2.4,5.4,5.4c0,3-2.4,5.4-5.4,5.4H105.4
	z"/>
</svg>
