<svg xmlns="http://www.w3.org/2000/svg" viewBox="0 0 200 200"><path d="M180.7 22.1H19.3c-4.6 0-8.3 3.7-8.3 8.3v139.1c0 4.6 3.7 8.3 8.3 8.3h161.3c4.6 0 8.3-3.7 8.3-8.3v-139c.1-4.6-3.6-8.4-8.2-8.4zM77.8 30.5c4.6 0 8.3 3.7 8.3 8.3s-3.7 8.3-8.3 8.3-8.3-3.7-8.3-8.3 3.6-8.3 8.3-8.3zm-25.1 0c4.6 0 8.3 3.7 8.3 8.3s-3.7 8.3-8.3 8.3-8.3-3.7-8.3-8.3 3.7-8.3 8.3-8.3zm-25 0c4.6 0 8.3 3.7 8.3 8.3s-3.7 8.3-8.3 8.3-8.3-3.7-8.3-8.3 3.7-8.3 8.3-8.3zm153 139H19.3v-114h161.3v114z"/><path d="M105.4 116.4v12.8c0 3-2.4 5.4-5.4 5.3-2.9 0-5.3-2.4-5.3-5.3v-12.8H81.9c-3 0-5.4-2.4-5.4-5.4 0-3 2.4-5.4 5.4-5.4h12.8V92.9c0-1.9 1-3.7 2.7-4.7 2.6-1.5 5.9-.6 7.3 2 .5.8.7 1.7.7 2.7v12.8h12.8c3 0 5.4 2.4 5.4 5.4 0 3-2.4 5.4-5.4 5.4h-12.8z"/></svg>