<svg class="icon" viewBox="0 0 1024 1024" xmlns="http://www.w3.org/2000/svg" width="200" height="200"><defs><style/></defs><path d="M95.944 371.082h239.487c19.851 0 36-16.149 36-36V95.594c0-17.673-14.327-32-32-32s-32 14.327-32 32v211.488H95.944c-17.673 0-32 14.327-32 32 0 17.672 14.327 32 32 32zm0 344.934h211.487v211.487c0 17.673 14.327 32 32 32s32-14.327 32-32V688.016c0-19.851-16.149-36-36-36H95.944c-17.673 0-32 14.327-32 32s14.327 32 32 32zm588.569 243.386c17.673 0 32-14.327 32-32V715.915H928c17.673 0 32-14.327 32-32s-14.327-32-32-32H688.513c-19.851 0-36 16.149-36 36v239.487c0 17.673 14.327 32 32 32zm4-587.763H928c17.673 0 32-14.327 32-32s-14.327-32-32-32H716.513V96.151c0-17.673-14.327-32-32-32s-32 14.327-32 32v239.488c0 19.85 16.149 36 36 36z" fill="#515151"/></svg>