<?xml version="1.0" standalone="no"?><!DOCTYPE svg PUBLIC "-//W3C//DTD SVG 1.1//EN" "http://www.w3.org/Graphics/SVG/1.1/DTD/svg11.dtd"><svg t="1493193218225" class="icon" style="" viewBox="0 0 1024 1024" version="1.1" xmlns="http://www.w3.org/2000/svg" p-id="25471" xmlns:xlink="http://www.w3.org/1999/xlink" width="200" height="200"><defs><style type="text/css"></style></defs><path d="M78.787412 866.425172 78.787412 708.893322 0.021487 708.893322l0 157.531849c0 87.002516 70.529333 157.531849 157.531849 157.531849l157.531849 0 0-78.765925L157.553337 945.191096C114.051567 945.191096 78.787412 909.926942 78.787412 866.425172zM78.787412 157.531849c0-43.500746 35.265178-78.765925 78.765925-78.765925l157.531849 0 0-78.765925L157.553337 0c-87.002516 0-157.531849 70.529333-157.531849 157.531849l0 236.297774 78.765925 0L78.787412 157.531849zM945.212584 866.425172c0 43.500746-35.265178 78.765925-78.765925 78.765925L708.91481 945.191096l0 78.765925 157.531849 0c87.002516 0 157.531849-70.529333 157.531849-157.531849L1023.978509 708.893322l-78.765925 0L945.212584 866.425172zM866.446659 0 708.91481 0l0 78.765925 157.531849 0c43.500746 0 78.765925 35.265178 78.765925 78.765925l0 236.297774 78.765925 0L1023.978509 157.531849C1023.978509 70.529333 953.449175 0 866.446659 0zM787.680734 511.978511c0-21.750373-17.632589-39.382962-39.382962-39.382962l-196.914812 0 0-196.914812c0-21.750373-17.632589-39.382962-39.382962-39.382962s-39.382962 17.632589-39.382962 39.382962l0 196.914812-196.914812 0c-21.750373 0-39.382962 17.632589-39.382962 39.382962s17.632589 39.382962 39.382962 39.382962l196.914812 0 0 196.914812c0 21.750373 17.632589 39.382962 39.382962 39.382962s39.382962-17.632589 39.382962-39.382962l0-196.914812 196.914812 0C770.048145 551.361473 787.680734 533.728884 787.680734 511.978511z" p-id="25472"></path></svg>