<svg class="icon" viewBox="0 0 1024 1024" xmlns="http://www.w3.org/2000/svg" width="200" height="200"><defs><style/></defs><path d="M78.787 866.425V708.893H.021v157.532c0 87.003 70.53 157.532 157.532 157.532h157.532v-78.766H157.553c-43.501 0-78.766-35.264-78.766-78.766zm0-708.893c0-43.5 35.266-78.766 78.766-78.766h157.532V0H157.553C70.551 0 .021 70.53.021 157.532V393.83h78.766V157.532zm866.426 708.893c0 43.5-35.266 78.766-78.766 78.766H708.915v78.766h157.532c87.002 0 157.532-70.53 157.532-157.532V708.893h-78.766v157.532zM866.447 0H708.915v78.766h157.532c43.5 0 78.766 35.265 78.766 78.766V393.83h78.766V157.532C1023.979 70.529 953.449 0 866.447 0zM787.68 511.979c0-21.75-17.633-39.383-39.383-39.383H551.383V275.68c0-21.75-17.633-39.383-39.383-39.383s-39.383 17.632-39.383 39.383v196.915H275.702c-21.75 0-39.383 17.632-39.383 39.383s17.633 39.382 39.383 39.382h196.915v196.915c0 21.75 17.633 39.383 39.383 39.383s39.383-17.632 39.383-39.383V551.361h196.915c21.75 0 39.383-17.632 39.383-39.382z"/></svg>