<svg class="icon" viewBox="0 0 1024 1024" xmlns="http://www.w3.org/2000/svg" width="200" height="200"><defs><style/></defs><path d="M861.04 903.895c0 30.91-25.074 55.877-55.924 55.877H106.413l97.848-461.131c0-30.88 24.92-55.907 55.77-55.907H902.96c30.856 0 55.829 25.027 55.829 55.907L861.04 903.895zM218.163 400.792h628.87v-54.891c0-30.88-25.076-55.906-55.877-55.906H455.788v-50.659c0-30.827-25.027-55.878-55.878-55.878H120.367c-30.855 0-55.877 25.05-55.877 55.878v664.559l97.747-447.176c0-30.881 25.074-55.927 55.925-55.927zm0 0" stroke="#000" fill="#fff" stroke-width="24"/></svg>