<svg class="icon" width="200" height="200" viewBox="0 0 1024 1024" xmlns="http://www.w3.org/2000/svg"><path fill="#2491F7" d="M349.184 198.144a164.864 164.864 0 1 0 329.728 0 164.864 164.864 0 1 0-329.728 0zm-270.336 691.2a106.496 102.912 90 1 0 205.824 0 106.496 102.912 90 1 0-205.824 0zm341.504-3.072a102.912 99.84 90 1 0 199.68 0 102.912 99.84 90 1 0-199.68 0zm334.848 0a102.912 99.84 90 1 0 199.68 0 102.912 99.84 90 1 0-199.68 0zM145.92 452.096h745.472v68.608H145.92z"/><path fill="#2491F7" d="M145.92 455.68h68.608v355.328H145.92zm338.432-150.016h68.608v504.832h-68.608zm337.92 150.016h68.608v352.768h-68.608z"/></svg>