<?xml version="1.0" standalone="no"?><!DOCTYPE svg PUBLIC "-//W3C//DTD SVG 1.1//EN" "http://www.w3.org/Graphics/SVG/1.1/DTD/svg11.dtd"><svg t="1493274797528" class="icon" style="" viewBox="0 0 1025 1024" version="1.1" xmlns="http://www.w3.org/2000/svg" p-id="19405" xmlns:xlink="http://www.w3.org/1999/xlink" width="200.1953125" height="200"><defs><style type="text/css"></style></defs><path d="M151 889c-26.4 0-47.8-21.4-47.8-47.8L103.2 345.8c0-26.4 21.4-47.8 47.8-47.8l731.4 0c26.4 0 47.8 21.4 47.8 47.8l0 110c21 13 40.8 28.4 58.8 45.8L989 284.6c0-71.8-65.4-65.2-65.4-65.2s-390.8 0.4-370.2 0c-22.4 0.6-33.4-11.8-33.4-11.8s-15.6-26.8-43.6-69c-29.4-44.4-63.2-37.2-63.2-37.2L125 101.4c-79.8 0-80.8 76.8-80.8 76.8l0 694c0 85.6 64.6 75 64.6 75l357.8 0c-12.8-18.2-23.8-37.8-33-58.4L151 889 151 889z" p-id="19406"></path><path d="M1022 717.6c-2.2-12-13.8-24.2-25.8-27l-9-2c-21-6.4-39.8-20.4-51.6-40.8-11.8-20.6-14.8-44.2-9.6-65.6l0 0 2.8-8.4c3.6-11.6-1-27.8-10.4-35.8 0 0-8.4-7.2-32.2-20.8-23.8-13.6-34-17.4-34-17.4-11.6-4.2-27.8-0.2-36.2 8.8l-6.2 6.8c-16 15.2-37.6 24.4-61.4 24.4-23.8 0-45.6-9.2-61.6-24.6l-6-6.4c-8.4-9-24.6-13-36.2-8.8 0 0-10.4 3.8-34.2 17.4-23.8 13.8-32.2 21-32.2 21-9.4 7.8-14 23.8-10.4 35.6l2.6 8.6c5 21.6 2.4 44.8-9.6 65.6-11.8 20.6-30.8 34.8-52 41l-8.6 2c-11.8 2.8-23.6 14.8-25.8 27 0 0-2 10.8-2 38.2s2 38.2 2 38.2c2.2 12.2 13.8 24.2 25.8 27l8.4 2 0 0c21.2 6.2 40.2 20.4 52.2 41 11.8 20.6 14.8 44.2 9.6 65.6l0 0-2.4 8.4c-3.6 11.6 1 27.8 10.4 35.8 0 0 8.4 7.2 32.2 20.8 23.8 13.8 34 17.4 34 17.4 11.6 4.2 27.8 0.2 36.2-8.8l6-6.4c16.2-15.2 37.8-24.6 61.6-24.6 23.8 0 45.6 9.4 61.6 24.6l0 0 6 6.4c8.4 9 24.6 13 36.2 8.8 0 0 10.4-3.8 34.2-17.4 23.8-13.8 32.2-20.8 32.2-20.8 9.4-7.8 14-24 10.4-35.8l-2.6-8.6c-5-21.4-2.4-44.8 9.6-65.4 11.8-20.6 31-34.8 52.2-41l0 0 8.4-2c11.8-2.8 23.6-14.8 25.8-27 0 0 2-10.8 2-38.2C1023.8 728.4 1022 717.6 1022 717.6L1022 717.6zM748.2 866c-60.6 0-110-49.2-110-110 0-60.6 49.2-109.8 110-109.8 60.6 0 110 49.2 110 110C858.2 816.8 809 866 748.2 866L748.2 866z" p-id="19407"></path></svg>