<svg class="icon" viewBox="0 0 1025 1024" xmlns="http://www.w3.org/2000/svg" width="200.195" height="200"><defs><style/></defs><path d="M457.984 822.4c0-14.336 5.888-28.544 16-38.784 10.112-10.112 24.448-16 38.784-16 14.336 0 28.672 5.888 38.784 16 10.112 10.112 16 24.448 16 38.784 0 14.336-5.888 28.544-16 38.784-10.112 10.112-24.448 16-38.784 16-14.336 0-28.544-5.888-38.784-16-10.112-10.24-16-24.448-16-38.784zm54.784 200.576c-282.112 0-511.488-229.504-511.488-511.488C1.28 229.376 230.656 0 512.768 0c281.984 0 511.488 229.376 511.488 511.488 0 281.984-229.504 511.488-511.488 511.488zm0-949.632c-241.536 0-438.016 196.48-438.016 438.016 0 241.536 196.48 438.016 438.016 438.016 241.536 0 438.016-196.608 438.016-438.016 0-241.408-196.48-438.016-438.016-438.016zm0 622.72c-20.224 0-36.48-16.384-36.48-36.48V597.76c0-59.776 45.696-105.472 86.016-145.664 29.568-29.568 60.16-60.16 60.16-84.48 0-60.928-49.152-110.464-109.568-110.464-61.44 0-109.568 47.36-109.568 107.904 0 20.224-16.384 36.48-36.48 36.48s-36.48-16.384-36.48-36.48c0-99.84 81.92-180.992 182.656-180.992S695.68 266.368 695.68 367.616c0 54.656-41.472 96.128-81.536 136.192-31.744 31.744-64.64 64.512-64.64 93.952v61.824c-.256 20.096-16.64 36.48-36.736 36.48zm0 0"/></svg>