<?xml version="1.0" standalone="no"?><!DOCTYPE svg PUBLIC "-//W3C//DTD SVG 1.1//EN" "http://www.w3.org/Graphics/SVG/1.1/DTD/svg11.dtd"><svg class="icon" width="200px" height="200.00px" viewBox="0 0 1024 1024" version="1.1" xmlns="http://www.w3.org/2000/svg"><path fill="#2491F7" d="M412.672 529.408H179.712c-8.192 26.624-33.28 44.032-60.928 44.032-36.864-2.56-64.512-34.304-61.952-71.168 2.048-33.28 28.672-59.392 61.952-61.952 27.648 0 52.224 17.92 60.928 44.544h232.96c11.264-33.792 47.616-52.224 81.408-40.96 19.456 6.144 34.816 21.504 40.96 40.96h182.272c4.608-15.872 15.36-29.696 29.696-37.888 19.968-11.776 45.056-11.776 65.024 0 31.744 18.944 41.984 60.416 23.04 92.16-5.632 9.216-13.824 17.408-23.04 23.04-19.968 11.776-45.056 11.776-65.024 0-13.312-7.68-23.04-19.968-28.16-34.304h-183.296c-10.24 34.304-46.592 53.248-80.384 43.008-20.48-6.144-35.84-21.504-42.496-41.472z m-199.68-297.984c-10.752 33.28-41.984 55.296-76.8 54.784-44.544 0.512-81.408-34.816-81.92-79.36v-2.56c-1.024-44.544 34.816-81.408 79.36-82.432h2.56c34.816-0.512 66.048 21.504 76.8 54.784h214.016l134.144 129.024h57.344c10.752-33.28 41.984-55.296 76.8-54.784 45.568 0 82.432 36.864 82.432 82.432 0 45.568-36.864 82.432-82.432 82.432-34.816 0.512-66.048-21.504-76.8-54.784h-79.36L404.48 231.424H212.992z m622.592 392.192c-0.512-39.424 30.72-71.68 70.144-72.192h2.56c39.936 0 72.192 32.256 72.704 72.192 0.512 39.424-30.72 71.68-70.144 72.192h-2.56c-20.48 0-39.936-8.704-53.248-24.064h-332.288l-178.688 205.312H188.928c-18.432 30.72-55.808 44.032-89.6 31.232-37.888-13.312-57.856-54.272-45.056-92.16 13.312-37.888 54.272-57.856 92.16-45.056 2.048 0.512 4.096 1.536 5.632 2.048 24.064 8.704 41.984 30.208 46.08 55.296h125.44l178.688-205.312 333.312 0.512z m-250.368 162.304c32.256-18.432 73.728-7.168 92.672 25.088 18.432 32.256 7.168 73.728-25.088 92.672-32.256 18.432-73.728 7.168-92.672-25.088-5.632-10.24-9.216-22.016-8.704-33.792-0.512-24.064 12.288-46.592 33.792-58.88z"  /></svg>