<svg xmlns="http://www.w3.org/2000/svg" viewBox="0 0 200 200"><path d="M80.6 103.4H35.1c-1.6 5.2-6.5 8.6-11.9 8.6-7.2-.5-12.6-6.7-12.1-13.9.4-6.5 5.6-11.6 12.1-12.1 5.4 0 10.2 3.5 11.9 8.7h45.5c2.2-6.6 9.3-10.2 15.9-8 3.8 1.2 6.8 4.2 8 8h35.6c.9-3.1 3-5.8 5.8-7.4 3.9-2.3 8.8-2.3 12.7 0 6.2 3.7 8.2 11.8 4.5 18-1.1 1.8-2.7 3.4-4.5 4.5-3.9 2.3-8.8 2.3-12.7 0-2.6-1.5-4.5-3.9-5.5-6.7h-35.8c-2 6.7-9.1 10.4-15.7 8.4-4-1.2-7-4.2-8.3-8.1zm-39-58.2c-2.1 6.5-8.2 10.8-15 10.7-8.7.1-15.9-6.8-16-15.5v-.5c-.2-8.7 6.8-15.9 15.5-16.1h.5c6.8-.1 12.9 4.2 15 10.7h41.8l26.2 25.2h11.2c2.1-6.5 8.2-10.8 15-10.7 8.9 0 16.1 7.2 16.1 16.1 0 8.9-7.2 16.1-16.1 16.1-6.8.1-12.9-4.2-15-10.7h-15.5L79 45.2H41.6zm121.6 76.6c-.1-7.7 6-14 13.7-14.1h.5c7.8 0 14.1 6.3 14.2 14.1.1 7.7-6 14-13.7 14.1h-.5c-4 0-7.8-1.7-10.4-4.7h-64.9l-34.9 40.1H36.9c-3.6 6-10.9 8.6-17.5 6.1-7.4-2.6-11.3-10.6-8.8-18 2.6-7.4 10.6-11.3 18-8.8.4.1.8.3 1.1.4 4.7 1.7 8.2 5.9 9 10.8h24.5l34.9-40.1 65.1.1zm-48.9 31.7c6.3-3.6 14.4-1.4 18.1 4.9 3.6 6.3 1.4 14.4-4.9 18.1-6.3 3.6-14.4 1.4-18.1-4.9-1.1-2-1.8-4.3-1.7-6.6-.1-4.7 2.4-9.1 6.6-11.5z" fill="#333"/></svg>