<svg class="icon" width="200" fill="94A8C6" height="200" viewBox="0 0 1024 1024" xmlns="http://www.w3.org/2000/svg"><path fill="#94A8C6" d="M131.645 583.28c-2.343 0-4.518-.836-6.359-2.677L2.636 457.953c-3.514-3.514-3.514-9.036 0-12.55 3.513-3.514 9.035-3.514 12.549 0l116.46 116.46 118.467-118.468c3.514-3.514 9.036-3.514 12.55 0s3.514 9.036 0 12.55L137.836 580.603c-1.674 1.84-4.016 2.678-6.191 2.678zM574.39 961.61c-162.807 0-313.402-88.516-393.218-230.912-2.343-4.352-.837-9.705 3.346-12.047 4.35-2.343 9.705-.837 12.048 3.346C273.202 858.87 417.94 943.872 574.223 943.872c238.107 0 431.871-193.765 431.871-431.871S811.828 80.13 573.22 80.13c-237.937 0-431.702 193.764-431.702 431.87 0 12.718 1.004 24.263 2.008 36.478l-17.737 1.506 8.868-.67-8.868.67c-1.004-12.047-2.008-24.597-2.008-37.983 0-247.979 201.63-449.608 449.608-449.608C821.868 62.393 1024 264.023 1024 512S822.37 961.609 574.39 961.609z"/></svg>