<?xml version="1.0" standalone="no"?><!DOCTYPE svg PUBLIC "-//W3C//DTD SVG 1.1//EN" "http://www.w3.org/Graphics/SVG/1.1/DTD/svg11.dtd"><svg class="icon" width="200px" fill="94A8C6" strokWidth="2" height="200.00px" viewBox="0 0 1024 1024" version="1.1" xmlns="http://www.w3.org/2000/svg"><path fill="#94A8C6" d="M131.644593 583.280507c-2.342579 0-4.517832-0.836635-6.35843-2.677234l-122.650762-122.650762c-3.513869-3.513869-3.513869-9.035663 0-12.549532 3.513869-3.513869 9.035663-3.513869 12.549532 0l116.459659 116.459659 118.467584-118.467584c3.513869-3.513869 9.035663-3.513869 12.549532 0s3.513869 9.035663 0 12.549532l-124.826014 124.658687C136.162425 582.443871 133.819846 583.280507 131.644593 583.280507zM574.390418 961.608745c-162.807592 0-313.401979-88.516034-393.218677-230.911393-2.342579-4.352178-0.836635-9.704972 3.346542-12.047551 4.350505-2.342579 9.704972-0.836635 12.047551 3.346542 76.63581 136.873565 221.373749 221.87573 377.657257 221.87573 238.106459 0 431.871237-193.764778 431.871237-431.871237s-194.266759-431.871237-432.875199-431.871237c-237.937458 0-431.702236 193.764778-431.702236 431.871237 0 12.716859 1.003963 24.262429 2.007925 36.477307l-17.736672 1.505944 8.868336-0.669308-8.868336 0.669308c-1.003963-12.047551-2.007925-24.597083-2.007925-37.983251 0-247.978757 201.629152-449.607909 449.607909-449.607909 248.480739 0 450.611871 201.629152 450.611871 449.607909S822.370848 961.608745 574.390418 961.608745z" /></svg>