<svg class="icon" viewBox="0 0 1024 1024" xmlns="http://www.w3.org/2000/svg" width="200" height="200"><defs><style/></defs><path d="M511.997 1024C229.671 1024 0 794.33 0 511.996 0 229.67 229.67 0 511.997 0 794.33 0 1024 229.671 1024 511.996 1024 794.329 794.33 1024 511.997 1024zm0-950.528c-241.808 0-438.526 196.717-438.526 438.524 0 241.776 196.718 438.533 438.526 438.533 241.774 0 438.532-196.758 438.532-438.533 0-241.806-196.758-438.524-438.532-438.524zm245.686 302.74c-14.336-14.225-37.522-14.08-51.707.288L439.369 646.031 321.35 524.765c-14.112-14.52-37.265-14.777-51.707-.731-14.487 14.079-14.816 37.265-.731 51.709l144.017 148.006c.073.106.218.106.29.218.073.072.112.217.185.29 2.304 2.27 5.156 3.66 7.863 5.195 1.428.77 2.561 2.048 4.023 2.634a36.213 36.213 0 0 0 13.823 2.74c4.643 0 9.291-.91 13.677-2.667 1.429-.585 2.523-1.758 3.879-2.488 2.74-1.536 5.597-2.886 7.935-5.191.072-.073.111-.223.217-.296.073-.106.184-.145.296-.217l292.823-296.01c14.23-14.41 14.08-37.555-.257-51.746zm0 0"/></svg>