<?xml version="1.0" standalone="no"?><!DOCTYPE svg PUBLIC "-//W3C//DTD SVG 1.1//EN" "http://www.w3.org/Graphics/SVG/1.1/DTD/svg11.dtd"><svg t="1528965665614" class="icon" style="" viewBox="0 0 1024 1024" version="1.1" xmlns="http://www.w3.org/2000/svg" p-id="3053" xmlns:xlink="http://www.w3.org/1999/xlink" width="200" height="200"><defs><style type="text/css"></style></defs><path fill="#2491F7" d="M496.344438 387.751185c0.005117-0.00307 0.010233-0.00614 0.01535-0.008186 0.438998-0.240477 0.88516-0.470721 1.336438-0.690732 0.01842-0.00921 0.035816-0.01842 0.053212-0.027629 0.432859-0.210801 0.87288-0.409322 1.316995-0.600681 0.037862-0.016373 0.074701-0.034792 0.112564-0.051165 0.429789-0.183172 0.865717-0.354064 1.305739-0.51984 0.053212-0.019443 0.104377-0.042979 0.157589-0.062422 0.418532-0.154519 0.842181-0.295735 1.2689-0.432859 0.076748-0.024559 0.152473-0.053212 0.230244-0.077771 0.413416-0.128937 0.831948-0.245593 1.252527-0.35918 0.092098-0.024559 0.183172-0.054235 0.275269-0.077771 0.398066-0.103354 0.801249-0.192382 1.205455-0.280386 0.118704-0.025583 0.23536-0.057305 0.354064-0.081864 0.381693-0.078795 0.769526-0.143263 1.156336-0.207731 0.143263-0.024559 0.285502-0.054235 0.428765-0.076748 0.3776-0.058328 0.759293-0.101307 1.140986-0.146333 0.156566-0.01842 0.311085-0.042979 0.467651-0.059352 0.394996-0.039909 0.793062-0.065492 1.192152-0.091074 0.147356-0.00921 0.292666-0.025583 0.440022-0.033769 0.547469-0.027629 1.098008-0.041956 1.65264-0.041956s1.105171 0.014326 1.65264 0.041956c0.147356 0.007163 0.292666 0.023536 0.440022 0.033769 0.399089 0.025583 0.797156 0.051165 1.192152 0.091074 0.157589 0.016373 0.311085 0.040932 0.467651 0.059352 0.381693 0.045025 0.763386 0.088004 1.140986 0.146333 0.144286 0.022513 0.285502 0.052189 0.428765 0.076748 0.38681 0.064468 0.773619 0.12996 1.156336 0.207731 0.118704 0.024559 0.23536 0.056282 0.354064 0.081864 0.404206 0.088004 0.807389 0.178055 1.205455 0.280386 0.093121 0.023536 0.183172 0.053212 0.275269 0.077771 0.420579 0.112564 0.839111 0.229221 1.252527 0.35918 0.077771 0.024559 0.152473 0.053212 0.230244 0.077771 0.426719 0.137123 0.850367 0.278339 1.2689 0.432859 0.053212 0.019443 0.104377 0.041956 0.157589 0.062422 0.438998 0.164752 0.87595 0.335644 1.305739 0.51984 0.037862 0.016373 0.074701 0.034792 0.112564 0.051165 0.444115 0.191358 0.883113 0.38988 1.316995 0.600681 0.01842 0.00921 0.035816 0.01842 0.053212 0.027629 0.451278 0.220011 0.89744 0.450255 1.336438 0.690732 0.005117 0.00307 0.010233 0.00614 0.01535 0.008186 2.728134 1.497097 5.213745 3.381004 7.384178 5.578042l0.022513-0.022513 223.699852 255.719102c5.791913 5.78782 9.374508 13.785981 9.374508 22.621207 0 17.662265-14.3181 31.980365-31.980365 31.980365-8.834202 0-16.832364-3.582595-22.620184-9.373485L511.698125 462.661292 310.463937 694.253904c-5.78782 5.79089-13.784958 9.373485-22.620184 9.373485-17.662265 0-31.980365-14.3181-31.980365-31.980365 0-8.835226 3.582595-16.833387 9.374508-22.621207l223.698828-255.719102 0.022513 0.022513 0 0C491.130693 391.133212 493.616304 389.249305 496.344438 387.751185z" p-id="3054"></path></svg>