<svg class="icon" viewBox="0 0 1024 1024" xmlns="http://www.w3.org/2000/svg" width="200" height="200"><defs><style/></defs><path fill="#2491F7" d="M496.344 699.7l.016.008c.439.24.885.47 1.336.69l.053.028c.433.211.873.41 1.317.601.038.017.075.035.113.051.43.184.866.354 1.306.52.053.02.104.043.157.063.419.154.843.295 1.27.432.076.025.152.054.23.078.413.13.831.246 1.252.36.092.024.183.054.275.077.398.104.802.193 1.206.28.118.026.235.058.354.082.381.08.77.144 1.156.208.143.025.286.054.429.077.377.058.76.101 1.14.146.157.019.312.043.469.06.395.04.793.065 1.192.09.147.01.292.026.44.034a32.772 32.772 0 0 0 3.305 0c.147-.007.293-.023.44-.033.4-.026.797-.052 1.192-.091.158-.017.311-.041.468-.06.381-.045.763-.088 1.14-.146.145-.023.286-.052.43-.077.386-.064.773-.13 1.156-.208.119-.024.235-.056.354-.081.404-.088.807-.178 1.205-.28.094-.024.184-.054.276-.079.42-.112.839-.229 1.252-.359.078-.024.153-.053.23-.078.427-.137.85-.278 1.27-.432.053-.02.104-.042.157-.063.439-.165.876-.335 1.306-.52l.112-.05c.444-.192.883-.39 1.317-.602l.053-.027c.452-.22.898-.45 1.337-.69l.015-.01a32.076 32.076 0 0 0 7.384-5.577l.023.022 223.7-255.719c5.792-5.788 9.374-13.786 9.374-22.62 0-17.663-14.318-31.981-31.98-31.981-8.834 0-16.832 3.582-22.62 9.373L511.698 624.791 310.464 393.197c-5.788-5.79-13.785-9.373-22.62-9.373-17.663 0-31.98 14.318-31.98 31.98 0 8.835 3.582 16.833 9.374 22.621l223.699 255.72.022-.023a32.103 32.103 0 0 0 7.385 5.578z"/></svg>
