<svg class="icon" viewBox="0 0 1024 1024" xmlns="http://www.w3.org/2000/svg" width="200" height="200"><defs><style/></defs><path d="M955.388 512.142c0 275.566-208.68 444.822-444.756 444.822-234.739 0-444.755-184.958-444.755-444.822C65.877 266.545 265 67.387 510.632 67.387s444.756 199.158 444.756 444.755zM510.632 130.933c-210.55 0-381.209 170.659-381.209 381.21S300.082 893.35 510.633 893.35c210.55 0 381.209-170.657 381.209-381.208s-170.66-381.209-381.21-381.209z"/><path d="M733.01 543.916H510.632c-17.574 0-31.74-14.2-31.74-31.773V258.026c0-17.574 14.166-31.807 31.74-31.807s31.74 14.233 31.74 31.807V480.37h190.64c17.572 0 31.738 14.266 31.738 31.772-.001 17.573-14.167 31.773-31.74 31.773z"/></svg>