<svg class="icon" viewBox="0 0 1024 1024" xmlns="http://www.w3.org/2000/svg" width="200" height="200"><defs><style/></defs><path d="M625.889 516.224l-88.976-88.975a33.284 33.284 0 0 0-2.623-2.967c-12.46-12.459-32.271-12.848-44.25-.869l-.477.477c-.192.183-.389.361-.577.55s-.367.386-.55.578l-90.326 90.325c-11.98 11.98-11.59 31.791.869 44.25s32.27 12.849 44.25.869l38.068-38.068v342.64c0 16.956 13.746 30.702 30.702 30.702s30.702-13.746 30.702-30.703V523.275l38.068 38.068c11.98 11.98 31.791 11.59 44.25-.869 12.46-12.459 12.85-32.27.87-44.25z"/><path d="M703.512 320.477v-7.21c0-101.673-81.464-184.39-181.596-184.39h-19.833c-100.132 0-181.595 82.717-181.595 184.39v7.205h-.355c-105.611 0-191.532 85.92-191.532 191.532 0 105.612 85.92 191.532 191.532 191.532h30.8c16.954 0 30.699-13.745 30.699-30.699s-13.745-30.7-30.7-30.7h-30.799C248.377 642.138 190 583.76 190 512.005c0-71.756 58.378-130.134 130.134-130.134h29.79c.42.018.84.032 1.264.032 16.955 0 30.7-13.745 30.7-30.7v-37.934c0-67.819 53.92-122.993 120.196-122.993h19.833c66.277 0 120.197 55.174 120.197 122.993v31.945a30.877 30.877 0 0 0-.582 5.957c0 16.506 13.029 29.964 29.363 30.665.635.04 1.274.066 1.92.066.423 0 .844-.015 1.263-.032h28.954c71.756 0 130.135 58.378 130.135 130.134 0 71.756-58.379 130.134-130.135 130.134h-30.8c-16.955 0-30.7 13.745-30.7 30.7s13.745 30.698 30.7 30.698h30.8c105.611 0 191.533-85.92 191.533-191.532-.001-105.45-85.662-191.264-191.052-191.526z"/></svg>