<svg class="icon" width="48" height="48" viewBox="0 0 1024 1024" xmlns="http://www.w3.org/2000/svg"><path fill="#94A8C6" d="M1000.147 957.5L688.55 645.903c58.73-68.487 94.509-157.214 94.509-254.374C783.059 175.646 607.413 0 391.529 0 286.901 0 188.597 40.72 114.628 114.688 40.658 188.597 0 286.961 0 391.529c0 215.884 175.646 391.53 391.53 391.53 97.099 0 185.886-35.78 254.433-94.51l311.597 311.598 42.587-42.647zM391.529 722.824c-182.693 0-331.294-148.6-331.294-331.295 0-88.545 34.395-171.73 96.98-234.315 62.584-62.524 145.769-96.979 234.314-96.979 182.694 0 331.295 148.6 331.295 331.294s-148.6 331.295-331.295 331.295zm30.118-361.412h120.47v60.235h-120.47v120.47h-60.235v-120.47h-120.47v-60.235h120.47v-120.47h60.235v120.47z"/></svg>