<svg class="icon" width="48" height="48" viewBox="0 0 1024 1024" xmlns="http://www.w3.org/2000/svg"><path fill="#94A8C6" d="M999.344 955.926L688.26 644.84c58.633-68.375 94.354-157.016 94.354-253.955C782.613 175.357 607.256 0 391.728 0 287.33 0 189.128 40.652 115.22 114.44 41.434 188.286.781 286.49.841 390.885.842 606.414 176.2 781.77 391.729 781.77c96.94 0 185.64-35.72 254.015-94.354l311.085 311.085 42.516-42.576zM391.728 721.635c-182.334 0-330.75-148.356-330.75-330.75-.06-88.4 34.338-171.448 96.82-233.87 62.42-62.48 145.53-96.879 233.93-96.879 182.333 0 330.749 148.356 330.749 330.75 0 182.333-148.416 330.749-330.75 330.749zM241.387 360.817h300.681v60.137H241.387v-60.137z"/></svg>