<?xml version="1.0" standalone="no"?><!DOCTYPE svg PUBLIC "-//W3C//DTD SVG 1.1//EN" "http://www.w3.org/Graphics/SVG/1.1/DTD/svg11.dtd"><svg t="1591252803137" class="icon" viewBox="0 0 1024 1024" version="1.1" xmlns="http://www.w3.org/2000/svg" p-id="1310" width="200" height="200" xmlns:xlink="http://www.w3.org/1999/xlink"><defs><style type="text/css"></style></defs><path d="M56.89344 867.8912a385.6896 72.06912 0 1 0 771.3792 0 385.6896 72.06912 0 1 0-771.3792 0Z" fill="#F5F5F7" fill-opacity=".8" p-id="1311"></path><path d="M751.13472 656.1792L615.02464 488.66304c-6.53312-7.8848-16.0768-12.65664-26.13248-12.65664H296.26368c-10.05568 0-19.59936 4.77184-26.13248 12.65664L134.0416 656.1792v87.51104h617.09312v-87.51104z" fill="#AEB8C2" p-id="1312"></path><path d="M711.66976 750.27456L592.73216 607.41632a29.9008 29.9008 0 0 0-23.04-10.62912h-255.1808c-8.76544 0-17.33632 3.75808-23.04 10.62912l-118.92736 142.848v78.46912h539.12576v-78.45888z" fill="#000000" p-id="1313"></path><path d="M249.344 259.80928h386.46784c12.56448 0 22.75328 10.1888 22.75328 22.75328V813.58848a22.75328 22.75328 0 0 1-22.75328 22.75328h-386.4576a22.75328 22.75328 0 0 1-22.76352-22.75328V282.56256C226.59072 269.99808 236.77952 259.80928 249.344 259.80928z" fill="#F5F5F7" p-id="1314"></path><path d="M299.68384 316.43648h285.7984c6.27712 0 11.3664 5.08928 11.3664 11.3664v141.98784c0 6.27712-5.08928 11.3664-11.3664 11.3664H299.68384a11.37664 11.37664 0 0 1-11.37664-11.3664V327.80288c0-6.28736 5.08928-11.38688 11.37664-11.38688z m1.49504 226.48832h282.80832a12.87168 12.87168 0 0 1 0 25.74336H301.17888a12.87168 12.87168 0 0 1 0-25.74336z m0 66.9184h282.80832a12.87168 12.87168 0 0 1 0 25.74336H301.17888a12.87168 12.87168 0 1 1 0-25.74336z m448.69632 247.48032c-4.4032 17.46944-19.89632 30.49472-38.31808 30.49472H173.59872c-18.42176 0-33.8944-13.02528-38.2976-30.49472a41.63584 41.63584 0 0 1-1.26976-10.17856V656.1792h149.7088c16.54784 0 29.88032 13.9264 29.88032 30.83264v0.23552c0 16.896 13.47584 30.54592 30.01344 30.54592h197.888c16.5376 0 30.02368-13.7728 30.02368-30.67904v-0.07168c0-16.896 13.33248-30.86336 29.87008-30.86336h149.7088v190.976c0 3.50208-0.43008 6.912-1.24928 10.16832z" fill="#DCE0E6" p-id="1315"></path><path d="M768.68608 269.03552l-38.85056 15.08352a5.69344 5.69344 0 0 1-7.49568-7.00416l11.01824-35.30752c-14.72512-16.75264-23.37792-37.1712-23.37792-59.20768 0-56.86272 57.56928-102.95296 128.57344-102.95296 70.99392 0 128.55296 46.08 128.55296 102.95296 0 56.85248-57.5488 102.95296-128.5632 102.95296-25.7536 0-49.73568-6.07232-69.85728-16.51712z" fill="#DCE0E6" p-id="1316"></path><path d="M872.98048 185.16992a16.20992 16.01536 0 1 0 32.41984 0 16.20992 16.01536 0 1 0-32.41984 0Z" fill="#FFFFFF" p-id="1317"></path><path d="M804.11648 199.18848H771.69664L788.18304 171.15136l15.93344 28.02688zM824.3712 171.15136h28.3648v28.02688h-28.3648V171.15136z" fill="#FFFFFF" p-id="1318"></path></svg>