<svg xmlns="http://www.w3.org/2000/svg" xmlns:xlink="http://www.w3.org/1999/xlink" viewBox="0 0 200 200"><defs><path id="a" d="M33 32h137c6.6 0 12 5.4 12 12v88c0 6.6-5.4 12-12 12H33c-6.6 0-12-5.4-12-12V44c0-6.6 5.4-12 12-12z"/></defs><clipPath id="b"><use xlink:href="#a" overflow="visible"/></clipPath><g clip-path="url(#b)"><defs><path id="c" d="M2 3h200v200H2z"/></defs><clipPath id="d"><use xlink:href="#c" overflow="visible"/></clipPath><path d="M33 32h137c6.6 0 12 5.4 12 12v88c0 6.6-5.4 12-12 12H33c-6.6 0-12-5.4-12-12V44c0-6.6 5.4-12 12-12z" clip-path="url(#d)" fill="none" stroke="#3ea4fd" stroke-width="12" stroke-miterlimit="10"/></g><defs><path id="e" d="M99.4 140.9h4.2c.6 0 1 .4 1 1v22.9c0 .6-.4 1-1 1h-4.2c-.6 0-1-.4-1-1v-22.9c0-.6.5-1 1-1z"/></defs><clipPath id="f"><use xlink:href="#e" overflow="visible"/></clipPath><g clip-path="url(#f)"><defs><path id="g" d="M2 3h200v200H2z"/></defs><clipPath id="h"><use xlink:href="#g" overflow="visible"/></clipPath><path clip-path="url(#h)" fill="#3ea4fd" d="M93.4 135.9h16.2v34.9H93.4z"/></g><defs><path id="i" d="M143.5 167.3c0 1.7-1.4 3.1-3.1 3.1H62.6c-1.7 0-3.1-1.4-3.1-3.1 0-1.7 1.4-3.1 3.1-3.1h77.8c1.7 0 3.1 1.4 3.1 3.1z"/></defs><clipPath id="j"><use xlink:href="#i" overflow="visible"/></clipPath><g clip-path="url(#j)"><defs><path id="k" d="M2 3h200v200H2z"/></defs><clipPath id="l"><use xlink:href="#k" overflow="visible"/></clipPath><path clip-path="url(#l)" fill="#3ea4fd" d="M54.5 159.2h94v16.2h-94z"/></g><defs><path id="m" d="M58.2 60h86.7c1.7 0 3.1 1.4 3.1 3.1s-1.4 3.1-3.1 3.1H58.2c-1.7 0-3.1-1.4-3.1-3.1s1.4-3.1 3.1-3.1z"/></defs><clipPath id="n"><use xlink:href="#m" overflow="visible"/></clipPath><g clip-path="url(#n)"><defs><path id="o" d="M2 3h200v200H2z"/></defs><clipPath id="p"><use xlink:href="#o" overflow="visible"/></clipPath><path clip-path="url(#p)" fill="#3ea4fd" d="M50.1 55H153v16.2H50.1z"/></g><defs><ellipse id="q" cx="120.1" cy="63.1" rx="6.2" ry="6.2"/></defs><clipPath id="r"><use xlink:href="#q" overflow="visible"/></clipPath><g clip-path="url(#r)"><defs><path id="s" d="M2 3h200v200H2z"/></defs><clipPath id="t"><use xlink:href="#s" overflow="visible"/></clipPath><path clip-path="url(#t)" fill="#3ea4fd" d="M108.9 51.9h22.4v22.4h-22.4z"/></g><defs><path id="u" d="M58.2 84.9h86.7c1.7 0 3.1 1.4 3.1 3.1s-1.4 3.1-3.1 3.1H58.2c-1.7 0-3.1-1.4-3.1-3.1s1.4-3.1 3.1-3.1z"/></defs><clipPath id="v"><use xlink:href="#u" overflow="visible"/></clipPath><g clip-path="url(#v)"><defs><path id="w" d="M2 3h200v200H2z"/></defs><clipPath id="x"><use xlink:href="#w" overflow="visible"/></clipPath><path clip-path="url(#x)" fill="#3ea4fd" d="M50.1 79.9H153v16.2H50.1z"/></g><defs><ellipse id="y" cx="82.9" cy="88" rx="6.2" ry="6.2"/></defs><clipPath id="z"><use xlink:href="#y" overflow="visible"/></clipPath><g clip-path="url(#z)"><defs><path id="A" d="M2 3h200v200H2z"/></defs><clipPath id="B"><use xlink:href="#A" overflow="visible"/></clipPath><path clip-path="url(#B)" fill="#3ea4fd" d="M71.7 76.8h22.4v22.4H71.7z"/></g><defs><path id="C" d="M58.2 109.8h86.7c1.7 0 3.1 1.4 3.1 3.1 0 1.7-1.4 3.1-3.1 3.1H58.2c-1.7 0-3.1-1.4-3.1-3.1 0-1.7 1.4-3.1 3.1-3.1z"/></defs><clipPath id="D"><use xlink:href="#C" overflow="visible"/></clipPath><g clip-path="url(#D)"><defs><path id="E" d="M2 3h200v200H2z"/></defs><clipPath id="F"><use xlink:href="#E" overflow="visible"/></clipPath><path clip-path="url(#F)" fill="#3ea4fd" d="M50.1 104.8H153V121H50.1z"/></g><defs><ellipse id="G" cx="120.1" cy="112.9" rx="6.2" ry="6.2"/></defs><clipPath id="H"><use xlink:href="#G" overflow="visible"/></clipPath><g clip-path="url(#H)"><defs><path id="I" d="M2 3h200v200H2z"/></defs><clipPath id="J"><use xlink:href="#I" overflow="visible"/></clipPath><path clip-path="url(#J)" fill="#3ea4fd" d="M108.9 101.7h22.4v22.4h-22.4z"/></g></svg>