<?xml version="1.0" encoding="utf-8"?>
<!-- Generator: Adobe Illustrator 21.0.0, SVG Export Plug-In . SVG Version: 6.00 Build 0)  -->
<svg version="1.1" id="图层_1" xmlns="http://www.w3.org/2000/svg" xmlns:xlink="http://www.w3.org/1999/xlink" x="0px" y="0px"
	 viewBox="0 0 200 200" style="enable-background:new 0 0 200 200;" xml:space="preserve">
<style type="text/css">
	.st0{fill-rule:evenodd;clip-rule:evenodd;fill:none;stroke:#3FA4FD;stroke-width:12;stroke-miterlimit:10;}
	.st1{fill-rule:evenodd;clip-rule:evenodd;fill:#3FA4FD;}
</style>
<g>
	<path class="st0" d="M172.2,148.1h-145c-6.6,0-12-5.4-12-12V37.9c0-6.6,5.4-12,12-12h145c6.6,0,12,5.4,12,12v98.1
		C184.2,142.7,178.8,148.1,172.2,148.1z"/>
	<path class="st1" d="M151.1,64.1H48.2c-2.8,0-5.1-2.3-5.1-5.1v0c0-2.8,2.3-5.1,5.1-5.1h102.9c2.8,0,5.1,2.3,5.1,5.1v0
		C156.2,61.8,153.9,64.1,151.1,64.1z"/>
	<path class="st1" d="M151.1,91.3H48.2c-2.8,0-5.1-2.3-5.1-5.1v0c0-2.8,2.3-5.1,5.1-5.1h102.9c2.8,0,5.1,2.3,5.1,5.1v0
		C156.2,89.1,153.9,91.3,151.1,91.3z"/>
	<path class="st1" d="M151.1,120H48.2c-2.8,0-5.1-2.3-5.1-5.1v0c0-2.8,2.3-5.1,5.1-5.1h102.9c2.8,0,5.1,2.3,5.1,5.1v0
		C156.2,117.8,153.9,120,151.1,120z"/>
	<circle class="st1" cx="132" cy="59" r="10"/>
	<circle class="st1" cx="72" cy="86.3" r="10"/>
	<circle class="st1" cx="126" cy="115" r="10"/>
	<rect x="95.2" y="150" class="st1" width="9" height="23"/>
	<path class="st1" d="M145.7,183h-92c-3.6,0-6.5-2.9-6.5-6.5l0,0c0-3.6,2.9-6.5,6.5-6.5h92c3.6,0,6.5,2.9,6.5,6.5l0,0
		C152.2,180.1,149.2,183,145.7,183z"/>
</g>
</svg>
