<?xml version="1.0" encoding="UTF-8"?>
<svg width="32px" height="32px" viewBox="0 0 32 32" version="1.1" xmlns="http://www.w3.org/2000/svg" xmlns:xlink="http://www.w3.org/1999/xlink">
    <!-- Generator: Sketch 55.2 (78181) - https://sketchapp.com -->
    <title>jw_icon</title>
    <desc>Created with Sketch.</desc>
    <g id="icon" stroke="none" stroke-width="1" fill="none" fill-rule="evenodd">
        <g id="精确匹配" transform="translate(-133.000000, -84.000000)" fill="#979797" fill-rule="nonzero">
            <g id="jw_icon" transform="translate(133.000000, 84.000000)">
                <path d="M23.1843552,15.9663086 L21.9404116,14.7223651 C21.7451495,14.5271029 21.7451495,14.2105204 21.9404116,14.0152583 C22.1356738,13.8199961 22.4522563,13.8199961 22.6475184,14.0152583 L24.5,15.8677399 L24.5,10.5 C24.5,10.2238576 24.7238576,10 25,10 C25.2761424,10 25.5,10.2238576 25.5,10.5 L25.5,22.5 C25.5,22.7761424 25.2761424,23 25,23 C24.7238576,23 24.5,22.7761424 24.5,22.5 L24.5,17.0172305 L22.5998716,18.9173589 C22.4046094,19.1126211 22.0880269,19.1126211 21.8927648,18.9173589 C21.6975026,18.7220968 21.6975026,18.4055143 21.8927648,18.2102521 L23.1367083,16.9663086 L20,16.9663086 C19.7238576,16.9663086 19.5,16.742451 19.5,16.4663086 C19.5,16.1901662 19.7238576,15.9663086 20,15.9663086 L23.1843552,15.9663086 Z M8.75,13 L9.99,13 L12.74,20.14 L11.57,20.14 L10.9,18.3 L7.83,18.3 L7.16,20.14 L6,20.14 L8.75,13 Z M8.16,17.4 L10.57,17.4 L9.39,14.17 L9.35,14.17 L8.16,17.4 Z M16.2255559,14.83 C16.9855559,14.83 17.5455559,15.02 17.9055559,15.4 C18.2155559,15.73 18.3755559,16.21 18.3755559,16.84 L18.3755559,20.14 L17.3955559,20.14 L17.3955559,19.41 C17.1955559,19.67 16.9455559,19.88 16.6455559,20.03 C16.3055559,20.19 15.9055559,20.28 15.4455559,20.28 C14.9055559,20.28 14.4855559,20.14 14.1855559,19.87 C13.8555559,19.6 13.6955559,19.25 13.6955559,18.82 C13.6955559,18.24 13.9255559,17.79 14.3855559,17.48 C14.8055559,17.18 15.4055559,17.03 16.1655559,17.01 L17.3255559,16.98 L17.3255559,16.77 C17.3255559,16.05 16.9355559,15.69 16.1555559,15.69 C15.8255559,15.69 15.5555559,15.75 15.3555559,15.87 C15.1155559,16.01 14.9655559,16.22 14.9055559,16.51 L13.8555559,16.42 C13.9655559,15.86 14.2455559,15.44 14.6855559,15.18 C15.0655559,14.94 15.5855559,14.83 16.2255559,14.83 Z M17.3255559,17.75 L16.2355559,17.78 C15.2655559,17.8 14.7855559,18.14 14.7855559,18.78 C14.7855559,18.98 14.8655559,19.14 15.0355559,19.27 C15.1955559,19.4 15.4155559,19.47 15.6855559,19.47 C16.1355559,19.47 16.5155559,19.33 16.8355559,19.06 C17.1555559,18.79 17.3255559,18.45 17.3255559,18.05 L17.3255559,17.75 Z"></path>
            </g>
        </g>
    </g>
</svg>