<?xml version="1.0" standalone="no"?><!DOCTYPE svg PUBLIC "-//W3C//DTD SVG 1.1//EN" "http://www.w3.org/Graphics/SVG/1.1/DTD/svg11.dtd"><svg t="1550733934236" class="icon" style="" viewBox="0 0 1024 1024" version="1.1" xmlns="http://www.w3.org/2000/svg" p-id="2069" xmlns:xlink="http://www.w3.org/1999/xlink" width="200" height="200"><defs><style type="text/css"></style></defs><path d="M326.528 834.752a32 32 0 1 1-25.856 58.496L64 788.864V239.36l194.88-137.6a32 32 0 1 1 36.928 52.288L128 272.64v474.56l198.528 87.616z m370.944 0L896 747.136V272.64L728.32 154.24a32 32 0 0 1 36.864-52.288L960 239.36v549.44l-236.672 104.384a32 32 0 0 1-25.856-58.496zM299.2 555.2a64 64 0 1 1 0-128 64 64 0 0 1 0 128z m199.872 0a64 64 0 1 1 0-128 64 64 0 0 1 0 128z m208.64 0a64 64 0 1 1 0-128 64 64 0 0 1 0 128z" fill="#dbdbdb" p-id="2070"></path></svg>