<?xml version="1.0" encoding="UTF-8"?>
<svg width="32px" height="32px" viewBox="0 0 32 32" version="1.1" xmlns="http://www.w3.org/2000/svg" xmlns:xlink="http://www.w3.org/1999/xlink">
    <!-- Generator: Sketch 55.2 (78181) - https://sketchapp.com -->
    <title>jqpp_icon</title>
    <desc>Created with Sketch.</desc>
    <g id="icon" stroke="none" stroke-width="1" fill="none" fill-rule="evenodd">
        <g id="精确匹配" transform="translate(-160.000000, -84.000000)" fill="#979797" fill-rule="nonzero">
            <g id="jqpp_icon" transform="translate(160.000000, 84.000000)">
                <path d="M12.75,13 L13.99,13 L16.74,20.14 L15.57,20.14 L14.9,18.3 L11.83,18.3 L11.16,20.14 L10,20.14 L12.75,13 Z M12.16,17.4 L14.57,17.4 L13.39,14.17 L13.35,14.17 L12.16,17.4 Z M20.2255559,14.83 C20.9855559,14.83 21.5455559,15.02 21.9055559,15.4 C22.2155559,15.73 22.3755559,16.21 22.3755559,16.84 L22.3755559,20.14 L21.3955559,20.14 L21.3955559,19.41 C21.1955559,19.67 20.9455559,19.88 20.6455559,20.03 C20.3055559,20.19 19.9055559,20.28 19.4455559,20.28 C18.9055559,20.28 18.4855559,20.14 18.1855559,19.87 C17.8555559,19.6 17.6955559,19.25 17.6955559,18.82 C17.6955559,18.24 17.9255559,17.79 18.3855559,17.48 C18.8055559,17.18 19.4055559,17.03 20.1655559,17.01 L21.3255559,16.98 L21.3255559,16.77 C21.3255559,16.05 20.9355559,15.69 20.1555559,15.69 C19.8255559,15.69 19.5555559,15.75 19.3555559,15.87 C19.1155559,16.01 18.9655559,16.22 18.9055559,16.51 L17.8555559,16.42 C17.9655559,15.86 18.2455559,15.44 18.6855559,15.18 C19.0655559,14.94 19.5855559,14.83 20.2255559,14.83 Z M21.3255559,17.75 L20.2355559,17.78 C19.2655559,17.8 18.7855559,18.14 18.7855559,18.78 C18.7855559,18.98 18.8655559,19.14 19.0355559,19.27 C19.1955559,19.4 19.4155559,19.47 19.6855559,19.47 C20.1355559,19.47 20.5155559,19.33 20.8355559,19.06 C21.1555559,18.79 21.3255559,18.45 21.3255559,18.05 L21.3255559,17.75 Z M22.5,10 C22.7761424,10 23,10.2238576 23,10.5 C23,10.7761424 22.7761424,11 22.5,11 L10.5,11 C10.2238576,11 10,10.7761424 10,10.5 C10,10.2238576 10.2238576,10 10.5,10 L22.5,10 Z M22.5,22 C22.7761424,22 23,22.2238576 23,22.5 C23,22.7761424 22.7761424,23 22.5,23 L10.5,23 C10.2238576,23 10,22.7761424 10,22.5 C10,22.2238576 10.2238576,22 10.5,22 L22.5,22 Z" id="kt_icon"></path>
            </g>
        </g>
    </g>
</svg>