<?xml version="1.0" encoding="UTF-8"?>
<svg width="32px" height="32px" viewBox="0 0 32 32" version="1.1" xmlns="http://www.w3.org/2000/svg" xmlns:xlink="http://www.w3.org/1999/xlink">
    <!-- Generator: Sketch 55.2 (78181) - https://sketchapp.com -->
    <title>kt_icon</title>
    <desc>Created with Sketch.</desc>
    <g id="icon" stroke="none" stroke-width="1" fill="none" fill-rule="evenodd">
        <g id="精确匹配" transform="translate(-93.000000, -84.000000)" fill="#979797" fill-rule="nonzero">
            <g id="kt_icon" transform="translate(93.000000, 84.000000)">
                <path d="M9.24988836,16.9663086 L10.4938319,18.2102521 C10.689094,18.4055143 10.689094,18.7220968 10.4938319,18.9173589 C10.2985697,19.1126211 9.98198726,19.1126211 9.78672511,18.9173589 L8.11645508,17.2470889 L8.11645508,22.5 C8.11645508,22.7761424 7.89259745,23 7.61645508,23 C7.3403127,23 7.11645508,22.7761424 7.11645508,22.5 L7.11645508,10.5 C7.11645508,10.2238576 7.3403127,10 7.61645508,10 C7.89259745,10 8.11645508,10.2238576 8.11645508,10.5 L8.11645508,15.6378815 L9.73907827,14.0152583 C9.93434041,13.8199961 10.2509229,13.8199961 10.446185,14.0152583 C10.6414472,14.2105204 10.6414472,14.5271029 10.446185,14.7223651 L9.20224152,15.9663086 L12.213952,15.9663086 C12.4900944,15.9663086 12.713952,16.1901662 12.713952,16.4663086 C12.713952,16.742451 12.4900944,16.9663086 12.213952,16.9663086 L9.24988836,16.9663086 Z M15.3664551,13 L16.6064551,13 L19.3564551,20.14 L18.1864551,20.14 L17.5164551,18.3 L14.4464551,18.3 L13.7764551,20.14 L12.6164551,20.14 L15.3664551,13 Z M14.7764551,17.4 L17.1864551,17.4 L16.0064551,14.17 L15.9664551,14.17 L14.7764551,17.4 Z M22.842011,14.83 C23.602011,14.83 24.162011,15.02 24.522011,15.4 C24.832011,15.73 24.992011,16.21 24.992011,16.84 L24.992011,20.14 L24.012011,20.14 L24.012011,19.41 C23.812011,19.67 23.562011,19.88 23.262011,20.03 C22.922011,20.19 22.522011,20.28 22.062011,20.28 C21.522011,20.28 21.102011,20.14 20.802011,19.87 C20.472011,19.6 20.312011,19.25 20.312011,18.82 C20.312011,18.24 20.542011,17.79 21.002011,17.48 C21.422011,17.18 22.022011,17.03 22.782011,17.01 L23.942011,16.98 L23.942011,16.77 C23.942011,16.05 23.552011,15.69 22.772011,15.69 C22.442011,15.69 22.172011,15.75 21.972011,15.87 C21.732011,16.01 21.582011,16.22 21.522011,16.51 L20.472011,16.42 C20.582011,15.86 20.862011,15.44 21.302011,15.18 C21.682011,14.94 22.202011,14.83 22.842011,14.83 Z M23.942011,17.75 L22.852011,17.78 C21.882011,17.8 21.402011,18.14 21.402011,18.78 C21.402011,18.98 21.482011,19.14 21.652011,19.27 C21.812011,19.4 22.032011,19.47 22.302011,19.47 C22.752011,19.47 23.132011,19.33 23.452011,19.06 C23.772011,18.79 23.942011,18.45 23.942011,18.05 L23.942011,17.75 Z"></path>
            </g>
        </g>
    </g>
</svg>